<svg id="Layer_1" data-name="Layer 1" xmlns="http://www.w3.org/2000/svg" viewBox="0 0 125.12 40.43"><defs><style>.cls-1{isolation:isolate;}.cls-2{fill:#7947e8;}.cls-3{fill:#eb628c;}.cls-4{fill:#34c0f7;}</style></defs><g id="trivia" class="cls-1"><g class="cls-1"><path class="cls-2" d="M7.06,56.55V42.47h-5V38h5V29h5.32v9h8v4.43h-8V56c0,2.21.35,3.73,1,4.56a3.61,3.61,0,0,0,2.93,1.24,6.28,6.28,0,0,0,2.57-.47,6.94,6.94,0,0,0,2-1.42l2.43,3.25a11.62,11.62,0,0,1-3.52,2.4,11.4,11.4,0,0,1-4.29.73c-2.88,0-5-.79-6.39-2.39S7.06,59.87,7.06,56.55Z" transform="translate(-2.09 -25.89)"/><path class="cls-2" d="M32.73,65.55H27.41V39.75q0-.53-.06-1.71h5.09l.17,4.43a14.8,14.8,0,0,1,1.81-2.07,10.39,10.39,0,0,1,2.93-1.95,11.25,11.25,0,0,1,5.88-.71,7.44,7.44,0,0,1,1.39.36l-1.18,5a7.51,7.51,0,0,0-2.72-.42,7.34,7.34,0,0,0-4,1.16,8.48,8.48,0,0,0-3.94,7.24Z" transform="translate(-2.09 -25.89)"/><path class="cls-2" d="M48.82,33.13v-6h6v6Zm.36,32.42V38H54.5V65.55Z" transform="translate(-2.09 -25.89)"/><path class="cls-2" d="M70.59,65.55,58.76,38h6.09l8.58,21.47L82,38h5.74L75.92,65.55Z" transform="translate(-2.09 -25.89)"/><path class="cls-2" d="M91.65,33.13v-6h6v6ZM92,65.55V38h5.32V65.55Z" transform="translate(-2.09 -25.89)"/><path class="cls-2" d="M122.24,65.55l-.12-3.32a9.17,9.17,0,0,1-4.05,3.05,13.82,13.82,0,0,1-5.18,1,12.74,12.74,0,0,1-4.47-.82,7.66,7.66,0,0,1-5.11-7.75,8.83,8.83,0,0,1,3.13-7.1c2.09-1.78,5.07-2.66,8.93-2.66.87,0,1.77,0,2.7.08l2.51.18c.75.06,1.24.11,1.48.15v-1q0-3.08-1.86-4.4a8.55,8.55,0,0,0-5.06-1.33,12,12,0,0,0-4.94.85,20.16,20.16,0,0,0-3.11,1.75l-2.48-3.61a17.79,17.79,0,0,1,4.08-2.31,18.08,18.08,0,0,1,7-1.12q5.26,0,8.34,2.57a9,9,0,0,1,3.08,7.31v17c0,.39,0,.86.06,1.42Zm-.18-9.88V52.53a6,6,0,0,0-1.36-.21l-2.4-.17c-.88-.06-1.74-.09-2.57-.09a9.54,9.54,0,0,0-4.53.86,4.66,4.66,0,0,0-2.13,2.13,6.2,6.2,0,0,0-.56,2.51,4,4,0,0,0,1.54,3.37,6.85,6.85,0,0,0,4.26,1.18,8.13,8.13,0,0,0,3.82-.91A8.31,8.31,0,0,0,121,58.8,5.22,5.22,0,0,0,122.06,55.67Z" transform="translate(-2.09 -25.89)"/></g></g><g id="Ellipse_11" data-name="Ellipse 11"><ellipse class="cls-3" cx="92.67" cy="4.46" rx="4.57" ry="4.46"/></g><g id="Ellipse_12" data-name="Ellipse 12"><ellipse class="cls-4" cx="49.8" cy="4.55" rx="4.57" ry="4.46"/></g></svg>