<svg id="Layer_1" data-name="Layer 1" xmlns="http://www.w3.org/2000/svg" viewBox="0 0 745.82 145.9"><defs><style>.cls-1{fill:#69c1ed;}</style></defs><path class="cls-1" d="M5.35,6.68H22V37h.23L41.82,6.68H60.17L36.84,39,61.42,74.64H43.07l-20.84-33H22v33H5.35Z"/><path class="cls-1" d="M97.32,4.41h2.94l33.3,70.23H115.67l-3.4-7H85.43l-3.29,7H64.25Zm9.29,51.31L98.79,38.51h-.22L90.64,55.72Z"/><path class="cls-1" d="M140.81,6.68h28.43c13.93,0,22.09,10.31,22.09,21.75,0,12.68-9.52,21.74-22.09,21.74H157.35V74.64H140.81ZM167.65,35.9c4.31,0,6.69-4,6.69-7.93,0-3.73-2.27-7.13-6.69-7.13h-10.3V35.9Z"/><path class="cls-1" d="M202,6.68H230.4c13.93,0,22.09,10.31,22.09,21.75,0,12.68-9.52,21.74-22.09,21.74H218.51V74.64H202ZM228.81,35.9c4.31,0,6.69-4,6.69-7.93,0-3.73-2.27-7.13-6.69-7.13h-10.3V35.9Z"/><path class="cls-1" d="M277.86,4.41h2.94l33.3,70.23H296.21l-3.4-7H266l-3.28,7h-17.9Zm9.29,51.31-7.82-17.21h-.23l-7.93,17.21Z"/><path class="cls-1" d="M357.71,21.4H342.53V6.68h47.34V21.4h-15.4V74.64H357.71Z"/><path class="cls-1" d="M397.57,6.68h16.65V33.41h26.62V6.68h16.54v68H440.84V47.79H414.22V74.64H397.57Z"/><path class="cls-1" d="M468.25,6.68h45V21.4H484.9V33.64h26.16V48.13H484.9V60.37h29.56V74.64H468.25Z"/><path class="cls-1" d="M534.5,21.4H519.33V6.68h47.34V21.4h-15.4V74.64H534.5Z"/><path class="cls-1" d="M593.63,4.41h2.94l33.3,70.23H612l-3.4-7H581.73l-3.28,7h-17.9Zm9.28,51.31L595.1,38.51h-.23l-7.93,17.21Z"/><path class="cls-1" d="M663.73,6.68h28.43c13.93,0,22.09,10.31,22.09,21.75,0,12.68-9.51,21.74-22.09,21.74H680.27V74.64H663.73ZM690.58,35.9c4.3,0,6.68-4,6.68-7.93,0-3.73-2.27-7.13-6.68-7.13H680.27V35.9Z"/><path class="cls-1" d="M724.89,6.68h16.65v68H724.89Z"/><path class="cls-1" d="M22.63,112.68c0,5.44-4.44,9-11.12,9H7.75v10H4v-28h7.56C18.19,103.65,22.63,107.24,22.63,112.68Zm-3.88,0c0-3.6-2.92-5.52-7.24-5.52H7.75v11h3.76C15.83,118.16,18.75,116.24,18.75,112.68Z"/><path class="cls-1" d="M41.63,111.12v4a2.48,2.48,0,0,0-1.28-.28c-3.44,0-5.72,2.88-7.36,6v10.76H29.43v-20.4H33v6.28c1.72-3.48,4-6.76,6.92-6.76A3.44,3.44,0,0,1,41.63,111.12Z"/><path class="cls-1" d="M45.83,121.4a10.56,10.56,0,0,1,10.84-10.64A10.68,10.68,0,1,1,45.83,121.4Zm18.08,0A7.25,7.25,0,1,0,56.67,129,7.37,7.37,0,0,0,63.91,121.4Z"/><path class="cls-1" d="M79.23,109.88v1.36h8.36l-1.12,3H79.23v17.36H75.71V114.28H72.35v-3h3.36V109.8c0-4.91,2.4-8.63,7.64-8.63a10.79,10.79,0,0,1,4.76.92v3.16a9.81,9.81,0,0,0-4.28-.92C80.47,104.33,79.23,106.92,79.23,109.88Z"/><path class="cls-1" d="M109.67,123.12H94.23c.64,3.56,3.12,5.84,7.2,5.84a17.17,17.17,0,0,0,7.12-1.8v3.24a18.23,18.23,0,0,1-7.6,1.72c-6.76,0-10.47-4.72-10.47-10.84s3.83-10.52,10.11-10.52c5.8,0,9.12,4,9.12,11.12A10.54,10.54,0,0,1,109.67,123.12Zm-15.56-3h12c-.2-3.56-1.92-6.16-5.56-6.16C96.79,113.92,94.51,116.32,94.11,120.08Z"/><path class="cls-1" d="M116.43,130.44l-.8-4.08.12-.08A11.25,11.25,0,0,0,123,129c2.56,0,5.12-1,5.12-3,0-1-.6-1.76-2.24-2.28l-6.36-1.88a5.17,5.17,0,0,1-3.56-5c0-4,3.36-6,8.24-6a15.79,15.79,0,0,1,6.52,1.36v3.44a12.84,12.84,0,0,0-6.52-1.64c-2.84,0-4.64,1-4.64,2.68a2.55,2.55,0,0,0,2,2.56l6.24,1.68a5.19,5.19,0,0,1,3.88,5.24c0,3.92-3.32,6-8.72,6A13.62,13.62,0,0,1,116.43,130.44Z"/><path class="cls-1" d="M138.23,130.44l-.8-4.08.12-.08a11.25,11.25,0,0,0,7.24,2.68c2.56,0,5.12-1,5.12-3,0-1-.6-1.76-2.24-2.28l-6.36-1.88a5.17,5.17,0,0,1-3.56-5c0-4,3.36-6,8.24-6a15.79,15.79,0,0,1,6.52,1.36v3.44a12.84,12.84,0,0,0-6.52-1.64c-2.84,0-4.64,1-4.64,2.68a2.55,2.55,0,0,0,2,2.56l6.24,1.68a5.19,5.19,0,0,1,3.88,5.24c0,3.92-3.32,6-8.72,6A13.62,13.62,0,0,1,138.23,130.44Z"/><path class="cls-1" d="M160.27,104.09a2.34,2.34,0,0,1,2.36-2.36,2.31,2.31,0,0,1,2.36,2.36,2.38,2.38,0,0,1-2.36,2.35A2.36,2.36,0,0,1,160.27,104.09Zm.56,7.15h3.56v20.4h-3.56Z"/><path class="cls-1" d="M171.79,121.4a10.84,10.84,0,1,1,10.84,10.72A10.56,10.56,0,0,1,171.79,121.4Zm18.08,0a7.25,7.25,0,1,0-7.24,7.56A7.37,7.37,0,0,0,189.87,121.4Z"/><path class="cls-1" d="M218.71,119.32v12.32h-3.52V119.28c0-3.2-1.88-5.36-4.76-5.36a7.8,7.8,0,0,0-6,3.72v14h-3.56v-20.4H204l.24,4.16a8.46,8.46,0,0,1,7.08-4.64C215.83,110.76,218.71,114.12,218.71,119.32Z"/><path class="cls-1" d="M245.11,121.2v10.44h-3l-.24-4.32a10,10,0,0,1-8.2,4.8c-4.68,0-7.84-2.76-7.84-6.72,0-4.24,3.64-7,8.6-7a12,12,0,0,1,7.16,2.28v0c0-5.12-3.32-6.72-6.92-6.72a16.78,16.78,0,0,0-7,1.68v-3.12a18.18,18.18,0,0,1,7.88-1.72C241.31,110.76,245.11,114,245.11,121.2Zm-3.64,2.44a10.79,10.79,0,0,0-6.72-2.24c-3.2,0-5.32,1.44-5.32,3.76s2,3.8,5,3.8A8,8,0,0,0,241.47,123.64Z"/><path class="cls-1" d="M253.79,101.65h3.56v30h-3.56Z"/><path class="cls-1" d="M298.55,107.16h-9.8v24.48H285V107.16h-9.88v-3.51h23.48Z"/><path class="cls-1" d="M318.15,123.12H302.71c.64,3.56,3.12,5.84,7.2,5.84a17.17,17.17,0,0,0,7.12-1.8v3.24a18.23,18.23,0,0,1-7.6,1.72c-6.76,0-10.48-4.72-10.48-10.84s3.84-10.52,10.12-10.52c5.8,0,9.12,4,9.12,11.12A10.54,10.54,0,0,1,318.15,123.12Zm-15.56-3h12c-.2-3.56-1.92-6.16-5.56-6.16C305.27,113.92,303,116.32,302.59,120.08Z"/><path class="cls-1" d="M324.07,121.4c0-6.4,5-10.64,11.24-10.64a10.9,10.9,0,0,1,6.92,2.28l-1.08,2.88-.2,0a8.3,8.3,0,0,0-5.56-2,7.46,7.46,0,0,0-7.72,7.52c0,4.48,3.52,7.52,8,7.52,1.68,0,3.48-.44,6.48-1.8v3.24a15.11,15.11,0,0,1-6.76,1.72C329.11,132.12,324.07,127.84,324.07,121.4Z"/><path class="cls-1" d="M367.23,119.32v12.32h-3.52V119.28c0-3.24-1.88-5.36-4.76-5.36a7.8,7.8,0,0,0-6,3.72v14h-3.56v-30H353V115a8.39,8.39,0,0,1,6.84-4.2C364.35,110.76,367.23,114.12,367.23,119.32Z"/><path class="cls-1" d="M393.83,119.32v12.32h-3.52V119.28c0-3.2-1.88-5.36-4.76-5.36a7.8,7.8,0,0,0-6,3.72v14H376v-20.4h3.08l.24,4.16a8.46,8.46,0,0,1,7.08-4.64C391,110.76,393.83,114.12,393.83,119.32Z"/><path class="cls-1" d="M401,121.4a10.84,10.84,0,1,1,10.84,10.72A10.56,10.56,0,0,1,401,121.4Zm18.08,0a7.25,7.25,0,1,0-7.24,7.56A7.37,7.37,0,0,0,419,121.4Z"/><path class="cls-1" d="M430,101.65h3.56v30H430Z"/><path class="cls-1" d="M441,121.4a10.84,10.84,0,1,1,10.84,10.72A10.56,10.56,0,0,1,441,121.4Zm18.08,0a7.25,7.25,0,1,0-7.24,7.56A7.37,7.37,0,0,0,459.07,121.4Z"/><path class="cls-1" d="M489.51,111.4v19.44c0,5.88-4.76,9.08-10.8,9.08a19.13,19.13,0,0,1-8.28-2V134.8a19.7,19.7,0,0,0,8.28,2c4,0,7.28-2,7.28-6.84v-1.16a8.94,8.94,0,0,1-7.28,3.36c-5.76,0-10.2-4.28-10.2-10.68s4.48-10.68,10.4-10.68a17.08,17.08,0,0,1,7.4,1.8,2.8,2.8,0,0,1,2-1.6ZM486,126V115.2a17.69,17.69,0,0,0-6.16-1.28,7.34,7.34,0,0,0-7.72,7.52,7.22,7.22,0,0,0,7.4,7.52A8.62,8.62,0,0,0,486,126Z"/><path class="cls-1" d="M516.67,111.24v.32l-12.52,27.88h-3.8l4-9-8.64-18.84v-.32h3.68l7,14.92L513,111.24Z"/><path class="cls-1" d="M539,107.16v9h11v3.48H539v12h-3.8v-28h16v3.51Z"/><path class="cls-1" d="M569.75,111.12v4a2.48,2.48,0,0,0-1.28-.28c-3.44,0-5.72,2.88-7.36,6v10.76h-3.56v-20.4h3.56v6.28c1.72-3.48,4-6.76,6.92-6.76A3.44,3.44,0,0,1,569.75,111.12Z"/><path class="cls-1" d="M593.43,121.2v10.44h-3l-.24-4.32a10,10,0,0,1-8.2,4.8c-4.68,0-7.84-2.76-7.84-6.72,0-4.24,3.64-7,8.6-7a12,12,0,0,1,7.16,2.28v0c0-5.12-3.32-6.72-6.92-6.72a16.78,16.78,0,0,0-7,1.68v-3.12a18.18,18.18,0,0,1,7.88-1.72C589.63,110.76,593.43,114,593.43,121.2Zm-3.64,2.44a10.79,10.79,0,0,0-6.72-2.24c-3.2,0-5.32,1.44-5.32,3.76s2,3.8,5,3.8A8,8,0,0,0,589.79,123.64Z"/><path class="cls-1" d="M615.75,128v3.16a10.79,10.79,0,0,1-4.76.92c-5.24,0-7.64-3.72-7.64-8.64v-9.2H599v-3h4.4v-6.07l3.52-.88v6.95h8.6l-1.08,3h-7.52v9.12c0,3,1.24,5.56,4.6,5.56A9.81,9.81,0,0,0,615.75,128Z"/><path class="cls-1" d="M639.23,123.12H623.79c.64,3.56,3.12,5.84,7.2,5.84a17.17,17.17,0,0,0,7.12-1.8v3.24a18.23,18.23,0,0,1-7.6,1.72c-6.76,0-10.48-4.72-10.48-10.84s3.84-10.52,10.12-10.52c5.8,0,9.12,4,9.12,11.12A10.54,10.54,0,0,1,639.23,123.12Zm-15.56-3h12c-.2-3.56-1.92-6.16-5.56-6.16C626.35,113.92,624.07,116.32,623.67,120.08Z"/><path class="cls-1" d="M659,111.12v4a2.48,2.48,0,0,0-1.28-.28c-3.44,0-5.72,2.88-7.36,6v10.76h-3.56v-20.4h3.56v6.28c1.72-3.48,4-6.76,6.92-6.76A3.44,3.44,0,0,1,659,111.12Z"/><path class="cls-1" d="M683.23,119.32v12.32h-3.52V119.28c0-3.2-1.88-5.36-4.76-5.36a7.8,7.8,0,0,0-6,3.72v14h-3.56v-20.4h3.08l.24,4.16a8.46,8.46,0,0,1,7.08-4.64C680.35,110.76,683.23,114.12,683.23,119.32Z"/><path class="cls-1" d="M691.43,104.09a2.34,2.34,0,0,1,2.36-2.36,2.31,2.31,0,0,1,2.36,2.36,2.38,2.38,0,0,1-2.36,2.35A2.36,2.36,0,0,1,691.43,104.09Zm.56,7.15h3.56v20.4H692Z"/><path class="cls-1" d="M718.71,128v3.16a10.79,10.79,0,0,1-4.76.92c-5.24,0-7.64-3.72-7.64-8.64v-9.2h-4.4v-3h4.4v-6.07l3.52-.88v6.95h8.6l-1.08,3h-7.52v9.12c0,3,1.24,5.56,4.6,5.56A9.81,9.81,0,0,0,718.71,128Z"/><path class="cls-1" d="M743.14,111.24v.32l-12.51,27.88h-3.8l4-9-8.64-18.84v-.32h3.68l7,14.92,6.56-14.92Z"/></svg>