<svg xmlns="http://www.w3.org/2000/svg" xmlns:xlink="http://www.w3.org/1999/xlink" viewBox="0 0 698.05 123.85"><defs><style>.cls-1{isolation:isolate;}.cls-2{opacity:0.63;mix-blend-mode:overlay;}.cls-3{fill:url(#linear-gradient);}.cls-4{fill:url(#linear-gradient-2);}.cls-5{fill:url(#linear-gradient-3);}.cls-6{fill:url(#linear-gradient-4);}.cls-7{fill:url(#linear-gradient-5);}.cls-8{fill:url(#linear-gradient-6);}.cls-9{fill:url(#linear-gradient-7);}.cls-10{fill:url(#linear-gradient-8);}.cls-11{fill:url(#linear-gradient-9);}.cls-12{fill:url(#linear-gradient-10);}.cls-13{fill:url(#linear-gradient-11);}.cls-14{fill:url(#linear-gradient-12);}.cls-15{fill:url(#linear-gradient-13);}.cls-16{fill:url(#linear-gradient-14);}.cls-17{fill:url(#linear-gradient-15);}.cls-18{fill:url(#linear-gradient-16);}.cls-19{fill:url(#linear-gradient-17);}.cls-20{fill:url(#linear-gradient-18);}.cls-21{fill:url(#linear-gradient-19);}.cls-22{fill:#e7953f;}</style><linearGradient id="linear-gradient" x1="291.38" y1="17.64" x2="319.76" y2="120.29" gradientUnits="userSpaceOnUse"><stop offset="0" stop-color="#e5a43e"/><stop offset="0.62" stop-color="#e85e3d"/><stop offset="1" stop-color="#ebabab"/></linearGradient><linearGradient id="linear-gradient-2" x1="248.6" y1="27.99" x2="269.9" y2="105.05" xlink:href="#linear-gradient"/><linearGradient id="linear-gradient-3" x1="336.96" y1="9.67" x2="369.88" y2="128.71" xlink:href="#linear-gradient"/><linearGradient id="linear-gradient-4" x1="385.03" y1="23.94" x2="411.14" y2="118.36" xlink:href="#linear-gradient"/><linearGradient id="linear-gradient-5" x1="428.64" y1="29.66" x2="448.25" y2="100.57" xlink:href="#linear-gradient"/><linearGradient id="linear-gradient-6" x1="466.16" y1="35.46" x2="483.44" y2="97.97" xlink:href="#linear-gradient"/><linearGradient id="linear-gradient-7" x1="507.47" y1="44.89" x2="521.92" y2="97.15" xlink:href="#linear-gradient"/><linearGradient id="linear-gradient-8" x1="544.56" y1="49.08" x2="557.33" y2="95.3" xlink:href="#linear-gradient"/><linearGradient id="linear-gradient-9" x1="582.75" y1="53.02" x2="593.36" y2="91.39" xlink:href="#linear-gradient"/><linearGradient id="linear-gradient-10" x1="614.32" y1="56.08" x2="623.73" y2="90.1" xlink:href="#linear-gradient"/><linearGradient id="linear-gradient-11" x1="646.05" y1="58.96" x2="654.01" y2="87.76" xlink:href="#linear-gradient"/><linearGradient id="linear-gradient-12" x1="677.51" y1="61.17" x2="684.6" y2="86.83" xlink:href="#linear-gradient"/><linearGradient id="linear-gradient-13" x1="41.88" y1="53.98" x2="49.84" y2="82.77" xlink:href="#linear-gradient"/><linearGradient id="linear-gradient-14" x1="11.28" y1="54.9" x2="18.38" y2="80.56" xlink:href="#linear-gradient"/><linearGradient id="linear-gradient-15" x1="173.97" y1="44.58" x2="188.42" y2="96.84" xlink:href="#linear-gradient"/><linearGradient id="linear-gradient-16" x1="138.55" y1="46.43" x2="151.33" y2="92.65" xlink:href="#linear-gradient"/><linearGradient id="linear-gradient-17" x1="102.53" y1="50.34" x2="113.13" y2="88.7" xlink:href="#linear-gradient"/><linearGradient id="linear-gradient-18" x1="72.16" y1="51.63" x2="81.57" y2="85.65" xlink:href="#linear-gradient"/><linearGradient id="linear-gradient-19" x1="210.51" y1="38.43" x2="227.79" y2="100.94" xlink:href="#linear-gradient"/></defs><g class="cls-1"><g id="Layer_1" data-name="Layer 1"><g class="cls-2"><path class="cls-3" d="M309.39,123.13a.62.62,0,0,1-.32-.09c-.76-.49-.87-3-1-12.62,0-3.49-.09-7.45-.22-11.64-.23-7.5-.16-10-.08-13.27.06-2.46.13-5.25.08-10.92-.08-8.74-.05-13.31,0-17.74,0-2.19,0-4.36,0-7,0-5-.38-10.52-.71-15.37-.19-2.82-.38-5.48-.46-7.74-.24-6-.41-6.14-1.56-6.82-.19.12-.95,1.27-1.17,10.54,0,1.43-.12,3.43-.22,5.83-.27,6.15-.63,14.57-.55,23.12.12,11.95.12,15.17,0,38.27-.07,14.17-.51,15.66-1.12,16.23a1,1,0,0,1-.82.24c-.26,0-.48,0-.85,1-.49,1.3-.82,1.91-1.37,1.83-.78-.1-.9-1.25-1.47-8.15-.2-2.34-.44-5.22-.76-8.68-1-10.54-1-18.59-1-34.62,0-6.62,0-14.85-.07-25.21-.13-20-1.33-22.31-1.69-22.54-.5.26-1.64,4-2.63,10.38-.92,6-.63,17.92-.32,30.57.18,7.68.37,15.63.33,23.05-.07,12.13-.91,25.32-3,25.93a.81.81,0,0,1-.94-.46c-.77-1.21-.95-8-1.21-19.85-.13-5.94-.28-12.67-.56-18.89-.34-7.39-.49-12.92-.61-17.37-.14-5.65-.26-10.12-.69-15.3-.1-1.27-.2-2.15-.28-2.76-.15,1.19-.35,3.35-.56,7.26-.14,2.51-.18,7-.22,11.68-.07,7.44-.14,15.87-.61,20.23l-.86-.09c.46-4.32.54-12.73.6-20.15,0-4.73.08-9.19.22-11.71.52-9.3.88-9.3,1.42-9.31s.78.2,1.15,4.78c.43,5.21.55,9.68.7,15.35.12,4.44.26,10,.6,17.35.28,6.23.43,13,.56,18.91.21,9.43.41,18.34,1.08,19.41l0,0c.65-.69,2.25-6.34,2.36-25,.05-7.4-.15-15.34-.33-23-.3-12.69-.59-24.67.34-30.72,1.14-7.45,2.36-11.19,3.58-11.1.81.06,2.3.17,2.46,23.39.07,10.35.07,18.59.07,25.21,0,16,0,24,1,34.54.33,3.46.57,6.35.76,8.69.29,3.46.51,6.11.75,7.08a10.07,10.07,0,0,0,.42-1c.49-1.32,1-1.55,1.72-1.51h.17c.77-.47.82-11.08.85-15.61.12-23.1.12-26.32,0-38.26-.09-8.57.28-17,.54-23.17.1-2.39.19-4.38.22-5.81.22-9.25,1-10.9,1.66-11.29a.81.81,0,0,1,.82,0c1.6.94,1.75,1.5,2,7.53.09,2.24.27,4.9.46,7.71.34,4.86.72,10.37.72,15.43,0,2.63,0,4.79,0,7,0,4.43-.05,9,0,17.73,0,5.69,0,8.49-.09,11-.08,3.21-.14,5.75.09,13.22.13,4.2.18,8.16.22,11.66.06,5.49.13,10.68.54,11.77.83-.49,4-2.78,4-9.07,0-2.18,0-2.79.06-3.37.05-1.13.1-2.19-.06-14.43-.12-10,0-16,.13-20.44.09-3.75.15-6.24,0-9-.09-1.62-.16-2.42-.21-3-.14-1.64-.14-1.64-.14-13,0-19.23.2-25.29,1.47-25.79a.72.72,0,0,1,.81.25l.26.27c1.43,1.49,2.45,2.56,2.56,15.7.12,13.66,0,50.39,0,50.76a81,81,0,0,0,.88,10c.43,2.77,1.51,4.79,2,4.79h0c.08,0,2-.37,1.75-17.74-.4-25.23,0-38.16,0-38.29-.08-5.72-.12-15.47.61-16.21l.12-.13.24,0c.47,0,1.72,0,1.72,16.38,0,3.08,0,6.62-.06,10.29-.07,7.87-.14,16,.06,21.58l.13,3.64c.25,7.18.48,14,.93,17.58.29,2.34.43,3.43.43,4h0c0,.46-.11.48-.31.51l-.41.07-.09-.4.41-.1h-.42c0-.05,0-.45-.47-3.94-.45-3.65-.69-10.46-.93-17.66l-.13-3.64c-.2-5.59-.13-13.74-.06-21.61,0-3.67.06-7.22.06-10.29,0-8.29-.38-12.86-.75-14.68-.24,2.45-.3,8.85-.21,14.67,0,.15-.41,13.06,0,38.27.3,18.37-1.85,18.55-2.55,18.61-1.5.12-2.62-3.32-3-5.52a81.77,81.77,0,0,1-.89-10.16c0-.37.12-37.1,0-50.76-.11-12.79-1.09-13.81-2.32-15.1L315,25c-.86,1.73-.86,14.51-.86,24.86,0,11.29,0,11.29.13,12.89.05.59.12,1.4.22,3,.16,2.83.1,5.33,0,9.11-.11,4.37-.26,10.37-.13,20.4.16,12.27.11,13.34.05,14.48,0,.57-.05,1.17-.05,3.33,0,6.19-3.09,9.23-4.73,10A.75.75,0,0,1,309.39,123.13Z" transform="translate(1.08 -8.32)"/><path class="cls-4" d="M263,106.92a.64.64,0,0,1-.38-.12c-.73-.52-.83-2.71-.93-9.38-.05-2.58-.09-5.5-.22-8.59-.24-5.54-.17-7.43-.09-9.81.07-1.82.14-3.87.09-8.06-.08-6.45-.06-9.83,0-13.1,0-1.62,0-3.22,0-5.16,0-3.7-.38-7.75-.72-11.32-.19-2.09-.37-4.06-.46-5.73-.23-4.36-.37-4.43-1.51-4.92-.34.18-1,1.28-1.22,7.66,0,1.07-.12,2.54-.22,4.31-.26,4.54-.63,10.76-.54,17.06.12,8.83.12,11.21,0,28.27-.07,10.27-.5,11.49-1,12a1.11,1.11,0,0,1-.89.26c-.3,0-.52,0-.88.68-.49,1-.85,1.47-1.38,1.38-.74-.13-.89-1.18-1.44-6.11-.19-1.72-.43-3.85-.76-6.4-1-7.8-1-13.75-1-25.59,0-4.89,0-11-.06-18.62-.14-15.3-1.4-16.45-1.65-16.52-.45.05-1.62,2.5-2.68,7.58-.91,4.39-.62,13.2-.32,22.53.18,5.67.38,11.54.33,17-.09,11.23-1.22,18.6-2.95,19.23a.9.9,0,0,1-1-.31c-.8-.94-1-5.71-1.25-14.76-.13-4.39-.28-9.36-.56-14-.34-5.46-.48-9.55-.6-12.83-.15-4.17-.27-7.47-.69-11.29-.11-1-.21-1.59-.29-2-.14.84-.34,2.42-.56,5.36-.14,1.85-.18,5.13-.22,8.61a147.37,147.37,0,0,1-.61,15l-.85-.12c.46-3.18.53-9.39.6-14.86,0-3.49.08-6.79.22-8.66.52-7,.91-7,1.41-7s.79.34,1.16,3.62c.43,3.85.54,7.16.69,11.35.12,3.28.27,7.36.6,12.81.29,4.6.44,9.58.57,14,.19,6.63.4,13.48,1,14.22l.07.07c.43-.15,2.23-3.71,2.35-18.43,0-5.47-.15-11.33-.34-17-.3-9.39-.59-18.25.34-22.73.79-3.8,2-8.27,3.54-8.27h.07c.74.07,2.28.22,2.43,17.38.07,7.65.07,13.73.07,18.62,0,11.81,0,17.74,1,25.48.33,2.56.57,4.69.76,6.42a39,39,0,0,0,.75,5.2,7.06,7.06,0,0,0,.44-.77c.56-1.11,1.17-1.18,1.69-1.15.19,0,.22,0,.25,0,.63-.6.75-6.4.78-11.4.12-17,.12-19.43,0-28.24-.08-6.34.28-12.57.54-17.13.11-1.76.19-3.23.23-4.28.21-6.64.9-8,1.55-8.37a.92.92,0,0,1,.88-.06c1.62.7,1.79,1.18,2,5.67.09,1.65.27,3.61.47,5.69.33,3.59.71,7.66.71,11.4,0,1.95,0,3.55,0,5.17,0,3.26-.06,6.64,0,13.08.05,4.21,0,6.27-.08,8.1-.08,2.36-.15,4.23.08,9.74.13,3.11.18,6,.22,8.62.06,3.85.13,7.83.52,8.6a6.83,6.83,0,0,0,4.05-6.6c0-1.62,0-2.07,0-2.51.05-.82.1-1.6,0-10.63-.13-7.42,0-11.86.13-15.1a58.56,58.56,0,0,0,0-6.66c-.1-1.19-.16-1.77-.21-2.2-.15-1.22-.15-1.22-.15-9.61,0-14.06.2-18.53,1.4-19.11a.77.77,0,0,1,.84.13l.26.21c1.45,1.11,2.5,1.92,2.61,11.71.11,10.09,0,37.21,0,37.48a44.76,44.76,0,0,0,.87,7.37c.41,1.94,1.45,3.54,2.07,3.46.2,0,2-.59,1.73-13-.41-18.63,0-28.19,0-28.28-.09-4.17-.12-11.31.58-12l.13-.13.25,0c1.15,0,1.73,4.1,1.73,12.2,0,2.28,0,4.9-.06,7.61-.07,5.81-.14,11.81.06,15.92l.12,2.69c.25,5.3.48,10.31.93,13,.28,1.62.42,2.46.44,2.9h0c0,.47-.08.49-.29.54l-.4.09-.12-.39.41-.12-.42,0s-.05-.37-.47-2.89c-.46-2.71-.69-7.74-.94-13.07l-.13-2.69c-.2-4.13-.13-10.15-.06-16,0-2.71.06-5.32.06-7.6,0-6.12-.39-9.53-.75-10.81a104.76,104.76,0,0,0-.21,10.81c0,.12-.4,9.65,0,28.25.3,13.54-1.8,13.78-2.5,13.86-1.44.16-2.62-2.32-3-4.14a45.4,45.4,0,0,1-.89-7.54c0-.28.12-27.4,0-37.48-.11-9.37-1.06-10.1-2.27-11l-.24-.19c-.86,1.12-.86,11-.86,18.28,0,8.34,0,8.34.14,9.51.05.43.12,1,.21,2.24a57.72,57.72,0,0,1,0,6.74c-.11,3.24-.25,7.66-.13,15.06.16,9.07.11,9.86.06,10.71,0,.42-.06.86-.06,2.45a7.68,7.68,0,0,1-4.77,7.48A.76.76,0,0,1,263,106.92Z" transform="translate(1.08 -8.32)"/><path class="cls-5" d="M357.28,132.17a.55.55,0,0,1-.3-.09c-.78-.46-.9-3.38-1-14.68-.05-4.08-.09-8.7-.22-13.59-.24-8.75-.17-11.72-.09-15.49.07-2.87.14-6.12.09-12.75-.08-10.19-.06-15.53,0-20.7,0-2.55,0-5.08,0-8.15,0-5.87-.38-12.29-.72-17.95-.19-3.29-.37-6.39-.46-9-.23-7-.41-7.23-1.54-8-.32.36-1,2.34-1.19,12.35,0,1.67-.12,4-.22,6.8-.26,7.18-.63,17-.54,27,.12,13.95.12,17.71,0,44.68-.07,16.68-.51,18.32-1.15,18.92a1,1,0,0,1-.8.23c-.22,0-.46,0-.84,1.14-.49,1.52-.81,2.2-1.36,2.12-.79-.09-.9-1.16-1.49-9.46-.19-2.73-.43-6.09-.76-10.13-1-12.3-1-21.69-1-40.41,0-7.72,0-17.33-.06-29.41-.13-21.81-1.16-25.73-1.66-26.33-.62.61-1.7,4.86-2.66,12.11-.92,7-.63,20.94-.33,35.71.19,9,.38,18.24.33,26.9-.07,14.24-.92,29.66-3.07,30.2-.21.06-.6.06-.92-.53-.75-1.39-.94-9.28-1.2-23.11-.13-6.94-.28-14.8-.56-22.06-.34-8.62-.48-15.08-.6-20.26-.15-6.61-.27-11.82-.69-17.88-.11-1.47-.2-2.49-.29-3.21-.15,1.4-.34,3.94-.56,8.47-.14,2.93-.18,8.13-.22,13.64-.06,8.68-.14,18.51-.6,23.61l-.87-.08c.47-5.06.54-14.87.61-23.53,0-5.52.08-10.73.22-13.68.51-10.79.85-10.79,1.42-10.8s.76,0,1.15,5.52c.43,6.08.55,11.3.69,17.92.12,5.18.27,11.63.6,20.25.29,7.27.44,15.13.57,22.07.21,11,.4,21.44,1.09,22.72h0c.67-1,2.25-7.72,2.36-29.28,0-8.65-.15-17.91-.34-26.87-.3-14.81-.59-28.8.34-35.84,1.71-13,3.11-12.94,3.57-12.9.81.05,2.32.14,2.47,27.22.07,12.09.07,21.7.07,29.42,0,18.69,0,28.08,1,40.34.33,4,.57,7.41.76,10.14.29,4,.51,7.11.76,8.28a11.71,11.71,0,0,0,.4-1.14c.49-1.52,1-1.8,1.74-1.75h.14c.7-.52.83-9.54.87-18.3.12-27,.12-30.71,0-44.66-.08-10,.28-19.85.55-27,.1-2.79.18-5.12.22-6.79.22-10.89.95-12.75,1.7-13.14a.77.77,0,0,1,.8.07c1.58,1.09,1.72,1.74,2,8.72.08,2.62.26,5.72.46,9,.33,5.67.71,12.1.71,18,0,3.07,0,5.6,0,8.16,0,5.16-.06,10.5,0,20.69.05,6.64,0,9.9-.08,12.77-.08,3.75-.15,6.72.08,15.44.13,4.9.18,9.53.22,13.61.07,6.41.13,12.5.55,13.79.88-.62,4-3.34,4-10.63,0-2.55,0-3.26.05-3.94.05-1.31.1-2.55-.05-16.84-.13-11.73,0-18.74.13-23.86.09-4.39.15-7.29,0-10.56-.1-1.89-.16-2.82-.22-3.5-.14-1.9-.14-1.9-.14-15.13,0-22.87.2-29.59,1.51-30a.69.69,0,0,1,.8.3l.26.33c1.41,1.71,2.43,3,2.54,18.24.11,16,0,58.82,0,59.25a110.36,110.36,0,0,0,.88,11.73c.44,3.35,1.56,5.64,2,5.64h0c.09,0,2.05-.38,1.77-20.78-.41-29.44,0-44.53,0-44.68-.09-6.72-.12-18.14.61-18.88l.12-.13.23,0c.47,0,1.73,0,1.73,19,0,3.6,0,7.74-.06,12-.07,9.18-.14,18.68.06,25.19l.12,4.23c.25,8.4.48,16.33.94,20.55.3,2.81.43,4.06.42,4.63h0c0,.46-.12.47-.32.5l-.41.06-.08-.41.41-.08h-.41s0-.5-.48-4.61-.68-12.2-.93-20.62L372.76,84c-.2-6.53-.13-16-.06-25.23,0-4.28.06-8.42.06-12,0-9.62-.38-15-.75-17.14-.26,3.17-.28,11.62-.21,17.14,0,.16-.4,15.24,0,44.66.3,21.45-1.78,21.6-2.56,21.66-1.68.12-2.71-4.58-2.95-6.4a110.66,110.66,0,0,1-.89-11.84c0-.43.12-43.3,0-59.24-.11-15-1.09-16.18-2.34-17.7l-.16-.2c-.87,2.14-.87,17-.87,29.06,0,13.19,0,13.19.14,15.07.05.68.12,1.62.21,3.52.17,3.3.1,6.21,0,10.62-.11,5.12-.25,12.12-.12,23.83.15,14.31.1,15.56.05,16.88,0,.68-.05,1.37-.05,3.91,0,7.17-3.08,10.69-4.71,11.55A.72.72,0,0,1,357.28,132.17Z" transform="translate(1.08 -8.32)"/><path class="cls-6" d="M401.51,121a.56.56,0,0,1-.31-.09c-.7-.45-.81-2.75-.91-11.64,0-3.21-.08-6.86-.2-10.72-.21-6.89-.15-9.24-.07-12.2.05-2.27.12-4.83.07-10-.07-8,0-12.25,0-16.32,0-2,0-4,0-6.43,0-4.62-.34-9.67-.63-14.13-.18-2.6-.34-5-.42-7.12-.2-5.46-.36-5.63-1.32-6.22-.24.28-.84,1.77-1,9.63,0,1.32-.11,3.15-.2,5.35-.24,5.66-.56,13.42-.49,21.29.11,11,.11,14,0,35.22-.06,13.09-.44,14.42-1,15a.94.94,0,0,1-.76.22c-.2,0-.39,0-.71.85-.45,1.22-.74,1.8-1.27,1.72-.74-.1-.83-.94-1.36-7.54-.18-2.15-.39-4.8-.68-8-.9-9.7-.9-17.1-.89-31.86,0-6.09,0-13.66-.06-23.19-.12-17.25-1.06-20.17-1.44-20.65-.53.53-1.5,3.91-2.33,9.47s-.56,16.48-.29,28.12c.16,7.07.33,14.38.29,21.21-.06,11.19-.82,23.35-2.75,23.89a.78.78,0,0,1-.89-.44c-.69-1.12-.85-7.36-1.09-18.28-.11-5.47-.24-11.66-.5-17.38-.3-6.81-.43-11.9-.54-16-.13-5.2-.23-9.3-.61-14.07-.08-.93-.15-1.63-.21-2.16-.13,1.15-.28,3.08-.46,6.3-.12,2.31-.15,6.4-.19,10.74-.06,6.85-.13,14.6-.54,18.63l-.87-.09c.42-4,.48-11.72.54-18.55,0-4.34.07-8.45.2-10.77.46-8.59.78-8.59,1.31-8.6s.74.17,1.08,4.43c.38,4.79.49,8.91.62,14.12.11,4.09.24,9.17.54,16,.25,5.73.38,11.93.5,17.4.18,8.59.36,16.71.94,17.81.6-.84,2-6.23,2.06-23,0-6.81-.13-14.11-.3-21.18-.27-11.67-.53-22.71.3-28.27,1.55-10.35,2.82-10.28,3.25-10.24.74.05,2.1.15,2.24,21.55.06,9.52.06,17.1.06,23.19,0,14.73,0,22.12.89,31.78.29,3.19.5,5.84.68,8,.24,3,.43,5.41.64,6.39.08-.18.18-.43.31-.79.45-1.24.95-1.46,1.58-1.42h.14c.58-.49.7-7.92.73-14.33.1-21.25.1-24.21,0-35.2-.08-7.9.25-15.66.48-21.33.1-2.2.17-4,.2-5.34.19-8.52.84-10,1.52-10.41a.74.74,0,0,1,.77,0c1.44.88,1.58,1.39,1.79,7,.07,2.07.24,4.51.41,7.1.3,4.47.64,9.54.64,14.19,0,2.42,0,4.42,0,6.43,0,4.07-.05,8.28,0,16.31,0,5.24,0,7.81-.08,10.08-.07,3-.13,5.28.08,12.16.11,3.87.16,7.51.19,10.73.06,5,.12,9.66.47,10.77.81-.51,3.52-2.65,3.52-8.29,0-2,0-2.57.05-3.11.05-1,.09-2-.05-13.26-.11-9.24,0-14.77.12-18.8.08-3.46.13-5.75,0-8.32-.09-1.49-.15-2.22-.19-2.76-.13-1.51-.13-1.51-.13-11.94,0-18,.18-23.31,1.35-23.75a.67.67,0,0,1,.77.24l.24.25c1.27,1.37,2.19,2.36,2.29,14.46.11,12.57,0,46.36,0,46.7a80.61,80.61,0,0,0,.79,9.23c.39,2.6,1.36,4.37,1.75,4.37h0c.08,0,1.78-.33,1.53-16.28-.36-23.22,0-35.11,0-35.23-.09-6.46-.07-14.31.56-14.94l.12-.13.23,0c.48,0,1.59,0,1.59,15.1,0,2.84,0,6.1-.06,9.48-.06,7.23-.12,14.72.06,19.85l.11,3.37c.22,6.6.43,12.83.83,16.15.26,2.12.38,3.14.38,3.64h0c0,.46-.11.48-.31.51l-.41.07-.09-.41.41-.09h-.42s0-.42-.42-3.62c-.4-3.36-.61-9.61-.83-16.23l-.12-3.37c-.17-5.15-.11-12.64-.05-19.89,0-3.37.05-6.64.05-9.47a97.65,97.65,0,0,0-.6-13.15c-.19,2.47-.23,8.05-.16,13.15,0,.13-.37,12,0,35.2.27,16.95-1.62,17.11-2.32,17.17-1.55.11-2.48-3.65-2.7-5.11a77.69,77.69,0,0,1-.79-9.35c0-.35.1-34.14,0-46.71-.1-11.76-1-12.69-2.07-13.87l-.11-.12c-.74,1.82-.74,13.4-.74,22.79,0,10.4,0,10.4.12,11.87.05.54.11,1.28.19,2.78.15,2.61.09,4.91,0,8.39-.09,4-.23,9.54-.11,18.77.14,11.28.09,12.27.05,13.31,0,.53-.05,1.08-.05,3.07,0,5.72-2.78,8.52-4.25,9.2A.57.57,0,0,1,401.51,121Z" transform="translate(1.08 -8.32)"/><path class="cls-7" d="M441.55,102.4a.56.56,0,0,1-.33-.1c-.63-.43-.72-2.14-.82-8.71,0-2.39-.07-5.09-.18-8-.19-5.13-.14-6.87-.07-9.08.05-1.68.11-3.58.07-7.45-.06-6,0-9.09,0-12.11,0-1.5,0-3,0-4.77,0-3.42-.31-7.17-.58-10.47-.16-1.93-.31-3.76-.38-5.3-.19-4-.3-4.09-1.2-4.53-.07.06-.69.77-.87,7.06,0,1-.1,2.35-.18,4-.22,4.2-.51,10-.45,15.79.1,8.16.1,10.36,0,26.14-.05,9.62-.41,10.69-.9,11.16a.91.91,0,0,1-.76.22c-.22,0-.36,0-.64.59-.35.8-.66,1.41-1.2,1.32-.71-.12-.8-1.08-1.26-5.69-.16-1.59-.35-3.56-.62-5.92-.82-7.21-.82-12.71-.82-23.68,0-4.51,0-10.14-.05-17.2-.1-12.8-.95-14.9-1.28-15.23-.39.31-1.25,2.37-2.09,7-.75,4.06-.52,12.22-.27,20.85.15,5.25.31,10.67.27,15.74-.06,8.24-.74,17.25-2.5,17.83a.75.75,0,0,1-.87-.33c-.66-.87-.81-5.28-1-13.66-.1-4.06-.22-8.65-.46-12.89-.27-5-.39-8.83-.49-11.87-.12-3.86-.22-6.9-.56-10.44q-.09-.81-.15-1.32c-.11.85-.24,2.22-.39,4.39-.11,1.71-.14,4.75-.17,8-.06,5.09-.12,10.85-.5,13.84l-.86-.11c.37-2.94.44-8.68.49-13.74,0-3.23.07-6.28.18-8,.43-6.47.73-6.48,1.23-6.49s.72.3,1,3.39c.35,3.56.45,6.62.57,10.5.09,3,.21,6.8.49,11.84.23,4.25.35,8.86.46,12.92.16,6,.32,12.29.82,13.13.53-.61,1.76-4.58,1.85-17,0-5-.12-10.47-.28-15.7-.24-8.68-.48-16.88.28-21,1.44-7.82,2.63-7.71,3-7.68.68.06,1.94.17,2.07,16.1.05,7.07.05,12.69.05,17.21,0,10.93,0,16.42.81,23.58.27,2.37.46,4.34.62,5.94.21,2.11.39,3.86.56,4.62a5.27,5.27,0,0,0,.25-.52c.48-1.06,1-1.12,1.47-1.1h.14c.56-.48.6-7.78.62-10.52.09-15.78.09-18,0-26.13-.07-5.86.23-11.63.44-15.84.09-1.63.16-3,.18-4,.18-6.26.78-7.45,1.35-7.8a.78.78,0,0,1,.77,0c1.35.66,1.49,1.11,1.68,5.27.08,1.53.22,3.34.38,5.27.28,3.32.59,7.08.59,10.54,0,1.8,0,3.28,0,4.77,0,3-.05,6.15,0,12.1,0,3.89,0,5.8-.07,7.49-.07,2.19-.12,3.92.07,9,.1,2.87.14,5.58.18,8,.05,3.45.1,7,.39,7.88.73-.37,3.18-1.93,3.18-6,0-1.49,0-1.91,0-2.31.05-.77.09-1.49,0-9.84-.1-6.87,0-11,.1-14a59.69,59.69,0,0,0,0-6.15c-.08-1.1-.13-1.64-.18-2-.11-1.13-.11-1.13-.11-8.88,0-13.31.16-17.25,1.21-17.72a.69.69,0,0,1,.76.16l.22.18c1.19,1,2.05,1.79,2.14,10.84.09,9.33,0,34.42,0,34.67a45.57,45.57,0,0,0,.71,6.82c.33,1.78,1.18,3.17,1.57,3.17h0c.06,0,1.58-.3,1.35-12-.33-17.23,0-26.07,0-26.16-.08-4.75-.06-10.57.51-11.15l.13-.13.23,0c.41,0,1.49,0,1.49,11.32,0,2.1,0,4.53-.05,7-.05,5.37-.11,10.93.05,14.73l.11,2.51c.2,4.89.39,9.51.75,12,.22,1.49.34,2.27.36,2.68l-.4.11.4-.11c0,.47-.09.49-.31.54l-.4.08-.11-.4.41-.11-.42,0s0-.34-.38-2.68c-.38-2.5-.57-7.14-.77-12l-.1-2.51c-.17-3.83-.11-9.39-.06-14.77,0-2.51.06-4.93.06-7a61.79,61.79,0,0,0-.51-9.49c-.15,1.91-.18,5.84-.12,9.48,0,.11-.33,8.93,0,26.14.22,11.3-1.11,12.74-2.13,12.85-1.31.13-2.24-2.31-2.53-3.87a47.69,47.69,0,0,1-.73-7c0-.26.1-25.34,0-34.67-.09-8.66-.86-9.34-1.84-10.19l-.11-.09c-.65,1.39-.65,9.91-.65,16.81,0,7.71,0,7.71.12,8.79,0,.4.09.95.17,2.07a58.4,58.4,0,0,1,0,6.24c-.09,3-.21,7.08-.1,13.93.12,8.38.08,9.12,0,9.89,0,.39,0,.8,0,2.27,0,4.32-2.58,6.43-3.94,6.94A.57.57,0,0,1,441.55,102.4Z" transform="translate(1.08 -8.32)"/><path class="cls-8" d="M477.88,99.48a.57.57,0,0,1-.35-.12c-.65-.45-.71-2.32-.8-7.64,0-2.09-.07-4.45-.18-7-.19-4.48-.13-6-.06-7.94.05-1.47.11-3.13.06-6.51-.06-5.22,0-8,0-10.6,0-1.31,0-2.6,0-4.17,0-3-.31-6.26-.58-9.15-.16-1.69-.31-3.28-.38-4.63-.18-3.48-.28-3.52-1.18-3.91-.1,0-.71.63-.89,6.12,0,.86-.1,2.05-.18,3.48-.22,3.67-.51,8.7-.44,13.8.09,7.14.09,9.06,0,22.86-.06,8.35-.41,9.32-.89,9.77a1,1,0,0,1-.78.24c-.24,0-.38,0-.64.5-.34.67-.7,1.25-1.21,1.16-.69-.12-.8-1.06-1.25-5-.15-1.4-.35-3.12-.62-5.18-.82-6.31-.82-11.12-.81-20.7,0-4,0-8.87-.06-15.06-.11-12-1.1-13.18-1.3-13.29-.33.13-1.24,2.1-2.07,6.08-.75,3.53-.51,10.65-.27,18.19.15,4.59.31,9.34.27,13.78-.07,9.11-1,15.1-2.46,15.63a.79.79,0,0,1-.89-.27c-.68-.78-.82-4.65-1-12-.11-3.55-.23-7.57-.46-11.28-.28-4.42-.4-7.72-.49-10.38-.13-3.5-.22-6-.57-9.12-.05-.48-.11-.86-.15-1.17-.11.74-.24,1.94-.38,3.85-.12,1.49-.15,4.14-.18,7-.06,4.45-.12,9.5-.5,12.13l-.86-.13a117.26,117.26,0,0,0,.49-12c0-2.82.07-5.49.18-7,.43-5.7.75-5.71,1.24-5.72s.73.43,1,3c.35,3.12.45,5.8.57,9.19.1,2.65.21,5.95.49,10.35.23,3.73.35,7.76.46,11.31.15,5,.32,10.78.82,11.44.44-.41,1.76-3.66,1.85-14.79,0-4.42-.12-9.15-.27-13.74-.25-7.59-.49-14.76.28-18.4,1-4.58,2-6.85,3-6.75.68.07,1.93.19,2.06,14.13.06,6.19.05,11.11.05,15.07,0,9.54,0,14.34.81,20.59.27,2.07.47,3.79.62,5.19.21,1.85.39,3.39.56,4q.1-.16.27-.48c.48-.94,1-1,1.45-1h.16c.54-.43.59-7,.6-9.15.1-13.79.1-15.71,0-22.84-.07-5.13.23-10.18.45-13.86.08-1.42.15-2.6.18-3.46.17-5.4.75-6.48,1.3-6.83a.85.85,0,0,1,.79-.06c1.37.59,1.51,1,1.71,4.66.07,1.33.22,2.92.37,4.6.28,2.9.59,6.2.59,9.23,0,1.57,0,2.87,0,4.18,0,2.64,0,5.37,0,10.58,0,3.4,0,5.07-.07,6.55-.07,1.91-.12,3.42.07,7.87.11,2.52.15,4.88.18,7,0,3,.1,6.1.39,6.86a5.47,5.47,0,0,0,3.18-5.24c0-1.31,0-1.68.05-2,0-.67.08-1.29-.05-8.59-.1-6,0-9.6.11-12.22a47.51,47.51,0,0,0,0-5.37c-.08-1-.13-1.44-.17-1.78-.12-1-.12-1-.12-7.78,0-11.41.16-15,1.18-15.53a.7.7,0,0,1,.77.12l.22.16c1.32,1,2.07,2,2.16,9.53.1,8.17,0,30.1,0,30.32a36,36,0,0,0,.71,5.94c.32,1.51,1.17,2.76,1.6,2.74.07,0,1.57-.3,1.35-10.42-.34-15.07,0-22.8,0-22.88-.09-4.12-.07-9.2.5-9.78l.12-.13.24,0c.41,0,1.49,0,1.49,9.95,0,1.84,0,4-.05,6.15,0,4.7-.11,9.55.05,12.88l.11,2.15c.2,4.29.39,8.34.75,10.49.22,1.26.34,2,.36,2.33l-.4.12.4-.12c0,.47-.07.49-.3.55l-.39.09-.12-.39.4-.12-.42,0s0-.31-.38-2.33c-.37-2.2-.57-6.28-.77-10.6l-.1-2.15c-.16-3.35-.11-8.22,0-12.93,0-2.18,0-4.3,0-6.14a48.42,48.42,0,0,0-.5-8.3c-.16,1.65-.19,5.11-.13,8.29,0,.11-.33,7.81,0,22.86.25,11-1.53,11.22-2.11,11.29-1.23.15-2.23-1.91-2.54-3.42a36.42,36.42,0,0,1-.74-6.11c0-.23.1-22.16,0-30.32-.08-7.53-.85-8.11-1.82-8.85l-.13-.1c-.64,1.18-.64,8.94-.64,14.66,0,6.73,0,6.73.11,7.68,0,.35.1.83.17,1.81a44.9,44.9,0,0,1,0,5.47c-.09,2.61-.2,6.19-.1,12.17.13,7.34.08,8,0,8.66,0,.35,0,.7,0,2a6.29,6.29,0,0,1-4,6.13A.64.64,0,0,1,477.88,99.48Z" transform="translate(1.08 -8.32)"/><path class="cls-9" d="M517.76,98.27a.63.63,0,0,1-.39-.13c-.62-.46-.67-2.17-.76-6.34,0-1.72-.07-3.67-.18-5.73a59.44,59.44,0,0,1-.07-6.56c.06-1.21.11-2.57.07-5.36-.06-4.3,0-6.56,0-8.74,0-1.08,0-2.14,0-3.44a69.11,69.11,0,0,0-.58-7.52c-.16-1.4-.31-2.71-.38-3.83-.18-2.81-.25-2.83-1.15-3.15-.22.11-.76.79-.92,5,0,.71-.1,1.69-.18,2.87-.22,3-.51,7.17-.44,11.37.09,5.89.09,7.47,0,18.85-.06,6.2-.33,7.58-.85,8.08a1,1,0,0,1-.81.25c-.26,0-.41,0-.67.4s-.71,1.07-1.22,1c-.66-.14-.78-1-1.22-4.18-.15-1.15-.35-2.57-.62-4.27-.82-5.21-.82-9.19-.82-17.1,0-3.26,0-7.31-.05-12.4-.11-10.21-1.15-10.84-1.27-10.88-.35,0-1.26,1.64-2.11,5-.74,2.9-.51,8.76-.26,15,.15,3.79.31,7.7.27,11.36-.07,7.38-1,12.34-2.39,12.93a.84.84,0,0,1-.94-.19c-.67-.64-.82-3.24-1.07-10-.1-2.92-.22-6.23-.45-9.28-.28-3.65-.4-6.37-.5-8.56a74,74,0,0,0-.56-7.51c-.06-.4-.11-.72-.15-1-.11.6-.24,1.58-.38,3.17-.12,1.23-.15,3.41-.18,5.73a83.8,83.8,0,0,1-.5,10l-.86-.15a79.31,79.31,0,0,0,.49-9.87c0-2.44.07-4.54.18-5.8.42-4.52.74-4.76,1.23-4.77s.75.53,1,2.53c.35,2.58.45,4.79.57,7.59.09,2.18.21,4.9.49,8.53.23,3.07.35,6.39.46,9.32.15,4.15.32,8.85.8,9.38.35-.09,1.77-2.58,1.87-12.13,0-3.64-.12-7.54-.27-11.31-.25-6.28-.49-12.2.28-15.22.68-2.65,1.77-5.76,3.06-5.61.94.12,1.92,1.6,2,11.73.05,5.1.05,9.15.05,12.41,0,7.87,0,11.82.81,17,.27,1.7.46,3.13.62,4.28a29.74,29.74,0,0,0,.56,3.31c.06-.09.16-.22.28-.42a1.43,1.43,0,0,1,1.44-.82.54.54,0,0,0,.18,0c.34-.23.54-2.74.58-7.47.1-11.37.1-13,0-18.83-.07-4.23.23-8.4.45-11.44.08-1.17.15-2.14.18-2.84.13-3.47.5-5.16,1.24-5.66a.88.88,0,0,1,.82-.1c1.43.5,1.55,1,1.74,3.91.07,1.1.22,2.41.37,3.79A67.92,67.92,0,0,1,517.3,62c0,1.3,0,2.37,0,3.45,0,2.17,0,4.42,0,8.72,0,2.81,0,4.19-.07,5.41A55.55,55.55,0,0,0,517.3,86c.1,2.07.14,4,.18,5.75a28.92,28.92,0,0,0,.37,5.59,4.57,4.57,0,0,0,3.2-4.25,15.55,15.55,0,0,1,.05-1.69c0-.54.08-1.06-.05-7.07-.1-5,0-7.92.11-10.09a31.92,31.92,0,0,0,0-4.4c-.08-.79-.13-1.18-.17-1.46-.12-.83-.12-.83-.12-6.44,0-9.33.16-12.32,1.13-12.85a.76.76,0,0,1,.79.06l.21.14c1.35.84,2.11,1.63,2.2,7.94.09,6.73,0,24.82,0,25a23.57,23.57,0,0,0,.71,4.86c.3,1.17,1.12,2.29,1.62,2.21.16,0,1.54-.45,1.33-8.5-.34-12.44,0-18.82,0-18.88-.09-3.36-.07-7.53.48-8.09l.13-.14.25,0c.37,0,1.49,0,1.49,8.28,0,1.52,0,3.27-.05,5.08,0,3.87-.11,7.87.05,10.6l.11,1.81a77.55,77.55,0,0,0,.75,8.6c.2,1,.32,1.56.36,1.9l-.4.15.4-.15c.05.47,0,.5-.28.57l-.39.11-.14-.38.4-.15-.42,0s0-.26-.38-1.91a77.58,77.58,0,0,1-.77-8.72l-.1-1.81c-.17-2.76-.11-6.78-.05-10.66,0-1.81.05-3.55.05-5.07a32.4,32.4,0,0,0-.51-6.82,65.31,65.31,0,0,0-.12,6.81c0,.1-.33,6.45,0,18.85.17,6.09-.51,9.16-2.07,9.38-1.23.18-2.25-1.56-2.58-2.85a24.58,24.58,0,0,1-.74-5.07c0-.2.1-18.28,0-25-.08-6.15-.84-6.62-1.79-7.22l-.17-.11c-.64.89-.64,7.31-.64,12,0,5.55,0,5.55.11,6.31,0,.3.1.69.18,1.5a30.82,30.82,0,0,1,0,4.53c-.09,2.15-.21,5.1-.1,10,.13,6,.08,6.59,0,7.16,0,.27,0,.56,0,1.62a5.41,5.41,0,0,1-4,5.13Z" transform="translate(1.08 -8.32)"/><path class="cls-10" d="M554.1,96.16a.71.71,0,0,1-.42-.14c-.6-.46-.65-2-.74-5.57,0-1.5-.07-3.2-.17-5a42,42,0,0,1-.07-5.75c0-1,.11-2.25.07-4.68-.07-3.77,0-5.74,0-7.65,0-.94,0-1.87,0-3a52.76,52.76,0,0,0-.58-6.57c-.16-1.22-.31-2.37-.39-3.35-.17-2.41-.23-2.43-1.14-2.71a.09.09,0,0,0-.1,0c-.2.14-.67.84-.83,4.29,0,.62-.09,1.48-.18,2.51-.21,2.65-.51,6.27-.44,9.93.09,5.15.09,6.54,0,16.49-.05,5.37-.32,6.6-.82,7.08a1,1,0,0,1-.84.25.64.64,0,0,0-.68.35c-.33.47-.72,1-1.22.84s-.77-1-1.2-3.69c-.16-1-.36-2.24-.62-3.73-.83-4.56-.82-8-.82-15,0-2.85,0-6.4-.06-10.85-.11-9.2-1.21-9.45-1.26-9.46-.26,0-1.22,1.22-2.12,4.31-.74,2.52-.5,7.63-.26,13,.16,3.31.31,6.74.28,10-.07,6.35-1,10.69-2.35,11.33a.87.87,0,0,1-1-.14c-.69-.57-.85-2.85-1.09-8.76-.11-2.55-.23-5.45-.46-8.12-.28-3.19-.4-5.57-.49-7.49a58.94,58.94,0,0,0-.57-6.56c-.05-.35-.1-.63-.15-.85-.1.51-.24,1.37-.38,2.78-.12,1.06-.15,3-.18,5a64.72,64.72,0,0,1-.5,8.78l-.85-.17a62.3,62.3,0,0,0,.48-8.62c0-2.13.07-4,.19-5.07.41-3.92.73-4.21,1.22-4.22h0c.5,0,.74.53,1,2.25a60.54,60.54,0,0,1,.57,6.65c.1,1.91.22,4.28.49,7.45.23,2.69.36,5.6.46,8.16.15,3.6.32,7.67.78,8.14.32,0,1.79-2,1.89-10.54,0-3.18-.12-6.6-.27-9.9-.26-5.73-.49-10.68.29-13.33.68-2.35,1.78-5.1,3.07-4.93.93.13,1.9,1.45,2,10.31.06,4.46,0,8,0,10.86,0,6.87,0,10.32.81,14.81.27,1.49.46,2.74.62,3.74a23.92,23.92,0,0,0,.55,2.88,3,3,0,0,0,.31-.39,1.48,1.48,0,0,1,1.42-.71c.13,0,.19,0,.21,0,.49-.47.54-5,.55-6.46.1-9.94.1-11.32,0-16.46a99,99,0,0,1,.45-10c.08-1,.15-1.87.18-2.48.13-2.94.5-4.47,1.19-5a1,1,0,0,1,.86-.13c1.42.44,1.56.89,1.75,3.47.07,1,.22,2.1.37,3.3a52.47,52.47,0,0,1,.59,6.69c0,1.13,0,2.07,0,3,0,1.9,0,3.87,0,7.62,0,2.47,0,3.68-.07,4.74a42.4,42.4,0,0,0,.07,5.66c.11,1.81.15,3.52.18,5a23.2,23.2,0,0,0,.36,4.84c.58-.17,3.21-1.1,3.21-3.67,0-.95,0-1.22,0-1.48,0-.47.08-.92,0-6.17-.1-4.34,0-6.93.11-8.83a24.32,24.32,0,0,0,0-3.84c-.07-.68-.13-1-.17-1.27-.12-.73-.12-.73-.12-5.64,0-7.39.11-10.69,1.1-11.26a.77.77,0,0,1,.8,0l.21.12c1.36.75,2.13,1.44,2.22,7,.1,5.89,0,21.71,0,21.87a18.59,18.59,0,0,0,.71,4.22c.3,1,1.13,2,1.65,1.91.15,0,1.51-.45,1.3-7.38-.34-10.88,0-16.46,0-16.52-.08-2.91-.07-6.54.48-7.1l.12-.13.26,0c1,0,1.5,2.46,1.5,7.3,0,1.33,0,2.86,0,4.44-.06,3.38-.12,6.87,0,9.26l.1,1.55a60.27,60.27,0,0,0,.75,7.53c.5,2.1.5,2.1.1,2.23l-.38.13-.16-.37.4-.17-.43,0s0-.25-.37-1.67a60.12,60.12,0,0,1-.78-7.67l-.1-1.55c-.16-2.42-.11-5.94,0-9.33,0-1.58,0-3.11,0-4.43a24.39,24.39,0,0,0-.51-6,52.44,52.44,0,0,0-.12,6c0,.09-.33,5.64,0,16.47.16,5.24-.52,8-2,8.26-1.22.2-2.29-1.38-2.63-2.51a18.83,18.83,0,0,1-.73-4.46c0-.18.09-16,0-21.86-.09-5.33-.8-5.72-1.77-6.26l-.23-.12c-.6.48-.6,6.51-.6,10.49,0,4.84,0,4.84.11,5.5,0,.26.1.61.17,1.32a23.68,23.68,0,0,1,0,4c-.08,1.88-.2,4.46-.1,8.77a58.59,58.59,0,0,1,0,6.26c0,.24,0,.49,0,1.41,0,2.84-2.61,4.21-4,4.54A.44.44,0,0,1,554.1,96.16Z" transform="translate(1.08 -8.32)"/><path class="cls-11" d="M590.81,92.07a.67.67,0,0,1-.4-.14c-.53-.41-.58-1.64-.65-4.65,0-1.23-.06-2.63-.15-4.12a33.63,33.63,0,0,1-.06-4.75c0-.86.09-1.85.06-3.85-.06-3.11,0-4.73,0-6.31,0-.77,0-1.54,0-2.47a42.16,42.16,0,0,0-.5-5.41c-.14-1-.27-2-.33-2.77-.14-1.93-.17-1.94-.93-2.17-.17.1-.59.61-.72,3.48,0,.51-.08,1.23-.16,2.08a80,80,0,0,0-.37,8.17c.08,4.25.08,5.4,0,13.6-.05,4.44-.28,5.47-.72,5.89a1,1,0,0,1-.77.24.5.5,0,0,0-.54.26c-.29.4-.65.82-1.11.71s-.69-.82-1.07-3.1c-.13-.83-.3-1.85-.53-3.07-.71-3.78-.71-6.65-.7-12.36,0-2.35,0-5.27,0-8.95-.1-7.33-1-7.71-1-7.72-.24,0-1,1.06-1.75,3.5-.63,2.07-.43,6.28-.21,10.74.12,2.73.26,5.56.23,8.2-.06,5.32-.82,8.84-2,9.41a.82.82,0,0,1-.9-.11c-.62-.49-.75-2.39-1-7.29-.09-2.1-.19-4.49-.39-6.69-.24-2.63-.34-4.6-.42-6.18a48.84,48.84,0,0,0-.48-5.4c0-.14,0-.28-.07-.39-.08.43-.17,1-.27,2s-.12,2.44-.15,4.11a49,49,0,0,1-.44,7.25l-.84-.18a49.63,49.63,0,0,0,.41-7.08c0-1.76.06-3.29.16-4.2.35-3.18.62-3.53,1.11-3.54s.73.6.94,1.92a45.18,45.18,0,0,1,.49,5.49c.09,1.57.19,3.53.42,6.14.2,2.22.31,4.62.4,6.74.13,2.92.27,6.23.65,6.65.26-.08,1.43-1.86,1.51-8.64,0-2.62-.1-5.43-.23-8.15-.22-4.74-.42-8.82.25-11,.6-2,1.54-4.29,2.71-4.11.82.12,1.67,1.23,1.77,8.57,0,3.68,0,6.61,0,9,0,5.66,0,8.5.69,12.2.23,1.23.4,2.26.54,3.09a20.55,20.55,0,0,0,.43,2.26,2.07,2.07,0,0,0,.2-.24,1.33,1.33,0,0,1,1.26-.62h.15c.26-.22.41-2,.44-5.26.08-8.2.08-9.34,0-13.58a81.18,81.18,0,0,1,.38-8.26c.07-.84.13-1.55.16-2.05.11-2.43.43-3.71,1-4.14a.91.91,0,0,1,.8-.13c1.25.38,1.38.79,1.55,2.93.06.79.18,1.73.32,2.72a41.78,41.78,0,0,1,.5,5.53c0,.93,0,1.7,0,2.48,0,1.57,0,3.19,0,6.28,0,2,0,3-.06,3.92a35.63,35.63,0,0,0,.06,4.65c.09,1.5.13,2.91.16,4.15a19.66,19.66,0,0,0,.28,3.91c.56-.17,2.66-.93,2.66-2.94a11.39,11.39,0,0,1,0-1.23c0-.37.06-.75,0-5.08-.09-3.58,0-5.72.08-7.28a18.27,18.27,0,0,0,0-3.15c-.06-.57-.11-.85-.15-1-.1-.61-.1-.61-.1-4.66,0-6.7.13-8.86,1-9.35a.72.72,0,0,1,.75,0l.19.1c1.15.61,1.86,1.22,1.94,5.84.08,4.86,0,17.9,0,18a14.14,14.14,0,0,0,.6,3.46c.25.82.95,1.57,1.35,1.52.13,0,1.24-.37,1.06-6-.29-9,0-13.59,0-13.63-.07-2.4-.06-5.41.42-5.9l.13-.14.25,0c.33,0,1.34,0,1.34,6.1,0,1.09,0,2.35,0,3.66-.05,2.78-.1,5.66,0,7.63l.09,1.29a46.65,46.65,0,0,0,.64,6.18c.44,1.8.44,1.8,0,1.93l-.26-.82.12.41-.43,0s0-.2-.32-1.36a47,47,0,0,1-.67-6.33l-.08-1.29c-.15-2-.1-4.9,0-7.71,0-1.3,0-2.55,0-3.64a22.79,22.79,0,0,0-.34-4.57,43,43,0,0,0-.07,4.55c0,.09-.28,4.66,0,13.59.14,4.41-.44,6.66-1.78,6.89-1.09.17-2-1.16-2.32-2.13a15.13,15.13,0,0,1-.64-3.7c0-.14.08-13.18,0-18-.07-4.35-.66-4.66-1.48-5.09l-.13-.07c-.49.73-.49,5.41-.49,8.55a29.07,29.07,0,0,0,.09,4.52c0,.21.08.5.15,1.09a18.82,18.82,0,0,1,0,3.29c-.08,1.55-.18,3.67-.09,7.22.11,4.37.07,4.77,0,5.18a10,10,0,0,0,0,1.15c0,2.4-2.27,3.55-3.47,3.82Z" transform="translate(1.08 -8.32)"/><path class="cls-12" d="M622,90.55a.66.66,0,0,1-.42-.15c-.51-.4-.56-1.54-.63-4.09,0-1.08-.06-2.3-.15-3.59a27.21,27.21,0,0,1-.06-4.17c0-.76.09-1.62.06-3.36-.06-2.72,0-4.15,0-5.52,0-.68,0-1.35,0-2.17a30.83,30.83,0,0,0-.5-4.71c-.13-.88-.26-1.72-.32-2.43-.15-1.64-.15-1.64-.92-1.84a.09.09,0,0,0-.1,0c-.15.11-.51.62-.64,3,0,.45-.08,1.08-.15,1.83a58.63,58.63,0,0,0-.38,7.13c.08,3.72.08,4.72,0,11.9,0,3.85-.27,4.76-.69,5.16a1,1,0,0,1-.79.25.54.54,0,0,0-.56.23c-.31.36-.68.74-1.11.62s-.69-.81-1.05-2.75c-.14-.72-.31-1.61-.53-2.68-.71-3.31-.71-5.83-.71-10.83,0-2,0-4.61,0-7.82-.09-6.48-1-6.7-1-6.7-.2,0-1,.84-1.77,3-.62,1.78-.42,5.46-.21,9.35.13,2.39.26,4.87.23,7.18-.06,4.56-.8,7.65-2,8.25a.89.89,0,0,1-.94-.06c-.63-.44-.77-2.12-1-6.43-.09-1.84-.2-3.93-.4-5.85-.23-2.3-.34-4-.42-5.4a35.19,35.19,0,0,0-.48-4.71c0-.13,0-.25-.07-.36-.08.37-.17.92-.27,1.74s-.12,2.13-.15,3.59a39.29,39.29,0,0,1-.43,6.36l-.85-.21a36.58,36.58,0,0,0,.41-6.17c0-1.55.06-2.88.16-3.68.34-2.69.6-3.13,1.11-3.14h0c.51,0,.72.6.92,1.71a36.74,36.74,0,0,1,.5,4.81c.08,1.38.18,3.09.42,5.37.2,2,.3,4,.39,5.9.12,2.4.27,5.39.63,5.77.37,0,1.46-1.92,1.53-7.5,0-2.29-.1-4.74-.23-7.12-.22-4.15-.42-7.74.26-9.68.5-1.44,1.5-3.81,2.72-3.62.81.13,1.65,1.13,1.75,7.55,0,3.21,0,5.77,0,7.83,0,4.94,0,7.42.68,10.65.23,1.08.4,2,.54,2.7a15.46,15.46,0,0,0,.43,2l.22-.24a1.39,1.39,0,0,1,1.24-.54h.17c.17-.14.38-1,.42-4.55.09-7.17.09-8.16,0-11.87a62.18,62.18,0,0,1,.38-7.23c.08-.74.14-1.35.16-1.79.11-2.09.42-3.21,1-3.63a1,1,0,0,1,.83-.15c1.25.33,1.4.72,1.56,2.61.06.68.19,1.5.32,2.37a32,32,0,0,1,.51,4.84c0,.82,0,1.5,0,2.18,0,1.37,0,2.78,0,5.49,0,1.78,0,2.66-.06,3.43a25.29,25.29,0,0,0,.05,4.05c.1,1.32.13,2.55.16,3.64a16.08,16.08,0,0,0,.27,3.37c.52-.13,2.67-.79,2.67-2.52a9,9,0,0,1,0-1.09,39.38,39.38,0,0,0,0-4.42c-.09-3.14,0-5,.09-6.38a14.54,14.54,0,0,0,0-2.74c-.06-.49-.11-.73-.14-.91-.11-.54-.11-.54-.11-4.1,0-5.29.09-7.67.93-8.2a.81.81,0,0,1,.77,0l.18.09c1.16.54,1.88,1.08,2,5.16.08,4.25,0,15.66,0,15.78h0a11.52,11.52,0,0,0,.59,3c.23.66.92,1.37,1.39,1.3.2,0,1.2-.47,1-5.19-.29-7.85,0-11.89,0-11.93-.07-2.07-.06-4.69.41-5.18l.13-.13.26,0c.89,0,1.34,1.81,1.34,5.38,0,1,0,2.07,0,3.21,0,2.43-.1,5,0,6.66l.09,1.13a37,37,0,0,0,.64,5.39c.45,1.61.45,1.61.07,1.76l-.3-.82.14.41-.42.07c0-.06-.07-.29-.32-1.19a35.31,35.31,0,0,1-.67-5.55l-.09-1.13c-.14-1.76-.09-4.29,0-6.75,0-1.13,0-2.23,0-3.19a16.53,16.53,0,0,0-.35-4,33,33,0,0,0-.06,4c0,.08-.29,4.08,0,11.88.13,3.78-.45,5.83-1.74,6.07-1,.2-2-1-2.36-1.87a11.66,11.66,0,0,1-.65-3.27c0-.13.08-11.52,0-15.76-.07-3.75-.65-4-1.46-4.39l-.19-.09c-.45.4-.45,4.64-.45,7.44a22.1,22.1,0,0,0,.09,3.94,9,9,0,0,1,.15,1,14.57,14.57,0,0,1,0,2.89c-.07,1.36-.17,3.21-.09,6.31a38.82,38.82,0,0,1,0,4.54,7.56,7.56,0,0,0,0,1c0,2.14-2.27,3.15-3.48,3.4Z" transform="translate(1.08 -8.32)"/><path class="cls-13" d="M653.16,87.94a.7.7,0,0,1-.45-.17c-.48-.39-.53-1.33-.59-3.41,0-.89-.07-1.91-.16-3a19.85,19.85,0,0,1-.06-3.47,22.61,22.61,0,0,0,.06-2.77c-.05-2.25,0-3.43,0-4.58,0-.56,0-1.11,0-1.78a22,22,0,0,0-.49-3.88c-.14-.73-.27-1.43-.33-2-.14-1.3-.14-1.3-.9-1.47a.19.19,0,0,0-.17,0c-.13.1-.47.54-.58,2.37,0,.37-.09.89-.16,1.52a40.09,40.09,0,0,0-.38,5.88c.08,3.08.08,3.91,0,9.85,0,3.13-.26,3.92-.66,4.3a1,1,0,0,1-.82.25.67.67,0,0,0-.59.2c-.33.33-.7.61-1.11.5s-.67-.79-1-2.31c-.13-.6-.3-1.33-.53-2.22-.71-2.76-.71-4.84-.71-9,0-1.69,0-3.81,0-6.47-.1-5.23-1-5.46-1-5.47-.29-.07-1.08.78-1.8,2.49-.61,1.45-.41,4.48-.2,7.68.13,2,.26,4,.23,6-.06,3.65-.76,6.21-1.87,6.84a1,1,0,0,1-1,0c-.69-.4-.82-2-1-5.39-.09-1.52-.19-3.24-.39-4.83-.24-1.91-.34-3.34-.43-4.48a24.09,24.09,0,0,0-.47-3.88,3.09,3.09,0,0,0-.08-.3c-.07.29-.17.75-.27,1.43s-.12,1.75-.15,3a25.78,25.78,0,0,1-.44,5.3l-.83-.24a26.25,26.25,0,0,0,.41-5.08,27.56,27.56,0,0,1,.16-3.06c.3-2,.56-2.63,1.1-2.65h0c.55,0,.76.72.92,1.46a25.7,25.7,0,0,1,.5,4c.08,1.19.18,2.55.42,4.43.2,1.62.3,3.36.39,4.89.12,1.95.27,4.38.6,4.7,0,0,0,0,.13,0,.47-.27,1.37-1.88,1.44-6.11,0-1.88-.11-3.92-.24-5.88-.22-3.45-.42-6.43.27-8.07.41-1,1.51-3.24,2.76-3,.74.15,1.61,1,1.7,6.31,0,2.66,0,4.78,0,6.49,0,4.2,0,6.12.68,8.78.23.89.4,1.63.54,2.24a11,11,0,0,0,.42,1.6,1.66,1.66,0,0,0,.26-.22,1.46,1.46,0,0,1,1.21-.44h.2c.13-.09.35-.69.39-3.69.09-5.93.09-6.75,0-9.81a42.83,42.83,0,0,1,.39-6c.07-.61.13-1.11.15-1.48.11-1.67.4-2.6.93-3a1,1,0,0,1,.87-.18c1.2.26,1.4.55,1.58,2.22.06.56.19,1.23.32,2a22.43,22.43,0,0,1,.51,4c0,.67,0,1.23,0,1.8,0,1.13,0,2.3,0,4.54,0,1.48,0,2.21-.06,2.85a17.49,17.49,0,0,0,.06,3.34c.09,1.08.12,2.11.15,3a12.4,12.4,0,0,0,.25,2.73c.83-.16,2.69-.77,2.69-2a6.32,6.32,0,0,1,0-.92,26.66,26.66,0,0,0,0-3.64,45.83,45.83,0,0,1,.09-5.29A10.4,10.4,0,0,0,656,73c-.06-.4-.11-.6-.14-.74-.11-.47-.11-.47-.11-3.42,0-4.33.08-6.29.87-6.82a.79.79,0,0,1,.79-.07l.18.07c1.19.45,1.91,1,2,4.35s0,13,0,13.05h0a7.77,7.77,0,0,0,.59,2.43c.23.56.94,1.15,1.44,1,.27-.07,1.14-.55,1-4.21a85.37,85.37,0,0,1,0-9.89c-.07-1.68-.06-3.84.4-4.32a.58.58,0,0,1,.4-.17c1.11,0,1.35,2.46,1.35,4.53,0,.79,0,1.71,0,2.65a54.37,54.37,0,0,0,0,5.5l.09.94a25.24,25.24,0,0,0,.64,4.43c.45,1.33.47,1.38.1,1.55l-.35-.79.17.4-.43.08s-.07-.25-.32-1A25.86,25.86,0,0,1,664,78l-.09-.94a53.56,53.56,0,0,1,0-5.6c0-.94,0-1.85,0-2.63a11.48,11.48,0,0,0-.35-3.28,23.68,23.68,0,0,0-.06,3.26,82.25,82.25,0,0,0,0,9.83c.13,3.1-.42,4.81-1.66,5.09a2.41,2.41,0,0,1-2.43-1.55,9,9,0,0,1-.66-2.75c0-.12.09-9.55,0-13-.07-3-.61-3.25-1.43-3.56l-.19-.08c-.48.32-.48,3.93-.48,6.09a14.56,14.56,0,0,0,.09,3.22c0,.16.09.37.15.81a10.23,10.23,0,0,1,0,2.42,47.61,47.61,0,0,0-.08,5.21,25.41,25.41,0,0,1,0,3.78,5.55,5.55,0,0,0,0,.81c0,1.83-2.29,2.69-3.5,2.89Z" transform="translate(1.08 -8.32)"/><path class="cls-14" d="M684.3,86.84a.71.71,0,0,1-.47-.18c-.47-.39-.51-1.37-.57-3,0-.78-.06-1.66-.15-2.59a14,14,0,0,1-.06-3.06,19.41,19.41,0,0,0,.05-2.41c-.05-2,0-3,0-4,0-.49,0-1,0-1.56a16.81,16.81,0,0,0-.49-3.37c-.13-.64-.26-1.25-.33-1.78-.13-1.09-.13-1.09-.89-1.24a.22.22,0,0,0-.21.05c-.16.12-.45.54-.55,2,0,.33-.09.79-.16,1.34a32.68,32.68,0,0,0-.38,5.12c.09,2.7.09,3.42,0,8.62,0,2.69-.26,3.42-.63,3.77a1.06,1.06,0,0,1-.85.26A.77.77,0,0,0,678,85c-.34.29-.71.55-1.11.42s-.66-.75-1-2c-.14-.52-.3-1.16-.53-1.93-.72-2.43-.72-4.26-.72-7.9,0-1.48,0-3.33,0-5.65-.09-4.42-.89-4.72-1-4.73-.33-.08-1.14.72-1.83,2.16-.59,1.24-.4,3.88-.19,6.67.13,1.73.27,3.52.24,5.21-.06,3.11-.73,5.34-1.8,6a1.06,1.06,0,0,1-1.06.06c-.71-.36-.84-1.8-1-4.77-.09-1.32-.19-2.83-.39-4.21-.24-1.67-.34-2.92-.42-3.93a19.12,19.12,0,0,0-.48-3.37,1.58,1.58,0,0,0-.08-.28c-.07.26-.16.65-.27,1.26a24,24,0,0,0-.15,2.57,20.11,20.11,0,0,1-.44,4.66l-.82-.27a20.69,20.69,0,0,0,.4-4.42,23.55,23.55,0,0,1,.16-2.69c.3-1.74.58-2.33,1.1-2.36h0c.54,0,.76.68.92,1.31a20.17,20.17,0,0,1,.5,3.52c.09,1,.18,2.23.42,3.88.2,1.41.3,2.93.4,4.28.11,1.68.25,3.78.58,4.06,0,0,.07,0,.2,0,.48-.29,1.31-1.72,1.38-5.25,0-1.65-.1-3.42-.23-5.14-.23-3-.43-5.65.27-7.11.42-.88,1.55-2.9,2.79-2.63,1.06.23,1.59,2,1.66,5.56,0,2.33,0,4.18,0,5.67,0,3.67,0,5.35.68,7.65.23.78.4,1.44.54,2a8.82,8.82,0,0,0,.42,1.38,2.11,2.11,0,0,0,.28-.21,1.56,1.56,0,0,1,1.19-.38.62.62,0,0,0,.23,0c.15-.14.33-.81.37-3.16.08-5.18.08-5.9,0-8.58a32,32,0,0,1,.38-5.27c.07-.53.13-1,.15-1.28.11-1.42.39-2.25.89-2.64a1.12,1.12,0,0,1,.91-.21c1.19.23,1.4.49,1.58,2,.06.49.19,1.07.32,1.7A17.37,17.37,0,0,1,684,70c0,.59,0,1.08,0,1.57,0,1,0,2,0,4a20.3,20.3,0,0,1-.06,2.5A13.2,13.2,0,0,0,684,81c.09,1,.12,1.85.15,2.65a9.66,9.66,0,0,0,.24,2.33c.77-.12,2.7-.66,2.7-1.71a3.82,3.82,0,0,1,.05-.82,21.56,21.56,0,0,0-.05-3.16,37.35,37.35,0,0,1,.09-4.65,6.8,6.8,0,0,0,0-1.92c-.06-.35-.11-.52-.14-.64-.11-.42-.11-.42-.11-3,0-3.67.08-5.45.83-6a.9.9,0,0,1,.82-.1l.18.07c1.19.4,1.92.85,2,3.86s0,11.33,0,11.42h0a5.89,5.89,0,0,0,.58,2.07c.22.46.94,1,1.5.9s1-1.53.94-3.61a62.09,62.09,0,0,1,0-8.67c-.07-1.43-.06-3.32.38-3.79a.62.62,0,0,1,.42-.18c1.16,0,1.34,2.52,1.34,4,0,.69,0,1.49,0,2.32a41,41,0,0,0,0,4.79L696,78a20.69,20.69,0,0,0,.63,3.84c.45,1.16.49,1.25.13,1.44l-.39-.77.19.39-.42.09s-.08-.22-.32-.83a20.34,20.34,0,0,1-.68-4.07l-.09-.82a41.21,41.21,0,0,1,0-4.91c0-.82,0-1.61,0-2.3a8.6,8.6,0,0,0-.35-2.86,18,18,0,0,0-.06,2.84,67.45,67.45,0,0,0,0,8.59c.17,3.34-.77,4.29-1.58,4.5a2.44,2.44,0,0,1-2.5-1.36,6.66,6.66,0,0,1-.66-2.44c0-.1.08-8.35,0-11.41-.07-2.61-.58-2.78-1.42-3.06l-.19-.07c-.5.26-.5,3.39-.5,5.27a11.43,11.43,0,0,0,.09,2.79c0,.14.09.33.15.71a8.06,8.06,0,0,1,0,2.15,33.78,33.78,0,0,0-.09,4.54,19.84,19.84,0,0,1,0,3.33,4.05,4.05,0,0,0,0,.69c0,1.63-2.2,2.39-3.51,2.58Z" transform="translate(1.08 -8.32)"/><path class="cls-15" d="M53.44,81.74l-.18,0c-.74-.14-1.61-1-1.7-6.31-.05-2.66-.05-4.78-.05-6.49,0-4.2,0-6.12-.68-8.77-.23-.9-.4-1.65-.54-2.25a11,11,0,0,0-.42-1.6,2.53,2.53,0,0,0-.26.22A1.48,1.48,0,0,1,48.4,57h-.2c-.13.09-.35.69-.4,3.69-.08,5.93-.08,6.75,0,9.81a41.41,41.41,0,0,1-.38,6c-.07.61-.13,1.11-.15,1.48-.11,1.67-.4,2.6-.93,3a1.06,1.06,0,0,1-.88.18c-1.19-.25-1.4-.55-1.57-2.22-.06-.56-.19-1.24-.32-2a22.43,22.43,0,0,1-.51-4c0-.67,0-1.23,0-1.8,0-1.13,0-2.3,0-4.54a26.41,26.41,0,0,1,.06-2.85,17.49,17.49,0,0,0-.06-3.34c-.09-1.08-.12-2.11-.15-3a12.4,12.4,0,0,0-.25-2.73c-.83.16-2.69.78-2.69,2a6.32,6.32,0,0,1,0,.92,24.42,24.42,0,0,0,0,3.64,48.3,48.3,0,0,1-.09,5.29,9.8,9.8,0,0,0,0,2.24c.06.4.11.6.14.74.11.47.11.47.11,3.42,0,4.33-.08,6.29-.87,6.82a.82.82,0,0,1-.79.07l-.19-.07c-1.18-.45-1.9-1-2-4.35s0-13,0-13.06h0a7.75,7.75,0,0,0-.59-2.42c-.23-.56-1-1.16-1.44-1-.27.06-1.14.54-1,4.2a88.41,88.41,0,0,1,0,9.89c.07,1.68.05,3.84-.4,4.32a.59.59,0,0,1-.41.18c-1.1,0-1.34-2.47-1.34-4.54,0-.79,0-1.7.05-2.65a54.05,54.05,0,0,0-.05-5.5l-.08-.94a26.23,26.23,0,0,0-.64-4.43C30,58.09,30,58,30.32,57.87l.18.39.43-.08s.07.25.31,1a24.83,24.83,0,0,1,.68,4.62l.09.94a53.56,53.56,0,0,1,0,5.6c0,.94,0,1.85,0,2.63a11.48,11.48,0,0,0,.35,3.28A23.68,23.68,0,0,0,32.42,73a82.25,82.25,0,0,0,0-9.83c-.13-3.1.42-4.81,1.66-5.09a2.44,2.44,0,0,1,2.43,1.55,8.51,8.51,0,0,1,.65,2.75c0,.12-.08,9.55,0,13,.07,3,.62,3.25,1.43,3.56l.2.08c.48-.32.48-3.93.48-6.09a14.56,14.56,0,0,0-.09-3.22c0-.16-.09-.37-.16-.81a10.8,10.8,0,0,1,0-2.42,44.5,44.5,0,0,0,.09-5.21,25.41,25.41,0,0,1,0-3.78,5.55,5.55,0,0,0,0-.81c0-2.28,3.36-2.86,3.5-2.89a.72.72,0,0,1,.58.16c.47.39.52,1.33.59,3.41,0,.89.07,1.9.16,3a18.55,18.55,0,0,1,0,3.47,25.69,25.69,0,0,0,0,2.77c0,2.25,0,3.43,0,4.58,0,.56,0,1.11,0,1.78a22,22,0,0,0,.49,3.88c.14.73.27,1.43.33,2,.14,1.3.14,1.3.9,1.47a.19.19,0,0,0,.16,0c.14-.11.48-.55.59-2.38,0-.37.09-.89.16-1.52a41.32,41.32,0,0,0,.38-5.88c-.08-3.08-.08-3.91,0-9.85,0-3.13.26-3.92.65-4.3a1,1,0,0,1,.83-.25.67.67,0,0,0,.59-.2c.33-.33.7-.61,1.11-.49s.67.78,1,2.3c.13.6.3,1.33.53,2.22.71,2.76.71,4.84.71,9,0,1.7,0,3.82,0,6.48.1,5.23,1,5.46,1,5.47.29,0,1.08-.78,1.8-2.49.61-1.45.41-4.48.2-7.68-.13-2-.26-4-.23-6,.05-3.65.76-6.21,1.87-6.84a1,1,0,0,1,1,0c.69.4.82,2,1,5.39.09,1.52.19,3.24.39,4.83.24,1.91.34,3.34.42,4.48a25.24,25.24,0,0,0,.48,3.88,3.09,3.09,0,0,0,.08.3c.07-.29.16-.75.27-1.43s.12-1.75.15-3a25.78,25.78,0,0,1,.44-5.3l.83.24a26.33,26.33,0,0,0-.41,5.08,30.28,30.28,0,0,1-.16,3.06c-.3,2-.56,2.63-1.1,2.65s-.78-.71-.94-1.46a25.7,25.7,0,0,1-.5-4c-.09-1.19-.18-2.55-.42-4.43-.2-1.62-.3-3.35-.39-4.89-.12-1.95-.27-4.38-.61-4.7,0,0,0,0-.12,0-.47.27-1.37,1.88-1.44,6.11,0,1.88.1,3.92.23,5.88.23,3.45.43,6.43-.26,8.07C55.63,79.65,54.62,81.74,53.44,81.74Z" transform="translate(1.08 -8.32)"/><path class="cls-16" d="M22.31,79.44a.85.85,0,0,1-.23,0c-1.06-.23-1.59-2-1.67-5.56,0-2.33,0-4.18,0-5.67,0-3.67,0-5.35-.68-7.65-.23-.78-.4-1.44-.54-2a8.68,8.68,0,0,0-.42-1.39,2.11,2.11,0,0,0-.28.21,1.57,1.57,0,0,1-1.19.38.62.62,0,0,0-.23,0c-.15.14-.33.8-.37,3.16-.08,5.18-.08,5.91,0,8.58a33,33,0,0,1-.38,5.27c-.07.53-.13,1-.16,1.28-.1,1.42-.38,2.25-.88,2.64a1.12,1.12,0,0,1-.91.21c-1.2-.23-1.4-.49-1.58-2-.06-.48-.19-1.07-.32-1.7a17.37,17.37,0,0,1-.51-3.55c0-.59,0-1.08,0-1.57,0-1,0-2,0-4a18.43,18.43,0,0,1,.06-2.5,13.88,13.88,0,0,0-.06-2.9c-.09-1-.13-1.86-.16-2.65a9.28,9.28,0,0,0-.23-2.33c-.77.12-2.7.66-2.7,1.71a4.71,4.71,0,0,1-.05.82,22.15,22.15,0,0,0,0,3.17,35.83,35.83,0,0,1-.08,4.64,6.8,6.8,0,0,0,0,1.92,4.51,4.51,0,0,0,.14.64c.11.42.11.42.11,3,0,3.67-.08,5.45-.83,6a.9.9,0,0,1-.82.1l-.18-.07c-1.19-.4-1.92-.86-2-3.85s0-11.34,0-11.43h0a6.46,6.46,0,0,0-.58-2.07c-.22-.46-1-1-1.5-.9S2,61,2.14,63.07a64.15,64.15,0,0,1,0,8.67c.07,1.43.06,3.32-.38,3.79a.62.62,0,0,1-.42.18c-1.17,0-1.34-2.52-1.34-4C0,71,0,70.2,0,69.37a39.08,39.08,0,0,0,0-4.79l-.09-.82a20,20,0,0,0-.62-3.85c-.45-1.16-.49-1.25-.13-1.44l.2.38.42-.09c0,.05.08.22.31.83a19.53,19.53,0,0,1,.69,4.08l.08.81a39,39,0,0,1,.05,4.91c0,.82,0,1.62,0,2.3a8.55,8.55,0,0,0,.35,2.86,17.92,17.92,0,0,0,.06-2.84,67.45,67.45,0,0,0,0-8.59c-.17-3.34.77-4.29,1.58-4.5A2.45,2.45,0,0,1,5.36,60,6.66,6.66,0,0,1,6,62.42c0,.1-.08,8.35,0,11.41.07,2.61.58,2.78,1.41,3.06l.2.07c.49-.26.49-3.39.49-5.27A12,12,0,0,0,8,68.9a7.06,7.06,0,0,1-.16-.71,8.53,8.53,0,0,1,0-2.15A33.78,33.78,0,0,0,8,61.5a18.41,18.41,0,0,1,0-3.33,5.71,5.71,0,0,0,0-.69c0-1.63,2.2-2.39,3.5-2.58a.76.76,0,0,1,.6.17c.47.39.51,1.37.57,3,0,.78.06,1.66.15,2.59a14,14,0,0,1,.06,3.06,21,21,0,0,0-.06,2.41c.06,2,0,3,0,4,0,.49,0,1,0,1.56a16.81,16.81,0,0,0,.49,3.37c.14.64.27,1.25.34,1.78.13,1.09.13,1.09.88,1.24a.23.23,0,0,0,.22,0c.16-.12.44-.54.55-2,0-.33.08-.78.16-1.33a32.81,32.81,0,0,0,.38-5.13c-.09-2.7-.09-3.42,0-8.62,0-2.69.26-3.42.63-3.77a1,1,0,0,1,.84-.26.75.75,0,0,0,.61-.18A1.26,1.26,0,0,1,19,56.31c.5.16.66.75,1,2,.14.52.3,1.16.53,1.93.72,2.43.72,4.26.71,7.9,0,1.49,0,3.33.05,5.65.09,4.42.89,4.71,1,4.74.34.06,1.14-.74,1.83-2.17.59-1.24.4-3.88.19-6.66C24.15,68,24,66.21,24,64.52c.06-3.11.73-5.34,1.8-6a1.06,1.06,0,0,1,1.06-.06c.7.36.83,1.8,1,4.77.09,1.32.19,2.83.39,4.21.24,1.68.34,2.92.42,3.93a19.12,19.12,0,0,0,.48,3.37c0,.11.05.2.07.28a11.43,11.43,0,0,0,.28-1.26,24.49,24.49,0,0,0,.14-2.57,20,20,0,0,1,.45-4.66l.82.27a20.06,20.06,0,0,0-.4,4.42,23.55,23.55,0,0,1-.16,2.69c-.3,1.74-.58,2.33-1.1,2.36s-.78-.67-.94-1.31a19.26,19.26,0,0,1-.5-3.52c-.09-1-.19-2.23-.42-3.88-.2-1.41-.31-2.93-.4-4.28-.11-1.68-.26-3.78-.58-4.06,0,0-.07,0-.2.05-.48.29-1.32,1.72-1.38,5.26,0,1.64.1,3.42.23,5.13.23,3,.42,5.65-.27,7.11C24.47,77.61,23.46,79.44,22.31,79.44Z" transform="translate(1.08 -8.32)"/><path class="cls-17" d="M190.63,96.2h-.1c-.94-.12-1.92-1.6-2-11.73-.06-5.1-.05-9.16-.05-12.42,0-7.86,0-11.81-.81-17-.27-1.71-.47-3.13-.62-4.28a29.74,29.74,0,0,0-.56-3.31,5,5,0,0,0-.29.43,1.43,1.43,0,0,1-1.43.81,1.05,1.05,0,0,0-.18,0c-.35.23-.54,2.74-.58,7.47-.1,11.37-.1,12.95,0,18.83.07,4.23-.23,8.4-.45,11.44-.08,1.17-.15,2.14-.18,2.84-.13,3.47-.5,5.16-1.24,5.66a.9.9,0,0,1-.83.1c-1.42-.5-1.54-1-1.73-3.91-.07-1.1-.22-2.41-.37-3.79a67.92,67.92,0,0,1-.59-7.62c0-1.3,0-2.37,0-3.45,0-2.17,0-4.42,0-8.72,0-2.81,0-4.19.07-5.41a55.55,55.55,0,0,0-.07-6.48c-.11-2.07-.15-4-.18-5.75a28.92,28.92,0,0,0-.37-5.59,4.57,4.57,0,0,0-3.2,4.25c0,1.09,0,1.4-.05,1.69,0,.54-.08,1.06.05,7.07.1,5,0,7.92-.11,10.08a32,32,0,0,0,0,4.41c.07.79.13,1.18.17,1.46.12.83.12.83.12,6.44,0,9.33-.16,12.32-1.13,12.85a.76.76,0,0,1-.79-.06l-.21-.14c-1.35-.84-2.11-1.63-2.2-7.94-.1-6.73,0-24.82,0-25a24.4,24.4,0,0,0-.71-4.86c-.3-1.17-1.11-2.29-1.63-2.21-.15,0-1.53.45-1.32,8.5.34,12.44,0,18.82,0,18.88.09,3.36.07,7.53-.49,8.1l-.12.13-.25,0c-.37,0-1.49,0-1.49-8.28,0-1.52,0-3.27.05-5.08,0-3.87.11-7.87-.05-10.6l-.11-1.8a79.09,79.09,0,0,0-.75-8.61c-.21-1-.32-1.56-.36-1.9l.4-.15-.4.15c-.06-.47,0-.5.28-.57l.38-.11.14.38-.4.15.43,0s0,.27.38,1.91a80.28,80.28,0,0,1,.77,8.73l.1,1.8c.16,2.76.11,6.78,0,10.66,0,1.81,0,3.55,0,5.07a32.4,32.4,0,0,0,.51,6.82,65.31,65.31,0,0,0,.12-6.81c0-.1.33-6.45,0-18.85-.17-6.09.51-9.16,2.06-9.38,1.24-.17,2.26,1.56,2.59,2.85a25.4,25.4,0,0,1,.74,5.07c0,.2-.1,18.28,0,25,.08,6.15.83,6.62,1.79,7.22l.17.11c.63-.89.63-7.31.63-12,0-5.55,0-5.55-.11-6.31,0-.29-.1-.69-.17-1.5a30.82,30.82,0,0,1,0-4.53c.09-2.15.2-5.1.1-10-.13-6-.09-6.59,0-7.16,0-.27,0-.56,0-1.62a5.41,5.41,0,0,1,4-5.13.68.68,0,0,1,.57.11c.61.47.67,2.18.76,6.34,0,1.72.07,3.67.18,5.73a56.19,56.19,0,0,1,.06,6.56c-.05,1.21-.11,2.57-.06,5.36.06,4.3,0,6.56,0,8.74,0,1.08,0,2.14,0,3.44a66.51,66.51,0,0,0,.58,7.52c.16,1.4.31,2.71.38,3.83.18,2.81.25,2.83,1.15,3.15.22-.11.75-.79.92-5,0-.71.09-1.69.18-2.87.22-3,.51-7.17.44-11.37-.09-5.89-.09-7.47,0-18.85,0-6.2.33-7.58.85-8.08a1,1,0,0,1,.81-.25c.25,0,.41,0,.67-.4s.71-1.07,1.22-1c.66.14.78,1,1.21,4.18.16,1.15.36,2.57.63,4.27.82,5.21.82,9.18.81,17.1,0,3.25,0,7.31.06,12.4.11,10.21,1.15,10.84,1.27,10.88.34,0,1.26-1.64,2.11-5,.74-2.9.5-8.76.26-15-.15-3.78-.31-7.7-.28-11.36.08-7.38,1-12.34,2.4-12.93a.82.82,0,0,1,.93.19c.67.64.83,3.24,1.07,10,.11,2.93.23,6.24.46,9.29.28,3.65.4,6.37.49,8.56.13,2.89.22,5,.57,7.51,0,.4.11.72.15,1,.11-.6.24-1.58.38-3.17.12-1.23.15-3.41.18-5.73a83.92,83.92,0,0,1,.5-10l.85.15a81.61,81.61,0,0,0-.48,9.87c0,2.44-.07,4.54-.18,5.8-.42,4.52-.74,4.76-1.23,4.77s-.76-.53-1-2.53c-.35-2.58-.45-4.79-.57-7.59-.1-2.18-.22-4.9-.49-8.53-.23-3.07-.35-6.4-.46-9.33-.15-4.14-.32-8.84-.8-9.37-.35.09-1.78,2.58-1.87,12.13,0,3.64.12,7.54.27,11.32.25,6.27.49,12.19-.28,15.21C192.93,93.17,191.89,96.2,190.63,96.2Z" transform="translate(1.08 -8.32)"/><path class="cls-18" d="M154.3,91.8h-.12c-.93-.13-1.9-1.45-2-10.31-.06-4.46-.06-8-.06-10.86,0-6.87,0-10.32-.8-14.81-.27-1.49-.47-2.74-.62-3.75a24.05,24.05,0,0,0-.55-2.87,3,3,0,0,0-.31.39,1.48,1.48,0,0,1-1.42.71c-.13,0-.19,0-.21,0-.5.47-.54,5-.55,6.46-.1,9.94-.1,11.32,0,16.46a98.82,98.82,0,0,1-.45,10c-.08,1-.15,1.88-.18,2.49-.13,2.94-.5,4.47-1.19,5a1,1,0,0,1-.86.13c-1.43-.44-1.56-.89-1.75-3.47-.07-1-.22-2.1-.38-3.31a54,54,0,0,1-.58-6.68c0-1.13,0-2.07,0-3,0-1.9,0-3.87,0-7.62,0-2.47,0-3.68.07-4.74a44.25,44.25,0,0,0-.07-5.66c-.11-1.81-.15-3.52-.18-5a23.2,23.2,0,0,0-.36-4.84c-.58.17-3.22,1.1-3.22,3.67,0,.95,0,1.22,0,1.48,0,.48-.08.92,0,6.17.11,4.34,0,6.93-.1,8.83a24.32,24.32,0,0,0,0,3.84c.07.68.13,1,.17,1.27.12.73.12.73.12,5.64,0,7.39-.11,10.69-1.1,11.26a.77.77,0,0,1-.8,0l-.21-.12c-1.36-.75-2.13-1.44-2.22-7-.1-5.89,0-21.71,0-21.87a18.59,18.59,0,0,0-.71-4.22c-.3-1-1.12-2-1.65-1.91-.16,0-1.51.45-1.3,7.38.33,10.88,0,16.46,0,16.52.08,2.91.07,6.54-.48,7.1l-.13.13-.26,0c-1,0-1.49-2.46-1.49-7.3,0-1.33,0-2.86.05-4.44.06-3.38.12-6.87-.05-9.26l-.1-1.57a60.08,60.08,0,0,0-.75-7.51c-.5-2.1-.5-2.1-.1-2.23l.38-.13.15.37-.39.17.42,0s0,.25.38,1.67a58.28,58.28,0,0,1,.77,7.65l.11,1.57c.16,2.42.1,5.94.05,9.33,0,1.58-.05,3.11-.05,4.43a25.15,25.15,0,0,0,.5,6,48,48,0,0,0,.12-5.95c0-.09.34-5.64,0-16.47-.16-5.24.53-8,2-8.26,1.23-.19,2.29,1.38,2.62,2.51a18.55,18.55,0,0,1,.74,4.46c0,.18-.09,16,0,21.86.09,5.33.8,5.72,1.77,6.26l.23.12c.6-.48.6-6.51.6-10.49,0-4.84,0-4.84-.11-5.5,0-.26-.1-.61-.17-1.32a23.68,23.68,0,0,1,0-4c.08-1.88.2-4.46.1-8.77a58.59,58.59,0,0,1,0-6.26c0-.24,0-.49,0-1.41,0-2.84,2.61-4.21,4-4.54a.68.68,0,0,1,.58.12c.59.46.65,1.95.73,5.57,0,1.5.08,3.2.18,5a43.71,43.71,0,0,1,.07,5.75c-.05,1-.11,2.25-.07,4.68.07,3.77,0,5.74,0,7.65,0,.94,0,1.87,0,3a52.93,52.93,0,0,0,.58,6.57c.16,1.22.31,2.37.38,3.35.18,2.41.23,2.43,1.14,2.71a.1.1,0,0,0,.11,0c.2-.14.67-.84.82-4.29,0-.62.1-1.48.19-2.52.21-2.64.51-6.26.44-9.92-.1-5.15-.1-6.54,0-16.49.05-5.37.32-6.6.82-7.08a1.05,1.05,0,0,1,.84-.25.66.66,0,0,0,.68-.35c.33-.47.73-1,1.22-.84s.77,1,1.2,3.69c.16,1,.35,2.24.62,3.73.82,4.57.82,8,.82,15,0,2.85,0,6.4.05,10.85.12,9.2,1.22,9.45,1.27,9.46.25,0,1.22-1.22,2.12-4.31.73-2.52.5-7.63.25-13.05-.15-3.31-.3-6.74-.27-9.95.07-6.35,1-10.69,2.35-11.33a.87.87,0,0,1,1,.14c.69.57.85,2.85,1.09,8.76.11,2.56.23,5.45.46,8.12.28,3.19.4,5.58.49,7.49a58.94,58.94,0,0,0,.57,6.56c.05.35.1.63.15.85.1-.52.23-1.37.38-2.78.11-1.06.15-3,.18-5a61.61,61.61,0,0,1,.5-8.78l.85.17a62.3,62.3,0,0,0-.48,8.62c0,2.13-.07,4-.19,5.07-.41,3.92-.74,4.21-1.23,4.22h0c-.51,0-.74-.53-1-2.25a60.33,60.33,0,0,1-.57-6.65c-.1-1.9-.22-4.28-.49-7.45-.24-2.69-.36-5.6-.46-8.16-.15-3.6-.32-7.67-.79-8.14-.31,0-1.79,2-1.88,10.54,0,3.18.12,6.6.27,9.9.26,5.73.49,10.68-.29,13.33C156.59,89.14,155.54,91.8,154.3,91.8Zm-26.77-39-.39.17Z" transform="translate(1.08 -8.32)"/><path class="cls-19" d="M115.8,87.94h-.12c-.82-.12-1.67-1.23-1.77-8.57,0-3.68,0-6.61,0-9,0-5.66,0-8.5-.69-12.2-.23-1.23-.4-2.26-.54-3.09a20.55,20.55,0,0,0-.43-2.26,2.07,2.07,0,0,0-.2.24,1.33,1.33,0,0,1-1.26.62h-.16c-.25.22-.4,2-.43,5.26-.08,8.2-.08,9.34,0,13.58a81,81,0,0,1-.38,8.26c-.08.85-.13,1.55-.16,2-.11,2.43-.43,3.71-1,4.14a.89.89,0,0,1-.79.13c-1.26-.38-1.39-.79-1.55-2.93-.06-.79-.19-1.73-.32-2.72a41.78,41.78,0,0,1-.5-5.53c0-.93,0-1.7,0-2.48,0-1.57,0-3.19,0-6.28,0-2,0-3,.06-3.92a35.63,35.63,0,0,0-.06-4.65c-.09-1.5-.13-2.91-.16-4.15a20.47,20.47,0,0,0-.28-3.91c-.56.17-2.66.93-2.66,2.94a11.39,11.39,0,0,1,0,1.23c0,.37-.07.75,0,5.08.09,3.58,0,5.72-.09,7.28a19.22,19.22,0,0,0,0,3.15c.06.57.11.85.14,1.05.11.61.11.61.11,4.66,0,6.25-.09,8.84-1,9.35a.74.74,0,0,1-.76,0l-.18-.1c-1.15-.61-1.86-1.22-1.94-5.84-.08-4.86,0-17.9,0-18a14.73,14.73,0,0,0-.6-3.46c-.25-.82-.93-1.59-1.35-1.52-.13,0-1.24.37-1.06,6,.29,9,0,13.59,0,13.63.07,2.4.06,5.41-.42,5.9l-.13.13-.25,0c-.33,0-1.34,0-1.34-6.1,0-1.09,0-2.35,0-3.66,0-2.78.1-5.66,0-7.63l-.09-1.3a46.66,46.66,0,0,0-.64-6.17c-.44-1.8-.44-1.8,0-1.93l.14.41.43-.05s0,.2.32,1.36a47.27,47.27,0,0,1,.66,6.33l.09,1.29c.14,2,.09,4.9,0,7.71,0,1.3,0,2.55,0,3.64a22.55,22.55,0,0,0,.35,4.57c.1-1,.11-2.91.07-4.55,0-.09.28-4.66,0-13.59-.14-4.41.44-6.66,1.78-6.88,1.08-.18,2,1.15,2.32,2.12a15.13,15.13,0,0,1,.64,3.7c0,.14-.08,13.18,0,18,.07,4.35.66,4.66,1.48,5.1l.13.06c.49-.73.49-5.41.49-8.55a29.07,29.07,0,0,0-.09-4.52c0-.21-.09-.5-.15-1.09a18.82,18.82,0,0,1,0-3.29c.07-1.55.18-3.67.09-7.22a50.22,50.22,0,0,1,0-5.18,10,10,0,0,0,0-1.15c0-2.4,2.27-3.55,3.47-3.82a.64.64,0,0,1,.55.12c.53.41.58,1.64.65,4.64,0,1.24.06,2.64.15,4.13a33.63,33.63,0,0,1,.06,4.75c0,.86-.09,1.85-.06,3.85.06,3.11,0,4.73,0,6.31,0,.78,0,1.54,0,2.47a42,42,0,0,0,.5,5.41c.13,1,.26,2,.33,2.77.14,1.93.17,1.94.92,2.17.18-.1.59-.61.73-3.48,0-.51.08-1.22.15-2.08a77,77,0,0,0,.38-8.17c-.08-4.25-.08-5.4,0-13.6,0-4.44.28-5.47.72-5.89a1,1,0,0,1,.77-.24.51.51,0,0,0,.54-.26c.29-.4.64-.83,1.11-.71s.69.82,1.07,3.1c.13.82.3,1.85.53,3.07.7,3.78.7,6.64.7,12.36,0,2.35,0,5.27,0,8.95.09,7.33,1,7.71,1,7.72.24,0,1-1.06,1.75-3.5.63-2.07.43-6.28.21-10.74-.13-2.73-.26-5.56-.23-8.2.06-5.32.82-8.84,2-9.41a.81.81,0,0,1,.9.11c.61.49.75,2.39,1,7.29.1,2.1.2,4.49.4,6.69.23,2.63.34,4.6.42,6.18a48.84,48.84,0,0,0,.48,5.4c0,.14,0,.28.07.39.08-.43.17-1,.27-2s.12-2.44.15-4.11a50.74,50.74,0,0,1,.43-7.25l.85.18a48.25,48.25,0,0,0-.41,7.09c0,1.76-.06,3.28-.16,4.19-.35,3.18-.62,3.53-1.11,3.54h0c-.52,0-.71-.62-.92-1.92a47.23,47.23,0,0,1-.5-5.49C121.3,74,121.2,72,121,69.39c-.21-2.22-.31-4.62-.4-6.73-.13-2.93-.27-6.24-.65-6.66-.26.08-1.43,1.86-1.51,8.64,0,2.62.1,5.43.23,8.15.22,4.73.42,8.82-.25,11C117.81,85.72,116.9,87.94,115.8,87.94Z" transform="translate(1.08 -8.32)"/><path class="cls-20" d="M84.66,84.76h-.15c-.8-.13-1.64-1.13-1.74-7.55,0-3.21,0-5.77,0-7.83,0-4.94,0-7.42-.68-10.65-.23-1.08-.4-2-.54-2.7a17.45,17.45,0,0,0-.43-2l-.22.24a1.41,1.41,0,0,1-1.24.54h-.17c-.17.14-.38,1-.42,4.55-.09,7.17-.09,8.16,0,11.87a60.13,60.13,0,0,1-.39,7.24c-.07.73-.13,1.34-.15,1.78-.11,2.09-.42,3.21-1,3.63a.92.92,0,0,1-.82.15c-1.26-.33-1.4-.72-1.56-2.61-.06-.68-.19-1.5-.32-2.37a32,32,0,0,1-.51-4.84c0-.82,0-1.5,0-2.18,0-1.37,0-2.78,0-5.49,0-1.78,0-2.66.06-3.43a25.7,25.7,0,0,0-.06-4.05c-.09-1.32-.12-2.55-.15-3.64a16.08,16.08,0,0,0-.27-3.37c-.53.13-2.67.79-2.67,2.52a9,9,0,0,1,0,1.09,39.54,39.54,0,0,0,0,4.43c.09,3.13,0,5-.09,6.37a15.55,15.55,0,0,0,0,2.74c.07.49.12.73.15.91.11.54.11.54.11,4.1,0,5.3-.09,7.67-.93,8.2a.81.81,0,0,1-.77,0l-.18-.09c-1.16-.54-1.88-1.08-2-5.16-.08-4.25,0-15.66,0-15.78h0a11.41,11.41,0,0,0-.59-3c-.24-.67-.93-1.4-1.39-1.31-.2,0-1.2.47-1,5.19.29,7.85,0,11.89,0,11.93.07,2.07.06,4.69-.42,5.18l-.12.13-.26,0c-.89,0-1.35-1.81-1.35-5.38,0-1,0-2.07,0-3.21.05-2.43.09-5,0-6.66l-.09-1.13a38.68,38.68,0,0,0-.64-5.39c-.45-1.61-.45-1.61-.07-1.76l.16.41.42-.07c0,.06.07.29.32,1.19a35.47,35.47,0,0,1,.67,5.56l.09,1.12c.14,1.76.09,4.29,0,6.75,0,1.13,0,2.23,0,3.19a16.53,16.53,0,0,0,.35,4,35.23,35.23,0,0,0,.06-4c0-.08.29-4.08,0-11.88-.13-3.78.45-5.83,1.74-6.07,1-.2,2,1,2.36,1.87a12.09,12.09,0,0,1,.65,3.27c0,.13-.09,11.52,0,15.76.07,3.75.65,4,1.45,4.39l.2.1c.45-.41.45-4.65.45-7.45a22.1,22.1,0,0,0-.09-3.94,9,9,0,0,1-.15-1,14.57,14.57,0,0,1,0-2.89c.07-1.36.17-3.21.08-6.31a36.51,36.51,0,0,1,0-4.54,8.59,8.59,0,0,0,0-1c0-2.13,2.28-3.15,3.49-3.4a.67.67,0,0,1,.56.14c.5.4.56,1.54.63,4.09,0,1.08.06,2.3.15,3.59a28.64,28.64,0,0,1,.06,4.17,33.38,33.38,0,0,0-.06,3.36c0,2.72,0,4.15,0,5.52,0,.68,0,1.35,0,2.17a32.14,32.14,0,0,0,.49,4.71c.14.88.27,1.72.33,2.43.15,1.64.15,1.64.92,1.84.05,0,.07,0,.09,0s.52-.62.64-3c0-.45.09-1.08.16-1.83a58.63,58.63,0,0,0,.38-7.13c-.08-3.72-.08-4.72,0-11.9,0-3.85.27-4.76.69-5.16a1,1,0,0,1,.79-.25.55.55,0,0,0,.56-.23c.3-.36.66-.73,1.11-.62s.69.81,1,2.75c.14.72.3,1.61.53,2.68.71,3.31.71,5.83.71,10.83,0,2.06,0,4.61,0,7.82.1,6.48,1,6.7,1,6.7.24,0,1-.84,1.77-3,.62-1.78.42-5.46.21-9.35-.13-2.39-.26-4.86-.23-7.18.06-4.56.8-7.65,2-8.25a.89.89,0,0,1,.94.06c.63.45.77,2.12,1,6.43.09,1.84.2,3.93.39,5.85.24,2.3.34,4,.43,5.4a33.77,33.77,0,0,0,.48,4.71c0,.13,0,.25.07.36.07-.37.17-.92.27-1.74s.12-2.13.15-3.58a38.23,38.23,0,0,1,.43-6.37l.85.21a37.5,37.5,0,0,0-.42,6.17c0,1.55,0,2.88-.15,3.68-.34,2.69-.61,3.13-1.11,3.14s-.74-.59-.94-1.71a36.74,36.74,0,0,1-.5-4.81c-.08-1.38-.18-3.09-.42-5.37-.2-2-.3-4-.39-5.9-.12-2.4-.27-5.39-.63-5.77-.23,0-1.46,1.47-1.54,7.5,0,2.29.11,4.75.24,7.12.22,4.15.42,7.74-.26,9.68C86.76,82.51,85.81,84.76,84.66,84.76Z" transform="translate(1.08 -8.32)"/><path class="cls-21" d="M222.23,102.46a.62.62,0,0,1-.36-.12c-.64-.46-.7-2.32-.79-7.65,0-2.08-.07-4.44-.18-6.94-.19-4.49-.13-6-.07-8,0-1.46.11-3.12.07-6.51-.06-5.21,0-8,0-10.6,0-1.3,0-2.59,0-4.16,0-3-.31-6.27-.58-9.15-.16-1.69-.31-3.29-.38-4.64-.18-3.48-.28-3.52-1.18-3.91-.1.06-.71.64-.89,6.13,0,.85-.1,2-.18,3.48-.22,3.67-.51,8.7-.44,13.79.09,7.14.09,9.07,0,22.87-.06,8.35-.41,9.31-.89,9.77a1,1,0,0,1-.78.23c-.24,0-.38,0-.64.51s-.69,1.25-1.22,1.16c-.68-.13-.79-1.07-1.24-5-.16-1.4-.35-3.12-.62-5.18C211,82.27,211,77.45,211,67.87c0-4,0-8.87,0-15.05-.11-12-1.1-13.18-1.3-13.29-.33.13-1.24,2.09-2.08,6.07-.74,3.54-.51,10.66-.26,18.2.15,4.59.31,9.34.27,13.77-.07,9.11-1,15.1-2.46,15.63a.79.79,0,0,1-.9-.27c-.67-.78-.82-4.65-1-12-.1-3.55-.22-7.57-.46-11.28-.27-4.41-.39-7.72-.49-10.37-.12-3.51-.21-6-.56-9.13L201.56,49c-.11.74-.24,1.93-.39,3.85-.11,1.48-.14,4.14-.17,7-.06,4.44-.12,9.49-.5,12.11l-.86-.12a117.26,117.26,0,0,0,.49-12c0-2.82.07-5.49.18-7,.43-5.7.75-5.7,1.23-5.71h0c.5,0,.72.45,1,3,.35,3.12.45,5.8.57,9.19.09,2.65.21,5.95.49,10.35.23,3.72.35,7.75.46,11.3.15,5.06.32,10.78.82,11.44.44-.4,1.76-3.66,1.85-14.78,0-4.42-.12-9.16-.27-13.74-.25-7.59-.49-14.77.28-18.41,1-4.58,2-6.85,3-6.75.67.07,1.93.2,2.06,14.14,0,6.18,0,11.1,0,15.06,0,9.55,0,14.34.81,20.6.27,2.06.46,3.79.62,5.19.21,1.85.39,3.38.56,4,.07-.11.15-.26.26-.48.48-.94,1-1,1.46-1a.74.74,0,0,0,.15,0c.55-.43.59-7,.61-9.15.1-13.79.1-15.71,0-22.84-.07-5.13.23-10.18.44-13.86.09-1.43.16-2.61.18-3.46.18-5.4.76-6.49,1.31-6.84a.82.82,0,0,1,.79-.05c1.37.59,1.51,1,1.7,4.66.08,1.33.22,2.92.38,4.6.28,2.9.59,6.2.59,9.23,0,1.57,0,2.86,0,4.17,0,2.64-.05,5.37,0,10.58,0,3.41,0,5.08-.07,6.55-.07,1.92-.12,3.43.07,7.88.1,2.51.14,4.88.18,7a41.72,41.72,0,0,0,.38,6.85,5.45,5.45,0,0,0,3.19-5.23c0-1.32,0-1.68,0-2,0-.67.08-1.3,0-8.6-.1-6,0-9.59.1-12.22a45.52,45.52,0,0,0,0-5.37c-.08-1-.13-1.43-.17-1.78-.12-1-.12-1-.12-7.77,0-11.41.16-15,1.18-15.53a.71.71,0,0,1,.77.11l.21.16c1.33,1,2.08,1.95,2.17,9.54.09,8.16,0,30.1,0,30.32a34.87,34.87,0,0,0,.71,5.94c.32,1.51,1.17,2.76,1.6,2.73.07,0,1.57-.3,1.34-10.41-.33-15.08,0-22.81,0-22.88-.09-4.13-.07-9.2.49-9.78l.13-.13.24,0c.41,0,1.49,0,1.49,10,0,1.84,0,4,0,6.15-.05,4.69-.11,9.55,0,12.87l.11,2.18c.2,4.28.39,8.32.75,10.46.22,1.26.33,2,.36,2.34l-.4.12.4-.12c0,.46-.07.49-.3.54l-.4.1-.11-.4.4-.12-.42,0s0-.3-.38-2.33c-.38-2.19-.57-6.26-.77-10.57l-.1-2.18c-.17-3.35-.11-8.21-.05-12.92,0-2.19.05-4.31.05-6.14a46.87,46.87,0,0,0-.51-8.3c-.15,1.65-.18,5.11-.12,8.29,0,.1-.33,7.81,0,22.85.24,11-1.53,11.23-2.11,11.29-1.23.15-2.23-1.91-2.55-3.41a35.87,35.87,0,0,1-.73-6.12c0-.23.1-22.16,0-30.31-.09-7.53-.85-8.12-1.82-8.86l-.13-.1c-.65,1.19-.65,9-.65,14.67,0,6.73,0,6.73.12,7.67,0,.35.09.84.17,1.82a44.74,44.74,0,0,1,0,5.46c-.09,2.61-.21,6.19-.1,12.18.12,7.33.08,8,0,8.66,0,.34,0,.69,0,2a6.29,6.29,0,0,1-4,6.12A.65.65,0,0,1,222.23,102.46Z" transform="translate(1.08 -8.32)"/></g><path class="cls-22" d="M148.13,96.87H135.81L128.9,66c-.26-1.1-.69-3.37-1.31-6.81s-1-5.74-1.06-6.92c-.14,1.44-.49,3.77-1,7s-1,5.48-1.29,6.85l-6.88,30.75H105L92,38.18h10.65l6.53,32q1.71,8.88,2.48,15.38.21-2.3,1-7.09T114,71.05l7.44-32.87h10.22l7.44,32.87c.32,1.48.73,3.72,1.22,6.75s.86,5.62,1.12,7.79q.34-3.14,1.11-7.81t1.4-7.57l6.49-32h10.65Z" transform="translate(1.08 -8.32)"/><path class="cls-22" d="M199.64,96.87l-3.7-14H177.33l-3.7,14H162l18-58.93h13.23L211.3,96.87Zm-6.28-24.41q-5.15-19-5.78-21.48t-.93-3.93q-1.14,5.14-6.59,25.41Z" transform="translate(1.08 -8.32)"/><path class="cls-22" d="M247.69,38.18h10.92L241.27,96.87h-11.8L212.16,38.18h10.92l9.6,34.92c.53,2.06,1.09,4.46,1.66,7.21S235.26,85,235.4,86A117.38,117.38,0,0,1,238,73.1Z" transform="translate(1.08 -8.32)"/><path class="cls-22" d="M295.29,96.87H265.9V38.18h29.39v10.2H276.72V61.26H294v10.2H276.72V86.59h18.57Z" transform="translate(1.08 -8.32)"/><path class="cls-22" d="M306.79,96.87V38.18h10.82V86.59h20.7V96.87Z" transform="translate(1.08 -8.32)"/><path class="cls-22" d="M377.42,96.87H348V38.18h29.39v10.2H358.85V61.26h17.28v10.2H358.85V86.59h18.57Z" transform="translate(1.08 -8.32)"/><path class="cls-22" d="M434.2,96.87H420.45l-22.2-44.4h-.32q.66,11.76.67,16.78V96.87h-9.67V38.18h13.65l22.16,43.95H425c-.35-7.62-.53-13-.53-16.17V38.18h9.74Z" transform="translate(1.08 -8.32)"/><path class="cls-22" d="M467.28,63.91h20.24V94.34a51.41,51.41,0,0,1-9.27,2.59,53,53,0,0,1-8.88.74q-11.55,0-17.64-7.81t-6.1-22.42q0-14.2,7.07-22.16t19.6-7.94A33.69,33.69,0,0,1,487.45,41l-3.59,9.95a23,23,0,0,0-11.63-3.21A13.56,13.56,0,0,0,461,53.11q-4.22,5.41-4.22,14.57,0,9.55,3.4,14.59a11.2,11.2,0,0,0,9.9,5,30.79,30.79,0,0,0,6.87-.8V74.27h-9.66Z" transform="translate(1.08 -8.32)"/><path class="cls-22" d="M520.21,96.87H509.39V48.54H495.53V38.18h38.54V48.54H520.21Z" transform="translate(1.08 -8.32)"/><path class="cls-22" d="M584.6,96.87H573.81V71.54H553.6V96.87H542.78V38.18H553.6v23h20.21v-23H584.6Z" transform="translate(1.08 -8.32)"/></g></g></svg>