<svg id="Layer_1" data-name="Layer 1" xmlns="http://www.w3.org/2000/svg" viewBox="0 0 97.9 28.53"><path d="M4.57,4.46A3.93,3.93,0,0,1,8.5,7.17H6.57a2.09,2.09,0,0,0-2-1.2A2.5,2.5,0,0,0,2.05,8.74a2.51,2.51,0,0,0,2.51,2.77,2.1,2.1,0,0,0,2-1.21H8.5A3.93,3.93,0,0,1,4.57,13,4.14,4.14,0,0,1,.32,8.74,4.14,4.14,0,0,1,4.57,4.46Z" transform="translate(0 -3.53)"/><path d="M12.9,13A3.25,3.25,0,0,1,9.53,9.61,3.28,3.28,0,0,1,13,6.18a3.28,3.28,0,0,1,3.41,3.43A3.32,3.32,0,0,1,12.9,13Zm0-1.46a1.77,1.77,0,0,0,1.74-2,1.74,1.74,0,0,0-1.72-2,1.72,1.72,0,0,0-1.69,2C11.23,10.93,12,11.58,12.9,11.58Z" transform="translate(0 -3.53)"/><path d="M17.63,8h5.08V9.36H17.63Z" transform="translate(0 -3.53)"/><path d="M24.6,4.06h1.68v8.88H24.6Z" transform="translate(0 -3.53)"/><path d="M27.75,4.52a1,1,0,1,1,1,1A1,1,0,0,1,27.75,4.52Zm.19,1.77h1.67v6.65H27.94Z" transform="translate(0 -3.53)"/><path d="M32.36,6.29,34,11.39l1.68-5.1h1.79l-2.46,6.65H33L30.56,6.29Z" transform="translate(0 -3.53)"/><path d="M38.28,4.52a1,1,0,1,1,1,1A1,1,0,0,1,38.28,4.52Zm.18,1.77h1.68v6.65H38.46Z" transform="translate(0 -3.53)"/><path d="M46.45,9.27a1.5,1.5,0,1,0-3,0v3.67H41.79V6.29h1.68v.83a2.52,2.52,0,0,1,2-.92A2.55,2.55,0,0,1,48.13,9v3.9H46.45Z" transform="translate(0 -3.53)"/><path d="M52.33,6.18a2.58,2.58,0,0,1,2.19,1.06v-1h1.7V13a3,3,0,0,1-3.29,3.23c-1.87,0-3.18-.94-3.35-2.46h1.67A1.71,1.71,0,0,0,54.52,13V12A2.6,2.6,0,0,1,52.33,13a3.15,3.15,0,0,1-3-3.45A3.11,3.11,0,0,1,52.33,6.18Zm.43,1.48A1.77,1.77,0,0,0,51,9.59a1.82,1.82,0,0,0,1.75,2,1.79,1.79,0,0,0,1.76-2A1.78,1.78,0,0,0,52.76,7.66Z" transform="translate(0 -3.53)"/><path d="M63.61,6.29A2.86,2.86,0,0,1,66.19,7.8V4.06H67v8.88h-.84V11.47A2.73,2.73,0,0,1,63.6,13a3.11,3.11,0,0,1-3.13-3.38A3.1,3.1,0,0,1,63.61,6.29Zm.14.73a2.39,2.39,0,0,0-2.43,2.63,2.42,2.42,0,0,0,2.43,2.65,2.44,2.44,0,0,0,2.44-2.64A2.44,2.44,0,0,0,63.75,7Z" transform="translate(0 -3.53)"/><path d="M74.62,12.94h-.84V11.78A2.36,2.36,0,0,1,71.55,13a2.54,2.54,0,0,1-2.66-2.83V6.39h.83v3.73a1.91,1.91,0,0,0,2,2.19c1.22,0,2.07-.77,2.07-2.36V6.39h.84Z" transform="translate(0 -3.53)"/><path d="M77.39,12.94h-.84V6.39h.84V7.55a2.25,2.25,0,0,1,2.24-1.28v.87H79.4c-1.09,0-2,.49-2,2.14Z" transform="translate(0 -3.53)"/><path d="M80.7,4.53a.61.61,0,0,1,1.22,0,.61.61,0,1,1-1.22,0Zm.19,1.86h.84v6.55h-.84Z" transform="translate(0 -3.53)"/><path d="M88.54,9.19a1.91,1.91,0,0,0-2-2.19c-1.22,0-2.07.77-2.07,2.36v3.58h-.84V6.39h.84V7.5a2.4,2.4,0,0,1,2.23-1.23A2.54,2.54,0,0,1,89.37,9.1v3.84h-.83Z" transform="translate(0 -3.53)"/><path d="M94,6.29a2.75,2.75,0,0,1,2.59,1.52V6.39h.84V13.1a3.17,3.17,0,0,1-6.19.82h.83a2.24,2.24,0,0,0,2.3,1.5,2.14,2.14,0,0,0,2.22-2.32V11.48A2.75,2.75,0,0,1,94,13a3.11,3.11,0,0,1-3.13-3.38A3.09,3.09,0,0,1,94,6.29Zm.16.73A2.4,2.4,0,0,0,91.7,9.65a2.44,2.44,0,1,0,4.87,0A2.44,2.44,0,0,0,94.14,7Z" transform="translate(0 -3.53)"/><path d="M6.37,19.21a5.93,5.93,0,0,1,5.91,4.06H9.38a3.17,3.17,0,0,0-3-1.8c-2.2,0-3.77,1.61-3.77,4.16s1.57,4.16,3.77,4.16a3.14,3.14,0,0,0,3-1.82h2.9A5.9,5.9,0,0,1,6.37,32,6.19,6.19,0,0,1,0,25.63,6.2,6.2,0,0,1,6.37,19.21Z" transform="translate(0 -3.53)"/><path d="M22.07,32.06a6.44,6.44,0,1,1,0-12.87,6.28,6.28,0,0,1,6.43,6.43A6.29,6.29,0,0,1,22.07,32.06Zm0-2.25c2.27,0,3.83-1.64,3.83-4.19s-1.56-4.16-3.83-4.16-3.85,1.6-3.85,4.16S19.78,29.81,22.07,29.81Z" transform="translate(0 -3.53)"/><path d="M40.77,19.37h2.69L38.85,31.94H35.78l-4.6-12.57h2.7l3.45,10Z" transform="translate(0 -3.53)"/><path d="M46.76,19.37h2.52V31.94H46.76Z" transform="translate(0 -3.53)"/><path d="M64.59,25.67c0,3.8-2.61,6.27-6.63,6.27H53.57V19.37H58C62,19.37,64.59,21.85,64.59,25.67Zm-6.72,4.12c2.65,0,4.14-1.51,4.14-4.12s-1.49-4.18-4.14-4.18H56.09v8.3Z" transform="translate(0 -3.53)"/><path d="M68.31,24.45h7.63v2.12H68.31Z" transform="translate(0 -3.53)"/><path d="M81.72,21.13H80V18.81h4.34V31.94H81.72Z" transform="translate(0 -3.53)"/><path d="M91.51,28.24a1.87,1.87,0,0,0,2,1.64c1.47,0,2.12-1.1,2.12-4.05a3.39,3.39,0,0,1-2.77,1.23,3.88,3.88,0,0,1-4.09-4.2,4.09,4.09,0,0,1,4.43-4.36c3.57,0,4.66,2.42,4.66,6.58,0,4.46-1,6.87-4.46,6.87a3.92,3.92,0,0,1-4.27-3.71Zm3.93-5.36a2.11,2.11,0,1,0-4.22,0A2,2,0,0,0,93.42,25,1.93,1.93,0,0,0,95.44,22.88Z" transform="translate(0 -3.53)"/></svg>