<svg id="Layer_1" data-name="Layer 1" xmlns="http://www.w3.org/2000/svg" viewBox="0 0 852.3 97.92"><defs><style>.cls-1{fill:#709cdb;}</style></defs><path class="cls-1" d="M30.85,50H21.2V72.89H5.64V9H30.85C46.5,9,54.33,17.83,54.33,29.57,54.33,40.13,47.14,50,30.85,50ZM29.67,37.58c6.18,0,8.82-3.09,8.82-8s-2.64-8-8.82-8H21.2v16Z" transform="translate(-5.64 0)"/><path class="cls-1" d="M85,73.62c-14.92,0-25.66-10-25.66-26.12S69.89,21.38,85,21.38c14.84,0,25.3,9.83,25.3,25.3a39.74,39.74,0,0,1-.27,4.55H74.8c.55,6.64,4.64,9.74,9.65,9.74a8.29,8.29,0,0,0,8.1-4.91h16.56C106.65,66,97.64,73.62,85,73.62Zm-10.1-31H94.37c0-5.56-4.37-8.74-9.56-8.74S75.8,36.94,74.89,42.59Z" transform="translate(-5.64 0)"/><path class="cls-1" d="M134,72.89H118.48V22.11H134v8.46c3.55-5.37,9.1-9,15.93-9V38h-4.28C138.32,38,134,40.58,134,49.32Z" transform="translate(-5.64 0)"/><path class="cls-1" d="M178.09,73.62c-13.56,0-22.66-7.55-23.39-17.38h15.38c.36,3.55,3.55,5.91,7.82,5.91,4,0,6.1-1.82,6.1-4.09,0-8.19-27.66-2.28-27.66-20.93,0-8.65,7.37-15.75,20.65-15.75,13.11,0,20.39,7.28,21.39,17.29H184c-.45-3.45-3.09-5.73-7.46-5.73-3.64,0-5.64,1.46-5.64,3.91,0,8.1,27.48,2.37,27.75,21.3C198.65,67,190.83,73.62,178.09,73.62Z" transform="translate(-5.64 0)"/><path class="cls-1" d="M231.32,73.62c-14.92,0-26.21-10-26.21-26.12s11.56-26.12,26.39-26.12,26.39,10,26.39,26.12S246.25,73.62,231.32,73.62Zm0-13.47c5.55,0,10.74-4.09,10.74-12.65S237,34.85,231.5,34.85c-5.64,0-10.55,4-10.55,12.65S225.68,60.15,231.32,60.15Z" transform="translate(-5.64 0)"/><path class="cls-1" d="M301.21,45.32c0-6.92-3.82-10.74-9.74-10.74s-9.74,3.82-9.74,10.74V72.89H266.17V22.11h15.56v6.73c3.1-4.27,8.56-7.28,15.38-7.28,11.74,0,19.57,8,19.57,21.66V72.89H301.21Z" transform="translate(-5.64 0)"/><path class="cls-1" d="M346.8,21.38c7.55,0,12.92,3.46,15.65,7.92V22.11H378V72.89H362.45V65.7c-2.82,4.46-8.19,7.92-15.74,7.92-12.38,0-22.3-10.19-22.3-26.21S334.33,21.38,346.8,21.38Zm4.55,13.56c-5.83,0-11.1,4.37-11.1,12.47s5.27,12.65,11.1,12.65,11.1-4.46,11.1-12.56S357.26,34.94,351.35,34.94Z" transform="translate(-5.64 0)"/><path class="cls-1" d="M389.29,5.55h15.56V72.89H389.29Z" transform="translate(-5.64 0)"/><path class="cls-1" d="M465.19,72.89H435.43V9h28.76c13,0,20.74,6.46,20.74,16.56a14.5,14.5,0,0,1-10.82,14.56,15.49,15.49,0,0,1,12.28,15.38C486.39,66.07,478.66,72.89,465.19,72.89Zm-4-51.42H451V34.85h10.19c5.1,0,7.92-2.27,7.92-6.64S466.28,21.47,461.18,21.47Zm1.09,24.76H451v14.1h11.47c5.18,0,8.19-2.36,8.19-6.91S467.46,46.23,462.27,46.23Z" transform="translate(-5.64 0)"/><path class="cls-1" d="M511,72.89H495.4V22.11H511v8.46c3.55-5.37,9.1-9,15.92-9V38h-4.27C515.24,38,511,40.58,511,49.32Z" transform="translate(-5.64 0)"/><path class="cls-1" d="M553.64,21.38c7.55,0,12.92,3.46,15.65,7.92V22.11h15.56V72.89H569.29V65.7c-2.82,4.46-8.19,7.92-15.74,7.92-12.38,0-22.3-10.19-22.3-26.21S541.17,21.38,553.64,21.38Zm4.55,13.56c-5.83,0-11.1,4.37-11.1,12.47s5.27,12.65,11.1,12.65,11.1-4.46,11.1-12.56S564.1,34.94,558.19,34.94Z" transform="translate(-5.64 0)"/><path class="cls-1" d="M631.17,45.32c0-6.92-3.82-10.74-9.74-10.74s-9.74,3.82-9.74,10.74V72.89H596.13V22.11h15.56v6.73c3.1-4.27,8.56-7.28,15.38-7.28,11.74,0,19.57,8,19.57,21.66V72.89H631.17Z" transform="translate(-5.64 0)"/><path class="cls-1" d="M676.76,21.38c6.73,0,12.56,3.1,15.65,7.74V5.55H708V72.89H692.41V65.61c-2.82,4.64-8.19,8-15.65,8-12.47,0-22.39-10.19-22.39-26.21S664.29,21.38,676.76,21.38Zm4.55,13.56c-5.82,0-11.1,4.37-11.1,12.47s5.28,12.65,11.1,12.65,11.1-4.46,11.1-12.56S687.22,34.94,681.31,34.94Z" transform="translate(-5.64 0)"/><path class="cls-1" d="M717.8,8.46c0-4.73,3.73-8.46,9.28-8.46s9.19,3.73,9.19,8.46-3.73,8.37-9.19,8.37S717.8,13.1,717.8,8.46Zm1.45,13.65h15.57V72.89H719.25Z" transform="translate(-5.64 0)"/><path class="cls-1" d="M781.14,45.32c0-6.92-3.83-10.74-9.74-10.74s-9.74,3.82-9.74,10.74V72.89H746.1V22.11h15.56v6.73c3.09-4.27,8.55-7.28,15.38-7.28,11.74,0,19.57,8,19.57,21.66V72.89H781.14Z" transform="translate(-5.64 0)"/><path class="cls-1" d="M826.73,21.38c7.46,0,12.92,3.37,15.65,7.92V22.11h15.56V72.8c0,13.56-7.83,25.12-25.39,25.12-15.11,0-24.93-7.65-26.3-19.75h15.38c1,3.82,4.82,6.28,10.19,6.28,5.92,0,10.56-3.1,10.56-11.65V65.61c-2.82,4.46-8.19,8-15.65,8-12.47,0-22.39-10.19-22.39-26.21S814.26,21.38,826.73,21.38Zm4.55,13.56c-5.83,0-11.11,4.37-11.11,12.47s5.28,12.65,11.11,12.65,11.1-4.46,11.1-12.56S837.19,34.94,831.28,34.94Z" transform="translate(-5.64 0)"/></svg>