<svg id="Layer_1" data-name="Layer 1" xmlns="http://www.w3.org/2000/svg" viewBox="0 0 75 17.49"><defs><style>.cls-1{fill:#709cdb;}</style></defs><path class="cls-1" d="M6.66,2.39a5.63,5.63,0,0,1,5.49,3.55H9.83A3.31,3.31,0,0,0,6.66,4.09c-2.34,0-4,1.66-4,4.33s1.7,4.35,4,4.35a3.31,3.31,0,0,0,3.17-1.85h2.32a5.62,5.62,0,0,1-5.49,3.54,5.9,5.9,0,0,1-6-6A5.91,5.91,0,0,1,6.66,2.39Z" transform="translate(-0.63 -1.27)"/><path class="cls-1" d="M22.9,14.36H21V13.23a3.49,3.49,0,0,1-2.77,1.26,3.66,3.66,0,0,1-3.86-4V5h1.92v5.22c0,1.72.94,2.6,2.35,2.6S21,11.93,21,10.21V5H22.9Z" transform="translate(-0.63 -1.27)"/><path class="cls-1" d="M27.39,14.36H25.45V5h1.94V6.35a3.05,3.05,0,0,1,2.8-1.51v2H29.7c-1.43,0-2.31.6-2.31,2.59Z" transform="translate(-0.63 -1.27)"/><path class="cls-1" d="M31.72,2.51a1.24,1.24,0,1,1,2.47,0,1.24,1.24,0,1,1-2.47,0ZM32,5h1.93v9.37H32Z" transform="translate(-0.63 -1.27)"/><path class="cls-1" d="M40.53,14.51a4.57,4.57,0,0,1-4.69-4.85,4.78,4.78,0,1,1,9.55,0A4.7,4.7,0,0,1,40.53,14.51Zm0-1.68A2.89,2.89,0,0,0,43.4,9.66a2.83,2.83,0,0,0-2.82-3.14c-1.46,0-2.77,1-2.77,3.14S39.07,12.83,40.53,12.83Z" transform="translate(-0.63 -1.27)"/><path class="cls-1" d="M50.71,14.51c-2.24,0-3.82-1.33-3.91-3h2a1.7,1.7,0,0,0,1.87,1.4c1.12,0,1.71-.48,1.71-1.12C52.39,9.92,47,11,47,7.54c0-1.5,1.4-2.7,3.61-2.7s3.52,1.14,3.62,3H52.24a1.55,1.55,0,0,0-1.75-1.38c-1,0-1.58.42-1.58,1,0,1.89,5.28.84,5.39,4.22C54.3,13.32,52.92,14.51,50.71,14.51Z" transform="translate(-0.63 -1.27)"/><path class="cls-1" d="M56.13,2.51a1.24,1.24,0,1,1,2.47,0,1.24,1.24,0,1,1-2.47,0ZM56.39,5h1.94v9.37H56.39Z" transform="translate(-0.63 -1.27)"/><path class="cls-1" d="M61.18,6.57h-1.1V5h1.1V2.66h2V5h2.27V6.57H63.14v5.19c0,.69.27,1,1.08,1h1.19v1.62H63.89c-1.67,0-2.71-.7-2.71-2.6Z" transform="translate(-0.63 -1.27)"/><path class="cls-1" d="M73.63,5h2L69.89,18.76h-2l1.9-4.56L66.1,5h2.15l2.64,7.14Z" transform="translate(-0.63 -1.27)"/></svg>