<svg id="Layer_1" data-name="Layer 1" xmlns="http://www.w3.org/2000/svg" viewBox="0 0 118.33 17.71"><defs><style>.cls-1{fill:#709cdb;}</style></defs><path class="cls-1" d="M7.8,4.11H3.21V7.57H7.29V9.15H3.21v3.62H7.8v1.59H1.28V2.52H7.8Z" transform="translate(-1.28 -1.27)"/><path class="cls-1" d="M11.15,5l2.65,7.63L16.46,5h2.05l-3.57,9.37H12.63L9.08,5Z" transform="translate(-1.28 -1.27)"/><path class="cls-1" d="M24,14.51a4.55,4.55,0,0,1-4.67-4.85A4.48,4.48,0,0,1,24,4.84a4.37,4.37,0,0,1,4.56,4.6,6.2,6.2,0,0,1-.07,1H21.33A2.59,2.59,0,0,0,24,12.88a2.26,2.26,0,0,0,2.21-1.31H28.3A4.27,4.27,0,0,1,24,14.51ZM21.35,8.83h5.19a2.44,2.44,0,0,0-2.62-2.36A2.55,2.55,0,0,0,21.35,8.83Z" transform="translate(-1.28 -1.27)"/><path class="cls-1" d="M37.11,9.12c0-1.72-.93-2.6-2.35-2.6s-2.36.88-2.36,2.6v5.24H30.46V5H32.4V6.06A3.83,3.83,0,0,1,39,8.83v5.53H37.11Z" transform="translate(-1.28 -1.27)"/><path class="cls-1" d="M41.24,2.51a1.24,1.24,0,1,1,2.47,0,1.24,1.24,0,1,1-2.47,0ZM41.5,5h1.93v9.37H41.5Z" transform="translate(-1.28 -1.27)"/><path class="cls-1" d="M52.63,9.12c0-1.72-.93-2.6-2.35-2.6s-2.36.88-2.36,2.6v5.24H46V5h1.94V6.06a3.83,3.83,0,0,1,6.63,2.77v5.53H52.63Z" transform="translate(-1.28 -1.27)"/><path class="cls-1" d="M60.79,4.84A4,4,0,0,1,64,6.35V5H66v9.52A4.25,4.25,0,0,1,61.42,19c-2.5,0-4.35-1.24-4.59-3.31h1.92a2.63,2.63,0,0,0,2.67,1.63A2.5,2.5,0,0,0,64,14.51V13a4.06,4.06,0,0,1-3.25,1.56c-2.46,0-4.42-2-4.42-4.88A4.46,4.46,0,0,1,60.79,4.84Zm.41,1.68a2.87,2.87,0,0,0-2.84,3.11,3,3,0,0,0,2.84,3.2A2.92,2.92,0,0,0,64,9.66,2.91,2.91,0,0,0,61.2,6.52Z" transform="translate(-1.28 -1.27)"/><path class="cls-1" d="M72.71,2.51a1.23,1.23,0,1,1,2.46,0,1.23,1.23,0,1,1-2.46,0ZM73,5H74.9v9.37H73Z" transform="translate(-1.28 -1.27)"/><path class="cls-1" d="M84.1,9.12c0-1.72-.94-2.6-2.35-2.6s-2.36.88-2.36,2.6v5.24H77.45V5h1.94V6.06A3.83,3.83,0,0,1,86,8.83v5.53H84.1Z" transform="translate(-1.28 -1.27)"/><path class="cls-1" d="M92.9,2.54h7V4.12h-5V7.61h3.91V9.19H94.84v5.17H92.9Z" transform="translate(-1.28 -1.27)"/><path class="cls-1" d="M105.43,4.84a4,4,0,0,1,3.25,1.51V5h1.95v9.37h-1.95V13a4,4,0,0,1-3.28,1.55c-2.43,0-4.39-2-4.39-4.88A4.46,4.46,0,0,1,105.43,4.84Zm.41,1.68A2.87,2.87,0,0,0,103,9.63a3,3,0,0,0,2.84,3.2,2.92,2.92,0,0,0,2.84-3.17A2.91,2.91,0,0,0,105.84,6.52Z" transform="translate(-1.28 -1.27)"/><path class="cls-1" d="M113.18,1.78h1.94V14.36h-1.94Z" transform="translate(-1.28 -1.27)"/><path class="cls-1" d="M117.67,1.78h1.94V14.36h-1.94Z" transform="translate(-1.28 -1.27)"/></svg>