<svg id="Layer_1" data-name="Layer 1" xmlns="http://www.w3.org/2000/svg" viewBox="0 0 27.39 16.23"><defs><style>.cls-1{fill:#709cdb;}</style></defs><path class="cls-1" d="M7.8,4.11H3.21V7.57H7.29V9.15H3.21v3.62H7.8v1.59H1.28V2.52H7.8Z" transform="translate(-1.28 -2.52)"/><path class="cls-1" d="M16.61,5h2L12.87,18.76h-2l1.91-4.56L9.08,5h2.16l2.63,7.14Z" transform="translate(-1.28 -2.52)"/><path class="cls-1" d="M24.1,14.51a4.55,4.55,0,0,1-4.67-4.85A4.48,4.48,0,0,1,24.1,4.84a4.37,4.37,0,0,1,4.56,4.6,6.2,6.2,0,0,1-.07,1H21.44a2.57,2.57,0,0,0,2.66,2.48,2.26,2.26,0,0,0,2.21-1.31h2.1A4.29,4.29,0,0,1,24.1,14.51ZM21.45,8.83h5.19A2.44,2.44,0,0,0,24,6.47,2.55,2.55,0,0,0,21.45,8.83Z" transform="translate(-1.28 -2.52)"/></svg>