<svg id="Layer_1" data-name="Layer 1" xmlns="http://www.w3.org/2000/svg" viewBox="0 0 71.96 16.98"><defs><style>.cls-1{fill:#709cdb;}</style></defs><path class="cls-1" d="M1.27,2.54H3.21V14.35H1.27Z" transform="translate(-1.27 -1.78)"/><path class="cls-1" d="M6.73,5l2.65,7.63L12,5h2.05l-3.57,9.36H8.21L4.66,5Z" transform="translate(-1.27 -1.78)"/><path class="cls-1" d="M22,5h2L18.24,18.76h-2l1.91-4.56L14.45,5h2.16l2.63,7.14Z" transform="translate(-1.27 -1.78)"/><path class="cls-1" d="M24.72,6.59l1-4h2.11L26.08,6.59Z" transform="translate(-1.27 -1.78)"/><path class="cls-1" d="M33,14.51c-2.24,0-3.82-1.33-3.91-3h2a1.71,1.71,0,0,0,1.87,1.4c1.12,0,1.71-.48,1.71-1.13,0-1.83-5.44-.78-5.44-4.21,0-1.5,1.4-2.7,3.61-2.7s3.52,1.13,3.62,3H34.49a1.55,1.55,0,0,0-1.75-1.37c-1,0-1.58.42-1.58,1,0,1.89,5.29.83,5.39,4.22C36.55,13.32,35.17,14.51,33,14.51Z" transform="translate(-1.27 -1.78)"/><path class="cls-1" d="M47.79,14.35H43.06V2.54h4.5c2.5,0,3.83,1.38,3.83,3a2.77,2.77,0,0,1-2,2.71,2.94,2.94,0,0,1,2.28,2.89C51.66,13,50.2,14.35,47.79,14.35Zm-.4-10.23H45V7.5h2.39c1.26,0,2-.59,2-1.68S48.65,4.12,47.39,4.12Zm.16,5H45v3.68h2.62c1.3,0,2.1-.66,2.1-1.8A1.91,1.91,0,0,0,47.55,9.09Z" transform="translate(-1.27 -1.78)"/><path class="cls-1" d="M57.8,14.51a4.55,4.55,0,0,1-4.68-4.85A4.48,4.48,0,0,1,57.8,4.84a4.36,4.36,0,0,1,4.55,4.6,6,6,0,0,1-.06,1H55.13a2.58,2.58,0,0,0,2.67,2.49A2.27,2.27,0,0,0,60,11.57H62.1A4.29,4.29,0,0,1,57.8,14.51ZM55.15,8.83h5.18a2.43,2.43,0,0,0-2.62-2.36A2.54,2.54,0,0,0,55.15,8.83Z" transform="translate(-1.27 -1.78)"/><path class="cls-1" d="M68.05,4.84A4.31,4.31,0,0,1,71.28,6.3V1.78h2V14.35h-2V12.94A3.9,3.9,0,0,1,68,14.51c-2.46,0-4.42-2-4.42-4.88A4.46,4.46,0,0,1,68.05,4.84Zm.39,1.68A2.88,2.88,0,0,0,65.6,9.63a3,3,0,0,0,2.84,3.2,2.92,2.92,0,0,0,2.84-3.17A2.91,2.91,0,0,0,68.44,6.52Z" transform="translate(-1.27 -1.78)"/></svg>