<svg id="Layer_1" data-name="Layer 1" xmlns="http://www.w3.org/2000/svg" viewBox="0 0 173.43 17.71"><defs><style>.cls-1{fill:#709cdb;}</style></defs><path class="cls-1" d="M11,2.52V14.35H9L3.21,5.53v8.82H1.27V2.52H3.21L9,11.33V2.52Z" transform="translate(-1.27 -1.27)"/><path class="cls-1" d="M17.31,4.84a4,4,0,0,1,3.24,1.51V5h2v9.36h-2V13a4,4,0,0,1-3.28,1.55c-2.43,0-4.38-2-4.38-4.88A4.45,4.45,0,0,1,17.31,4.84Zm.4,1.68a2.88,2.88,0,0,0-2.84,3.11,3,3,0,0,0,2.84,3.2,2.91,2.91,0,0,0,2.84-3.17A2.9,2.9,0,0,0,17.71,6.52Z" transform="translate(-1.27 -1.27)"/><path class="cls-1" d="M30.26,4.84c2.46,0,4.4,1.9,4.4,4.79s-1.94,4.88-4.4,4.88A4.22,4.22,0,0,1,27,13v5.81H25.06V5H27V6.37A4,4,0,0,1,30.26,4.84Zm-.43,1.68A2.91,2.91,0,0,0,27,9.66a2.92,2.92,0,0,0,2.83,3.17,3,3,0,0,0,2.86-3.2A2.88,2.88,0,0,0,29.83,6.52Z" transform="translate(-1.27 -1.27)"/><path class="cls-1" d="M41.79,4.84c2.46,0,4.4,1.9,4.4,4.79s-1.94,4.88-4.4,4.88A4.24,4.24,0,0,1,38.52,13v5.81H36.58V5h1.94V6.37A4.07,4.07,0,0,1,41.79,4.84Zm-.43,1.68a2.91,2.91,0,0,0-2.84,3.14,2.92,2.92,0,0,0,2.84,3.17,3,3,0,0,0,2.86-3.2A2.88,2.88,0,0,0,41.36,6.52Z" transform="translate(-1.27 -1.27)"/><path class="cls-1" d="M47.85,2.51A1.23,1.23,0,0,1,49.1,1.27a1.22,1.22,0,0,1,1.22,1.24A1.22,1.22,0,0,1,49.1,3.75,1.24,1.24,0,0,1,47.85,2.51ZM48.11,5h1.94v9.36H48.11Z" transform="translate(-1.27 -1.27)"/><path class="cls-1" d="M59.24,9.12c0-1.72-.93-2.6-2.34-2.6s-2.36.88-2.36,2.6v5.23H52.6V5h1.94V6.06a3.56,3.56,0,0,1,2.78-1.22,3.64,3.64,0,0,1,3.84,4v5.52H59.24Z" transform="translate(-1.27 -1.27)"/><path class="cls-1" d="M67.4,4.84a4,4,0,0,1,3.25,1.51V5H72.6v9.52A4.24,4.24,0,0,1,68,19c-2.5,0-4.35-1.24-4.59-3.32h1.92A2.62,2.62,0,0,0,68,17.3a2.5,2.5,0,0,0,2.62-2.79V12.94a4,4,0,0,1-3.25,1.57c-2.46,0-4.42-2-4.42-4.88A4.46,4.46,0,0,1,67.4,4.84Zm.41,1.68A2.88,2.88,0,0,0,65,9.63a3,3,0,0,0,2.84,3.2,2.92,2.92,0,0,0,2.84-3.17A2.91,2.91,0,0,0,67.81,6.52Z" transform="translate(-1.27 -1.27)"/><path class="cls-1" d="M79.32,2.51a1.24,1.24,0,1,1,2.47,0,1.24,1.24,0,1,1-2.47,0ZM79.58,5h1.93v9.36H79.58Z" transform="translate(-1.27 -1.27)"/><path class="cls-1" d="M90.71,9.12c0-1.72-.94-2.6-2.35-2.6S86,7.4,86,9.12v5.23H84.06V5H86V6.06a3.59,3.59,0,0,1,2.79-1.22,3.64,3.64,0,0,1,3.84,4v5.52H90.71Z" transform="translate(-1.27 -1.27)"/><path class="cls-1" d="M103.6,9.56h-2.15v4.79H99.52V2.54h4.08c2.8,0,4.18,1.6,4.18,3.52C107.78,7.74,106.67,9.56,103.6,9.56Zm0-1.58c1.51,0,2.19-.73,2.19-1.92s-.68-1.94-2.19-1.94h-2.15V8Z" transform="translate(-1.27 -1.27)"/><path class="cls-1" d="M113.66,14.51A4.55,4.55,0,0,1,109,9.66a4.48,4.48,0,0,1,4.68-4.82,4.36,4.36,0,0,1,4.55,4.6,6,6,0,0,1-.06,1H111a2.58,2.58,0,0,0,2.67,2.49,2.27,2.27,0,0,0,2.21-1.31H118A4.29,4.29,0,0,1,113.66,14.51ZM111,8.83h5.18a2.43,2.43,0,0,0-2.62-2.36A2.54,2.54,0,0,0,111,8.83Z" transform="translate(-1.27 -1.27)"/><path class="cls-1" d="M120.43,6.57h-1.11V5h1.11V2.66h1.95V5h2.28V6.57h-2.28v5.18c0,.7.27,1,1.09,1h1.19v1.61h-1.53c-1.67,0-2.7-.69-2.7-2.6Z" transform="translate(-1.27 -1.27)"/><path class="cls-1" d="M130.51,14.51a4.58,4.58,0,0,1-4.7-4.85,4.78,4.78,0,1,1,9.56,0A4.7,4.7,0,0,1,130.51,14.51Zm0-1.68a2.89,2.89,0,0,0,2.87-3.17,2.83,2.83,0,0,0-2.82-3.14c-1.46,0-2.77,1-2.77,3.14S129,12.83,130.51,12.83Z" transform="translate(-1.27 -1.27)"/><path class="cls-1" d="M140.69,14.51c-2.25,0-3.83-1.33-3.91-3h2a1.71,1.71,0,0,0,1.87,1.4c1.13,0,1.72-.48,1.72-1.13,0-1.83-5.44-.78-5.44-4.21,0-1.5,1.4-2.7,3.61-2.7s3.51,1.13,3.62,3h-1.94a1.55,1.55,0,0,0-1.75-1.37c-1,0-1.58.42-1.58,1,0,1.89,5.28.83,5.39,4.22C144.28,13.32,142.9,14.51,140.69,14.51Z" transform="translate(-1.27 -1.27)"/><path class="cls-1" d="M146.37,1.78h1.94V9.09L151.7,5h2.69l-4.32,4.69,4.32,4.67h-2.62l-3.46-4v4h-1.94Z" transform="translate(-1.27 -1.27)"/><path class="cls-1" d="M159.81,14.51a4.55,4.55,0,0,1-4.67-4.85,4.48,4.48,0,0,1,4.67-4.82,4.37,4.37,0,0,1,4.56,4.6,6,6,0,0,1-.07,1h-7.16a2.59,2.59,0,0,0,2.67,2.49A2.26,2.26,0,0,0,162,11.57h2.09A4.27,4.27,0,0,1,159.81,14.51Zm-2.65-5.68h5.19a2.44,2.44,0,0,0-2.62-2.36A2.55,2.55,0,0,0,157.16,8.83Z" transform="translate(-1.27 -1.27)"/><path class="cls-1" d="M172.7,5h2L169,18.76h-2l1.91-4.56L165.17,5h2.16L170,12.13Z" transform="translate(-1.27 -1.27)"/></svg>