<svg id="Layer_1" data-name="Layer 1" xmlns="http://www.w3.org/2000/svg" viewBox="0 0 384.92 57.04"><defs><style>.cls-1{fill:#474748;}</style></defs><path class="cls-1" d="M27,7.68h-9.4V55.19H10.39V7.68H1V1.29H27Z"/><path class="cls-1" d="M39.58,1.29V24.54h12.7V1.29h7.24v53.9H52.28V31H39.58V55.19H32.34V1.29Z"/><path class="cls-1" d="M68.14,55.19V1.29H90.86V7.68H75.38V24.62H88.47v6.47H75.38V48.8H91.09v6.39Z"/><path class="cls-1" d="M136.9,44.41c0,8.08-4.93,11.39-13.09,11.39h-.61c-8.16,0-13.09-3.23-13.09-11.39V12.07c0-7.78,4.93-11.4,13.09-11.4h.61c8.16,0,13.09,3.62,13.09,11.4v7.47h-7.24V13.45c0-4.77-2.15-6.39-6.16-6.39s-6.15,1.62-6.15,6.39V43c0,4.77,2.15,6.39,6.15,6.39s6.16-1.62,6.16-6.39V34H123.2V27.85h13.7Z"/><path class="cls-1" d="M166.09,55.19l-7.47-22.1H152.3v22.1h-7.23V1.29h13.47c8.16,0,13.09,3.46,13.09,11.4v9c0,5.39-2.31,8.7-6.31,10.32l8.16,23.18ZM152.3,26.77h5.93c4,0,6.16-1.61,6.16-6.39V14.07c0-4.77-2.15-6.39-6.16-6.39H152.3Z"/><path class="cls-1" d="M197.42,42.48H185.87l-2.31,12.71h-7l10.7-53.9h8.93l10.86,53.9h-7.39Zm-1.15-6.08-4.62-26-4.7,26Z"/><path class="cls-1" d="M223.06,55.19h-7.23V35.32l-11.24-34h7.62l7.31,26,7.32-26h7.47l-11.25,34Z"/><path class="cls-1" d="M285.66,55.19h-6.85L271,15.07l-7.85,40.12H256.1l-8.7-53.9h7.16l5.46,41,7.7-41h6.63l7.77,41,5.47-41h6.77Z"/><path class="cls-1" d="M312.23.67h.62c8.16,0,13.09,3.47,13.09,11.4V44.41c0,7.93-4.93,11.39-13.09,11.39h-.62c-8.16,0-13.09-3.46-13.09-11.39V12.07C299.14,4.06,304.07.67,312.23.67Zm.31,48.74c4,0,6.16-1.62,6.16-6.39V13.45c0-4.77-2.16-6.39-6.16-6.39s-6.16,1.62-6.16,6.39V43C306.38,47.79,308.53,49.41,312.54,49.41Z"/><path class="cls-1" d="M356,55.19H334.25V1.29h7.24V48.64H356Z"/><path class="cls-1" d="M361.51,1.29h22.41V7.68H368.75V25h12.78v6.47H368.75V55.19h-7.24Z"/></svg>