<svg id="Layer_1" data-name="Layer 1" xmlns="http://www.w3.org/2000/svg" xmlns:xlink="http://www.w3.org/1999/xlink" viewBox="0 0 793.66 421.64"><defs><style>.cls-1,.cls-23{fill:none;}.cls-2{clip-path:url(#clip-path);}.cls-3{fill:#f5d4d4;}.cls-4{fill:#c675d6;}.cls-5{fill:#f5c2c2;}.cls-6{fill:#fa8a8a;}.cls-7{fill:#e2baea;}.cls-8{fill:#d39be2;}.cls-9{fill:#fff;}.cls-10{fill:#dda3ed;}.cls-11{fill:#efd1f4;}.cls-12{fill:#d38ce2;}.cls-13{fill:#e0b2ef;}.cls-14{fill:#ddaaed;}.cls-15{fill:#e8baf2;}.cls-16{fill:#d899e8;}.cls-17{fill:#e0bff2;}.cls-18{fill:#dea3ed;}.cls-19{fill:#fafafc;}.cls-20{fill:#c775d6;}.cls-21{fill:#709cdb;}.cls-22{fill:#87baeb;}.cls-23{stroke:#fff;stroke-miterlimit:10;stroke-width:0.32px;}</style><clipPath id="clip-path" transform="translate(-79.02 -306.14)"><rect class="cls-1" x="79.02" y="306.13" width="440.64" height="421.65"/></clipPath></defs><g id="Group_145" data-name="Group 145"><g class="cls-2"><g id="Group_144" data-name="Group 144"><g id="Group_147" data-name="Group 147"><g id="Group_144-2" data-name="Group 144-2"><path id="Path_934" data-name="Path 934" class="cls-3" d="M107.19,708.28s-9.1-50.21-23.21-81.7c-20.58-46,23.8-145.66,115.12-175.46,11.44-3.74,12.34-24.69,38.07-44.57,17.66-13.64,33.15-12.31,46.17-11,7,.72,13.29,1.44,18.82-.17,15.19-4.39,36.22-36.28,48.28-40.85,13.16-5,15.34-20.74,26.92-25.06,3.48-1.3-6.85-7.73-4-15.3,3-7.77,15.47-9.63,20.11-6.84s7.4,11,7.4,11,36.33-6.71,49.72-3.36c10.11,2.54,7.62,2.36,7.62,2.36s6.76-1.08,9-.22c2.91,1.15,6.27,7.29,11.36,8.68,7.6,2.07,31.84,5.19,36.2,8.94,2.91,2.48,7.71,27.31,2.76,29.73-2.63,5.69-52.92,30.64-64,40.24-12.22,10.56-36.82,68.73-57.56,84.48-5.79,4.4,4.47,51,5.19,69.79.74,19.52-13.42,55.29-14.13,76.12-.44,13.06.63,44.28,8,56.48,0,0,12,3.42,16.87,12.53,3,5.66,5.79,16.42,1.74,18.91-6.27,3.88-104,8.46-116.29,0-4.74-3.25-14.67-15.62-17.69-29.62-2.16-10.35-8.39-23.28-13.25-24.44-6.76-1.62-21.23,20-21.23,20s29.53,7.93,30.19,27.07c.31,8.8-42,5.44-55.81,3.37s-40.17-6.35-55.7-6.5c-4.22,0-10.3.53-16.93,1.09-16.89,1.46-37.35,2.9-39.7-5.73" transform="translate(-79.02 -306.14)"/></g><g id="Group_145-2" data-name="Group 145-2"><path id="Path_935" data-name="Path 935" class="cls-3" d="M405.73,479.11s-34.83,19.38-47.53,23.45c-5.4,1.73-7.57,21.39-7.57,21.39v13.37c27.55-15.51,36.07-35.37,55.1-58.21" transform="translate(-79.02 -306.14)"/></g><g id="Group_146" data-name="Group 146"><path id="Path_936" data-name="Path 936" class="cls-3" d="M238.31,651.11c.52,8.84,0,35.46,0,35.46l6.84,2.41s23.81-17.32,21.23-20c-4.88-5.11-2.48-2.85-8.37-11-3.83-5.26-14.76-23.77-3-51.07L236.54,634c-.34-2.57,1.31,9.4,1.77,17.12" transform="translate(-79.02 -306.14)"/></g></g></g></g></g><g id="Group_148" data-name="Group 148"><path id="Path_938" data-name="Path 938" class="cls-4" d="M260.77,694.5l2.12.65,15.52,3.24-.94-.75Z" transform="translate(-79.02 -306.14)"/></g><g id="Group_147-2" data-name="Group 147-2"><g class="cls-2"><g id="Group_146-2" data-name="Group 146-2"><g id="Group_151" data-name="Group 151"><g id="Group_149" data-name="Group 149"><path id="Path_939" data-name="Path 939" class="cls-5" d="M278.41,698.39l-1-.75-16.69-3.14,2.12.65Zm-21.76-4.87,24.17,4.31c.13.39.25.77.39,1.15l-21.14-3.6,0,0c-1.12-.66-2.24-1.26-3.34-1.82Z" transform="translate(-79.02 -306.14)"/></g><g id="Group_150" data-name="Group 150"><path id="Path_940" data-name="Path 940" class="cls-5" d="M280.82,697.83h0l.39,1.15h0c-.13-.38-.27-.76-.39-1.15m-24.13-4.29c1.09.56,2.22,1.16,3.34,1.82Z" transform="translate(-79.02 -306.14)"/></g></g></g></g></g><g id="Group_152-2" data-name="Group 152-2"><path id="Path_942" data-name="Path 942" class="cls-6" d="M260.77,694.5l16.7,3.14.94.75-15.52-3.24Z" transform="translate(-79.02 -306.14)"/></g><g id="Group_149-2" data-name="Group 149-2"><g class="cls-2"><g id="Group_201" data-name="Group 201"><g id="Group_153" data-name="Group 153"><path id="Path_943" data-name="Path 943" class="cls-6" d="M236.54,634c-5.16-47.53-46.82-95.35-46.39-95.06s39.67,34.66,50.57,88.94Z" transform="translate(-79.02 -306.14)"/></g><g id="Group_154" data-name="Group 154"><path id="Path_944" data-name="Path 944" class="cls-6" d="M331.84,625.19c22.75-32.78,18.43-99.47,18.6-99s5.64,56.26-13.25,100.4c-6.86,16,5.13,64.5,5.13,64.5-17.5-30.87-10.75-65.53-10.48-65.92" transform="translate(-79.02 -306.14)"/></g><g id="Group_155" data-name="Group 155"><path id="Path_945" data-name="Path 945" class="cls-6" d="M255,607.05c6.67-18.7,22.67-47.6,22.48-47.45S259.36,583.17,253,610Z" transform="translate(-79.02 -306.14)"/></g><g id="Group_156" data-name="Group 156"><path id="Path_946" data-name="Path 946" class="cls-6" d="M261.28,586.82c4.4-19.26-7.94-60-7.74-59.69a115.52,115.52,0,0,1,11.6,52.18,59.09,59.09,0,0,1-3.86,7.51" transform="translate(-79.02 -306.14)"/></g><g id="Group_157" data-name="Group 157"><path id="Path_947" data-name="Path 947" class="cls-6" d="M260.16,395.77c-34.1,5.94-71.36,81-71.36,80.47s14.28-40.83,48.37-69.69c9.86-8.36,23-10.78,23-10.78" transform="translate(-79.02 -306.14)"/></g><g id="Group_158" data-name="Group 158"><path id="Path_948" data-name="Path 948" class="cls-6" d="M299.33,408.46c1.95-.45,9.35-.9,9.35,0s-3.59,16.59-3.59,16.59l9,32.77-12.56-31.19.9-13.69Z" transform="translate(-79.02 -306.14)"/></g><g id="Group_159" data-name="Group 159"><path id="Path_949" data-name="Path 949" class="cls-6" d="M436.36,429.31,440,402.79c-7.41,23.1-15.29,47-14.8,46.19l11.16-19.67" transform="translate(-79.02 -306.14)"/></g><g id="Group_160" data-name="Group 160"><path id="Path_950" data-name="Path 950" class="cls-6" d="M470.69,393.45s-9.57,1.38-15.18,0l9.49,3.41Z" transform="translate(-79.02 -306.14)"/></g><g id="Group_161" data-name="Group 161"><path id="Path_951" data-name="Path 951" class="cls-6" d="M513.41,334.23a11,11,0,0,0-6.21.35c-2.9,1.05-9.55,1.9-9.92,4.84-.22,1.66,2.28,7.38,3.91,7.89,1.24.39,4-1,5.25-.66a8.75,8.75,0,0,0,5,3.85c4.25-2.11,1.89-5.28,3.8-6.84a6.26,6.26,0,0,0,1.77-5c-.36-1.93-2.08-3.23-3.62-4.48" transform="translate(-79.02 -306.14)"/></g><g id="Group_162" data-name="Group 162"><path id="Path_952" data-name="Path 952" class="cls-6" d="M512.32,350c.09,0-.81,7.41.25,9.73.76,1.65,6,1,6.41,2.76.24,1.14-2.63,2.62-3.79,2.69s-2.92-1.27-4.71-.9c-4.49.92-17.48,7-25.37,8-2.09.25-2.73-2.79-1.05-3.22,7.32-1.88,20.58-4.43,24-8,2.28-2.37,1.88-11.16,1.88-11.16Z" transform="translate(-79.02 -306.14)"/></g><g id="Group_163" data-name="Group 163"><path id="Path_953" data-name="Path 953" class="cls-6" d="M437,330.53a53.51,53.51,0,0,1,7.86-2c.9-.1,2.88-.55,3.69,0a6.36,6.36,0,0,1,2,4.12c0,.88-.32,2.82-1.1,3.28a6.77,6.77,0,0,1-4.53,0,17.15,17.15,0,0,1-3.07-2.95l-3.37-.07s-1.76-1.86-1.47-2.41" transform="translate(-79.02 -306.14)"/></g><g id="Group_164" data-name="Group 164"><path id="Path_954" data-name="Path 954" class="cls-7" d="M458.51,317.28h0m-.28-.19a.24.24,0,0,1,.11.06l-.11,0h0" transform="translate(-79.02 -306.14)"/></g><g id="Group_165" data-name="Group 165"><path id="Path_955" data-name="Path 955" class="cls-8" d="M458.23,317.1l.11,0,.17.13h0l.16.12a2.14,2.14,0,0,1-.44-.3" transform="translate(-79.02 -306.14)"/></g><g id="Group_166" data-name="Group 166"><path id="Path_956" data-name="Path 956" class="cls-7" d="M481.74,326.52h0" transform="translate(-79.02 -306.14)"/></g><g id="Group_167" data-name="Group 167"><path id="Path_957" data-name="Path 957" class="cls-5" d="M458.67,317.41c1.61,1,7.18,3.94,8.82,5a28.1,28.1,0,0,0,14.24,4.11h0c-.13,0-.81,0-1.8,0-2.82,0-8.16-.13-10.38-1-2.65-1.07-9.14-6.71-10.89-8.11" transform="translate(-79.02 -306.14)"/></g><g id="Group_168" data-name="Group 168"><path id="Path_958" data-name="Path 958" class="cls-6" d="M238.31,686.57a169.17,169.17,0,0,0-20.38-6.22s14.95-1.25,20.41,4.3Z" transform="translate(-79.02 -306.14)"/></g><g id="Group_169" data-name="Group 169"><path id="Path_959" data-name="Path 959" class="cls-6" d="M395,691.58c-9.85-4.26-24.58-5.25-24.58-5.25s17.09-2.12,23.2,2.59Z" transform="translate(-79.02 -306.14)"/></g><g id="Group_170" data-name="Group 170"><path id="Path_960" data-name="Path 960" class="cls-6" d="M372.29,727.17s5.42-7.1,4.65-13.09c-1.88-14.59-8.53-17-13-19.58-4.75-2.74-21.66-3.4-21.66-3.4s14.4,2.73,18.86,4.65c3.55,1.54,5.95,3.84,9.83,12,1.75,3.66,1.29,19.44,1.29,19.44" transform="translate(-79.02 -306.14)"/></g><g id="Group_171" data-name="Group 171"><path id="Path_961" data-name="Path 961" class="cls-9" d="M172.59,479.11S143.66,493.73,123.87,518c-24.66,30.24-32,59.41-32,59.41,31.09-29.71,62.33-40.09,62.33-40.09a102.41,102.41,0,0,1,18.38-58.2" transform="translate(-79.02 -306.14)"/></g><g id="Group_172" data-name="Group 172"><path id="Path_962" data-name="Path 962" class="cls-9" d="M278.41,415.65c-3.35-5.58-18.78-10-24.88-7.71-15.83,5.91-35.61,57.44-35.61,57.44s24.42-8.45,34.87-29.37c5.79-11.57,25.62-6.4,25.62-6.4s1.8-11,0-13.95" transform="translate(-79.02 -306.14)"/></g><g id="Group_173" data-name="Group 173"><path id="Path_963" data-name="Path 963" class="cls-9" d="M321.23,395.09v30.8c18.51-46.38,37-50.85,37-50.85s-1.79-17.63-5.11-15.32c-31.9,22.29-31.9,35.37-31.9,35.37" transform="translate(-79.02 -306.14)"/></g><g id="Group_174" data-name="Group 174"><path id="Path_964" data-name="Path 964" class="cls-9" d="M342.33,528.25s.6,42.23-4.47,56.53c-2.72,7.65-19.54,31-19.54,31s12.86-27.51,15.72-38c3.13-11.43,8.29-49.59,8.29-49.59" transform="translate(-79.02 -306.14)"/></g><g id="Group_175" data-name="Group 175"><path id="Path_965" data-name="Path 965" class="cls-9" d="M389.5,511.73S399,550,397.33,565.1c-.9,8.07-13.89,41.14-13.89,41.14s8.15-34.11,8.55-45c.44-11.85-2.49-49.56-2.49-49.56" transform="translate(-79.02 -306.14)"/></g><g id="Group_176" data-name="Group 176"><path id="Path_966" data-name="Path 966" class="cls-9" d="M190.14,559.6s30.07,41.62,35.09,58.46c7.59,25.47-4.77,50.26-4.77,50.26s-3.72-36.79-6.58-46.57c-3.14-10.69-23.74-62.15-23.74-62.15" transform="translate(-79.02 -306.14)"/></g><g id="Group_177" data-name="Group 177"><path id="Path_967" data-name="Path 967" class="cls-9" d="M331.64,699s16.08-4.44,22-1.61c8.94,4.28,16,21.21,16,21.21s-12.3-10.85-15.73-12.53c-3.74-1.84-22.23-7.07-22.23-7.07" transform="translate(-79.02 -306.14)"/></g><g id="Group_178" data-name="Group 178"><path id="Path_968" data-name="Path 968" class="cls-9" d="M386.71,698.92s9.76-3.21,13.5-.63c5.65,3.89,10.53,18.36,10.53,18.36s-7.93-9.54-10.1-11.06c-2.37-1.66-13.93-6.67-13.93-6.67" transform="translate(-79.02 -306.14)"/></g><g id="Group_179" data-name="Group 179"><path id="Path_969" data-name="Path 969" class="cls-9" d="M476.05,331.49c6.16,1.23,16.72,4.26,16.72,4.26s-18.39,2.15-25,.34c-5.48-1.49-1.75-4.32-1.75-4.32a23.13,23.13,0,0,1,10.07-.28" transform="translate(-79.02 -306.14)"/></g><g id="Group_180" data-name="Group 180"><path id="Path_970" data-name="Path 970" class="cls-9" d="M407.54,326.46s-1.09-4.14,8.18-5.88c11.24-2.1,36-2.13,36-2.13s-15.64,2.66-26,4.12a154.74,154.74,0,0,0-18.18,3.89" transform="translate(-79.02 -306.14)"/></g><g id="Group_181" data-name="Group 181"><path id="Path_971" data-name="Path 971" class="cls-9" d="M397.2,318.45c-.18-1.1-2.85-8.48-7.69-9.9-4.4-1.28-13.92,6.05-13.92,6.05s10.76-3.86,13.73-3.3c2.81.54,7.88,7.15,7.88,7.15" transform="translate(-79.02 -306.14)"/></g><g id="Group_182" data-name="Group 182"><path id="Path_972" data-name="Path 972" class="cls-9" d="M224.48,697.25s17.63-4.44,24-2c9.62,3.63,16.82,18.72,16.82,18.72s-13.1-9.47-16.79-10.89c-4-1.55-24-5.78-24-5.78" transform="translate(-79.02 -306.14)"/></g><g id="Group_183" data-name="Group 183"><path id="Path_973" data-name="Path 973" class="cls-10" d="M254.31,608.69l-.29-.27,1-1.49c-.25.59-.5,1.18-.73,1.77" transform="translate(-79.02 -306.14)"/></g><g id="Group_184" data-name="Group 184"><path id="Path_974" data-name="Path 974" class="cls-11" d="M107.21,708.35c.74,2.6,3.14,4.28,6.59,5.32-3.3-.81-6-2.07-6.35-4-.07-.42-.15-.85-.24-1.28M92.06,648l.08.23a525.37,525.37,0,0,1,15,59.55c-4.55-23.22-15-59.78-15-59.78" transform="translate(-79.02 -306.14)"/></g><g id="Group_185" data-name="Group 185"><path id="Path_975" data-name="Path 975" class="cls-5" d="M92.14,648.18c.75,2.12,7,18.88,26.52,43.33,3.52,4.43,9.45,23.6,9.45,23.6h-.05a71.21,71.21,0,0,1-14.26-1.45c-3.45-1-5.85-2.71-6.59-5.32l-.12-.62a525.74,525.74,0,0,0-15-59.54" transform="translate(-79.02 -306.14)"/></g><g id="Group_186" data-name="Group 186"><path id="Path_976" data-name="Path 976" class="cls-11" d="M380.74,511.73h0" transform="translate(-79.02 -306.14)"/></g><g id="Group_187" data-name="Group 187"><path id="Path_977" data-name="Path 977" class="cls-5" d="M380.73,511.74c-.19,1.06-7.54,68.22-13.6,90-5.06,18.14-28.91,69.52-28.91,69.52a0,0,0,0,0,0,0c-2.5-14.38-4.69-32.92-1.68-42.78l0-.08c1.19-2.69,2.36-5.73,3.47-9a174.17,174.17,0,0,0,7.53-28.68c.6-3.18,1.07-6.1,1.37-8.61,0-.14,0-.28.05-.43A267.12,267.12,0,0,0,351.23,540c0-1.85.08-3,.08-3.09a100.16,100.16,0,0,0,24.79-19.85c2.63-2.81,4.19-4.77,4.56-5.24a.7.7,0,0,1,.08-.1" transform="translate(-79.02 -306.14)"/></g><g id="Group_188" data-name="Group 188"><path id="Path_978" data-name="Path 978" class="cls-11" d="M376.1,517.08a99.93,99.93,0,0,1-24.79,19.85h0a111.53,111.53,0,0,0,24.79-19.85m4.63-5.35h0l-.07.1.07-.11" transform="translate(-79.02 -306.14)"/></g><g id="Group_189" data-name="Group 189"><path id="Path_979" data-name="Path 979" class="cls-6" d="M336.53,628.43c-3,9.86-.83,28.41,1.69,42.78-.28-1.18-7.1-30.4-1.69-42.78m11-37.73A174.17,174.17,0,0,1,340,619.38a218.36,218.36,0,0,0,7.53-28.68M351.23,540A268.22,268.22,0,0,1,349,581.66c1.33-11.55,2-33.53,2.25-41.63" transform="translate(-79.02 -306.14)"/></g><g id="Group_190" data-name="Group 190"><path id="Path_980" data-name="Path 980" class="cls-5" d="M388.31,357.87s14.37,23.89,21,26.91c8.7,4,38,7.79,38,7.79s-6.28.44-14.09.44c-9.6,0-21.52-.66-27-3.59-7.14-3.85-17.87-31.55-17.87-31.55" transform="translate(-79.02 -306.14)"/></g><g id="Group_191" data-name="Group 191"><path id="Path_981" data-name="Path 981" class="cls-5" d="M261.57,565.88c.85,7.75,1,15.23-.27,20.88A121,121,0,0,0,253,609.91l-12.3,17.84a150.26,150.26,0,0,0-6.94-23.9v0s18.06-7.2,27.82-38" transform="translate(-79.02 -306.14)"/></g><g id="Group_192" data-name="Group 192"><path id="Path_982" data-name="Path 982" class="cls-12" d="M233.76,603.85a152.57,152.57,0,0,1,6.94,23.89v0Z" transform="translate(-79.02 -306.14)"/></g><g id="Group_193" data-name="Group 193"><path id="Path_983" data-name="Path 983" class="cls-13" d="M258.25,598.74c-.92,2.66-2,5.4-3.2,8.18l0,0v0h0s0,0,0,0h0c.92-2.56,2-5.32,3.21-8.17" transform="translate(-79.02 -306.14)"/></g><g id="Group_194" data-name="Group 194"><path id="Path_984" data-name="Path 984" class="cls-11" d="M255,606.91v0Z" transform="translate(-79.02 -306.14)"/></g><g id="Group_195" data-name="Group 195"><path id="Path_985" data-name="Path 985" class="cls-6" d="M261.75,586.1a104.71,104.71,0,0,1-3.5,12.64c-1.2,2.84-2.29,5.6-3.21,8.18v0l-2.06,3a122.67,122.67,0,0,1,8.31-23.15.13.13,0,0,1,0,.06v0a4.58,4.58,0,0,0,.47-.76" transform="translate(-79.02 -306.14)"/></g><g id="Group_196" data-name="Group 196"><path id="Path_986" data-name="Path 986" class="cls-6" d="M262.74,562.69c.94,0,1.9,9.64-1,23.42a4.49,4.49,0,0,1-.47.75s0,0,0,0l0-.06c1.27-5.65,1.12-13.13.27-20.88.26-.84.53-1.69.78-2.57.12-.42.25-.62.39-.62" transform="translate(-79.02 -306.14)"/></g><g id="Group_197" data-name="Group 197"><path id="Path_987" data-name="Path 987" class="cls-10" d="M255,606.92s0,0,0,0h0v0" transform="translate(-79.02 -306.14)"/></g><g id="Group_198" data-name="Group 198"><path id="Path_988" data-name="Path 988" class="cls-13" d="M236.52,633.82a.45.45,0,0,0,0,.11s0,.05,0,.08h0c.21,1.59,1.05,8.2,1.54,14h0Zm14.7-15.46a62.26,62.26,0,0,0-1.25,17.7h0a53.78,53.78,0,0,1,1.25-17.7" transform="translate(-79.02 -306.14)"/></g><g id="Group_199" data-name="Group 199"><path id="Path_989" data-name="Path 989" class="cls-5" d="M236.52,633.81a.41.41,0,0,0,0,.11s0-.07,0-.1h0ZM254,608.43l.22.21a55,55,0,0,0-3,9.72,53.78,53.78,0,0,0-1.25,17.7c-.11.05-5.32,2.8-11.89,11.9-.49-5.76-1.33-12.36-1.54-14l4.18-6.11L253,610h0Z" transform="translate(-79.02 -306.14)"/></g><g id="Group_200" data-name="Group 200"><path id="Path_990" data-name="Path 990" class="cls-12" d="M240.69,627.76l0,.12L236.54,634h0s0,0,0-.08v-.11Z" transform="translate(-79.02 -306.14)"/></g></g></g></g><g id="Group_202" data-name="Group 202"><path id="Path_992" data-name="Path 992" class="cls-12" d="M254,608.42,253,610l1.05-1.54Z" transform="translate(-79.02 -306.14)"/></g><g id="Group_151-2" data-name="Group 151-2"><g class="cls-2"><g id="Group_150-2" data-name="Group 150-2"><g id="Group_209" data-name="Group 209"><g id="Group_203" data-name="Group 203"><path id="Path_993" data-name="Path 993" class="cls-10" d="M255,607c-.07.13-.36.71-.78,1.69l-.22-.21h0Z" transform="translate(-79.02 -306.14)"/></g><g id="Group_204" data-name="Group 204"><path id="Path_994" data-name="Path 994" class="cls-14" d="M253,609.91v0l-12.26,17.94,0-.12Zm2.06-3h0v0h0Z" transform="translate(-79.02 -306.14)"/></g><g id="Group_205" data-name="Group 205"><path id="Path_995" data-name="Path 995" class="cls-15" d="M253,609.93a0,0,0,0,1,0,0l-12.25,17.92h0Z" transform="translate(-79.02 -306.14)"/></g><g id="Group_206" data-name="Group 206"><path id="Path_996" data-name="Path 996" class="cls-16" d="M240.7,627.74a.69.69,0,0,0,0,.13h0l0-.13Z" transform="translate(-79.02 -306.14)"/></g><g id="Group_207" data-name="Group 207"><path id="Path_997" data-name="Path 997" class="cls-16" d="M255,606.94h0l-1,1.48h0L253,610v-.05Z" transform="translate(-79.02 -306.14)"/></g><g id="Group_208" data-name="Group 208"><path id="Path_998" data-name="Path 998" class="cls-10" d="M255,606.92v0l-1,1.47h0l1-1.48Z" transform="translate(-79.02 -306.14)"/></g></g></g></g></g><path class="cls-9" d="M709.62,538.3l.26,0,4.79,16.38L726,597.89l-.06,0-1.3-.77c-5.09-4.39-13.65-18.27-12.82-33.88.49-9.27-1.84-18.9-2.18-24.91" transform="translate(-79.02 -306.14)"/><path class="cls-17" d="M734.68,637.32l0-.06c-4.22-5.32-5.48-24.55-1.34-32.71a.37.37,0,0,1,.07-.14,11.05,11.05,0,0,1,.68-1.14,3.27,3.27,0,0,1,.28-.37,5.21,5.21,0,0,1,2.29-1.8,4.89,4.89,0,0,0,2.06-1.59c.11-.15.22-.29.33-.45a2.23,2.23,0,0,0,.2-.3,11.4,11.4,0,0,0,.78-1.36s0-.07.07-.12h5.32a22,22,0,0,1-3,6.93l-.05,0a3.92,3.92,0,0,1-.25.32A4.77,4.77,0,0,1,740.1,606a5.26,5.26,0,0,0-2.28,1.75c-.08.1-.16.2-.22.29l-.28.42c3.32,3.42,6.19,6.18,6.95,5.61a1.67,1.67,0,0,0,.34-.31l.09-.11c1.58-2,2.7-8.19,4-16.24a.28.28,0,0,0,0-.13h41.8l-.16.13c-7.15,5.47-7.79,4.37-12.79,5.31-5.73,1.08-9.12-1.62-14.13.71a4.88,4.88,0,0,0-1.8,1.48,3,3,0,0,0-.27.35c-3.16,4.5-3.73,15-4.94,23.07a11.17,11.17,0,0,1-2.32,5.26.06.06,0,0,1,0,0,16.85,16.85,0,0,1-15.45,5.9l-.2-.06a8.61,8.61,0,0,1-2.13-.82l-.17-.1a5.16,5.16,0,0,1-.82-.56,4,4,0,0,1-.66-.7m30.24,50.37c1.79-1.08,3.09-2.16,3.15-3.3,0,1.3-.16,2.08-.53,2.22-.92.34-1.8.71-2.62,1.08m-15.62,28.44c-.36,1.4-.91,4.91,2.07,6.65,3.77,2.2,38.11,2.18,45.22,1.25,2.2-.28,10.29-6.4,15.57-8.07a6.8,6.8,0,0,1,2.67-.42,28.87,28.87,0,0,0,20.76-6s6.59-6.59,4.09-19.17c0,0,4.79-27.61-4.53-66.3-8.78-36.37-24.55-43.21-25.75-56.52a17.48,17.48,0,0,1,0-2.61c1.85-36.17-8.38-32.23-10.68-36.9a4.87,4.87,0,0,1-.23-.83,130.15,130.15,0,0,0-5.22-22.47,95.82,95.82,0,0,0-9.63-18.28,12.53,12.53,0,0,1-.92-1.54,6.59,6.59,0,0,1-.21-3.88,8.51,8.51,0,0,1,3.29-4.44c7.83-6,26.86-8.44,36.93-11.68,13.78-4.44,45.35-29.79,49.93-54.07,3.6-19-97.07,31.49-98.8,42.06a41.76,41.76,0,0,1-8.24-2.75c-2.74-2,5-20.3.71-32.4s-17.72-35.85-33.72-51.85,13.28,72.1,13.89,73.75,1,8.34,0,9.26c0,0-29.6,13.17-35.62,17.23a49.7,49.7,0,0,0-14.43,15.33c-2,3-5.06,15.37-2.16,22.11a38.55,38.55,0,0,1,3,5.63l.86-2.16a2.24,2.24,0,0,1,.07.51c.17,3-1.16,6.91,1.08,8.89s9.39,11.89,8.61,14a.46.46,0,0,1-.09.15l.6,2.15c.6,2.7.95,5.54.95,5.54l.28,0h.11l.25,0,0,.11,4.75,16.27L726.12,598,726,598l-.06,0-1.3-.77c-3.37-2.09-11.46-7.59-14.94-14.37-4.28-8.38,1.16-35.52-1.58-50.57v0c-.09-.49-.18-.94-.29-1.4a0,0,0,0,0,0,0v-.15l-.09.11c-2.87,3.77-14.26,20.14-11.76,38.93,2.57,19.45,12.32,23.09,15.34,29.65,1.44,3.12-1.08,25.89,1.73,34.13v0c.77,2.21-16.25.26-17.15,53.17a2,2,0,0,1-.19.79,12.58,12.58,0,0,1-2.79,3.29c-3.64,3.64-9.4,9.75-9.89,24.2-.32,9.48,37.06,7.79,48.12,7.36,1.14,0,2-.08,2.51-.08H734a10.29,10.29,0,0,0,5.2-3.37,5.11,5.11,0,0,1-.15-1.1,113.06,113.06,0,0,0-3.39-19.84,293.32,293.32,0,0,1-11.92-29.94c.44,1.19.89,2.39,1.35,3.59l.6,1.54c.07.15.13.32.2.48.29.75.6,1.49.9,2.24.12.3.26.6.39.91.32.79.66,1.57,1,2.35,2,4.72,4.16,9.26,6.16,13.52-5-19-12.61-41-16.54-52,0-.49,0-1,0-1.47a1.17,1.17,0,0,1,.17-.31,1,1,0,0,1,.19-.25,1.24,1.24,0,0,1,.86-.38,3.56,3.56,0,0,1,.47,0c.51.37.86.6.93.64v.4a70.37,70.37,0,0,0,3.22,15v0c.24.77.51,1.53.77,2.28,1.23,3.52,2.66,7,4.19,10.43a.54.54,0,0,0,.07.13c3.63,8.28,7.82,16.94,11.65,24,0,0,0,0,0,.06.22.42.45.83.67,1.2,0,0,0,.05,0,.09a90.89,90.89,0,0,0,7.11,11.37c.41.52.76,1,1.08,1.45.28.6.55,1.15.81,1.7l0,.1a33.17,33.17,0,0,0-.6,8.44l-.08.1" transform="translate(-79.02 -306.14)"/><path class="cls-18" d="M768.08,684.39c0,1.29-.17,2.07-.54,2.22-.92.34-1.8.7-2.62,1.09,1.79-1.09,3.09-2.16,3.16-3.31" transform="translate(-79.02 -306.14)"/><path class="cls-19" d="M733.37,604.42a9.27,9.27,0,0,1,.68-1.14,2.57,2.57,0,0,1,.28-.37,5.15,5.15,0,0,1,2.19-1.66,4.89,4.89,0,0,0,2.15-1.72,4.59,4.59,0,0,0,.33-.44,2.23,2.23,0,0,0,.2-.3,10.67,10.67,0,0,0,.78-1.36h5.29a22.53,22.53,0,0,1-3,6.8l0,0a4.92,4.92,0,0,1-2.18,1.75,5.12,5.12,0,0,0-2.27,1.76,3.25,3.25,0,0,0-.23.29,5.14,5.14,0,0,0-.37.54l-4-4.06a.24.24,0,0,1,.1-.14" transform="translate(-79.02 -306.14)"/><path class="cls-17" d="M841.05,676.5l-9,25.11c-1.19,3.39-2.39,7.64-.64,10.61a6.06,6.06,0,0,0,4.7,2.74,5,5,0,0,0,4.33-1,4.3,4.3,0,0,0,.6-5.15,4.74,4.74,0,0,0,5.71-3.3,8.21,8.21,0,0,0-1.33-8c2.13.35,3.88-2.79,3.68-5.62a11.4,11.4,0,0,0-3.45-6.91,11.06,11.06,0,0,0-1.82-6.8c-1-1.47-2.85-2.44-4.06-1.2" transform="translate(-79.02 -306.14)"/><path class="cls-20" d="M760.43,467c4.43,1.57,6,8.54,3.59,15.66a34.85,34.85,0,0,0-16.25-5.73c2.59-7.06,8.2-11.49,12.64-9.93" transform="translate(-79.02 -306.14)"/><path class="cls-9" d="M739.92,475.79c-2.27,1.54-5.58-.14-8,1.09a5.11,5.11,0,0,0-2.29,5.44,14.89,14.89,0,0,0,2.76,5.63,3.35,3.35,0,0,0,.6-3,40.64,40.64,0,0,0,5,11.83,5.68,5.68,0,0,0,2.68,2.6,3.15,3.15,0,0,0,3.85-2.27,3.21,3.21,0,0,0,.09-1.07q3.12,4.68,6.51,9.14a4.52,4.52,0,0,0,1.8,1.61,3.1,3.1,0,0,0,3.65-1.8,9.08,9.08,0,0,0,.5-4.41,45.84,45.84,0,0,0,12.3,9.58,28.33,28.33,0,0,1-.81-10.41,30.6,30.6,0,0,1,6.06,4.55l-1.91-7.3,6.39,1.88c-2.85-2.59-3.25-7.11-6.06-9.75-1-.92-2.22-1.57-3.15-2.54s-1.65-2.55-2.66-3.69a3.39,3.39,0,0,0-4-1.14c.63-.12.76-1.08.32-1.57a2.68,2.68,0,0,0-1.79-.68c-5.05-.6-5.76-2.34-10.84-2-.53-1.57-.65-.37-1.61-1.72a1.36,1.36,0,0,0-1-.43,25.48,25.48,0,0,0-10.91.86" transform="translate(-79.02 -306.14)"/><path class="cls-9" d="M749.36,715.53l4.19-15.73,10.78-13.39c-7.47.39-32.5-17.31-40.72-14.64,2.73,5,14.09,32.08,16,34.53.41.52,2.21,7.24,2.53,7.7Z" transform="translate(-79.02 -306.14)"/><path class="cls-9" d="M723.59,654.24v0c-1.29-5.88-1.31-13.94-3.24-15.2" transform="translate(-79.02 -306.14)"/><path class="cls-9" d="M719.59,654.74c-.64-4.74-1.93-16.09-1.93-16.09l.31-.14.2-.14c.28-.12.18-.2.41-.3a1,1,0,0,1,.6,0,24.91,24.91,0,0,0,15.36-.68l.14-.06a18.63,18.63,0,0,0,2.44-1.34,16.57,16.57,0,0,0,1.37,3.52l.09.17c3.07,5.44,8.54,5.17,16-.08,8-5.67,1.86-31.48,12.06-31.65,9.06-.14,19.89-2.71,25.62-7.23,0,0,5.7,8.44,7.1,13.17.52,1.77.43,3-.78,3.11-12.52,1-21,6.58-27.83,15-9,11-2.52,43.61-2.66,52.45-.06,1.13-1.38,2.21-3.16,3.3l-.21.14c-1.19.74-2.6,1.47-4,2.26a15.16,15.16,0,0,0-5.1,4.14c-1.86,3-5.79-1.4-9.33-3.44a4.42,4.42,0,0,0-3.86-.75c-.75.33-1.47.67-2.19,1a.35.35,0,0,0-.14.06c-3.84-7.06-11.63-9.4-15.19-17.64,0,0-4.61-13-5.39-18.74" transform="translate(-79.02 -306.14)"/><path class="cls-9" d="M710.05,533.84l74-7.78a3.15,3.15,0,0,1,1.9,2.76,5.89,5.89,0,0,1,0,.84c-.32,3.77-4.57,8.94-10.08,9.67-18.72,2.53-23.71,36.71-27.24,58.08-1.31,7.94-2.4,14.11-4,16.24l-.1.12a2,2,0,0,1-.43.43c-.76.56-3.63-2.2-6.95-5.61.12-.19.25-.37.38-.54a2,2,0,0,1,.22-.29,5.11,5.11,0,0,1,2.16-1.63,4.91,4.91,0,0,0,2-1.55l.26-.33a.09.09,0,0,0,0,0,22.55,22.55,0,0,0,3-6.8h-5.33a12,12,0,0,1-.75,1.36c-.07.1-.13.21-.19.3s-.23.3-.33.45a5,5,0,0,1-2.15,1.72,5.19,5.19,0,0,0-2.19,1.65,3.37,3.37,0,0,0-.29.37,10.17,10.17,0,0,0-.78,1.26,43.9,43.9,0,0,0-7.19-6.42l-.06-.21-11.34-43.25-4.79-16.38-.26,0v-1a9.28,9.28,0,0,1,.42-3.43" transform="translate(-79.02 -306.14)"/><path class="cls-9" d="M697.7,507.64l.27-.5.09-.16,9.06-16.42s28.53,28.74,45.55,31.74a37,37,0,0,0,28.11-5.93s5.67,5.66,5.67,12.38l-.48.06-76,9.44h-.39l-.38,0s-.38-2.83-1-5.53c-.15-.72-.31-1.43-.48-2.07v-.05a.21.21,0,0,0,0-.15v0a13.08,13.08,0,0,0-.6-1.69,120.41,120.41,0,0,0-8.39-12.28c-2.35-2.7-1.07-8.89-1.09-8.89" transform="translate(-79.02 -306.14)"/><path class="cls-18" d="M780.71,478.08l.17-.11a9.35,9.35,0,0,1,4.76-1.24,9.94,9.94,0,0,0-2.78,3.1,5.7,5.7,0,0,0-.5,1.32,6.53,6.53,0,0,0,.19,3.91c.19.52,2.82,4.19,5.69,9.37a75.1,75.1,0,0,1,4.87,10.45c3.84,10.43,4.89,22.19,5.44,23.31,1.28,2.58,5,2.52,7.73,8.11,2.2,4.5,3.78,12.65,2.94,28.78-.6,11.75,9.58,17.57,18.57,37.52A121.93,121.93,0,0,1,835,624.21c9.34,38.69,4.54,66.31,4.54,66.31,2.52,12.57-4.08,19.16-4.08,19.16a29.15,29.15,0,0,1-20.76,6,6.56,6.56,0,0,0-2.67.41c18.31-42.93,7-109.08-7.95-160.31-2.77-9.49-5.65-18.45-8.51-26.67h0a378.75,378.75,0,0,0-15.81-39.35c-2.85-5.84-1.93-9.74.94-11.65" transform="translate(-79.02 -306.14)"/><path class="cls-18" d="M834.8,650.16s-3.34-35.74-7-47.56A122.78,122.78,0,0,1,835,624.21c9.33,38.69,4.53,66.31,4.53,66.31,2.52,12.57-4.08,19.16-4.08,19.16a28.5,28.5,0,0,1-13.32,5.76c9.39-23.91,12.63-65.3,12.63-65.3" transform="translate(-79.02 -306.14)"/><path class="cls-18" d="M776,603.08c1.2-1.84,2.34-3.72,3.44-5.64a122.49,122.49,0,0,0,16.13-68.34h0c-.06-1.13-.15-2.25-.26-3.39a119.78,119.78,0,0,0-7.08-31.25,74,74,0,0,1,4.87,10.45,129.93,129.93,0,0,1,5.22,22.45,4,4,0,0,0,.22.84c1.27,2.58,5,2.52,7.72,8.11a88.59,88.59,0,0,1-2.19,19.47,101.81,101.81,0,0,1-20.52,41.66c-1.42,1.76-2.91,3.49-4.47,5.17s-3.27,3.45-5,5.11L773,607.6q1.59-2.24,3.09-4.51" transform="translate(-79.02 -306.14)"/><path class="cls-18" d="M713,634a13.59,13.59,0,0,0,3.89,4.66c.39.32.65.53.7.59v1.47a75.3,75.3,0,0,0,2.55,16.49c.93,3.59,2.08,7.19,3.35,10.74a.88.88,0,0,0,0,.15A287.9,287.9,0,0,0,735.46,698a113.06,113.06,0,0,1,3.39,19.84A5.1,5.1,0,0,0,739,719a1.11,1.11,0,0,0,.09.31,10,10,0,0,1-5.28,3.07h-.32c-.52,0-1.38,0-2.51.08-.82-.42-1.36-1.29-1.3-3,.88-21.82-15.12-80-16.7-85.36" transform="translate(-79.02 -306.14)"/><path class="cls-21" d="M713,633.91a1.52,1.52,0,0,1-.09-.28.72.72,0,0,0,.09.28" transform="translate(-79.02 -306.14)"/><path class="cls-18" d="M695.55,687.57c9.33.41,17.24,3.44,22,8.82-6.3-3.81-14.94-5.68-24.8-5.53a12.94,12.94,0,0,0,2.79-3.29" transform="translate(-79.02 -306.14)"/><path class="cls-18" d="M764.92,687.71c.84-.39,1.71-.74,2.63-1.09.36-.15.52-.93.54-2.22,10.25,0,19,3.09,24.16,8.87-6.88-4.14-16.54-6-27.54-5.42h-.09a2,2,0,0,1,.3-.14" transform="translate(-79.02 -306.14)"/><path class="cls-21" d="M735,694.49c-.08-.16-.16-.32-.23-.5" transform="translate(-79.02 -306.14)"/><path class="cls-18" d="M739.94,706.2c.36.55.68,1.07.95,1.54a53,53,0,0,1,1.85,5.36h0c0,1.4-.75,2.07-.82,2.85h-.43a30,30,0,0,1-2.46,2.93,5,5,0,0,1-.15-1.09,112.09,112.09,0,0,0-3.39-19.85,73.48,73.48,0,0,0,4.45,8.24" transform="translate(-79.02 -306.14)"/><path class="cls-21" d="M742.75,713.1a50.68,50.68,0,0,0-1.86-5.36,10.24,10.24,0,0,1,1.86,5.36" transform="translate(-79.02 -306.14)"/><path class="cls-21" d="M741.49,716h.43c.08-.77.77-1.45.82-2.85,0,1.4,0,2-.44,2.62a11.46,11.46,0,0,1-1.4,1.55,20.67,20.67,0,0,1-1.8,1.94l-.09-.32a30,30,0,0,0,2.47-2.92" transform="translate(-79.02 -306.14)"/><path class="cls-18" d="M707.65,530.68l.44,1.47v0l.19.65c.6,2.71.94,5.53.94,5.53l.39-.05c.34,6,2.67,15.66,2.18,24.91-.83,15.61,7.73,29.5,12.82,33.88a8.54,8.54,0,0,0,1.2.9c-1.64-.93-12.15-7.18-16.24-15.13-4.44-8.66,1.59-37.56-1.92-52.19" transform="translate(-79.02 -306.14)"/><path class="cls-21" d="M709.39,537.33l.23,1-.21.06-.33.06s-.32-2.87-.8-5.6Z" transform="translate(-79.02 -306.14)"/><path class="cls-18" d="M806.11,563.73,816.45,590a58.88,58.88,0,0,0,3.59,7.93c.4.69,1.2,1.45,1.87,1a1.54,1.54,0,0,0,.52-1.12,16.63,16.63,0,0,0-4.55-17.37,2.49,2.49,0,0,0,1.15-3.31,7.26,7.26,0,0,0-2.7-2.8l-5.62-4L814,570a1.28,1.28,0,0,0,1-.45c.34-.55-.26-1.2-.79-1.56a50.1,50.1,0,0,0-7.94-4.34" transform="translate(-79.02 -306.14)"/><path class="cls-17" d="M756.37,628.46c1.44-9.49,2-22.55,7-24.89,4.58-2.12,7.79-.08,12.67-.51.48,0,1-.11,1.48-.21l1.61-.26c3.65-.51,4.88-.22,11.33-5.17H748.64c-1.46,8.82-2.66,15.47-4.46,16.8-.76.55-3.63-2.21-6.95-5.61a5.74,5.74,0,0,1,2.76-2.48c2.28-.84,3.92-4.14,5.27-8.73,3.53-12,5.12-32.71,11.21-41.31,8.38-11.91,6.8-11.73,17.36-18.36,4.85-3,8.94-5.88,12.15-8.09,3.81-2.63,6.39-4.34,7.56-4.44a4.49,4.49,0,0,1,1.79.47,16.58,16.58,0,0,1,3,1.66c5.38,3.59,13,12.25,11.85,28.74-.24,3.48-.49,7.45-.91,11.58-1.2,12-3.85,25.33-11.84,31.85-10.73,8.77-10.73,7.15-16.46,8.24a21.46,21.46,0,0,1-6.88-.06l-1.17-.13a11.12,11.12,0,0,0-6.1.9c-5,2.32-5.55,15.4-7,24.89s-15.4,14.33-21.13,9.67a9.65,9.65,0,0,1-2.51-4.24c6.2,3.47,18.79-1.35,20.14-10.34" transform="translate(-79.02 -306.14)"/><path class="cls-17" d="M737.22,608.62c3.32,3.41,6.18,6.17,6.95,5.61,1.8-1.33,3-8,4.48-16.77h41.8c-7.3,5.61-7.92,4.49-12.94,5.43-5.74,1.08-9.13-1.62-14.15.72s-5.55,15.4-7,24.89c-1.35,9-13.94,13.77-20.14,10.33-2.84-8-3.08-23.85,1-30.18" transform="translate(-79.02 -306.14)"/><path class="cls-17" d="M740,606.16c2.29-.84,3.92-4.14,5.27-8.73h3.39c-1.45,8.83-2.65,15.48-4.47,16.77-.76.56-3.63-2.2-7-5.61a5.77,5.77,0,0,1,2.77-2.46" transform="translate(-79.02 -306.14)"/><path class="cls-17" d="M733.24,604.54h0l4,4.06c-4,6.26-3.82,21.85-1,29.94a.68.68,0,0,0,.07.23,8.3,8.3,0,0,1-1-.67c-4.79-3.9-6.46-25.1-2-33.6" transform="translate(-79.02 -306.14)"/><path class="cls-20" d="M705.3,488.6c5.07,0,9.18-2.92,9.18-6.51a5.16,5.16,0,0,0-1.3-3.35,5.66,5.66,0,0,1,2.54,4.5c0,3.59-4.1,6.5-9.18,6.5a10.3,10.3,0,0,1-7.87-3.15,11.27,11.27,0,0,0,6.63,2" transform="translate(-79.02 -306.14)"/><path class="cls-22" d="M706.54,476.73a11.19,11.19,0,0,1,6.64,2,5.11,5.11,0,0,1,1.3,3.35c0,3.59-4.1,6.5-9.18,6.5a11.2,11.2,0,0,1-6.63-2,5.06,5.06,0,0,1-1.31-3.35c0-3.6,4.11-6.51,9.17-6.51" transform="translate(-79.02 -306.14)"/><path class="cls-18" d="M706.54,476.73a11.19,11.19,0,0,1,6.64,2,5.11,5.11,0,0,1,1.3,3.35c0,3.59-4.1,6.5-9.18,6.5a11.2,11.2,0,0,1-6.63-2,5.06,5.06,0,0,1-1.31-3.35c0-3.6,4.11-6.51,9.17-6.51" transform="translate(-79.02 -306.14)"/><path class="cls-17" d="M802.82,533.74a63.75,63.75,0,0,0,3.55,20.15,11.18,11.18,0,0,0,1.64,3.34,4.35,4.35,0,0,0,3.15,1.8,1.28,1.28,0,0,0,.81-.21,1.42,1.42,0,0,0,.4-.82,13,13,0,0,0-4.46-12.72,5,5,0,0,0,3.15.7,1.32,1.32,0,0,0,.76-.24,1.55,1.55,0,0,0,.41-1.38,10.09,10.09,0,0,0-3.07-6.14,28.75,28.75,0,0,0-5.62-4.13" transform="translate(-79.02 -306.14)"/><path class="cls-17" d="M714.92,512a13.2,13.2,0,0,0-2.73-6.67c-.39-.51-1-1-1.58-.77a1.28,1.28,0,0,0-.65,1.07,14.08,14.08,0,0,0,.86,4.58c.3,1.53-.26,3.55-1.79,3.8,3.52,2.32,3.59,7.32,4.86,11.35.3.9.94,2,1.87,1.82.48-.08.87-.46,1.34-.6.81-.2,1.58.42,2.15,1a22.42,22.42,0,0,1,4.89,8.15c.89,2.68,2,6.13,4.79,6.36l-2.57-11c-.12-.5-.18-1.15.26-1.4s.91.07,1.29.37l3.55,2.88a2.26,2.26,0,0,0,1.8.72c1.33-.3,1-2.31.26-3.45s-1.5-2.88-.36-3.62c1.34-.86,2.9,1.25,4.48,1a22.37,22.37,0,0,0-7.08-6.26c-2.58-1.2-5.92-1.68-7.14-4.26a4.65,4.65,0,0,0-.83-1.51,3.28,3.28,0,0,0-1.47-.63,12.53,12.53,0,0,1-7.83-6.49" transform="translate(-79.02 -306.14)"/><path class="cls-17" d="M740.55,660a13.82,13.82,0,0,1-4.79-8.55,6.32,6.32,0,0,0-.6-2.29,1.63,1.63,0,0,0-2-.78,2,2,0,0,0-.85,1.14,7.71,7.71,0,0,0,1.08,7.78c.6.73,1.4,1.31,2,2a15.45,15.45,0,0,1,2.33,5.73,7.1,7.1,0,0,0,3.55,4.87,21.78,21.78,0,0,1,2.06.71c2.06,1.09,2.16,4.1,3.85,5.7a6.79,6.79,0,0,0,1.05-3.74,9.15,9.15,0,0,1,.78-3.83,2.79,2.79,0,0,1,3.3-1.44l-1.54-5c-.33-1-.9-2.27-2-2.34-1.38-.08-2,1.67-2.92,2.68a3.19,3.19,0,0,1-5.47-2.57" transform="translate(-79.02 -306.14)"/><path class="cls-17" d="M807.7,568.16c-5,8.38-3,18.94-1.2,28.5a326,326,0,0,1,6.59,63.92c-.08,10.24-.78,20.57,1.08,30.64.1.55.3,1.2.84,1.36a1.34,1.34,0,0,0,1-.22,10,10,0,0,0,4.36-6.81c.6-2.7.72-5.53,1.51-8.19a10.7,10.7,0,0,0,.88-4.39c-.14-1-.68-2-.75-3a17.18,17.18,0,0,1,1.05-4.28,21.54,21.54,0,0,0-.37-5.94c-.26-3.42.87-6.79,1.13-10.22s-.67-7.37-3.7-9c2.25-1.49,2.43-4.79,1.63-7.38s-2.33-5-2.69-7.65a37.33,37.33,0,0,1,.36-6.85,21.76,21.76,0,0,0-2.27-10.18,5.66,5.66,0,0,1-.63-1.84,6.86,6.86,0,0,1,.31-2,20.87,20.87,0,0,0-1.09-10.21L813,584.3c-1.31-4.69-2.61-9.36-4-14" transform="translate(-79.02 -306.14)"/><path class="cls-17" d="M770.57,724.35c14.37,0,25.72-6.77,25.72-17.46s-11.65-19.32-26-19.32S742,702.45,742,713.15s14.2,11.23,28.56,11.23" transform="translate(-79.02 -306.14)"/><path class="cls-9" d="M760.84,474.39c0,1.44-.39,2.62-.87,2.62s-.87-1.2-.87-2.62.39-2.62.87-2.62.87,1.2.87,2.62" transform="translate(-79.02 -306.14)"/><path class="cls-23" d="M760.84,474.39c0,1.44-.39,2.62-.87,2.62s-.87-1.2-.87-2.62.39-2.62.87-2.62S760.84,472.92,760.84,474.39Z" transform="translate(-79.02 -306.14)"/></svg>