<?xml version="1.0" encoding="utf-8"?>
<!-- Generator: Adobe Illustrator 25.2.3, SVG Export Plug-In . SVG Version: 6.00 Build 0)  -->
<svg version="1.1" id="Layer_1" xmlns="http://www.w3.org/2000/svg" xmlns:xlink="http://www.w3.org/1999/xlink" x="0px" y="0px"
	 viewBox="0 0 203.6 547.1" style="enable-background:new 0 0 203.6 547.1;" xml:space="preserve">
<style type="text/css">
	.st0{fill:#E1C0F2;}
	.st1{fill:#FFFFFF;}
	.st2{fill:#C876D6;}
	.st3{opacity:0.5;fill:#C876D6;enable-background:new    ;}
	.st4{fill:#E8D4F5;enable-background:new    ;}
</style>
<g id="Group_128" transform="translate(347.044 297.671)">
	<g id="Layer_2_1_" transform="translate(-347.044 -297.671)">
		<path id="Path_780" class="st0" d="M20.1,7.7c-14.3,13.5,11,24.9,9,30.3c-2.7,7.7-6.2,12.5-3.1,42.7c2.4,23.2,9.7,21.8,4.6,44.8
			c-4.1,18.6-4.7,49.9-3.5,73.3c0.6,12.1,5.4,29.2,9.1,36.5c5.8,20.7-5.6,77.4-16.4,116.1c-4.7,16.9-7.1,47.3-3,77.7
			C22,467.3,36,498.4,35,503.7c-1.7,9.5-13.3,19.9-6,32.6c3.4,6,15,5.6,26.7,7.4c14.2,2.3,33.5-1.6,31.3-14.1
			c-3.9-22-2.5-49.6,9.6-68.6c2.9-4.6,4.1-3.3,14.8-1.5c8.9,1.5,13.5,5.9,11.8,14.6c-10,52.2,14.3,71.6,14.3,71.6
			c9.9,2.5,27.1-4.8,40.9,0c25.4,8.8,26.3-20.9,10.2-31.1c-8.9-5.6-20.2,3.3-19.7,2c23.3-53.7,18.5-87.7,13.4-103.7
			c-10.2-32.3-19.3-39-14.3-45.8c28-38.8,0.7-108.1-0.3-121c-0.3-4.1,12.8,7.3,20.1,0.1c21.1-20.9,16.6-79.3,9.9-85.6
			c-12.5-11.8-28.8-17.3-37.9-21.4c-17.4-7.7-17.2-22.4-20-34.9c-5.1-23.1,2.3-36-7.8-54.3c-2.9-5.3,32.1-13.8,13.5-29.4
			c-13.3-11.1-22.2,5.9-25.2,4c-47.9-32.4-74.8-6.1-74.8-6.1S34.1-5.4,20.1,7.7z"/>
	</g>
	<g id="Layer_3" transform="translate(-278.594 -121.047)">
		<path id="Path_781" class="st1" d="M87.9,25.5l-14.5-1.7c0,0,4.1,8.7,2.5,11.7c-0.9,1.6-2.2,3-3.8,3.9
			c-4.5,3.1-11.4,5.4-18.7,14.2C44.9,64.1,40,81.5,36,87.9C27.2,102.4,3.4,105,3.4,105S-7,154.3-5.7,180.4
			c0.3,5.9,0.2,15.2,5.3,23.5c28.6,46.6,31.9,73.6,32.3,77.2c0,0.3,0,0.4,0,0.4C87,243,107.4,198.1,112,156.3
			C116.5,115.7,93.6,41.2,87.9,25.5z"/>
		<path id="Path_782" class="st1" d="M75.5-23.3c0,0-9.4-18.8-21.3-26.1c0.2,0.4,9.4,17.5,5.5,15.9L40.8-45.1c0,0,0.2,1.9,0.3,4.5
			c0.2,5.5-0.2,14.2-3.9,15.5c-5.1,1.7-15.4-15-15.4-15s-5.6,16.6-6,25.5c-0.3,6.9,0.4,21.5,0.4,21.5S29.5-6.8,32.6-7.5
			c7.2-1.4,24.5,7.2,29.2,9.7C62.6,2.6,63,2.8,63,2.8l-1.2-5.1L75.5-23.3z"/>
	</g>
	<g id="Layer_4" transform="translate(-344.615 -231.115)">
		<path id="Path_783" class="st2" d="M155.3,139.5c18.2-3.7,30.4-31.6,30.4-31.6s-22.8,31.7-31.8,27.6L155.3,139.5z"/>
		<path id="Path_784" class="st2" d="M82.1,114.4c-20.7,8-33.2,25.1-33.2,25.1s19.6-16.1,22-14.2L62,150.2c0,0,6.9-19.3,20.2-33.3
			L82.1,114.4z"/>
		<path id="Path_785" class="st2" d="M24.6,92.8C26,73.6,38,54.3,38,54.3S27.5,66.5,26,73.6C24.6,80.2,24.6,92.8,24.6,92.8z"/>
		<path id="Path_786" class="st2" d="M140.7,85.3c0,0,7.2-9.2,11.4-10.1c3-0.5,6-0.9,9.1-1c0,0-3.2,0.7-6.5,1.6
			c-5.6,1.6-13.2,11-13.2,11L140.7,85.3z"/>
		<path id="Path_787" class="st2" d="M186.4,86.8c1.8,2.3,1,11.9,1,11.9s-0.3-10.2-5.9-14.9C181.6,83.8,185.8,85.9,186.4,86.8z"/>
		<path id="Path_788" class="st2" d="M14.9,297.3c16.2-3.8,23.1,8.1,23.1,8.1s-15.8-10.3-23.9-2.7L14.9,297.3z"/>
		<path id="Path_789" class="st2" d="M49.6,435.6c16.2,0.9,19.8,6.3,19.8,6.3c-10.1-12.5-29.5-13-37-3.3
			C32.4,438.6,38.6,435,49.6,435.6z"/>
		<path id="Path_790" class="st2" d="M38.8,475.4c-4.3-3.9-2.4-13.6-2.4-14s-5,9.2-3,12.9C33.8,474.8,38.8,475.4,38.8,475.4z"/>
		<path id="Path_791" class="st2" d="M50.9,476.9c-2.3-3.2-1.9-14.6-1.9-14.6s-5.2,12.1-2.1,14.1C47.3,476.7,50.9,476.9,50.9,476.9z
			"/>
		<path id="Path_792" class="st2" d="M65,477.8c3.7-7.2-4.4-14.5-4.4-14.5s2.3,10.4-0.2,14.6C60.4,477.9,64.9,478,65,477.8z"/>
		<path id="Path_793" class="st2" d="M196.7,471.9c0.5-3.5-5.4-8.2-5.4-8.2s3.8,4.4,2.3,13.9C193.6,477.6,196.1,476.1,196.7,471.9z"
			/>
		<path id="Path_794" class="st2" d="M183.2,480.8c0,0,6.9,0.6,6.9-0.8c0-3.6-6.7-11.5-6.7-11.5S187,478.4,183.2,480.8z"/>
		<path id="Path_795" class="st2" d="M147.2,469c0,0-0.5-3.4,3.6-9.1c3.2-4.6,15.9-9.7,15.9-9.7S152.4,457,147.2,469z"/>
		<path id="Path_796" class="st2" d="M63.2,43.6c6,6.7,13.7,13.3,19.7,14.9c3.7,1,9,1.9,12.4,0.2c2.7-1.4,4.7-4.4,4.7-4.4
			s-6.8,4.4-16.3,1.4C73.6,52.5,50,28.8,50,28.8S61.8,42,63.2,43.6z"/>
		<path id="Path_797" class="st2" d="M46.8,24.5C45.1,9.1,50.7-7.6,50.7-7.6s-6.5,12-6.5,17.8C44.1,15.6,46.8,24.5,46.8,24.5z"/>
		<path id="Path_798" class="st2" d="M73,18.1c2.2,5.8,18.8,15.5,18.8,15.5s-22.9-5.5-23.6-16.4S79.1-6.7,81.7-9.3
			C81.7-9.3,70,9.9,73,18.1z"/>
		<path id="Path_799" class="st2" d="M109,2.1c5.1,11.5,2.2,19.5,2.2,19.5s0.8-5.7-3.2-16.5c-3.5-9.5-9.3-13.9-9.3-13.9
			S105.1-6.8,109,2.1z"/>
		<path id="Path_800" class="st2" d="M105.5,24.9c-0.7,3-7.2,9.8-7.2,9.8s-0.9-5.8-2.4-6.9c-0.8-0.7-3.3-0.4-4.1-1
			c-1.1-0.9-1.9-4.1-1.3-5.4c1.1-2.2,7-2.8,9.4-2.7c1.2,0,3.9,0.6,4.7,1.6C105.5,21,105.7,23.7,105.5,24.9z"/>
		<path id="Path_801" class="st2" d="M95.6,37.5c-2.2,1.7-3.3,1.8-10.9,0.7c-7.7-1.1-16.4-5.1-16.4-5.1s12.9,6.9,16.4,7.7
			c4.4,0.9,8.9,0.9,13.3,0.1c1.7-0.4,4-1.3,5.2-3c0.7-1,1.3-2.2,1.6-3.4c0,0-4.4,4-6,3.3c-0.7-0.3-0.6-3.1-0.6-3.1
			C97.4,35.7,96.5,36.6,95.6,37.5z"/>
		<path id="Path_802" class="st2" d="M61.2-11.5l3.7,0.4c0,0,1.6,3.2,2.5,3.8c1,0.7,3.9,0.9,5,0.4c1-0.5,1.9-2.8,2.1-3.8
			c0.3-1.3,0-4.2-1-5.1c-0.8-0.7-3.1-0.3-4.1-0.3c-3.1,0.3-6.2,0.8-9.2,1.6C59.8-13.9,61.2-11.5,61.2-11.5z"/>
		<path id="Path_803" class="st2" d="M115.5-10.7L113-9.5c0,0-0.2,3.2-0.7,4.1c-0.8,1-2.1,1.5-3.4,1.4c-0.8-0.2-2.1-2.1-2.6-3
			c-0.6-1.1-1-3.4-0.5-4.5c0.3-0.8,1.9-1.4,2.6-1.6c2.3-0.4,4.6-0.6,7-0.5C115.8-13.2,115.5-10.7,115.5-10.7z"/>
		<path id="Path_804" class="st2" d="M133-1.4c1.4,12.5-2.7,28.5-2.7,28.5S130.6,13.5,130,2c-0.3-6.3-1.8-12.5-4.3-18.3
			C129.9-12.4,132.5-7.1,133-1.4z"/>
		<path id="Path_805" class="st2" d="M167,91.2c7.2,5.7,9,18.1,9,18.1s6.6-18.1-5.2-25.5c-11.5-7.2-21.2,3-21.2,3
			S159.7,85.5,167,91.2z"/>
		<path id="Path_806" class="st2" d="M108.8,117.7c7.2,5.7,14.4,18.1,14.4,18.1s1.2-18.1-10.7-25.5c-11.5-7.2-21.2,3-21.2,3
			S101.5,111.9,108.8,117.7z"/>
		<path id="Path_807" class="st2" d="M198.6,123.8c-0.6,21.1-11,49.2-11,49.2s5.8-34.6,6.8-48.6c0.8-10.1-2.5-25.7-2.5-25.7
			S199,111,198.6,123.8z"/>
		<path id="Path_808" class="st2" d="M171.2,416.9c0,0,9.4-42.4,7.4-56.6c-2.9-20.5-11.8-33.9-11.8-33.9l-3,18
			C178.6,360.3,171.2,416.9,171.2,416.9z"/>
		<path id="Path_809" class="st2" d="M178.9,452.5c2.5,0.2,8.9,3.6,8.9,3.6s-6-6.9-8.9-7.2c-3.1-0.3-11,5.7-11,5.7
			S176.4,452.3,178.9,452.5z"/>
		<path id="Path_810" class="st2" d="M47.3,441.9c5.5,0.1,10.9,1.3,15.8,3.6c-4.2-4.4-10-6.9-16-6.8c-4.9,0-9.6,1.8-13.2,5.2
			C34,443.9,41.6,441.8,47.3,441.9z"/>
		<path id="Path_811" class="st2" d="M50.9,414.3c0,0,6.6-67.7,2.4-87.9C52.2,321.3,38,314,34,318.6
			C19.4,335.4,50.9,414.3,50.9,414.3z"/>
	</g>
	<g id="Layer_5" transform="translate(-346.981 -248.673)">
		<path id="Path_812" class="st3" d="M168.5,196.3l3.8,1c0,0,13.7-45.8,7-56.6c0,0-9.8,14.3-21.5,16.4L168.5,196.3z"/>
		<path id="Path_813" class="st3" d="M101.6,48.7c-1.1,7.2-6.9,7.8-10.5,7.6C84,55.9,79,56,71.5,50.1C67,46.6,68.6,38,69.8,31.4
			c1.7-8.9,19-30.9,19-30.9l11.6,34.9C100.5,35.4,102.9,40.2,101.6,48.7z"/>
		<path id="Path_814" class="st4" d="M104.8,120.2l0.7-17.7c-5.1,1.7-15.4-15-15.4-15s-5.6,16.6-6,25.5c-0.3,6.9,0.4,21.5,0.4,21.5
			S99.3,118,104.8,120.2z"/>
		<path id="Path_815" class="st4" d="M100,220.9c-12.4,9.9-28.2,11.8-28.2,11.8s-10.4,49.3-9.1,75.4c0.3,5.9,0.2,15.2,5.3,23.5
			c28.6,46.6,31.9,73.6,32.3,77.2C84.5,248.5,100,220.9,100,220.9z"/>
		<path id="Path_816" class="st3" d="M68.4,251c0,0-15.4-2.5-21-9.1c-1.1-1.3-6.1-6.2-6.1-6.2S5.7,356.8,33.7,447.3
			c1,3.1-15.8-46-17.9-76.2c-1.5-22-2.1-46.4,3.5-66.4c6.8-24.4,16.5-63.6,18.4-97.5c0,0,7.8,30.6,34.1,25.5L68.4,251z"/>
		<path id="Path_817" class="st3" d="M36.3,186.4c-3.8-9-6.6-18.4-8.1-28.1c-2.2-14.6-1.4-37.1-1.4-37.1s14.4,24.6,29.4,30.2
			c0,0-16.5,15.5-18.6,42.3C37.5,193.7,36.7,187.4,36.3,186.4z"/>
		<path id="Path_818" class="st3" d="M107.5,409.9c2.7,0.5,7,1.1,11.2,3c2.6,1.2,5.6,5.3,5.1,9.2c-1.4,11.8-10.5,50.8,14,74.7
			c0,0,18.1-57.2,17.9-79.1c-0.1-12.3-8.5-52.6-8.5-52.6c-16.2,23.5-46.8,44-46.8,44C102.7,409.2,105.1,409.5,107.5,409.9z"/>
		<path id="Path_819" class="st3" d="M32.1,59c-7.1-22-6.7-35.6-7.2-42.2c-0.1-0.7-1.6-16.2,4.2-27.8c0,0-4.4,14.8,0.7,46.2
			c2,12.3,4.5,19.6,14.2,30.5L28.4,91.1C29.2,77.3,33.7,63.9,32.1,59z"/>
		<path id="Path_820" class="st3" d="M181.2,273.8c-0.3,28.7-12.5,55.4-12.8,55.9c-0.1,0.3,9.3-25.9,9.3-60.4c0-32.3-9.3-73-9.3-73
			S181.5,240.2,181.2,273.8z"/>
		<path id="Path_821" class="st3" d="M142.7,68.4c-4.6-6.3-8-8.4-8-8.4c1.7-3.2,4.1-12.7,4.1-12.7L142.7,68.4z"/>
	</g>
	<g id="Layer_6" transform="translate(-340.365 -291.81)">
		<path id="Path_822" class="st1" d="M101.3,78.4c-1.6-1.4-3.8-2-6-1.5L85.3,47C96,59.9,101.3,78.4,101.3,78.4z"/>
		<path id="Path_823" class="st1" d="M75.8,14.7C87.6,16,107.2,24,107.2,24S95.4,10.6,77.4,8.3c-14.9-2-31.7,8.9-31.7,8.9
			S63.9,13.3,75.8,14.7z"/>
		<path id="Path_824" class="st1" d="M87.5,26.3c5.7,1.3,10.6,5.9,10.6,5.9s-4.3-7.8-10.6-8.8C82.3,22.6,77.2,25,77.2,25
			C80.6,25.2,84.1,25.6,87.5,26.3z"/>
		<path id="Path_825" class="st1" d="M133.8,21.1c1.9,3,0.4,9.9,0.4,9.9s5.7-3.2,5.7-8.3c0-4.4-4.2-6.7-6.4-7.7
			c-2.2-1.1-9.2,2.5-9.2,2.5S131.4,17.2,133.8,21.1z"/>
		<path id="Path_826" class="st1" d="M18.8,8.3c2.7-2.3,9.7-1.9,9.7-1.9s-4-5.2-9-4.4c-4.4,0.7-6,5.2-6.7,7.4
			c-0.7,2.4,3.8,8.7,3.8,8.7S15.4,11.3,18.8,8.3z"/>
		<circle id="Ellipse_18" class="st1" cx="106.3" cy="49.9" r="1.5"/>
		<circle id="Ellipse_19" class="st1" cx="67.3" cy="48.3" r="1.5"/>
	</g>
</g>
</svg>
