<?xml version="1.0" encoding="utf-8"?>
<!-- Generator: Adobe Illustrator 25.2.3, SVG Export Plug-In . SVG Version: 6.00 Build 0)  -->
<svg version="1.1" id="Layer_1" xmlns="http://www.w3.org/2000/svg" xmlns:xlink="http://www.w3.org/1999/xlink" x="0px" y="0px"
	 viewBox="0 0 584.6 388.2" style="enable-background:new 0 0 584.6 388.2;" xml:space="preserve">
<style type="text/css">
	.st0{fill:#BFDEFF;}
	.st1{fill:#FFFFFF;}
	.st2{fill:#87BAEB;}
	.st3{fill:#709CDB;}
	.st4{fill:#E0BFF2;}
	.st5{fill:#C775D6;}
	.st6{fill:#DEA3ED;}
	.st7{fill:#FFFFFF;stroke:#FFFFFF;stroke-width:0.11;stroke-miterlimit:10;}
	.st8{fill:#FFFFFF;stroke:#FFFFFF;stroke-width:0.442;stroke-miterlimit:10;}
	.st9{fill:#FFFFFF;stroke:#FFFFFF;stroke-width:0.331;stroke-miterlimit:10;}
</style>
<g id="scene" transform="translate(500.76 -444.791)">
	<g id="sky_moon_ground" transform="translate(-500.76 444.791)">
		<path id="Path_1" class="st0" d="M584.6,238.8c-0.1,32.1-7.8,63.8-22.6,92.3c-5.3,10.2-11.3,20.1-18.1,29.4
			c-47.1,12.6-142.7,21.2-252.9,21.2c-107.7,0-201.4-8.2-249.6-20.3c-7.2-9.9-13.7-20.3-19.2-31.2C7.7,301.9,0.1,270.6,0,238.8
			C0,106.9,130.9,0,292.3,0S584.6,106.9,584.6,238.8z"/>
		<path id="Path_246" class="st1" d="M395,75.4c23.9,0,43.3,19.4,43.3,43.3l0,0c0,23.9-19.4,43.3-43.3,43.3
			c-23.9,0-43.3-19.4-43.3-43.3S371,75.4,395,75.4L395,75.4z"/>
		<path id="Path_2" class="st1" d="M576.7,343.5c0,5.5-8.4,10.8-23.7,15.6c-2.3,0.7-4.8,1.5-7.5,2.2c-1.4,0.4-2.9,0.8-4.4,1.1
			c-48.5,12-141.6,20-248.5,20c-104.8,0-196.3-7.8-245.5-19.3c-1.4-0.3-2.7-0.7-4.1-1c-2.9-0.7-5.7-1.5-8.2-2.2
			c-16.9-5-26.3-10.5-26.3-16.3c0-4.4,5.4-8.7,15.3-12.6c3.6-1.4,7.7-2.8,12.4-4.2c2.2-0.6,4.6-1.3,7.1-1.9
			c48.2-12.1,141.8-20.2,249.3-20.2c109.8,0,205,8.5,252.3,21c2.4,0.6,4.6,1.2,6.7,1.9c4.1,1.2,8.1,2.7,12,4.3
			C572.1,335.5,576.7,339.4,576.7,343.5z"/>
	</g>
	<g id="iceberg" transform="translate(-427.569 528.819)">
		<g id="Group_11">
			<path id="Path_233" class="st2" d="M0,250.7v-87.2l60.3-68.9l23.7,14l101.2-44.1L236.7,0l69.9,57l29.1,73.2l26.9,12.9v42
				l26.9,15.1v50.6L0,250.7L0,250.7z"/>
			<path id="Path_234" class="st0" d="M60.3,94.7l-10.8,51.7l31.2,73.2l3.2-110.8L60.3,94.7z"/>
			<path id="Path_235" class="st0" d="M389.5,200.1h-25.8l-1.1-15.1L389.5,200.1z"/>
			<path id="Path_236" class="st0" d="M362.6,143.1h-31.2l4.3-12.9L362.6,143.1z"/>
			<path id="Path_237" class="st0" d="M306.7,57h-59.2L236.7,0L306.7,57z"/>
			<path id="Path_238" class="st0" d="M185.1,64.6l-61.6,52.3l-39.5-8.2L185.1,64.6z"/>
			<path id="Path_239" class="st3" d="M134.5,250.7l-11-133.8l86.2-22.2l-36.3,42l37.2-6.5l-25.5,54.9l-29.4,7.5l12.7,20.5l26.4,0.8
				l10.7,36.7"/>
			<path id="Path_240" class="st0" d="M125.6,143.1l25,107.6h-48.4l9.8-82.5L125.6,143.1z"/>
			<path id="Path_241" class="st0" d="M321.2,250.7c0,0-28.1-75.2-28.4-78s0-63.5,0-63.5l-37.2,53.3l16.1,65.6l-8,22.6L321.2,250.7z
				"/>
			<path id="Path_242" class="st3" d="M33.1,250.7l5.9-18.8l16.6-12.4L0,228.9v21.8L33.1,250.7z"/>
			<path id="Path_243" class="st3" d="M0,163.6l27.8-6.5l11.5-26.9H27.8L0,163.6z"/>
			<path id="Path_244" class="st3" d="M237.3,250.7l-0.6-53.8l6.9-43.2l30-17.1l0,0l-14.2,41.8l12.2,49.7l-8,22.6L237.3,250.7z"/>
			<path id="Path_245" class="st3" d="M236.7,0l-15,57l7.5,79.6L247.5,57L236.7,0z"/>
		</g>
	</g>
	<g id="polar_bear" transform="translate(-297.997 698.825)">
		<path id="Path_9" class="st4" d="M309.5,132.4c-6.4,1.1-23.5,3.3-27.7,0c-2.5-2.2-5.1-4.2-7.8-5.9c-1.9-1.1-4-1.8-6.2-2.1
			c-2.8-0.4-5.6-0.6-8.4-0.5c-12.9,0.1-47.1-0.7-60.1-8.2c-1-0.5-1.9-1.2-2.7-1.9c-2.5-2.3-12.1,1.4-25.2,4.8
			c-17.4,4.5-41.1,8.4-62.6-3.2c-13.8-7.4-18.2-7.3-23.8-4.6c-2.4,1.2-5,2.8-8.6,4.6c-10.3,4.9-46.5,16.3-66.1,6.3l0,0
			c-3.6-1.8-6.7-4.5-8.9-7.9c0,0-12.2-87.8,40.5-107C51.2,3.2,61.1,1,71.2,0.2c24.4-1.7,42.9,6.3,58.9,11.8c6.4,2.5,13.2,4.1,20,4.7
			c6.2,0.5,12.4-0.5,18.1-2.9l0,0c7.6-3.3,15.8-5,24.1-4.9c17.6-0.2,60,26.4,75.3,43.7c4.6,5.2,6.6,7.4,8.1,9.1
			c0.7,0.8,1.3,1.5,2,2.3c1,1.2,2.2,2.6,4.2,5.1c3.2,3.9,4-10.2,15.3-7.5c7.3,1.7,2.5,19.5,2.5,19.5c0.6,2.5,0.9,5.1,0.8,7.6
			c-0.2,3.4-1.6,10.6,0.8,14.8c0.2,0.4,0.5,0.9,0.9,1.2c3.5,3.7,12.1,9.1,13.7,14.4C317.5,124.4,315.9,131.3,309.5,132.4z"/>
		<path id="Path_10" class="st5" d="M230.6,117.2c-3.9-3.6-4.9-9.4-4.4-14.8c0.5-4.8,4.1-10.6,6.5-14.8c-1.7,4.8-2.8,9.8-3.3,14.8
			C228.7,112.4,230.6,117.2,230.6,117.2z"/>
		<path id="Path_11" class="st5" d="M275.3,127.3c-2.3-1.3-4.9-2.3-7.5-2.9c-1.5-2.6,3.9-11.3,3.9-11.3
			C270.7,118.1,272,123.3,275.3,127.3z"/>
		<path id="Path_12" class="st6" d="M301.3,103.5l-0.1,0.1c-0.1-0.3-9.8-7.1-9.8-7.1s0.2-9.5-5.3-13.9c-5.5-4.4-19.8-14.9-19.8-14.9
			s10.7-2,15.6,1.4c3.3,3.8,4-10.2,15.3-7.5c7.3,1.7,2.5,19.5,2.5,19.5c0.6,2.5,0.9,5.1,0.8,7.6C300.4,92.1,299,99.3,301.3,103.5z"
			/>
		<path id="Path_13" class="st5" d="M271.6,98.7c0,1.1-2.1,1.3-3.6,1.3c-1.6,0-3.6-0.6-3.6-1.6s2-2.3,3.6-2.3
			C269.5,96.1,271.6,97.6,271.6,98.7z"/>
		<path id="Path_268" class="st5" d="M308.7,120.2c2.5-0.4,4.7,0.5,4.9,1.9s-1.6,2.9-4.1,3.2c-2.5,0.4-4.7-0.5-4.9-1.9
			C304.4,122,306.3,120.6,308.7,120.2z"/>
		<path id="Path_14" class="st6" d="M281.9,69.1c-9.9-6.6-38.1,5.4-38.1,5.4s-1.8-4.5-5.3-5.5s29.6-12.7,37.2-7.3l0,0
			C277.5,63.7,278.5,64.9,281.9,69.1z"/>
		<path id="Path_15" class="st5" d="M249.5,77.1c-2,0.2-3.9-0.6-5-2.3c-1.1-1.6-2.2-3.1-3.6-4.5c-2.2-1.9-5.4-2.1-7.7-0.4
			c-1.7,1.5-2.8,3.5-3.2,5.8c-0.3,3.2,0.5,6.3,2.2,9c1.9,2.8,4.7,4.8,7.9,5.8"/>
		<path id="Path_16" class="st5" d="M285.3,67.7c2.5-3.9,4.3-6,8.4-6.4c1.8-0.3,3.7,0.1,5.2,1.2c-2.8,0-5.4,1.4-7.1,3.6
			c-1.5,2.2-2.3,4.8-2.1,7.4c-2.3-0.9-4.3-2.3-6-4"/>
		<path id="Path_17" class="st5" d="M196.6,113.8c-18.5-12.4-59.2-46.7-59.2-46.7s34.2,39.1,49.3,47.2
			C190.8,116.5,200.3,116.3,196.6,113.8z"/>
		<path id="Path_18" class="st5" d="M108.8,115.4c-13.8-7.4-18.2-7.3-23.8-4.6C74.6,40.9,17,40.9,17,40.9C62.3,40,84.9,77,84.9,77
			c0.1-2.1,0.3-4.2,0.7-6.3c1.6-9.6,7.2-28,26.2-32C111.9,38.7,80.1,77,108.8,115.4z"/>
		<path id="Path_20" class="st5" d="M71.2,0.3C68,1.4,64.5,2.6,60.7,3.7c-24,7.3-25.9,11.4-38.8,22.7s-26.2,63.1-11.7,95.2
			c-3.6-1.8-6.7-4.5-8.9-7.9c0,0-12.2-87.8,40.5-107C51.2,3.2,61.1,1,71.2,0.3z"/>
		<path id="Path_21" class="st5" d="M170.8,24.9c-2.2-0.5-25.9-6.4-40.7-12.8c6.4,2.5,13.2,4.1,20,4.7c6.2,0.5,12.4-0.5,18.1-2.9
			C165.6,22.7,169.9,24.5,170.8,24.9z"/>
		<path id="Path_22" class="st7" d="M199.8,16.3c11,0.5,20.4,6.4,28.8,12.1c9.6,6.4,19.3,12.9,26.2,21.2c-13.9-2-28.9,2.3-38,10.8
			c0.2-17.1-8.7-34.2-24-46.3c4.9,0.6,9.6,2.1,14.1,4.3"/>
		<path id="Path_23" class="st8" d="M36.7,27.8c10.6-9.8,24.4-15.2,38.8-15.3c3.8-0.1,7.7,0.5,11.2,1.9c-5.9-0.1-11.5,2.4-15.3,6.9
			c-3.7,4.5-5.8,10.1-5.9,16c-2.7-1.2-5.2-2.7-7.4-4.6c-6.9-4.5-15.6-4.5-23.8-4.4c4.2-4.3,9.5-7.2,15.4-8.6"/>
		<path id="Path_24" class="st7" d="M175.1,82.4c11.2,11.8,24.4,21.5,38.9,28.8c-2.7-5.2-4-11.1-3.6-17c-4.1,0.4-8.2-0.2-12-1.8
			c-8.7-3-17.1-6.8-25.1-11.4l6.6,4.6"/>
		<path id="Path_25" class="st8" d="M298.1,117.8c2.6-3.4,7-4.9,11.1-3.7c-4.8-4.4-10.1-8.2-15.8-11.4c-0.6-0.4-1.2-0.6-1.8-0.8
			c-2.4-0.6-4.6,1.1-6.4,2.7c2,0.6,3.8,1.8,5.1,3.5c2.9,3.7,5.1,8,6.2,12.6c0.9-1.1,1.6-2.3,2.2-3.5"/>
		<path id="Path_26" class="st9" d="M42.2,59.7C52,64.5,55,67.8,60.4,76.9s8.2,19.5,10.9,29.8c-3.2-3.2-7.5-5.2-12.1-5.7
			c-4.5-0.7-9.1-0.5-13.6-1c-0.5,0-1-0.1-1.4-0.4c-1-0.6-1.1-2-1.1-3.2c-0.8-15.9-10.6-30-25.3-36.3C25.6,57,34.3,56.8,42.2,59.7"/>
	</g>
</g>
</svg>
