<?xml version="1.0" encoding="utf-8"?>
<!-- Generator: Adobe Illustrator 25.2.3, SVG Export Plug-In . SVG Version: 6.00 Build 0)  -->
<svg version="1.1" id="Layer_1" xmlns="http://www.w3.org/2000/svg" xmlns:xlink="http://www.w3.org/1999/xlink" x="0px" y="0px"
	 viewBox="0 0 72 72" style="enable-background:new 0 0 72 72;" xml:space="preserve">
<style type="text/css">
	.st0{fill:#D6D6D6;}
	.st1{fill:#FFFFFF;}
</style>
<path class="st0" d="M72,62c0,5.5-4.5,10-10,10H10C4.5,72,0,67.5,0,62V10C0,4.5,4.5,0,10,0h52c5.5,0,10,4.5,10,10V62z"/>
<path class="st1" d="M54.1,39.2c-1.3-1.8-3.2-3-5.6-3.7c0,0,2-0.7,3.9-3.5c1.1-1.8,1.7-3.9,1.7-6.4c0-4.3-1.6-7.6-4.7-9.9
	c-3.1-2.3-6.6-3.8-12.6-3.8H18v48h20.9c5.7,0,9.9-1.3,12.8-3.6C54.6,54,56,50.5,56,45.8C56,43.2,55.4,41,54.1,39.2z M30,20
	c0,0,8.3,0,8.5,0c3,0,5.5,2.5,5.5,5.5S41.5,31,38.5,31c-0.2,0-8.5,0-8.5,0V20z M40,52H30V40h10c3.3,0,6,2.7,6,6S43.3,52,40,52z"/>
</svg>
