<?xml version="1.0" encoding="utf-8"?>
<!-- Generator: Adobe Illustrator 25.2.3, SVG Export Plug-In . SVG Version: 6.00 Build 0)  -->
<svg version="1.1" id="Layer_1" xmlns="http://www.w3.org/2000/svg" xmlns:xlink="http://www.w3.org/1999/xlink" x="0px" y="0px"
	 viewBox="0 0 18 18" style="enable-background:new 0 0 18 18;" xml:space="preserve">
<style type="text/css">
	.st0{fill:#D6D6D6;}
</style>
<path class="st0" d="M2,0C0.9,0,0,0.9,0,2v14c0,1.1,0.9,2,2,2h14c1.1,0,2-0.9,2-2V2c0-1.1-0.9-2-2-2H2z M11.3,4.3h1.7v9h-1.5
	l-0.1-0.6c-0.2,0.2-0.6,0.8-1.3,0.8c-0.7,0-2.1-0.3-2.1-3.1V10c0-1,0.1-3.1,2.1-3.1c0.7,0,1.1,0.4,1.2,0.6V4.3z M5.1,4.8h1.7v8.5
	H5.1V4.8z M10.5,8.3c-0.9,0-0.9,1.2-0.9,1.7v0.4c0,1.5,0.4,1.7,0.9,1.7c0.5,0,0.7-0.3,0.8-0.4V8.8C11.2,8.6,11,8.3,10.5,8.3z"/>
</svg>
