<?xml version="1.0" encoding="utf-8"?>
<!-- Generator: Adobe Illustrator 25.2.3, SVG Export Plug-In . SVG Version: 6.00 Build 0)  -->
<svg version="1.1" id="Layer_1" xmlns="http://www.w3.org/2000/svg" xmlns:xlink="http://www.w3.org/1999/xlink" x="0px" y="0px"
	 viewBox="0 0 48 43.3" style="enable-background:new 0 0 48 43.3;" xml:space="preserve">
<style type="text/css">
	.st0{fill:#D6D6D6;}
</style>
<path class="st0" d="M15.4,0C14.1,0,13,0.3,12,0.9C8.9,2.7,7.7,7.1,8.3,12.6C3.2,14.8,0,18,0,21.6s3.2,6.9,8.3,9.1
	c-0.6,5.5,0.6,9.9,3.7,11.7c1,0.6,2.1,0.9,3.4,0.9c2.6,0,5.6-1.3,8.6-3.6c3,2.2,6,3.6,8.6,3.6c1.2,0,2.4-0.3,3.4-0.9
	c3.1-1.8,4.3-6.2,3.7-11.7c5.1-2.2,8.3-5.4,8.3-9.1c0-3.6-3.2-6.9-8.3-9.1c0.6-5.5-0.6-9.9-3.7-11.7C35,0.3,33.9,0,32.6,0
	C30,0,27,1.3,24,3.6C21,1.3,18,0,15.4,0z M15.4,3.5c1.6,0,3.6,0.8,5.9,2.4c-1.3,1.2-2.6,2.7-3.9,4.2c-2,0.3-3.9,0.7-5.7,1.2
	c0-0.1,0-0.3,0-0.4c-0.2-3.6,0.6-6.2,2.1-7.1C14.2,3.6,14.7,3.5,15.4,3.5z M32.6,3.5c0.6,0,1.2,0.1,1.6,0.4c1.5,0.9,2.3,3.5,2.1,7.1
	c0,0.1,0,0.2,0,0.4c-1.8-0.5-3.7-0.9-5.7-1.2c-1.2-1.6-2.5-3-3.9-4.2C29,4.3,31.1,3.5,32.6,3.5z M24,8.1c0.5,0.5,1.1,1,1.6,1.6
	c-0.5,0-1.1,0-1.6,0c-0.5,0-1.1,0-1.6,0C22.9,9.1,23.5,8.6,24,8.1z M24,13.1c1.7,0,3.2,0.1,4.7,0.3c0.9,1.2,1.8,2.5,2.6,4
	c0.8,1.4,1.5,2.8,2.1,4.2c-0.6,1.4-1.3,2.9-2.1,4.3c-0.8,1.5-1.7,2.7-2.6,4c-1.5,0.2-3.1,0.3-4.7,0.3c-1.7,0-3.2-0.1-4.7-0.3
	c-0.9-1.2-1.8-2.5-2.6-4c-0.8-1.4-1.5-2.8-2.1-4.3c0.6-1.4,1.3-2.9,2.1-4.2c0.8-1.5,1.7-2.8,2.6-4C20.8,13.2,22.4,13.1,24,13.1z
	 M33.5,14.2c0.8,0.2,1.6,0.4,2.3,0.6c-0.2,0.7-0.4,1.5-0.6,2.2c-0.3-0.5-0.5-1-0.8-1.4C34.1,15.1,33.8,14.7,33.5,14.2z M14.5,14.2
	c-0.3,0.5-0.6,0.9-0.9,1.4c-0.3,0.5-0.5,1-0.8,1.4c-0.2-0.8-0.4-1.5-0.6-2.2C13,14.6,13.7,14.4,14.5,14.2z M8.9,16.1
	c0.4,1.8,1,3.6,1.8,5.5c-0.8,1.9-1.3,3.7-1.8,5.5c-3.5-1.7-5.4-3.8-5.4-5.5c0-1.8,1.9-3.8,5.1-5.4C8.7,16.2,8.8,16.2,8.9,16.1z
	 M39.1,16.1c3.5,1.7,5.4,3.8,5.4,5.5c0,1.8-1.9,3.8-5.1,5.4c-0.1,0.1-0.2,0.1-0.3,0.2c-0.4-1.8-1-3.6-1.8-5.5
	C38.1,19.8,38.6,17.9,39.1,16.1z M24,17.6c-2.2,0-4,1.8-4,4s1.8,4,4,4s4-1.8,4-4S26.2,17.6,24,17.6z M12.8,26.2
	c0.3,0.5,0.5,1,0.8,1.4c0.3,0.5,0.6,0.9,0.9,1.4c-0.8-0.2-1.6-0.4-2.3-0.6C12.4,27.7,12.6,26.9,12.8,26.2z M35.2,26.2
	c0.2,0.8,0.4,1.5,0.6,2.2c-0.7,0.2-1.5,0.4-2.3,0.6c0.3-0.5,0.6-0.9,0.9-1.4C34.7,27.2,34.9,26.7,35.2,26.2z M11.7,31.9
	c1.8,0.5,3.7,0.9,5.7,1.2c1.2,1.6,2.5,3,3.9,4.2c-2.2,1.5-4.3,2.4-5.9,2.4c-0.6,0-1.2-0.1-1.6-0.4c-1.5-0.9-2.3-3.5-2.1-7.1
	C11.7,32.2,11.7,32,11.7,31.9z M36.3,31.9c0,0.1,0,0.3,0,0.4c0.2,3.6-0.6,6.2-2.1,7.1c-0.5,0.3-1,0.4-1.6,0.4
	c-1.6,0-3.6-0.8-5.9-2.4c1.3-1.2,2.6-2.7,3.9-4.2C32.6,32.9,34.5,32.5,36.3,31.9z M22.4,33.6c0.5,0,1.1,0,1.6,0s1.1,0,1.6,0
	c-0.5,0.6-1.1,1.1-1.6,1.6C23.5,34.7,22.9,34.2,22.4,33.6z"/>
</svg>
