<svg id="Layer_1" data-name="Layer 1" xmlns="http://www.w3.org/2000/svg" viewBox="0 0 18 18"><defs><style>.cls-1{fill:#d6d6d6;}</style></defs><path class="cls-1" d="M12.23,8.23a.71.71,0,0,0-.67.37,2.88,2.88,0,0,0-.21,1.31v.44a3.06,3.06,0,0,0,.2,1.31.7.7,0,0,0,.67.37A.81.81,0,0,0,13,11.6V8.7A.79.79,0,0,0,12.23,8.23ZM16,0H2A2,2,0,0,0,0,2V16a2,2,0,0,0,2,2H16a2,2,0,0,0,2-2V2A2,2,0,0,0,16,0ZM7.27,13.3l-1.17-3-1.16,3h-2L5,9,3,4.77H5L6.1,7.7,7.25,4.77h2L7.22,9l2.05,4.3Zm7.37,0H13.13l-.07-.65a1.54,1.54,0,0,1-1.32.77,1.74,1.74,0,0,1-1.52-.77,4,4,0,0,1-.53-2.23V9.94a4.17,4.17,0,0,1,.52-2.33,1.77,1.77,0,0,1,1.54-.77A1.47,1.47,0,0,1,13,7.48V4.3h1.67v9Z"/></svg>