<?xml version="1.0" encoding="utf-8"?>
<!-- Generator: Adobe Illustrator 25.2.3, SVG Export Plug-In . SVG Version: 6.00 Build 0)  -->
<svg version="1.1" id="Layer_2_1_" xmlns="http://www.w3.org/2000/svg" xmlns:xlink="http://www.w3.org/1999/xlink" x="0px" y="0px"
	 viewBox="0 0 35 35" style="enable-background:new 0 0 35 35;" xml:space="preserve">
<style type="text/css">
	.st0{fill:#D6D6D6;}
</style>
<path class="st0" d="M22.9,13.4H12.1c-3.6-0.1-6.5-3.2-6.3-6.8c0.1-3.4,2.9-6.2,6.3-6.3h10.8c3.6,0.1,6.5,3.2,6.3,6.8
	C29.1,10.5,26.4,13.3,22.9,13.4z M12.1,2.8c-2.3,0.1-4,2-3.9,4.3c0.1,2.1,1.8,3.8,3.9,3.9h10.8c2.3-0.1,4-2,3.9-4.3
	c-0.1-2.1-1.8-3.8-3.9-3.9H12.1z"/>
<path class="st0" d="M17.4,24.1h-5.3c-3.6,0-6.6-2.9-6.6-6.6s2.9-6.6,6.6-6.6c0.7,0,1.2,0.6,1.2,1.2s-0.6,1.2-1.2,1.2
	c-2.3,0-4.1,1.8-4.1,4.1s1.8,4.1,4.1,4.1h4.1v-9.4c0-0.7,0.6-1.2,1.2-1.2s1.2,0.6,1.2,1.2v10.7C18.7,23.5,18.1,24.1,17.4,24.1z"/>
<path class="st0" d="M12.2,34.8c-3.6,0.1-6.7-2.7-6.8-6.3c-0.1-3.6,2.7-6.7,6.3-6.8c0.2,0,0.3,0,0.5,0c0.7,0,1.2,0.6,1.2,1.2
	s-0.6,1.2-1.2,1.2c-2.3,0-4.1,1.8-4.1,4.1c0,2.3,1.8,4.1,4.1,4.1s4.1-1.8,4.1-4.1c0,0,0,0,0,0v-5.3c0-0.7,0.6-1.2,1.2-1.2
	s1.2,0.6,1.2,1.2v5.3C18.7,31.8,15.8,34.7,12.2,34.8z"/>
<path class="st0" d="M22.8,24.2c-3.7,0-6.7-3-6.7-6.7s3-6.7,6.7-6.7s6.7,3,6.7,6.7S26.5,24.2,22.8,24.2L22.8,24.2z M22.8,13.4
	c-2.3,0-4.2,1.9-4.2,4.2c0,2.3,1.9,4.2,4.2,4.2s4.2-1.9,4.2-4.2c0,0,0,0,0,0C27,15.3,25.1,13.4,22.8,13.4z"/>
<path class="st0" d="M17.4,13.4L17.4,13.4c-0.7,0-1.2-0.6-1.2-1.3c0,0,0,0,0,0l0.1-10.7c0-0.7,0.6-1.2,1.2-1.2l0,0
	c0.7,0,1.2,0.6,1.2,1.3c0,0,0,0,0,0l-0.1,10.7C18.6,12.9,18.1,13.4,17.4,13.4z"/>
</svg>
