<?xml version="1.0" encoding="utf-8"?>
<!-- Generator: Adobe Illustrator 25.2.3, SVG Export Plug-In . SVG Version: 6.00 Build 0)  -->
<svg version="1.1" id="Layer_1" xmlns="http://www.w3.org/2000/svg" xmlns:xlink="http://www.w3.org/1999/xlink" x="0px" y="0px"
	 viewBox="0 0 527 265" style="enable-background:new 0 0 527 265;" xml:space="preserve">
<style type="text/css">
	.st0{fill:#C1C5F7;}
	.st1{enable-background:new    ;}
	.st2{fill:#6169C9;}
	.st3{fill:#FFFFFF;}
</style>
<g id="six">
	<g id="Rectangle_510">
		<path class="st0" d="M122.5,147h117c14.1,0,25.5,11.4,25.5,25.5l0,0c0,14.1-11.4,25.5-25.5,25.5h-117c-14.1,0-25.5-11.4-25.5-25.5
			l0,0C97,158.4,108.4,147,122.5,147z"/>
	</g>
	<g class="st1">
		<path class="st2" d="M135.1,166.1c0-0.5,0.4-0.9,0.9-0.9c0.5,0,0.9,0.4,0.9,0.9s-0.4,0.9-0.9,0.9
			C135.5,167,135.1,166.6,135.1,166.1z M135.4,168.7h1.2v9.3h-1.2V168.7z"/>
		<path class="st2" d="M140,165.4h1.2V178H140V165.4z"/>
		<path class="st2" d="M144.6,165.4h1.2V178h-1.2V165.4z"/>
		<path class="st2" d="M157.2,178H156v-1.6c-0.6,1.2-1.8,1.8-3.2,1.8c-2.1,0-3.8-1.3-3.8-4v-5.4h1.2v5.3c0,2.1,1.1,3.1,2.8,3.1
			c1.7,0,2.9-1.1,2.9-3.3v-5h1.2V178z"/>
		<path class="st2" d="M163.8,178.1c-2.1,0-3.6-1.1-3.7-2.8h1.2c0.1,1,1,1.8,2.5,1.8c1.3,0,2.1-0.7,2.1-1.6c0-2.3-5.6-1-5.6-4.4
			c0-1.4,1.3-2.5,3.3-2.5c2,0,3.3,1.1,3.4,2.8h-1.2c-0.1-1-0.8-1.8-2.2-1.8c-1.2,0-2,0.7-2,1.5c0,2.5,5.5,1.2,5.5,4.5
			C167,177,165.7,178.1,163.8,178.1z"/>
		<path class="st2" d="M170.3,169.7H169v-1h1.3v-2.3h1.2v2.3h2.5v1h-2.5v5.8c0,1.1,0.4,1.5,1.5,1.5h1.1v1h-1.3
			c-1.6,0-2.5-0.7-2.5-2.5V169.7z"/>
		<path class="st2" d="M177.8,178h-1.2v-9.3h1.2v1.6c0.5-1.1,1.6-1.8,3.2-1.8v1.2h-0.3c-1.5,0-2.9,0.7-2.9,3V178z"/>
		<path class="st2" d="M187.4,168.6c1.9,0,3.1,1,3.7,2.2v-2h1.2v9.3h-1.2v-2.1c-0.5,1.2-1.8,2.2-3.7,2.2c-2.5,0-4.4-1.9-4.4-4.8
			C182.9,170.4,184.8,168.6,187.4,168.6z M187.6,169.6c-2,0-3.5,1.4-3.5,3.7c0,2.3,1.5,3.8,3.5,3.8c1.9,0,3.5-1.4,3.5-3.7
			S189.5,169.6,187.6,169.6z"/>
		<path class="st2" d="M196,169.7h-1.3v-1h1.3v-2.3h1.2v2.3h2.5v1h-2.5v5.8c0,1.1,0.4,1.5,1.5,1.5h1.1v1h-1.3
			c-1.6,0-2.5-0.7-2.5-2.5V169.7z"/>
		<path class="st2" d="M202.1,166.1c0-0.5,0.4-0.9,0.9-0.9c0.5,0,0.9,0.4,0.9,0.9s-0.4,0.9-0.9,0.9
			C202.5,167,202.1,166.6,202.1,166.1z M202.4,168.7h1.2v9.3h-1.2V168.7z"/>
		<path class="st2" d="M211,178.1c-2.6,0-4.6-1.8-4.6-4.8c0-3,2-4.8,4.6-4.8c2.6,0,4.6,1.8,4.6,4.8
			C215.7,176.3,213.6,178.1,211,178.1z M211,177.1c1.8,0,3.5-1.2,3.5-3.7s-1.7-3.7-3.4-3.7s-3.4,1.2-3.4,3.7S209.2,177.1,211,177.1z
			"/>
		<path class="st2" d="M225.5,172.7c0-2.1-1.1-3.1-2.8-3.1c-1.7,0-2.9,1.1-2.9,3.3v5.1h-1.2v-9.3h1.2v1.6c0.6-1.2,1.8-1.8,3.2-1.8
			c2.1,0,3.8,1.3,3.8,4v5.4h-1.2V172.7z"/>
	</g>
</g>
<g id="five">
	<g id="Rectangle_513">
		<path class="st0" d="M329.5,151h117c14.1,0,25.5,11.4,25.5,25.5l0,0c0,14.1-11.4,25.5-25.5,25.5h-117c-14.1,0-25.5-11.4-25.5-25.5
			l0,0C304,162.4,315.4,151,329.5,151z"/>
	</g>
	<g class="st1">
		<path class="st2" d="M339.2,173.6c2.3,0,3.8,1.2,4.3,3.2h-1.3c-0.3-1.3-1.4-2.1-3-2.1c-1.8,0-3.3,1.2-3.3,3.8s1.5,3.8,3.3,3.8
			c1.6,0,2.7-0.8,3-2.2h1.3c-0.4,1.9-1.9,3.2-4.3,3.2c-2.6,0-4.5-1.8-4.5-4.8S336.6,173.6,339.2,173.6z"/>
		<path class="st2" d="M350.4,183.1c-2.6,0-4.6-1.8-4.6-4.8c0-3,2-4.8,4.6-4.8c2.6,0,4.6,1.8,4.6,4.8
			C355.1,181.3,353.1,183.1,350.4,183.1z M350.4,182.1c1.8,0,3.5-1.2,3.5-3.7s-1.7-3.7-3.4-3.7s-3.4,1.2-3.4,3.7
			S348.7,182.1,350.4,182.1z"/>
		<path class="st2" d="M358,170.4h1.2V183H358V170.4z"/>
		<path class="st2" d="M366.6,183.1c-2.6,0-4.6-1.8-4.6-4.8c0-3,2-4.8,4.6-4.8c2.6,0,4.6,1.8,4.6,4.8
			C371.3,181.3,369.2,183.1,366.6,183.1z M366.6,182.1c1.8,0,3.5-1.2,3.5-3.7s-1.7-3.7-3.4-3.7s-3.4,1.2-3.4,3.7
			S364.8,182.1,366.6,182.1z"/>
		<path class="st2" d="M375.3,183h-1.2v-9.3h1.2v1.6c0.5-1.1,1.6-1.8,3.2-1.8v1.2h-0.3c-1.5,0-2.9,0.7-2.9,3V183z"/>
		<path class="st2" d="M386.7,174.7h-1.3v-1h1.3v-2.3h1.2v2.3h2.5v1h-2.5v5.8c0,1.1,0.4,1.5,1.5,1.5h1.1v1h-1.3
			c-1.6,0-2.5-0.7-2.5-2.5V174.7z"/>
		<path class="st2" d="M393,170.4h1.2v4.9c0.6-1.1,1.8-1.8,3.2-1.8c2.1,0,3.7,1.3,3.7,4v5.4H400v-5.3c0-2.1-1.1-3.1-2.8-3.1
			c-1.7,0-2.9,1.1-2.9,3.3v5.1H393V170.4z"/>
		<path class="st2" d="M408.5,183.1c-2.6,0-4.6-1.8-4.6-4.8c0-3,1.9-4.8,4.6-4.8c2.7,0,4.4,1.9,4.4,4.3c0,0.4,0,0.6,0,0.9h-7.7
			c0.1,2.2,1.6,3.3,3.3,3.3c1.6,0,2.7-0.8,3-2.1h1.3C412.3,181.8,410.8,183.1,408.5,183.1z M405.2,177.8h6.5
			c0.1-2.2-1.5-3.2-3.2-3.2C406.8,174.6,405.3,175.7,405.2,177.8z"/>
		<path class="st2" d="M419.8,183.1c-2.6,0-4.6-1.8-4.6-4.8c0-3,2-4.8,4.6-4.8c2.6,0,4.6,1.8,4.6,4.8
			C424.5,181.3,422.4,183.1,419.8,183.1z M419.8,182.1c1.8,0,3.5-1.2,3.5-3.7s-1.7-3.7-3.4-3.7s-3.4,1.2-3.4,3.7
			S418,182.1,419.8,182.1z"/>
		<path class="st2" d="M428.5,183h-1.2v-9.3h1.2v1.6c0.5-1.1,1.6-1.8,3.2-1.8v1.2h-0.3c-1.5,0-2.9,0.7-2.9,3V183z"/>
		<path class="st2" d="M440.6,173.7h1.2l-5.5,13.6h-1.2l1.8-4.4l-3.8-9.2h1.3l3.2,7.9L440.6,173.7z"/>
	</g>
</g>
<g id="four">
	<g id="Rectangle_515">
		<path class="st0" d="M215.5,214h117c14.1,0,25.5,11.4,25.5,25.5l0,0c0,14.1-11.4,25.5-25.5,25.5h-117c-14.1,0-25.5-11.4-25.5-25.5
			l0,0C190,225.4,201.4,214,215.5,214z"/>
	</g>
	<g class="st1">
		<path class="st2" d="M223.3,236.6c2.3,0,3.8,1.2,4.3,3.2h-1.3c-0.3-1.3-1.4-2.1-3-2.1c-1.8,0-3.3,1.2-3.3,3.8s1.5,3.8,3.3,3.8
			c1.6,0,2.7-0.8,3-2.2h1.3c-0.4,1.9-1.9,3.2-4.3,3.2c-2.6,0-4.5-1.8-4.5-4.8S220.7,236.6,223.3,236.6z"/>
		<path class="st2" d="M234.5,246.1c-2.6,0-4.6-1.8-4.6-4.8c0-3,2-4.8,4.6-4.8c2.6,0,4.6,1.8,4.6,4.8
			C239.2,244.3,237.1,246.1,234.5,246.1z M234.5,245.1c1.8,0,3.5-1.2,3.5-3.7s-1.7-3.7-3.4-3.7s-3.4,1.2-3.4,3.7
			S232.7,245.1,234.5,245.1z"/>
		<path class="st2" d="M255.6,240.7c0-2.1-1.1-3.1-2.7-3.1c-1.7,0-2.9,1.1-2.9,3.4v5h-1.2v-5.3c0-2.1-1.1-3.1-2.7-3.1
			c-1.7,0-2.9,1.1-2.9,3.4v5H242v-9.3h1.2v1.6c0.6-1.2,1.8-1.8,3.1-1.8c1.5,0,2.9,0.7,3.4,2.3c0.5-1.5,1.9-2.3,3.3-2.3
			c2.1,0,3.7,1.3,3.7,4v5.4h-1.2V240.7z"/>
		<path class="st2" d="M264.9,236.6c2.5,0,4.4,1.9,4.4,4.8c0,2.9-1.9,4.8-4.4,4.8c-1.9,0-3.1-1-3.7-2.2v6.4h-1.2v-13.7h1.2v2
			C261.8,237.6,263.1,236.6,264.9,236.6z M264.7,237.6c-1.9,0-3.5,1.4-3.5,3.7s1.6,3.7,3.5,3.7c2,0,3.5-1.4,3.5-3.8
			C268.1,239,266.6,237.6,264.7,237.6z"/>
		<path class="st2" d="M276.3,246.1c-2.6,0-4.6-1.8-4.6-4.8c0-3,2-4.8,4.6-4.8c2.6,0,4.6,1.8,4.6,4.8
			C281,244.3,278.9,246.1,276.3,246.1z M276.3,245.1c1.8,0,3.5-1.2,3.5-3.7s-1.7-3.7-3.4-3.7s-3.4,1.2-3.4,3.7
			S274.5,245.1,276.3,245.1z"/>
		<path class="st2" d="M287,246.1c-2.1,0-3.6-1.1-3.7-2.8h1.2c0.1,1,1,1.8,2.5,1.8c1.3,0,2.1-0.7,2.1-1.6c0-2.3-5.6-1-5.6-4.4
			c0-1.4,1.3-2.5,3.3-2.5c2,0,3.3,1.1,3.4,2.8H289c-0.1-1-0.8-1.8-2.2-1.8c-1.2,0-2,0.7-2,1.5c0,2.5,5.5,1.2,5.5,4.5
			C290.2,245,288.9,246.1,287,246.1z"/>
		<path class="st2" d="M292.9,234.1c0-0.5,0.4-0.9,0.9-0.9c0.5,0,0.9,0.4,0.9,0.9s-0.4,0.9-0.9,0.9
			C293.3,235,292.9,234.6,292.9,234.1z M293.2,236.7h1.2v9.3h-1.2V236.7z"/>
		<path class="st2" d="M298.1,237.7h-1.3v-1h1.3v-2.3h1.2v2.3h2.5v1h-2.5v5.8c0,1.1,0.4,1.5,1.5,1.5h1.1v1h-1.3
			c-1.6,0-2.5-0.7-2.5-2.5V237.7z"/>
		<path class="st2" d="M304.2,234.1c0-0.5,0.4-0.9,0.9-0.9c0.5,0,0.9,0.4,0.9,0.9s-0.4,0.9-0.9,0.9
			C304.6,235,304.2,234.6,304.2,234.1z M304.5,236.7h1.2v9.3h-1.2V236.7z"/>
		<path class="st2" d="M313.1,246.1c-2.6,0-4.6-1.8-4.6-4.8c0-3,2-4.8,4.6-4.8c2.6,0,4.6,1.8,4.6,4.8
			C317.8,244.3,315.7,246.1,313.1,246.1z M313.1,245.1c1.8,0,3.5-1.2,3.5-3.7s-1.7-3.7-3.4-3.7s-3.4,1.2-3.4,3.7
			S311.3,245.1,313.1,245.1z"/>
		<path class="st2" d="M327.6,240.7c0-2.1-1.1-3.1-2.8-3.1c-1.7,0-2.9,1.1-2.9,3.3v5.1h-1.2v-9.3h1.2v1.6c0.6-1.2,1.8-1.8,3.2-1.8
			c2.1,0,3.8,1.3,3.8,4v5.4h-1.2V240.7z"/>
	</g>
</g>
<g id="three">
	<g id="Rectangle_511">
		<path class="st0" d="M25.5,75h117c14.1,0,25.5,11.4,25.5,25.5l0,0c0,14.1-11.4,25.5-25.5,25.5h-117C11.4,126,0,114.6,0,100.5l0,0
			C0,86.4,11.4,75,25.5,75z"/>
	</g>
	<g class="st1">
		<path class="st2" d="M52.9,97.6c2.5,0,4.4,1.9,4.4,4.8c0,2.9-1.9,4.8-4.4,4.8c-1.9,0-3.1-1-3.7-2.2v6.4h-1.2V97.7h1.2v2
			C49.8,98.6,51.1,97.6,52.9,97.6z M52.7,98.6c-1.9,0-3.5,1.4-3.5,3.7s1.6,3.7,3.5,3.7c2,0,3.5-1.4,3.5-3.8
			C56.2,100,54.7,98.6,52.7,98.6z"/>
		<path class="st2" d="M64.1,97.6c1.9,0,3.1,1,3.7,2.2v-2H69v9.3h-1.2v-2.1c-0.5,1.2-1.8,2.2-3.7,2.2c-2.5,0-4.4-1.9-4.4-4.8
			C59.7,99.4,61.6,97.6,64.1,97.6z M64.4,98.6c-2,0-3.5,1.4-3.5,3.7c0,2.3,1.5,3.8,3.5,3.8c1.9,0,3.5-1.4,3.5-3.7
			S66.3,98.6,64.4,98.6z"/>
		<path class="st2" d="M72.1,95.1c0-0.5,0.4-0.9,0.9-0.9c0.5,0,0.9,0.4,0.9,0.9S73.5,96,73,96C72.5,96,72.1,95.6,72.1,95.1z
			 M72.4,97.7h1.2v9.3h-1.2V97.7z"/>
		<path class="st2" d="M83.9,101.7c0-2.1-1.1-3.1-2.8-3.1c-1.7,0-2.9,1.1-2.9,3.3v5.1H77v-9.3h1.2v1.6c0.6-1.2,1.8-1.8,3.2-1.8
			c2.1,0,3.8,1.3,3.8,4v5.4h-1.2V101.7z"/>
		<path class="st2" d="M88.8,98.7h-1.3v-1h1.3v-2.3H90v2.3h2.5v1H90v5.8c0,1.1,0.4,1.5,1.5,1.5h1.1v1h-1.3c-1.6,0-2.5-0.7-2.5-2.5
			V98.7z"/>
		<path class="st2" d="M94.9,95.1c0-0.5,0.4-0.9,0.9-0.9c0.5,0,0.9,0.4,0.9,0.9S96.2,96,95.7,96C95.3,96,94.9,95.6,94.9,95.1z
			 M95.1,97.7h1.2v9.3h-1.2V97.7z"/>
		<path class="st2" d="M106.7,101.7c0-2.1-1.1-3.1-2.8-3.1c-1.7,0-2.9,1.1-2.9,3.3v5.1h-1.2v-9.3h1.2v1.6c0.6-1.2,1.8-1.8,3.2-1.8
			c2.1,0,3.8,1.3,3.8,4v5.4h-1.2V101.7z"/>
		<path class="st2" d="M115,97.6c1.8,0,3.1,1,3.7,2.2v-2h1.2v9.5c0,2.6-1.8,4.3-4.3,4.3c-2.4,0-4.1-1.2-4.4-3.2h1.2
			c0.4,1.3,1.6,2.1,3.3,2.1c1.8,0,3.1-1.2,3.1-3.3v-2.3c-0.5,1.2-1.8,2.2-3.7,2.2c-2.5,0-4.4-1.9-4.4-4.8
			C110.6,99.4,112.5,97.6,115,97.6z M115.3,98.6c-2,0-3.5,1.4-3.5,3.7c0,2.3,1.5,3.8,3.5,3.8c1.9,0,3.5-1.4,3.5-3.7
			S117.2,98.6,115.3,98.6z"/>
	</g>
</g>
<g id="two">
	<g id="Rectangle_512">
		<path class="st0" d="M166.5,0h117C297.6,0,309,11.4,309,25.5l0,0c0,14.1-11.4,25.5-25.5,25.5h-117C152.4,51,141,39.6,141,25.5l0,0
			C141,11.4,152.4,0,166.5,0z"/>
	</g>
	<g class="st1">
		<path class="st2" d="M193.7,22.6c1.7,0,3.1,0.9,3.7,2.1v-5.3h1.2V32h-1.2v-2.1c-0.5,1.2-1.8,2.2-3.7,2.2c-2.5,0-4.4-1.9-4.4-4.8
			C189.2,24.4,191.1,22.6,193.7,22.6z M193.9,23.6c-2,0-3.5,1.4-3.5,3.7c0,2.3,1.5,3.8,3.5,3.8c1.9,0,3.5-1.4,3.5-3.7
			S195.8,23.6,193.9,23.6z"/>
		<path class="st2" d="M203.1,32h-1.2v-9.3h1.2v1.6c0.5-1.1,1.6-1.8,3.2-1.8v1.2H206c-1.5,0-2.9,0.7-2.9,3V32z"/>
		<path class="st2" d="M212.7,22.6c1.9,0,3.1,1,3.7,2.2v-2h1.2V32h-1.2v-2.1c-0.5,1.2-1.8,2.2-3.7,2.2c-2.5,0-4.4-1.9-4.4-4.8
			C208.2,24.4,210.1,22.6,212.7,22.6z M212.9,23.6c-2,0-3.5,1.4-3.5,3.7c0,2.3,1.5,3.8,3.5,3.8c1.9,0,3.5-1.4,3.5-3.7
			S214.8,23.6,212.9,23.6z"/>
		<path class="st2" d="M219.8,22.7h1.2l2.3,8.1l2.6-8.1h1.2l2.6,8.1l2.3-8.1h1.2l-2.9,9.3h-1.2l-2.6-7.8l-2.6,7.8h-1.2L219.8,22.7z"
			/>
		<path class="st2" d="M235.2,20.1c0-0.5,0.4-0.9,0.9-0.9c0.5,0,0.9,0.4,0.9,0.9S236.5,21,236,21C235.6,21,235.2,20.6,235.2,20.1z
			 M235.5,22.7h1.2V32h-1.2V22.7z"/>
		<path class="st2" d="M247,26.7c0-2.1-1.1-3.1-2.8-3.1c-1.7,0-2.9,1.1-2.9,3.3V32H240v-9.3h1.2v1.6c0.6-1.2,1.8-1.8,3.2-1.8
			c2.1,0,3.8,1.3,3.8,4V32H247V26.7z"/>
		<path class="st2" d="M255.4,22.6c1.8,0,3.1,1,3.7,2.2v-2h1.2v9.5c0,2.6-1.8,4.3-4.3,4.3c-2.4,0-4.1-1.2-4.4-3.2h1.2
			c0.4,1.3,1.6,2.1,3.3,2.1c1.8,0,3.1-1.2,3.1-3.3v-2.3c-0.5,1.2-1.8,2.2-3.7,2.2c-2.5,0-4.4-1.9-4.4-4.8
			C250.9,24.4,252.8,22.6,255.4,22.6z M255.6,23.6c-2,0-3.5,1.4-3.5,3.7c0,2.3,1.5,3.8,3.5,3.8c1.9,0,3.5-1.4,3.5-3.7
			S257.5,23.6,255.6,23.6z"/>
	</g>
</g>
<g id="one">
	<g id="Rectangle_514">
		<path class="st0" d="M359.5,0h142C515.6,0,527,11.4,527,25.5l0,0c0,14.1-11.4,25.5-25.5,25.5h-142C345.4,51,334,39.6,334,25.5l0,0
			C334,11.4,345.4,0,359.5,0z"/>
	</g>
	<g class="st1">
		<path class="st2" d="M367.9,22.6c1.7,0,3.1,0.9,3.7,2.1v-5.3h1.2V32h-1.2v-2.1c-0.5,1.2-1.8,2.2-3.7,2.2c-2.5,0-4.4-1.9-4.4-4.8
			C363.4,24.4,365.3,22.6,367.9,22.6z M368.1,23.6c-2,0-3.5,1.4-3.5,3.7c0,2.3,1.5,3.8,3.5,3.8c1.9,0,3.5-1.4,3.5-3.7
			S370,23.6,368.1,23.6z"/>
		<path class="st2" d="M375.8,20.1c0-0.5,0.4-0.9,0.9-0.9c0.5,0,0.9,0.4,0.9,0.9s-0.4,0.9-0.9,0.9C376.2,21,375.8,20.6,375.8,20.1z
			 M376.1,22.7h1.2V32h-1.2V22.7z"/>
		<path class="st2" d="M384.6,22.6c1.8,0,3.1,1,3.7,2.2v-2h1.2v9.5c0,2.6-1.8,4.3-4.3,4.3c-2.4,0-4.1-1.2-4.4-3.2h1.2
			c0.4,1.3,1.6,2.1,3.3,2.1c1.8,0,3.1-1.2,3.1-3.3v-2.3c-0.5,1.2-1.8,2.2-3.7,2.2c-2.5,0-4.4-1.9-4.4-4.8
			C380.1,24.4,382,22.6,384.6,22.6z M384.8,23.6c-2,0-3.5,1.4-3.5,3.7c0,2.3,1.5,3.8,3.5,3.8c1.9,0,3.5-1.4,3.5-3.7
			S386.7,23.6,384.8,23.6z"/>
		<path class="st2" d="M392.6,20.1c0-0.5,0.4-0.9,0.9-0.9c0.5,0,0.9,0.4,0.9,0.9s-0.4,0.9-0.9,0.9C393,21,392.6,20.6,392.6,20.1z
			 M392.8,22.7h1.2V32h-1.2V22.7z"/>
		<path class="st2" d="M397.8,23.7h-1.3v-1h1.3v-2.3h1.2v2.3h2.5v1H399v5.8c0,1.1,0.4,1.5,1.5,1.5h1.1v1h-1.3
			c-1.6,0-2.5-0.7-2.5-2.5V23.7z"/>
		<path class="st2" d="M408,22.6c1.9,0,3.1,1,3.7,2.2v-2h1.2V32h-1.2v-2.1c-0.5,1.2-1.8,2.2-3.7,2.2c-2.5,0-4.4-1.9-4.4-4.8
			C403.6,24.4,405.5,22.6,408,22.6z M408.3,23.6c-2,0-3.5,1.4-3.5,3.7c0,2.3,1.5,3.8,3.5,3.8c1.9,0,3.5-1.4,3.5-3.7
			S410.2,23.6,408.3,23.6z"/>
		<path class="st2" d="M416.3,19.4h1.2V32h-1.2V19.4z"/>
		<path class="st2" d="M431.1,22.6c2.5,0,4.4,1.9,4.4,4.8c0,2.9-1.9,4.8-4.4,4.8c-1.9,0-3.1-1-3.7-2.2v6.4h-1.2V22.7h1.2v2
			C427.9,23.6,429.2,22.6,431.1,22.6z M430.8,23.6c-1.9,0-3.5,1.4-3.5,3.7s1.6,3.7,3.5,3.7c2,0,3.5-1.4,3.5-3.8
			C434.3,25,432.8,23.6,430.8,23.6z"/>
		<path class="st2" d="M442.3,22.6c1.9,0,3.1,1,3.7,2.2v-2h1.2V32h-1.2v-2.1c-0.5,1.2-1.8,2.2-3.7,2.2c-2.5,0-4.4-1.9-4.4-4.8
			C437.8,24.4,439.7,22.6,442.3,22.6z M442.5,23.6c-2,0-3.5,1.4-3.5,3.7c0,2.3,1.5,3.8,3.5,3.8c1.9,0,3.5-1.4,3.5-3.7
			S444.4,23.6,442.5,23.6z"/>
		<path class="st2" d="M450.3,20.1c0-0.5,0.4-0.9,0.9-0.9c0.5,0,0.9,0.4,0.9,0.9s-0.4,0.9-0.9,0.9C450.6,21,450.3,20.6,450.3,20.1z
			 M450.5,22.7h1.2V32h-1.2V22.7z"/>
		<path class="st2" d="M462,26.7c0-2.1-1.1-3.1-2.8-3.1c-1.7,0-2.9,1.1-2.9,3.3V32h-1.2v-9.3h1.2v1.6c0.6-1.2,1.8-1.8,3.2-1.8
			c2.1,0,3.8,1.3,3.8,4V32H462V26.7z"/>
		<path class="st2" d="M466.9,23.7h-1.3v-1h1.3v-2.3h1.2v2.3h2.5v1h-2.5v5.8c0,1.1,0.4,1.5,1.5,1.5h1.1v1h-1.3
			c-1.6,0-2.5-0.7-2.5-2.5V23.7z"/>
		<path class="st2" d="M473,20.1c0-0.5,0.4-0.9,0.9-0.9c0.5,0,0.9,0.4,0.9,0.9s-0.4,0.9-0.9,0.9C473.4,21,473,20.6,473,20.1z
			 M473.3,22.7h1.2V32h-1.2V22.7z"/>
		<path class="st2" d="M484.8,26.7c0-2.1-1.1-3.1-2.8-3.1c-1.7,0-2.9,1.1-2.9,3.3V32h-1.2v-9.3h1.2v1.6c0.6-1.2,1.8-1.8,3.2-1.8
			c2.1,0,3.8,1.3,3.8,4V32h-1.2V26.7z"/>
		<path class="st2" d="M493.2,22.6c1.8,0,3.1,1,3.7,2.2v-2h1.2v9.5c0,2.6-1.8,4.3-4.3,4.3c-2.4,0-4.1-1.2-4.4-3.2h1.2
			c0.4,1.3,1.6,2.1,3.3,2.1c1.8,0,3.1-1.2,3.1-3.3v-2.3c-0.5,1.2-1.8,2.2-3.7,2.2c-2.5,0-4.4-1.9-4.4-4.8
			C488.7,24.4,490.6,22.6,493.2,22.6z M493.4,23.6c-2,0-3.5,1.4-3.5,3.7c0,2.3,1.5,3.8,3.5,3.8c1.9,0,3.5-1.4,3.5-3.7
			S495.3,23.6,493.4,23.6z"/>
	</g>
</g>
<g  id="BigPurple">
	<g id="Rectangle_509">
		<path class="st2 fine-art-rectangle" d="M222.5,63h172c20.7,0,37.5,16.8,37.5,37.5l0,0c0,20.7-16.8,37.5-37.5,37.5h-172c-20.7,0-37.5-16.8-37.5-37.5
			l0,0C185,79.8,201.8,63,222.5,63z"/>
	</g>
	<g class="st1">
		<path class="st3" d="M265.1,98h-1.6v-2.2h1.6v-0.9c0-3,1.6-4.4,5-4.4v2.3c-1.7,0-2.3,0.6-2.3,2.1v0.9h2.4V98h-2.4v11h-2.8V98z"/>
		<path class="st3" d="M273.3,92.3c0-1,0.8-1.8,1.8-1.8c1,0,1.7,0.8,1.7,1.8S276,94,275.1,94C274.1,94,273.3,93.3,273.3,92.3z
			 M273.7,95.8h2.7V109h-2.7V95.8z"/>
		<path class="st3" d="M290.4,101.6c0-2.4-1.3-3.7-3.3-3.7c-2,0-3.3,1.2-3.3,3.7v7.4H281V95.8h2.7v1.5c0.9-1.1,2.4-1.7,3.9-1.7
			c3.1,0,5.4,1.9,5.4,5.6v7.8h-2.7V101.6z"/>
		<path class="st3" d="M303.2,109.2c-3.8,0-6.6-2.7-6.6-6.8s2.7-6.8,6.6-6.8c3.8,0,6.4,2.6,6.4,6.5c0,0.5,0,0.9-0.1,1.3h-10.1
			c0.2,2.2,1.8,3.5,3.8,3.5c1.7,0,2.6-0.8,3.1-1.8h3C308.5,107.4,306.5,109.2,303.2,109.2z M299.5,101.2h7.3c0-2-1.7-3.3-3.7-3.3
			C301.2,97.9,299.8,99.1,299.5,101.2z"/>
		<path class="st3" d="M325.8,95.6c2.2,0,3.8,1.1,4.6,2.1v-1.9h2.8V109h-2.8v-2c-0.8,1.1-2.4,2.2-4.6,2.2c-3.4,0-6.2-2.8-6.2-6.9
			C319.6,98.2,322.3,95.6,325.8,95.6z M326.4,97.9c-2,0-4,1.5-4,4.4s2,4.5,4,4.5c2.1,0,4-1.6,4-4.5
			C330.4,99.5,328.5,97.9,326.4,97.9z"/>
		<path class="st3" d="M340.5,109h-2.7V95.8h2.7v1.9c0.8-1.3,2.1-2.1,4-2.1v2.8h-0.7c-2,0-3.3,0.8-3.3,3.6V109z"/>
		<path class="st3" d="M348.3,98h-1.6v-2.2h1.6v-3.3h2.8v3.3h3.2V98h-3.2v7.3c0,1,0.4,1.4,1.5,1.4h1.7v2.3h-2.2
			c-2.4,0-3.8-1-3.8-3.7V98z"/>
	</g>
</g>
</svg>
