<?xml version="1.0" encoding="utf-8"?>
<!-- Generator: Adobe Illustrator 25.2.3, SVG Export Plug-In . SVG Version: 6.00 Build 0)  -->
<svg version="1.1" id="Layer_1" xmlns="http://www.w3.org/2000/svg" xmlns:xlink="http://www.w3.org/1999/xlink" x="0px" y="0px"
	 viewBox="0 0 18 18" style="enable-background:new 0 0 18 18;" xml:space="preserve">
<style type="text/css">
	.st0{fill:#D6D6D6;}
</style>
<path class="st0" d="M2,0C0.9,0,0,0.9,0,2v14c0,1.1,0.9,2,2,2h14c1.1,0,2-0.9,2-2V2c0-1.1-0.9-2-2-2H2z M12.5,4.5
	c0.5,0,0.9,0.4,0.9,0.9S13,6.3,12.5,6.3s-0.9-0.4-0.9-0.9S12,4.5,12.5,4.5z M6.7,4.9h1.6l2.7,8.5H9.1l-0.5-1.7H6.3l-0.5,1.7H4
	L6.7,4.9z M11.7,7.1h1.7v6.3h-1.7V7.1z M7.5,7.2l-0.8,3h1.6L7.5,7.2z"/>
</svg>
