<?xml version="1.0" encoding="utf-8"?>
<!-- Generator: Adobe Illustrator 25.2.3, SVG Export Plug-In . SVG Version: 6.00 Build 0)  -->
<svg version="1.1" id="Layer_1" xmlns="http://www.w3.org/2000/svg" xmlns:xlink="http://www.w3.org/1999/xlink" x="0px" y="0px"
	 viewBox="0 0 44 44" style="enable-background:new 0 0 44 44;" xml:space="preserve">
<style type="text/css">
	.st0{fill:#D6D6D6;}
</style>
<path class="st0" d="M40,0H4C1.8,0,0,1.8,0,4v36c0,2.2,1.8,4,4,4h36c2.2,0,4-1.8,4-4V4C44,1.8,42.2,0,40,0z M22,32.8
	c0,3.6-2.2,5.5-5.8,5.5c-3.6,0-5.9-2.1-5.9-5.5h3.9c0,1.3,0.8,2,1.9,2c1.2,0,1.8-0.7,1.8-2.2V22h4V32.8z M33,38.3
	c-4,0-6.5-1.9-6.6-5h3.9c0.1,1.2,1.3,1.9,2.9,1.9c1.5,0,2.5-0.7,2.5-1.8c0-0.9-0.7-1.4-2.5-1.7l-2.1-0.4c-2.9-0.5-4.4-2.1-4.4-4.6
	c0-3.1,2.5-5.1,6.3-5.1c3.7,0,6.3,2,6.4,5h-3.7c-0.1-1.1-1.2-1.9-2.6-1.9c-1.4,0-2.4,0.7-2.4,1.7c0,0.9,0.7,1.4,2.4,1.7l2,0.4
	c3.1,0.6,4.5,2,4.5,4.5C39.7,36.3,37.1,38.3,33,38.3z"/>
</svg>
