<?xml version="1.0" encoding="utf-8"?>
<!-- Generator: Adobe Illustrator 25.2.3, SVG Export Plug-In . SVG Version: 6.00 Build 0)  -->
<svg version="1.1" id="Layer_1" xmlns="http://www.w3.org/2000/svg" xmlns:xlink="http://www.w3.org/1999/xlink" x="0px" y="0px"
	 viewBox="0 0 62.7 40.4" style="enable-background:new 0 0 62.7 40.4;" xml:space="preserve">
<style type="text/css">
	.st0{fill:#87BAEB;}
	.st1{fill:#BFDEFF;}
	.st2{fill:#709CDB;}
</style>
<g id="Group_11">
	<path id="Path_233" class="st0" d="M0,40.4v-14l9.7-11.1l3.8,2.3l16.3-7.1L38.1,0l11.3,9.2L54.1,21l4.3,2.1v6.8l4.3,2.4v8.1L0,40.4
		z"/>
	<path id="Path_234" class="st1" d="M9.7,15.2L8,23.6l5,11.8l0.5-17.8L9.7,15.2z"/>
	<path id="Path_235" class="st1" d="M62.7,32.2h-4.2l-0.2-2.4L62.7,32.2z"/>
	<path id="Path_236" class="st1" d="M58.4,23h-5l0.7-2.1L58.4,23z"/>
	<path id="Path_237" class="st1" d="M49.4,9.2h-9.5L38.1,0L49.4,9.2z"/>
	<path id="Path_238" class="st1" d="M29.8,10.4l-9.9,8.4l-6.4-1.3L29.8,10.4z"/>
	<path id="Path_239" class="st2" d="M21.7,40.4l-1.8-21.6l13.9-3.6L27.9,22l6-1l-4.1,8.8L25.1,31l2,3.3l4.3,0.1l1.7,5.9"/>
	<path id="Path_240" class="st1" d="M20.2,23l4,17.3h-7.8l1.6-13.3L20.2,23z"/>
	<path id="Path_241" class="st1" d="M51.7,40.4c0,0-4.5-12.1-4.6-12.6s0-10.2,0-10.2l-6,8.6l2.6,10.6l-1.3,3.6H51.7z"/>
	<path id="Path_242" class="st2" d="M5.3,40.4l1-3l2.7-2L0,36.9v3.5L5.3,40.4z"/>
	<path id="Path_243" class="st2" d="M0,26.3l4.5-1L6.3,21H4.5L0,26.3z"/>
	<path id="Path_244" class="st2" d="M38.2,40.4l-0.1-8.7l1.1-7l4.8-2.7l0,0l-2.3,6.7l2,8l-1.3,3.6L38.2,40.4z"/>
	<path id="Path_245" class="st2" d="M38.1,0l-2.4,9.2L36.9,22l2.9-12.8L38.1,0z"/>
</g>
</svg>
