<?xml version="1.0" encoding="utf-8"?>
<!-- Generator: Adobe Illustrator 25.2.3, SVG Export Plug-In . SVG Version: 6.00 Build 0)  -->
<svg version="1.1" id="Layer_1" xmlns="http://www.w3.org/2000/svg" xmlns:xlink="http://www.w3.org/1999/xlink" x="0px" y="0px"
	 viewBox="0 0 226.3 382.4" style="enable-background:new 0 0 226.3 382.4;" xml:space="preserve">
<style type="text/css">
	.st0{fill:#F4C1C1;}
	.st1{fill:#FFFFFF;}
	.st2{fill:#E56C6C;}
	.st3{opacity:0.5;fill:#F98A8A;enable-background:new    ;}
</style>
<g id="Group_129" transform="translate(-765.066 -318.853)">
	<g id="Layer_2_1_" transform="translate(765.066 321.403)">
		<path class="st0" d="M62.7,379.9c-3-30.7,0.9-55.2,1.8-64.6c0-0.2-0.3-0.6-0.9-1.1c0,0,0,0,0,0c-3-2.3-12-6.1-12.7,0.3
			c-0.2,2.4-4.2,5.5-9.5,8.4l-0.1,0.1c-1,0.5-2,1.1-3.1,1.6l-0.2,0.1c-0.2,0.1-0.4,0.2-0.6,0.3c-1.1,0.5-2.3,1-3.5,1.5
			c-0.3,0.1-0.6,0.3-1,0.4c0,0,0,0-0.1,0c-0.1,0-0.2,0.1-0.4,0.1c-0.3,0.1-0.7,0.2-1,0.4c-0.3,0.1-0.7,0.2-1,0.4
			c-0.1,0.1-0.3,0.1-0.4,0.2c-0.3,0.1-0.5,0.2-0.8,0.3c-1.5,0.5-2.9,0.9-4.3,1.3c-0.2,0-0.3,0.1-0.4,0.1c-4.3,1-7.9,1.1-9.2-0.2
			c-20.7-21.2-16.5-45.5-9.7-51.6C18.3,266,48.8,240.4,55.5,233c14.7-16.3,36.9-66.8,39.9-79.2c5.5-23,9.1-42.5,5-63
			c-6.9-34.4-33.1-48.9-36.9-69.4c0,0,0,0,0,0l0-0.2c-0.2-0.8-0.3-1.7-0.3-2.6l0-0.1c0,0,0,0,0,0c-0.2-2.6-0.1-5.2,0.5-8.1
			c0.6-2.7,1.4-4.9,2.4-6.5c2.6-4,6.7-4.6,11.9-3.3v0c7.3,1.8,16.9,7.5,27.8,12.8c9.5,4.5,13.5-1.1,24.2,4.7
			c35.3,18.8,39.8,21,42.7,32.8c0.9,3.8,1.9,8,2.8,12.5v0c0.1,0.4,0.2,0.7,0.2,1.1c2.4,11.9,5,26.4,8,44.9c0.6,3.4,1.1,6.9,1.7,10.6
			c1.1,7.2,2.4,13.9,3.8,20.5l0,0.1c0.3,1.2,0.5,2.4,0.8,3.7c0,0.1,0,0.2,0.1,0.3c2.2,10,4.6,19.8,6.9,30.3c0,0,0,0,0,0.1
			c0.7,3,1.3,6.1,2,9.3c0,0,0,0,0,0c0,0.1,0,0.2,0,0.2c1.3,6.7,3.9,13.8,6.5,21.2c4.8,13.3,9.9,27.7,9.3,42.7
			c-0.8,17.3-0.3,42,0.5,60.4c0,0.1,0,0.2,0,0.4c0.3,7.2,0.7,13.4,1.1,17.8c0.5,5.9,1.1,11.2,1.8,16.3c0,0.1,0,0.2,0,0.4
			c1.4,10.9,3.1,21.2,4.9,36.2c0,0.3,0.1,0.6,0.1,1c0-0.2-0.1-0.4-0.1-0.6c0-0.1,0-0.2-0.1-0.4H62.7z"/>
	</g>
	<g id="Layer_3" transform="translate(821.243 437.894)">
		<path class="st1" d="M113.1,263.4H0.1c-0.5-18.8,2.9-43,7.1-64.9c0-0.1,0-0.2,0.1-0.3c0-0.2,0.1-0.4,0.1-0.6
			c4.9-25.1,10.9-47.2,13.5-54.6c0,0,30.1-142.7,34-143.1c9-1,34,40.5,36.4,82.7c0.9,16,10.1,43.8-6.2,53.9
			c-13.7,8.5-32.8,5.7-45.2,12c-6.1,3.1-14.8,20.6-15.2,33c-0.1,2.8,0.6,5.7,1.7,8.6c0,0.1,0,0.1,0.1,0.2
			c4.4,10.3,15.9,19.7,24.7,20.1c12.9,0.5,28.3-20.8,32.3-15.1c0,0,0.1,0.1,0.1,0.1c8.4,13.9,24.9,5.6,24.9,5.6l0,0.3l0,0.2l0,0.2
			l0.1,1l0,0.5l0.4,4.1c0.2,2.1,0.4,4.6,0.7,7.5l0.1,1.7C110.8,229,112.2,246.9,113.1,263.4z"/>
	</g>
	<g id="Layer_4" transform="translate(771.284 318.853)">
		<path id="Path_830" class="st2" d="M115.6,28c-1.6-1.9-3.3-3.6-5.2-5.3c-0.7-0.5-1.9-1.8-2.7-1.7c-1,0.1-2.7,1.9-3,2.9
			c-0.3,0.8-0.8,2.7-0.4,3.5c0.8,1.1,2,1.8,3.4,2.1c1.2-0.3,2.3-0.7,3.4-1.3l2.5,1.4C113.6,29.5,115.6,28.6,115.6,28z"/>
		<path id="Path_831" class="st2" d="M61.6,0.3c0.8-0.5,2.9-0.2,3.9,0.1c1.8,0.6,5.9,1,6.2,2.8c0.1,1-1.3,4.6-2.3,5
			c-0.7,0.3-2.5-0.6-3.3-0.3c-1.3,0.5-6.2,1.4-6.2,1.4c-0.1-2-0.1-3.9,0-5.9C60,2.1,60.6,1,61.6,0.3z"/>
		<path id="Path_832" class="st2" d="M56.8,21c0,0,10.2,9.2,16.7,11.9c3.1,1.3,6.8,2.3,6.1,3.2c-1,1.3-2.6,1.3-6.6-0.1
			C68,34.3,57.2,23.9,57.2,23.9L56.8,21z"/>
		<path id="Path_833" class="st2" d="M142.9,58.5c-0.2,0,11.1-6.4,12.4-9.2s-10.6,4.6-10.6,4.6L142.9,58.5z"/>
		<path id="Path_834" class="st2" d="M147.1,76.3c-0.3-0.5,0-8.4,0-8.4l13.4-12.8l-5.9,10.6c0,0-4.3,10.8-4.9,10.6
			C148.8,76.2,148,76.2,147.1,76.3z"/>
		<path id="Path_835" class="st2" d="M158.3,320.2c13.1-2.6,36.2-16.5,36.2-16.5c-2.9,6.8-14.8,13.9-19.7,16.5
			c-4.8,2.5-15.9,6.3-15.9,6.3L158.3,320.2z"/>
		<path id="Path_836" class="st2" d="M45.9,314.2l-9.6-30l14.5,29.6C50.8,313.8,46.5,312.6,45.9,314.2z"/>
		<path id="Path_837" class="st2" d="M15.2,332.6l3.5-0.7c-3.2-2.5-5-9.8-5-9.8S13.1,331.2,15.2,332.6z"/>
		<path id="Path_838" class="st2" d="M23.1,330.7c0.2-0.1,4.7-1.7,4.7-1.7l-7.3-8.4L23.1,330.7z"/>
		<path id="Path_839" class="st2" d="M31.2,327.4l3.9-2c0.1-2.5-6.8-7.2-6.8-7.2S32.6,324.4,31.2,327.4z"/>
		<path id="Path_845" class="st2" d="M112.6,277.2c0,0-9.3-9.8-20.5-2.9C80.8,281.4,82,298.9,82,298.9s6.9-12,13.8-17.4
			C102.8,275.9,112.6,277.2,112.6,277.2z"/>
		<path id="Path_846" class="st2" d="M27.3,281.4c0,0-9.3-9.8-20.5-2.9c-11.4,7.1-5,24.6-5,24.6s1.7-12,8.6-17.4
			C17.4,280.1,27.3,281.4,27.3,281.4z"/>
		<path id="Path_847" class="st2" d="M31.7,264.2c0,0,11.9-9.6,17.5-17.5c7.8-11,24.7-40.3,24.7-40.3s-9.4,27.2-21.9,43.3
			C44.5,259.3,31.7,264.2,31.7,264.2z"/>
		<path id="Path_848" class="st2" d="M148.7,268.4c0,0,5-18.5,4.9-30.6c-0.2-16.9-4.5-58.9-4.5-58.9s10.4,34.6,9.5,59.9
			C158.1,254.1,148.7,268.4,148.7,268.4z"/>
		<path id="Path_849" class="st2" d="M76.3,309.4l2.1,2.9c0.9-3.9,7-8.5,7-8.5S76.8,306.8,76.3,309.4z"/>
		<path id="Path_850" class="st2" d="M81.3,317c0.1,0.1,3.5,3.5,3.5,3.5l4.7-10L81.3,317z"/>
		<path id="Path_851" class="st2" d="M87.5,323.1l3.4,2.8c2.3-0.9,3.9-9,3.9-9S90.9,323.3,87.5,323.1z"/>
		<path id="Path_852" class="st2" d="M145.3,77.5c0,0-22.7,22.8-32.4,25.9c-5.2,1.8-10.8,1.3-15.6-1.3c1.2,1.7,2.7,3.2,4.5,4.3
			c3.3,1.7,8.4,0.8,11.9-0.2c5.7-1.6,13.2-7.9,18.9-14.4C134,90.4,145.3,77.5,145.3,77.5z"/>
	</g>
	<g id="Layer_5" transform="translate(820.801 377.046)">
		<path class="st3" d="M113.6,324.2h-27c0.9-48.2-2.4-66.2-2.7-68c0-0.1,0-0.2,0-0.2c8,13.3,25,5.9,25,5.9s0,0,0,0.1c0,0,0,0,0,0
			c0,0.5,0.2,2.7,0.6,6.3c0.2,2.5,0.5,5.6,0.8,9.2C111.3,289.9,112.7,307.8,113.6,324.2z"/>
		<path class="st3" d="M7.8,258.6c-2.8,19.8-4.3,39.8-4.4,59.9c0,1.9,0,3.9,0.1,5.8H0c0-0.5,0-1,0-1.4c-0.2-29.4,6.3-58.3,7.6-63.4
			c0-0.1,0-0.2,0.1-0.3C7.7,258.8,7.8,258.6,7.8,258.6z"/>
		<path class="st3" d="M167.3,324.2h-11.5c-3.5-35.2-7.5-61.9-7.5-61.9s-8.9,5.7-10,6.9c-5.3,6.1-26.8,8.1-28.1,8.2c0,0-0.1,0-0.1,0
			l-0.1-1.7l-1.2-13.1l0-0.2l0-0.2l0-0.3c0,0,0,0,0.1,0c12.5,2.4,24.8-6.1,34.1-15.3c9.4-9.4,15.7-19.6,15.7-19.6
			c0,8.3,0.4,17.1,0.9,26c0,0.1,0,0.2,0,0.4c0.7,11.5,1.7,23.2,2.9,34.1c0,0.1,0,0.2,0,0.4C163.9,301.9,165.7,314.6,167.3,324.2z"/>
		<path id="Path_861" class="st3" d="M150.7,154.6c-8-14.3-17.6-27.7-28.8-39.7c11-10.8,11.8-28.2,11.8-28.2s4.5,17.9,7.3,31.8
			c0.7,3.2,0.6,7.4,8,29.2C149.3,148.6,150.7,154.6,150.7,154.6z"/>
		<path id="Path_862" class="st3" d="M119.5,7.6c0,0,2.1,40,2.4,40.9c2.3,7.8,11.7,38.2,11.7,38.2L119.5,7.6z"/>
		<path id="Path_863" class="st3" d="M109.4,0c0,0-0.8,9.4-0.2,12.9c0,0-3.7,0.9-9.9,5.2L109.4,0z"/>
	</g>
	<g id="Layer_6" transform="translate(846.257 327.343)">
		<circle id="Ellipse_20" class="st1" cx="33.1" cy="15.4" r="1.5"/>
		<path id="Path_865" class="st1" d="M78.9,36.6c0,0,1.9-3.9-5-8.6c-8.4-5.8-28.2-13.8-28.2-13.8s11.8,7.7,19.7,12.6
			C70,29.7,74.6,33,78.9,36.6z"/>
		<path id="Path_866" class="st1" d="M20.5,12.5c0,0,4-1.1,0-4.3C15.7,4.5,0,0,0,0s7.6,6.1,12.2,9.3C14.7,11,17.6,12.1,20.5,12.5z"
			/>
		<path id="Path_867" class="st1" d="M85.5,44.2L72.2,55.7c-1.3-1.3-2.4-2.8-3.3-4.5C69,51.2,83.9,40.9,85.5,44.2z"/>
	</g>
</g>
<path class="st1" d="M223.1,382.8c0-0.1,0-0.2-0.1-0.4h0c0,0.3,0.1,0.6,0.1,1C223.2,383.2,223.2,383,223.1,382.8z"/>
</svg>
