<?xml version="1.0" encoding="utf-8"?>
<!-- Generator: Adobe Illustrator 25.2.3, SVG Export Plug-In . SVG Version: 6.00 Build 0)  -->
<svg version="1.1" id="Layer_1" xmlns="http://www.w3.org/2000/svg" xmlns:xlink="http://www.w3.org/1999/xlink" x="0px" y="0px"
	 viewBox="0 0 784.4 117.6" style="enable-background:new 0 0 784.4 117.6;" xml:space="preserve">
<style type="text/css">
	.st0{enable-background:new    ;}
	.st1{fill:#709CDB;}
	.st2{clip-path:url(#SVGID_2_);}
	.st3{fill:#87BAEB;}
	.st4{fill:#BFDEFF;}
	.st5{clip-path:url(#SVGID_4_);}
</style>
<g id="title" transform="translate(0 20.309)">
	<g class="st0">
		<path class="st1" d="M0,9.7h5v20.7c2.5-4.8,7.7-7.4,13.7-7.4c8.7,0,15.7,5.5,15.7,17v23h-5V40.5c0-8.7-4.8-13.2-12-13.2
			C10.2,27.3,5,31.9,5,41.5v21.5H0V9.7z"/>
		<path class="st1" d="M47.2,12.5c0-2.2,1.7-3.7,3.7-3.7s3.7,1.5,3.7,3.7s-1.7,3.7-3.7,3.7S47.2,14.6,47.2,12.5z M48.4,23.6h5v39.3
			h-5V23.6z"/>
		<path class="st1" d="M66.7,54.6h5.6l-7.4,18.9h-3.5L66.7,54.6z"/>
		<path class="st1" d="M104.3,12.5c0-2.2,1.7-3.7,3.7-3.7s3.7,1.5,3.7,3.7s-1.7,3.7-3.7,3.7S104.3,14.6,104.3,12.5z M105.5,23.6h5
			v39.3h-5V23.6z"/>
		<path class="st1" d="M121.2,28.2l4.2-15.6h5.8l-6.3,15.6H121.2z"/>
		<path class="st1" d="M199.2,40.5c0-8.7-4.5-13.2-11.5-13.2c-7.1,0-12.2,4.8-12.2,14.3v21.3h-5V40.5c0-8.7-4.6-13.2-11.6-13.2
			c-7.2,0-12.2,4.8-12.2,14.3v21.3h-5V23.6h5v6.8c2.5-5,7.5-7.5,13-7.5c6.6,0,12.2,3.1,14.5,9.6c2.2-6.4,7.9-9.6,14.2-9.6
			c8.7,0,15.6,5.5,15.6,17v23h-5V40.5z"/>
	</g>
</g>
<g id="Group_136" transform="translate(-12.81 -93.655)">
	<g id="Group_132" transform="translate(425.215 94.527)">
		<g>
			<defs>
				<path id="SVGID_1_" d="M41.6,35.6v63.2c0,12.5-6.8,17-17.2,17h-6.1v-11.7h3.9c4.2,0,5.7-1.6,5.7-5.2V35.6H41.6z M26.3,21.1
					c0-4.5,3.5-8,8.5-8c4.8,0,8.3,3.5,8.3,8c0,4.5-3.5,8-8.3,8C29.8,29.2,26.3,25.7,26.3,21.1z M102.5,89.9H88.7v-6.9
					c-3.4,4.6-9.4,7.5-16.2,7.5c-12.6,0-21.8-8.2-21.8-23.1V35.6h13.7v29.9c0,8.7,4.8,13.4,12.1,13.4c7.4,0,12.2-4.7,12.2-13.4V35.6
					h13.8V89.9z M136,90.8c-15.8,0-27.2-11-27.2-28c0-17.2,11.2-28,27.2-28c15.7,0,26.8,10.7,26.8,26.9c0,1.8-0.1,3.5-0.4,5.3h-39.7
					c0.7,8,6.2,12.5,13,12.5c5.9,0,9.1-2.9,10.9-6.6h14.8C158.4,82.9,149.4,90.8,136,90.8z M122.7,57.7h25.8
					c-0.2-7.2-5.9-11.7-12.9-11.7C129,46,123.8,50.3,122.7,57.7z M206.9,60c0-8.7-4.8-13.4-12.1-13.4c-7.4,0-12.3,4.7-12.3,13.4v30
					h-13.7V35.6h13.7v6.8c3.5-4.6,9.4-7.5,16.4-7.5c12.6,0,21.7,8.2,21.7,23.2v31.9h-13.7V60z M251.1,34.8c8.5,0,14.7,3.9,17.9,8.6
					v-7.7h13.8v54.7c0,14.7-9,26.4-26.9,26.4c-15.3,0-26-7.6-27.3-20.1h13.6c1.4,4.9,6.5,8.1,13.3,8.1c7.5,0,13.4-4.3,13.4-14.4
					v-8.4c-3.2,4.7-9.4,8.9-17.9,8.9c-13.8,0-24.8-11.3-24.8-28.2S237.3,34.8,251.1,34.8z M254.6,46.8c-7.4,0-14.3,5.5-14.3,15.8
					c0,10.3,7,16.2,14.3,16.2c7.5,0,14.4-5.7,14.4-16C269,52.5,262.2,46.8,254.6,46.8z M313.2,90.8c-13.6,0-23.1-7.9-23.7-18h13.8
					c0.5,4.1,4.3,7.3,9.8,7.3c5.4,0,8.3-2.5,8.3-5.6c0-9.7-30.7-3.5-30.7-23.4c0-9,8-16.3,21.5-16.3c13.1,0,21.1,7.2,21.9,17.9H321
					c-0.4-4.2-3.7-7.1-9.1-7.1c-5.1,0-7.7,2.1-7.7,5.2c0,9.9,30.1,3.7,30.5,23.6C334.6,83.8,326.5,90.8,313.2,90.8z M344.2,46.9
					h-6.5V35.6h6.5V22.2H358v13.4h12.2v11.3H358v26.3c0,3.6,1.5,5.2,5.8,5.2h6.4v11.6h-8.6c-10.4,0-17.3-4.4-17.3-16.9V46.9z"/>
			</defs>
			<clipPath id="SVGID_2_">
				<use xlink:href="#SVGID_1_"  style="overflow:visible;"/>
			</clipPath>
			<g id="Group_131" class="st2">
				<g id="Group_130" transform="translate(-37.441 -125.219)">
					<g id="Path_868">
						<path class="st3" d="M17.9,289.9V184.6l72.8-83.2l28.6,16.9L241.5,65l62.4-78l84.5,68.9l35.1,88.4l32.5,15.6v50.7l32.5,18.2
							v61.1L17.9,289.9L17.9,289.9z"/>
					</g>
					<g id="Path_871">
						<path class="st4" d="M406,289.9c0,0-33.9-90.9-34.3-94.3s0-76.7,0-76.7l-45,64.4l19.4,79.3l-9.7,27.3L406,289.9z"/>
					</g>
					<g id="Path_872">
						<path class="st1" d="M304.6,289.9l-0.7-65l8.4-52.2l36.3-20.6l0,0l-17.1,50.5l14.7,60.1l-9.7,27.3H304.6z"/>
					</g>
					<g id="Path_873">
						<path class="st1" d="M303.9-13.1l-18.1,68.9l9,96.2l22-96.2L303.9-13.1z"/>
					</g>
					<g id="Path_874">
						<path class="st4" d="M90.7,101.4l-13,62.4l37.7,88.4l3.9-133.9L90.7,101.4z"/>
					</g>
					<g id="Path_876">
						<path class="st4" d="M241.5,64.9l-74.4,63.2l-47.8-9.9L241.5,64.9z"/>
					</g>
					<g id="Path_877">
						<path class="st1" d="M180.4,289.9l-13.3-161.7l104.2-26.8l-43.9,50.7l44.9-7.8l-30.8,66.3l-35.6,9.1l15.3,24.8l32,1l13,44.4
							H180.4z"/>
					</g>
					<g id="Path_878">
						<path class="st4" d="M169.7,159.9l30.2,130h-58.5l11.9-99.6L169.7,159.9z"/>
					</g>
					<g id="Path_880">
						<path class="st1" d="M17.9,184.6l33.6-7.8l13.8-32.5H51.5L17.9,184.6z"/>
					</g>
				</g>
			</g>
		</g>
	</g>
	<g id="Group_135" transform="translate(234.81 93.64)">
		<g>
			<defs>
				<path id="SVGID_3_" d="M48.6,90.8c-15.8,0-27.2-11-27.2-28c0-17.2,11.2-28,27.2-28c15.7,0,26.8,10.7,26.8,26.9
					c0,1.8-0.1,3.5-0.4,5.3H35.2c0.7,8,6.2,12.5,13,12.5c5.9,0,9.1-2.9,10.9-6.6H74C71,82.9,62,90.8,48.6,90.8z M35.3,57.7h25.8
					c-0.2-7.2-5.9-11.7-12.9-11.7C41.6,46.1,36.4,50.3,35.3,57.7z M81.5,17.4h13.7V90H81.5V17.4z M104.9,17.4h13.7V90h-13.7V17.4z
					 M149.6,34.8c8.7,0,14.7,4.1,17.9,8.6v-7.7h13.8V90h-13.8V82c-3.2,4.7-9.4,8.8-18,8.8c-13.7,0-24.7-11.3-24.7-28.2
					S135.8,34.8,149.6,34.8z M153.1,46.8c-7.4,0-14.3,5.5-14.3,15.8c0,10.3,7,16.2,14.3,16.2c7.5,0,14.4-5.7,14.4-16
					C167.5,52.5,160.7,46.8,153.1,46.8z"/>
			</defs>
			<clipPath id="SVGID_4_">
				<use xlink:href="#SVGID_3_"  style="overflow:visible;"/>
			</clipPath>
			<g id="Group_134" class="st5">
				<g id="Group_133" transform="translate(-243.517 -104.282)">
					<g id="Path_881">
						<path class="st3" d="M17.9,310.3V197.9l77.7-88.8l30.5,18l130.5-56.9l66.6-83.3l90.2,73.6l37.5,94.4l34.7,16.7v54.1l34.7,19.4
							v65.2L17.9,310.3L17.9,310.3z"/>
					</g>
					<g id="Path_882">
						<path class="st4" d="M485.6,171.5h-40.2l5.6-16.7L485.6,171.5z"/>
					</g>
					<g id="Path_884">
						<path class="st4" d="M432.2,310.3c0,0-36.2-97-36.6-100.6s0-81.9,0-81.9l-48,68.8l20.7,84.6L358,310.3L432.2,310.3z"/>
					</g>
					<g id="Path_885">
						<path class="st1" d="M324,310.3l-0.7-69.4l8.9-55.7l38.7-22l0,0l-18.3,53.9l15.7,64.1L358,310.3H324z"/>
					</g>
					<g id="Path_886">
						<path class="st1" d="M323.2-13.1l-19.3,73.6l9.6,102.7l23.5-102.7L323.2-13.1z"/>
					</g>
					<g id="Path_887">
						<path class="st4" d="M95.6,109.1l-13.9,66.6l40.2,94.4l4.2-143L95.6,109.1z"/>
					</g>
					<g id="Path_889">
						<path class="st4" d="M256.6,70.2l-79.5,67.5l-51-10.6L256.6,70.2z"/>
					</g>
					<g id="Path_890">
						<path class="st1" d="M191.4,310.3l-14.2-172.6l111.2-28.6l-46.9,54.1l48-8.3l-32.9,70.8l-38,9.7l16.3,26.5l34.1,1.1l13.8,47.4
							L191.4,310.3z"/>
					</g>
					<g id="Path_891">
						<path class="st4" d="M180,171.5l32.2,138.8h-62.4L162.5,204L180,171.5z"/>
					</g>
					<g id="Path_893">
						<path class="st1" d="M17.9,197.9l35.8-8.3l14.8-34.7H53.7L17.9,197.9z"/>
					</g>
				</g>
			</g>
		</g>
	</g>
</g>
</svg>
