<svg id="Layer_1" data-name="Layer 1" xmlns="http://www.w3.org/2000/svg" xmlns:xlink="http://www.w3.org/1999/xlink" viewBox="0 0 722.53 367.59"><defs><style>.cls-1{fill:none;}.cls-2{clip-path:url(#clip-path);}.cls-3{fill:#c4edab;}.cls-4{fill:#dbffb8;}.cls-5{fill:#848484;}.cls-6{fill:#fff;}</style><clipPath id="clip-path"><rect class="cls-1" x="-7.89" width="743.97" height="385.2"/></clipPath></defs><g class="cls-2"><path class="cls-3" d="M577.8,283.07A140.7,140.7,0,1,0,437.1,142.38,140.69,140.69,0,0,0,577.8,283.07"/><path class="cls-4" d="M577.8,284.76c-78.51,0-142.38-63.88-142.38-142.38S499.29,0,577.8,0,720.17,63.87,720.17,142.38,656.3,284.76,577.8,284.76Zm0-281.39c-76.65,0-139,62.36-139,139s62.36,139,139,139,139-62.36,139-139S654.45,3.37,577.8,3.37Z"/><path class="cls-3" d="M143.18,283.07A140.7,140.7,0,1,0,2.49,142.38,140.69,140.69,0,0,0,143.18,283.07"/><path class="cls-4" d="M143.18,284.76C64.68,284.76.81,220.88.81,142.38S64.68,0,143.18,0,285.56,63.87,285.56,142.38,221.69,284.76,143.18,284.76Zm0-281.39c-76.64,0-139,62.36-139,139s62.36,139,139,139,139-62.36,139-139S219.83,3.37,143.18,3.37Z"/></g><path class="cls-5" d="M13.74,320.56a6.1,6.1,0,0,1-1.61,4.55,6.4,6.4,0,0,1-4.65,1.58H4.14v-12H7.83a5.89,5.89,0,0,1,4.36,1.56A5.84,5.84,0,0,1,13.74,320.56Zm-1.48.05a4.85,4.85,0,0,0-1.18-3.55,4.73,4.73,0,0,0-3.51-1.19h-2v9.61H7.25A5.15,5.15,0,0,0,11,324.25,4.88,4.88,0,0,0,12.26,320.61Z"/><path class="cls-5" d="M24,322.17a5,5,0,0,1-1.11,3.44,3.89,3.89,0,0,1-3.07,1.24,4.09,4.09,0,0,1-2.15-.57,3.73,3.73,0,0,1-1.44-1.62,5.71,5.71,0,0,1-.51-2.49,4.93,4.93,0,0,1,1.1-3.43,3.88,3.88,0,0,1,3.06-1.23,3.83,3.83,0,0,1,3,1.26A4.94,4.94,0,0,1,24,322.17Zm-6.87,0a4.27,4.27,0,0,0,.69,2.63,2.38,2.38,0,0,0,2,.91,2.41,2.41,0,0,0,2-.9,4.28,4.28,0,0,0,.7-2.64,4.19,4.19,0,0,0-.7-2.61,2.42,2.42,0,0,0-2.05-.89,2.41,2.41,0,0,0-2,.88A4.25,4.25,0,0,0,17.13,322.17Z"/><path class="cls-5" d="M29.27,317.67h1.47l2,5.14a21.78,21.78,0,0,1,.81,2.54h.06c.07-.28.22-.75.45-1.43s1-2.76,2.23-6.25h1.47l-3.88,10.27a5.17,5.17,0,0,1-1.34,2.16,2.87,2.87,0,0,1-1.89.63,5,5,0,0,1-1.23-.14V329.5a4.49,4.49,0,0,0,1,.1,2.1,2.1,0,0,0,2-1.58l.5-1.28Z"/><path class="cls-5" d="M47,322.17a5,5,0,0,1-1.11,3.44,3.89,3.89,0,0,1-3.07,1.24,4,4,0,0,1-2.14-.57,3.69,3.69,0,0,1-1.45-1.62,5.71,5.71,0,0,1-.51-2.49,5,5,0,0,1,1.1-3.43,3.91,3.91,0,0,1,3.06-1.23,3.83,3.83,0,0,1,3,1.26A4.94,4.94,0,0,1,47,322.17Zm-6.87,0a4.27,4.27,0,0,0,.69,2.63,2.74,2.74,0,0,0,4.07,0,4.22,4.22,0,0,0,.7-2.64,4.12,4.12,0,0,0-.7-2.61,2.42,2.42,0,0,0-2-.89,2.39,2.39,0,0,0-2,.88A4.18,4.18,0,0,0,40.1,322.17Z"/><path class="cls-5" d="M50.65,317.67v5.85a2.41,2.41,0,0,0,.5,1.65,2,2,0,0,0,1.57.54,2.56,2.56,0,0,0,2.07-.78,3.85,3.85,0,0,0,.65-2.52v-4.74h1.37v9H55.68l-.19-1.21h-.08a2.81,2.81,0,0,1-1.16,1,4,4,0,0,1-1.7.35,3.43,3.43,0,0,1-2.46-.78,3.32,3.32,0,0,1-.82-2.5v-5.9Z"/><path class="cls-5" d="M65.3,317.67v5.85a2.36,2.36,0,0,0,.5,1.65,2,2,0,0,0,1.57.54,2.56,2.56,0,0,0,2.07-.78,3.91,3.91,0,0,0,.65-2.52v-4.74h1.37v9H70.33l-.2-1.21h-.07a2.81,2.81,0,0,1-1.16,1,4,4,0,0,1-1.7.35,3.47,3.47,0,0,1-2.47-.78,3.36,3.36,0,0,1-.82-2.5v-5.9Z"/><path class="cls-5" d="M80.17,324.23a2.28,2.28,0,0,1-.94,1.94,4.45,4.45,0,0,1-2.63.68,5.71,5.71,0,0,1-2.8-.57V325a6.86,6.86,0,0,0,1.4.52,6,6,0,0,0,1.43.18,3.27,3.27,0,0,0,1.65-.34,1.12,1.12,0,0,0,.57-1,1.14,1.14,0,0,0-.45-.9,7.27,7.27,0,0,0-1.79-.88,9.69,9.69,0,0,1-1.78-.82A2.38,2.38,0,0,1,74,321a2,2,0,0,1-.26-1.07,2,2,0,0,1,.89-1.74,4.23,4.23,0,0,1,2.46-.63,7.14,7.14,0,0,1,2.85.59l-.49,1.11a6.55,6.55,0,0,0-2.46-.56,2.76,2.76,0,0,0-1.46.31.93.93,0,0,0-.49.83,1,1,0,0,0,.18.62,1.83,1.83,0,0,0,.6.49,13.75,13.75,0,0,0,1.58.66,5.73,5.73,0,0,1,2.16,1.18A2.05,2.05,0,0,1,80.17,324.23Z"/><path class="cls-5" d="M86.2,326.85A4.11,4.11,0,0,1,83,325.63a4.7,4.7,0,0,1-1.15-3.38A5.21,5.21,0,0,1,83,318.79a3.56,3.56,0,0,1,2.88-1.28,3.39,3.39,0,0,1,2.68,1.11,4.25,4.25,0,0,1,1,2.94v.87H83.3a3.64,3.64,0,0,0,.8,2.41,2.83,2.83,0,0,0,2.15.82,7.12,7.12,0,0,0,2.87-.61v1.22a6.9,6.9,0,0,1-1.36.44A7,7,0,0,1,86.2,326.85Zm-.37-8.2a2.22,2.22,0,0,0-1.73.71,3.21,3.21,0,0,0-.77,2h4.72a2.94,2.94,0,0,0-.58-2A2,2,0,0,0,85.83,318.65Z"/><path class="cls-5" d="M99.41,320.67l3.21-6h1.51l-4,7.36v4.67H98.71v-4.6l-4-7.43h1.53Z"/><path class="cls-5" d="M113.36,322.17a5,5,0,0,1-1.11,3.44,3.89,3.89,0,0,1-3.06,1.24,4,4,0,0,1-2.15-.57,3.69,3.69,0,0,1-1.45-1.62,5.71,5.71,0,0,1-.51-2.49,5,5,0,0,1,1.1-3.43,3.91,3.91,0,0,1,3.06-1.23,3.82,3.82,0,0,1,3,1.26A4.94,4.94,0,0,1,113.36,322.17Zm-6.86,0a4.27,4.27,0,0,0,.69,2.63,2.37,2.37,0,0,0,2,.91,2.4,2.4,0,0,0,2-.9,4.22,4.22,0,0,0,.7-2.64,4.12,4.12,0,0,0-.7-2.61,2.41,2.41,0,0,0-2-.89,2.39,2.39,0,0,0-2,.88A4.18,4.18,0,0,0,106.5,322.17Z"/><path class="cls-5" d="M117,317.67v5.85a2.41,2.41,0,0,0,.5,1.65,2.06,2.06,0,0,0,1.57.54,2.54,2.54,0,0,0,2.07-.78,3.84,3.84,0,0,0,.66-2.52v-4.74h1.36v9h-1.13l-.19-1.21h-.08a2.75,2.75,0,0,1-1.16,1,4,4,0,0,1-1.7.35,3.43,3.43,0,0,1-2.46-.78,3.32,3.32,0,0,1-.82-2.5v-5.9Z"/><path class="cls-5" d="M129,325.72a4,4,0,0,0,.7-.05,5.26,5.26,0,0,0,.53-.11v1a2.26,2.26,0,0,1-.65.18,4.59,4.59,0,0,1-.78.07c-1.74,0-2.62-.92-2.62-2.75v-5.37H124.9v-.66l1.29-.56.58-1.93h.79v2.09h2.62v1.06h-2.62V324a1.82,1.82,0,0,0,.39,1.25A1.33,1.33,0,0,0,129,325.72Z"/><path class="cls-5" d="M133.33,317.67v5.85a2.36,2.36,0,0,0,.5,1.65,2,2,0,0,0,1.57.54,2.56,2.56,0,0,0,2.07-.78,3.91,3.91,0,0,0,.65-2.52v-4.74h1.37v9h-1.13l-.2-1.21h-.07a2.81,2.81,0,0,1-1.16,1,4,4,0,0,1-1.7.35,3.47,3.47,0,0,1-2.47-.78,3.36,3.36,0,0,1-.82-2.5v-5.9Z"/><path class="cls-5" d="M146.58,317.52a3.37,3.37,0,0,1,2.76,1.22,6.5,6.5,0,0,1,0,6.88,3.34,3.34,0,0,1-2.75,1.23,4,4,0,0,1-1.61-.32,3,3,0,0,1-1.22-1h-.1l-.29,1.16h-1v-12.8h1.37V317c0,.69,0,1.32-.07,1.87h.07A3.23,3.23,0,0,1,146.58,317.52Zm-.2,1.15a2.39,2.39,0,0,0-2,.8,6.23,6.23,0,0,0,0,5.42,2.42,2.42,0,0,0,2,.82,2.12,2.12,0,0,0,1.88-.92,4.73,4.73,0,0,0,.61-2.64,4.55,4.55,0,0,0-.61-2.62A2.2,2.2,0,0,0,146.38,318.67Z"/><path class="cls-5" d="M156.51,326.85a4.11,4.11,0,0,1-3.15-1.22,4.7,4.7,0,0,1-1.16-3.38,5.21,5.21,0,0,1,1.08-3.46,3.53,3.53,0,0,1,2.88-1.28,3.41,3.41,0,0,1,2.68,1.11,4.25,4.25,0,0,1,1,2.94v.87h-6.21a3.59,3.59,0,0,0,.8,2.41,2.8,2.8,0,0,0,2.14.82,7.2,7.2,0,0,0,2.88-.61v1.22a6.81,6.81,0,0,1-2.93.58Zm-.37-8.2a2.24,2.24,0,0,0-1.73.71,3.27,3.27,0,0,0-.76,2h4.71a3,3,0,0,0-.57-2A2,2,0,0,0,156.14,318.65Z"/><path class="cls-5" d="M170.51,318.73h-2.29v8h-1.37v-8h-1.61v-.61l1.61-.5v-.5q0-3.31,2.9-3.32a6,6,0,0,1,1.68.28l-.35,1.1a4.59,4.59,0,0,0-1.35-.26,1.3,1.3,0,0,0-1.14.52,2.83,2.83,0,0,0-.37,1.65v.58h2.29Z"/><path class="cls-5" d="M179.94,322.17a5,5,0,0,1-1.11,3.44,3.91,3.91,0,0,1-3.07,1.24,4.06,4.06,0,0,1-2.15-.57,3.75,3.75,0,0,1-1.45-1.62,5.71,5.71,0,0,1-.51-2.49,4.93,4.93,0,0,1,1.11-3.43,3.88,3.88,0,0,1,3.06-1.23,3.8,3.8,0,0,1,3,1.26A4.89,4.89,0,0,1,179.94,322.17Zm-6.87,0a4.27,4.27,0,0,0,.69,2.63,2.38,2.38,0,0,0,2,.91,2.42,2.42,0,0,0,2-.9,4.29,4.29,0,0,0,.69-2.64,4.19,4.19,0,0,0-.69-2.61,2.44,2.44,0,0,0-2.05-.89,2.41,2.41,0,0,0-2,.88A4.25,4.25,0,0,0,173.07,322.17Z"/><path class="cls-5" d="M186.44,317.51a5.09,5.09,0,0,1,1.08.1l-.19,1.26a4.74,4.74,0,0,0-1-.12,2.39,2.39,0,0,0-1.87.89,3.27,3.27,0,0,0-.77,2.21v4.84h-1.37v-9h1.13l.15,1.67h.07a3.93,3.93,0,0,1,1.21-1.36A2.77,2.77,0,0,1,186.44,317.51Z"/><path class="cls-5" d="M197.32,326.85a4.11,4.11,0,0,1-3.15-1.22,4.7,4.7,0,0,1-1.16-3.38,5.21,5.21,0,0,1,1.08-3.46,3.53,3.53,0,0,1,2.88-1.28,3.41,3.41,0,0,1,2.68,1.11,4.25,4.25,0,0,1,1,2.94v.87h-6.21a3.59,3.59,0,0,0,.8,2.41,2.8,2.8,0,0,0,2.14.82,7.2,7.2,0,0,0,2.88-.61v1.22a6.81,6.81,0,0,1-2.93.58Zm-.37-8.2a2.24,2.24,0,0,0-1.73.71,3.27,3.27,0,0,0-.76,2h4.71a3,3,0,0,0-.57-2A2,2,0,0,0,197,318.65Z"/><path class="cls-5" d="M209.1,325.48H209a3.23,3.23,0,0,1-2.83,1.37,3.33,3.33,0,0,1-2.75-1.21,5.28,5.28,0,0,1-1-3.44,5.4,5.4,0,0,1,1-3.46,3.34,3.34,0,0,1,2.75-1.23,3.27,3.27,0,0,1,2.81,1.33h.11l-.06-.65,0-.63v-3.67h1.36v12.8h-1.11Zm-2.73.23a2.52,2.52,0,0,0,2-.76,3.86,3.86,0,0,0,.63-2.46v-.29a4.47,4.47,0,0,0-.64-2.73,2.4,2.4,0,0,0-2-.82,2.07,2.07,0,0,0-1.83.93,4.62,4.62,0,0,0-.64,2.64,4.49,4.49,0,0,0,.63,2.61A2.16,2.16,0,0,0,206.37,325.71Z"/><path class="cls-5" d="M214.57,317.67v5.85a2.41,2.41,0,0,0,.5,1.65,2.07,2.07,0,0,0,1.58.54,2.53,2.53,0,0,0,2.06-.78,3.84,3.84,0,0,0,.66-2.52v-4.74h1.36v9h-1.12l-.2-1.21h-.08a2.75,2.75,0,0,1-1.16,1,4,4,0,0,1-1.7.35,3.44,3.44,0,0,1-2.46-.78,3.32,3.32,0,0,1-.82-2.5v-5.9Z"/><path class="cls-5" d="M227.23,326.85a3.87,3.87,0,0,1-3-1.2,5,5,0,0,1-1.07-3.41,5.1,5.1,0,0,1,1.09-3.5,3.91,3.91,0,0,1,3.1-1.23,5.75,5.75,0,0,1,1.3.14,4.07,4.07,0,0,1,1,.33l-.42,1.16a6.41,6.41,0,0,0-1-.3,4.32,4.32,0,0,0-.94-.12c-1.83,0-2.75,1.16-2.75,3.5a4.14,4.14,0,0,0,.67,2.55,2.35,2.35,0,0,0,2,.89,6,6,0,0,0,2.31-.49v1.21A4.94,4.94,0,0,1,227.23,326.85Z"/><path class="cls-5" d="M237.19,326.69l-.27-1.29h-.07a3.72,3.72,0,0,1-1.34,1.15,4.12,4.12,0,0,1-1.67.3,3,3,0,0,1-2.11-.69,2.55,2.55,0,0,1-.76-2q0-2.73,4.37-2.86l1.53-.05v-.56a2.24,2.24,0,0,0-.46-1.56,1.86,1.86,0,0,0-1.46-.51,6,6,0,0,0-2.55.69l-.42-1a6.8,6.8,0,0,1,1.47-.57,6.09,6.09,0,0,1,1.59-.21,3.43,3.43,0,0,1,2.39.72,3,3,0,0,1,.77,2.29v6.16Zm-3.08-1a2.79,2.79,0,0,0,2-.69,2.58,2.58,0,0,0,.73-2v-.82l-1.37.06a5,5,0,0,0-2.35.51,1.52,1.52,0,0,0-.72,1.39,1.42,1.42,0,0,0,.45,1.13A1.86,1.86,0,0,0,234.11,325.72Z"/><path class="cls-5" d="M243.93,325.72a4,4,0,0,0,.7-.05,5.26,5.26,0,0,0,.53-.11v1a2.26,2.26,0,0,1-.65.18,4.59,4.59,0,0,1-.78.07c-1.74,0-2.61-.92-2.61-2.75v-5.37h-1.3v-.66l1.3-.56.57-1.93h.79v2.09h2.62v1.06h-2.62V324a1.82,1.82,0,0,0,.39,1.25A1.33,1.33,0,0,0,243.93,325.72Z"/><path class="cls-5" d="M246.85,315.23a.9.9,0,0,1,.23-.69.83.83,0,0,1,1.14,0,.86.86,0,0,1,.24.68.92.92,0,0,1-.24.69.8.8,0,0,1-.57.22.77.77,0,0,1-.57-.22A.92.92,0,0,1,246.85,315.23Zm1.48,11.46H247v-9h1.37Z"/><path class="cls-5" d="M259,322.17a4.91,4.91,0,0,1-1.12,3.44,3.89,3.89,0,0,1-3.06,1.24,4.06,4.06,0,0,1-2.15-.57,3.69,3.69,0,0,1-1.45-1.62,5.71,5.71,0,0,1-.51-2.49,5,5,0,0,1,1.1-3.43,3.91,3.91,0,0,1,3.06-1.23,3.8,3.8,0,0,1,3,1.26A4.94,4.94,0,0,1,259,322.17Zm-6.87,0a4.27,4.27,0,0,0,.69,2.63,2.38,2.38,0,0,0,2,.91,2.44,2.44,0,0,0,2-.9,4.29,4.29,0,0,0,.69-2.64,4.19,4.19,0,0,0-.69-2.61,2.44,2.44,0,0,0-2.06-.89,2.39,2.39,0,0,0-2,.88A4.18,4.18,0,0,0,252.14,322.17Z"/><path class="cls-5" d="M267.57,326.69v-5.84a2.37,2.37,0,0,0-.5-1.64,2.06,2.06,0,0,0-1.57-.54,2.6,2.6,0,0,0-2.08.76,3.86,3.86,0,0,0-.66,2.53v4.73H261.4v-9h1.11l.22,1.24h.07a2.82,2.82,0,0,1,1.17-1,3.91,3.91,0,0,1,1.69-.36,3.43,3.43,0,0,1,2.45.78,3.35,3.35,0,0,1,.82,2.52v5.88Z"/><path class="cls-5" d="M277.28,326.69,277,325.4h-.07a3.64,3.64,0,0,1-1.34,1.15,4.09,4.09,0,0,1-1.67.3,3,3,0,0,1-2.11-.69,2.55,2.55,0,0,1-.76-2q0-2.73,4.37-2.86l1.53-.05v-.56a2.24,2.24,0,0,0-.46-1.56,1.86,1.86,0,0,0-1.46-.51,5.89,5.89,0,0,0-2.54.69l-.42-1a6.52,6.52,0,0,1,1.46-.57,6.15,6.15,0,0,1,1.59-.21,3.43,3.43,0,0,1,2.39.72,3,3,0,0,1,.77,2.29v6.16Zm-3.08-1a2.78,2.78,0,0,0,2-.69,2.58,2.58,0,0,0,.73-2v-.82l-1.37.06a5,5,0,0,0-2.35.51,1.51,1.51,0,0,0-.71,1.39,1.41,1.41,0,0,0,.44,1.13A1.86,1.86,0,0,0,274.2,325.72Z"/><path class="cls-5" d="M282.47,326.69h-1.36v-12.8h1.36Z"/><path class="cls-5" d="M8.13,347.06a3.81,3.81,0,0,1-1.6-.32,3.05,3.05,0,0,1-1.23-1H5.21a13.37,13.37,0,0,1,.09,1.5V351H3.94V337.89H5.05l.19,1.23H5.3a3.26,3.26,0,0,1,1.23-1.07,3.72,3.72,0,0,1,1.6-.33A3.33,3.33,0,0,1,10.9,339a6.5,6.5,0,0,1,0,6.88A3.33,3.33,0,0,1,8.13,347.06Zm-.19-8.18a2.42,2.42,0,0,0-2,.77,4,4,0,0,0-.64,2.43v.3a4.51,4.51,0,0,0,.64,2.72,2.39,2.39,0,0,0,2,.82A2.11,2.11,0,0,0,9.8,345a4.52,4.52,0,0,0,.66-2.61,4.33,4.33,0,0,0-.66-2.59A2.17,2.17,0,0,0,7.94,338.88Z"/><path class="cls-5" d="M15.54,337.89v5.84a2.33,2.33,0,0,0,.51,1.65,2,2,0,0,0,1.57.54,2.59,2.59,0,0,0,2.07-.77,4,4,0,0,0,.65-2.53v-4.73h1.37v9H20.58l-.2-1.21h-.07a2.65,2.65,0,0,1-1.17,1,3.83,3.83,0,0,1-1.7.35,3.46,3.46,0,0,1-2.46-.78,3.34,3.34,0,0,1-.82-2.5v-5.89Z"/><path class="cls-5" d="M28.71,337.72a5.09,5.09,0,0,1,1.08.1l-.19,1.27a4.21,4.21,0,0,0-1-.13,2.43,2.43,0,0,0-1.87.89,3.27,3.27,0,0,0-.77,2.21v4.84H24.6v-9h1.13l.15,1.67H26a3.93,3.93,0,0,1,1.21-1.36A2.7,2.7,0,0,1,28.71,337.72Z"/><path class="cls-5" d="M35.67,347.06a3.86,3.86,0,0,1-1.61-.32,3.09,3.09,0,0,1-1.22-1h-.1a11.44,11.44,0,0,1,.1,1.5V351H31.48V337.89h1.11l.19,1.23h.06a3.18,3.18,0,0,1,1.23-1.07,3.69,3.69,0,0,1,1.6-.33A3.33,3.33,0,0,1,38.44,339a6.53,6.53,0,0,1,0,6.88A3.3,3.3,0,0,1,35.67,347.06Zm-.2-8.18a2.4,2.4,0,0,0-2,.77,3.86,3.86,0,0,0-.64,2.43v.3a4.44,4.44,0,0,0,.64,2.72,2.39,2.39,0,0,0,2,.82,2.11,2.11,0,0,0,1.83-.94,4.52,4.52,0,0,0,.66-2.61,4.33,4.33,0,0,0-.66-2.59A2.19,2.19,0,0,0,35.47,338.88Z"/><path class="cls-5" d="M49.58,342.38a5,5,0,0,1-1.11,3.45,3.92,3.92,0,0,1-3.07,1.23,4,4,0,0,1-2.14-.56,3.72,3.72,0,0,1-1.45-1.63,5.71,5.71,0,0,1-.51-2.49A5,5,0,0,1,42.4,339a3.88,3.88,0,0,1,3.06-1.23,3.83,3.83,0,0,1,3,1.26A5,5,0,0,1,49.58,342.38Zm-6.87,0A4.31,4.31,0,0,0,43.4,345a2.75,2.75,0,0,0,4.07,0,4.28,4.28,0,0,0,.7-2.64,4.23,4.23,0,0,0-.7-2.61,2.45,2.45,0,0,0-2-.89,2.37,2.37,0,0,0-2,.88A4.2,4.2,0,0,0,42.71,342.38Z"/><path class="cls-5" d="M57.79,344.44a2.24,2.24,0,0,1-.94,1.94,4.36,4.36,0,0,1-2.63.68,5.72,5.72,0,0,1-2.8-.56v-1.27a7.08,7.08,0,0,0,1.4.52,5.57,5.57,0,0,0,1.43.19,3.36,3.36,0,0,0,1.65-.34,1.18,1.18,0,0,0,.12-1.94,7.28,7.28,0,0,0-1.78-.89,8.93,8.93,0,0,1-1.79-.82,2.29,2.29,0,0,1-.79-.79,2.18,2.18,0,0,1,.64-2.8,4.1,4.1,0,0,1,2.45-.64,7.28,7.28,0,0,1,2.85.59l-.48,1.11a6.64,6.64,0,0,0-2.46-.56,2.87,2.87,0,0,0-1.47.31.93.93,0,0,0-.49.84,1,1,0,0,0,.18.61,1.93,1.93,0,0,0,.6.49,13.26,13.26,0,0,0,1.58.67A6,6,0,0,1,57.23,343,2.1,2.1,0,0,1,57.79,344.44Z"/><path class="cls-5" d="M63.82,347.06a4.17,4.17,0,0,1-3.16-1.21,4.71,4.71,0,0,1-1.15-3.38A5.27,5.27,0,0,1,60.58,339a3.59,3.59,0,0,1,2.89-1.28,3.39,3.39,0,0,1,2.68,1.12,4.3,4.3,0,0,1,1,2.94v.86H60.92a3.57,3.57,0,0,0,.81,2.41,2.75,2.75,0,0,0,2.14.82,7.2,7.2,0,0,0,2.88-.61v1.22a7.27,7.27,0,0,1-1.37.45A7.77,7.77,0,0,1,63.82,347.06Zm-.37-8.2a2.24,2.24,0,0,0-1.73.71,3.23,3.23,0,0,0-.76,2h4.71a3,3,0,0,0-.58-2A2,2,0,0,0,63.45,338.86Z"/><path class="cls-5" d="M75.28,344.44a2.26,2.26,0,0,1-.94,1.94,4.38,4.38,0,0,1-2.63.68,5.72,5.72,0,0,1-2.8-.56v-1.27a7,7,0,0,0,1.39.52,5.71,5.71,0,0,0,1.44.19,3.38,3.38,0,0,0,1.65-.34,1.14,1.14,0,0,0,.57-1,1.12,1.12,0,0,0-.46-.9,6.91,6.91,0,0,0-1.78-.89,9.21,9.21,0,0,1-1.79-.82,2.34,2.34,0,0,1-.78-.79,2.19,2.19,0,0,1,.63-2.8,4.15,4.15,0,0,1,2.46-.64,7.31,7.31,0,0,1,2.85.59l-.49,1.11a6.55,6.55,0,0,0-2.46-.56,2.86,2.86,0,0,0-1.46.31.93.93,0,0,0-.49.84,1,1,0,0,0,.18.61,1.72,1.72,0,0,0,.6.49,13.26,13.26,0,0,0,1.58.67A5.89,5.89,0,0,1,74.71,343,2.07,2.07,0,0,1,75.28,344.44Z"/><path class="cls-5" d="M78.43,343.59v-.45a3.78,3.78,0,0,1,.29-1.58,4.2,4.2,0,0,1,1.11-1.31,7.69,7.69,0,0,0,1.41-1.43,2.21,2.21,0,0,0,.29-1.15,1.58,1.58,0,0,0-.54-1.29,2.31,2.31,0,0,0-1.55-.46,5.38,5.38,0,0,0-1.27.15,6.72,6.72,0,0,0-1.41.56l-.49-1.11a6.85,6.85,0,0,1,3.25-.82,3.52,3.52,0,0,1,2.44.78,2.73,2.73,0,0,1,.88,2.18,3.31,3.31,0,0,1-.16,1,3.24,3.24,0,0,1-.48.87,12.38,12.38,0,0,1-1.35,1.31,4.92,4.92,0,0,0-1.09,1.17,2.52,2.52,0,0,0-.27,1.25v.28ZM78,346c0-.75.33-1.12,1-1.12a1,1,0,0,1,.74.29A1.21,1.21,0,0,1,80,346a1.18,1.18,0,0,1-.27.82.94.94,0,0,1-.73.29,1,1,0,0,1-.71-.26A1.14,1.14,0,0,1,78,346Z"/><path class="cls-6" d="M48,131.69l-.33-5.9c4.1-.32,7.42-1.43,9.63-3.82H62v33.34H55.1V130.26A22,22,0,0,1,48,131.69Z"/><path class="cls-6" d="M68,138.55c0-11,3.17-17.18,12.34-17.18s11.74,6.22,11.74,16.81c0,11.47-3,17.68-12.2,17.68S68,149.6,68,138.55Zm16.71-.1c0-8.28-.73-11.6-4.46-11.6s-4.84,3.27-4.84,11.74c0,8.29.83,11.84,4.65,11.84S84.71,147,84.71,138.45Z"/><path class="cls-6" d="M94.93,138.55c0-11,3.18-17.18,12.34-17.18S119,127.59,119,138.18c0,11.47-3,17.68-12.21,17.68S94.93,149.6,94.93,138.55Zm16.72-.1c0-8.28-.74-11.6-4.47-11.6s-4.84,3.27-4.84,11.74c0,8.29.83,11.84,4.66,11.84S111.65,147,111.65,138.45Z"/><path class="cls-6" d="M121.36,129.94c0-5.21,2.53-8.62,8.1-8.62s7.69,3.14,7.69,8c0,5.25-2.67,8.7-8.05,8.7C123.25,138,121.36,134.36,121.36,129.94Zm24.77-8h6.08l-20.12,33.94H126ZM132,129.52c0-2.81-.69-4.1-2.62-4.1s-2.67,1.43-2.67,4.19c0,3,.69,4.38,2.67,4.38S132,132.65,132,129.52Zm9.76,18.24c0-5.21,2.54-8.61,8.11-8.61s7.69,3.13,7.69,8c0,5.25-2.67,8.7-8.06,8.7C143.6,155.86,141.71,152.18,141.71,147.76Zm10.6-.42c0-2.81-.69-4.1-2.63-4.1s-2.67,1.43-2.67,4.19c0,3,.69,4.38,2.67,4.38S152.31,150.47,152.31,147.34Z"/><path class="cls-6" d="M179.1,155.31V142.83L167.54,122h7.78l7.33,14.27h.23l7-14.27h7.19l-10.87,20.77v12.57Z"/><path class="cls-6" d="M193.65,143.38c0-8.66,5.29-12.57,11.74-12.57,7.28,0,10.32,4.42,10.32,11.1,0,.78-.05,2.3-.14,3.13H201c.14,4,1.8,5.43,4.84,5.43,2.48,0,3.45-1.38,3.91-3.4l5.85,1.42c-.88,4.47-4.47,7.37-10.18,7.37C196.5,155.86,193.65,149.88,193.65,143.38ZM205,135.83c-2,0-3.91,1.29-4,4.79h7.46C208.52,137.17,207.28,135.83,205,135.83Z"/><path class="cls-6" d="M218.1,149.51l5.62-1.94c.55,1.89,1.51,3.69,4.78,3.69,2.35,0,3.64-.79,3.64-2.35,0-1.84-1.89-2.35-4.6-2.86-3.82-.73-8.66-1.61-8.66-7.46,0-5.25,4.6-7.78,10-7.78s8.43,2.39,9.58,6.45l-5.57,1.66c-.55-2.08-1.57-3.5-4.1-3.5-2.3,0-3.27,1-3.27,2.3,0,1.89,1.94,2.25,4.93,2.81,4,.73,8.43,1.65,8.43,7.27,0,5.44-4.66,8.06-10.6,8.06C222.15,155.86,218.88,153.51,218.1,149.51Z"/><path class="cls-6" d="M482.58,131.69l-.33-5.9c4.1-.32,7.42-1.43,9.63-3.82h4.74v33.34h-6.91V130.26A22,22,0,0,1,482.58,131.69Z"/><path class="cls-6" d="M502.61,138.55c0-11,3.17-17.18,12.34-17.18s11.74,6.22,11.74,16.81c0,11.47-3,17.68-12.2,17.68S502.61,149.6,502.61,138.55Zm16.71-.1c0-8.28-.74-11.6-4.47-11.6S510,130.12,510,138.59c0,8.29.83,11.84,4.65,11.84S519.32,147,519.32,138.45Z"/><path class="cls-6" d="M529.54,138.55c0-11,3.18-17.18,12.34-17.18s11.75,6.22,11.75,16.81c0,11.47-3,17.68-12.21,17.68S529.54,149.6,529.54,138.55Zm16.72-.1c0-8.28-.74-11.6-4.47-11.6S537,130.12,537,138.59c0,8.29.82,11.84,4.65,11.84S546.26,147,546.26,138.45Z"/><path class="cls-6" d="M556,129.94c0-5.21,2.53-8.62,8.11-8.62s7.69,3.14,7.69,8c0,5.25-2.68,8.7-8.06,8.7C557.86,138,556,134.36,556,129.94Zm24.78-8h6.07L566.7,155.91h-6.12Zm-14.19,7.55c0-2.81-.69-4.1-2.62-4.1s-2.67,1.43-2.67,4.19c0,3,.69,4.38,2.67,4.38S566.56,132.65,566.56,129.52Zm9.76,18.24c0-5.21,2.54-8.61,8.11-8.61s7.69,3.13,7.69,8c0,5.25-2.67,8.7-8.06,8.7C578.21,155.86,576.32,152.18,576.32,147.76Zm10.6-.42c0-2.81-.69-4.1-2.63-4.1s-2.67,1.43-2.67,4.19c0,3,.69,4.38,2.67,4.38S586.92,150.47,586.92,147.34Z"/><path class="cls-6" d="M613.71,155.31V142.83L602.15,122h7.78l7.33,14.27h.23l7-14.27h7.19l-10.87,20.77v12.57Z"/><path class="cls-6" d="M628.3,143.38c0-8.66,5.3-12.57,11.75-12.57,7.27,0,10.31,4.42,10.31,11.1,0,.78,0,2.3-.14,3.13H635.63c.13,4,1.79,5.43,4.83,5.43,2.49,0,3.46-1.38,3.92-3.4l5.84,1.42c-.87,4.47-4.46,7.37-10.17,7.37C631.16,155.86,628.3,149.88,628.3,143.38Zm11.38-7.55c-2,0-3.92,1.29-4,4.79h7.46C643.18,137.17,641.94,135.83,639.68,135.83Z"/><path class="cls-6" d="M652.75,149.51l5.62-1.94c.55,1.89,1.52,3.69,4.79,3.69,2.35,0,3.64-.79,3.64-2.35,0-1.84-1.89-2.35-4.61-2.86-3.82-.73-8.65-1.61-8.65-7.46,0-5.25,4.6-7.78,10-7.78s8.43,2.39,9.58,6.45l-5.57,1.66c-.56-2.08-1.57-3.5-4.1-3.5-2.31,0-3.27,1-3.27,2.3,0,1.89,1.93,2.25,4.92,2.81,4,.73,8.43,1.65,8.43,7.27,0,5.44-4.65,8.06-10.59,8.06C656.81,155.86,653.54,153.51,652.75,149.51Z"/><path class="cls-5" d="M448.36,320.56a6.06,6.06,0,0,1-1.62,4.55,6.4,6.4,0,0,1-4.65,1.58h-3.33v-12h3.68a5.41,5.41,0,0,1,5.92,5.9Zm-1.48.05a4.89,4.89,0,0,0-1.18-3.55,4.76,4.76,0,0,0-3.51-1.19h-2v9.61h1.7a5.19,5.19,0,0,0,3.76-1.23A4.88,4.88,0,0,0,446.88,320.61Z"/><path class="cls-5" d="M458.61,322.17a5,5,0,0,1-1.11,3.44,3.89,3.89,0,0,1-3.07,1.24,4,4,0,0,1-2.14-.57,3.69,3.69,0,0,1-1.45-1.62,5.71,5.71,0,0,1-.51-2.49,5,5,0,0,1,1.1-3.43,3.91,3.91,0,0,1,3.06-1.23,3.83,3.83,0,0,1,3,1.26A4.94,4.94,0,0,1,458.61,322.17Zm-6.87,0a4.21,4.21,0,0,0,.7,2.63,2.37,2.37,0,0,0,2,.91,2.4,2.4,0,0,0,2-.9,4.22,4.22,0,0,0,.7-2.64,4.12,4.12,0,0,0-.7-2.61,2.41,2.41,0,0,0-2.05-.89,2.39,2.39,0,0,0-2,.88A4.18,4.18,0,0,0,451.74,322.17Z"/><path class="cls-5" d="M464,317.67h1.47l2,5.14a21.78,21.78,0,0,1,.81,2.54h.06c.07-.28.22-.75.45-1.43s1-2.76,2.23-6.25h1.47l-3.88,10.27a5.17,5.17,0,0,1-1.34,2.16,2.89,2.89,0,0,1-1.89.63,5,5,0,0,1-1.23-.14V329.5a4.49,4.49,0,0,0,1,.1,2.08,2.08,0,0,0,2-1.58l.51-1.28Z"/><path class="cls-5" d="M481.65,322.17a5,5,0,0,1-1.11,3.44,3.89,3.89,0,0,1-3.07,1.24,4,4,0,0,1-2.14-.57,3.69,3.69,0,0,1-1.45-1.62,5.71,5.71,0,0,1-.51-2.49,5,5,0,0,1,1.1-3.43,3.91,3.91,0,0,1,3.06-1.23,3.83,3.83,0,0,1,3,1.26A4.94,4.94,0,0,1,481.65,322.17Zm-6.87,0a4.27,4.27,0,0,0,.69,2.63,2.74,2.74,0,0,0,4.07,0,4.28,4.28,0,0,0,.7-2.64,4.19,4.19,0,0,0-.7-2.61,2.42,2.42,0,0,0-2.05-.89,2.39,2.39,0,0,0-2,.88A4.18,4.18,0,0,0,474.78,322.17Z"/><path class="cls-5" d="M485.33,317.67v5.85a2.41,2.41,0,0,0,.5,1.65,2.06,2.06,0,0,0,1.57.54,2.56,2.56,0,0,0,2.07-.78,3.85,3.85,0,0,0,.65-2.52v-4.74h1.37v9h-1.13l-.19-1.21h-.08a2.81,2.81,0,0,1-1.16,1,4,4,0,0,1-1.7.35,3.47,3.47,0,0,1-2.47-.78,3.35,3.35,0,0,1-.81-2.5v-5.9Z"/><path class="cls-5" d="M500,317.67v5.85a2.41,2.41,0,0,0,.5,1.65,2.07,2.07,0,0,0,1.58.54,2.53,2.53,0,0,0,2.06-.78,3.84,3.84,0,0,0,.66-2.52v-4.74h1.36v9h-1.12l-.2-1.21h-.07a2.77,2.77,0,0,1-1.17,1,4,4,0,0,1-1.7.35,3.46,3.46,0,0,1-2.46-.78,3.32,3.32,0,0,1-.82-2.5v-5.9Z"/><path class="cls-5" d="M514.92,324.23a2.28,2.28,0,0,1-.94,1.94,4.47,4.47,0,0,1-2.63.68,5.71,5.71,0,0,1-2.8-.57V325a7,7,0,0,0,1.39.52,6.17,6.17,0,0,0,1.44.18,3.21,3.21,0,0,0,1.64-.34,1.17,1.17,0,0,0,.12-1.94,7,7,0,0,0-1.78-.88,9.86,9.86,0,0,1-1.79-.82,2.58,2.58,0,0,1-.79-.79,2.12,2.12,0,0,1-.26-1.07,2,2,0,0,1,.9-1.74,4.23,4.23,0,0,1,2.46-.63,7.14,7.14,0,0,1,2.85.59l-.49,1.11a6.55,6.55,0,0,0-2.46-.56,2.73,2.73,0,0,0-1.46.31.94.94,0,0,0-.5.83,1,1,0,0,0,.19.62,1.83,1.83,0,0,0,.6.49,14.19,14.19,0,0,0,1.57.66,5.79,5.79,0,0,1,2.17,1.18A2.05,2.05,0,0,1,514.92,324.23Z"/><path class="cls-5" d="M520.94,326.85a4.11,4.11,0,0,1-3.15-1.22,4.7,4.7,0,0,1-1.16-3.38,5.21,5.21,0,0,1,1.08-3.46,3.53,3.53,0,0,1,2.88-1.28,3.41,3.41,0,0,1,2.68,1.11,4.25,4.25,0,0,1,1,2.94v.87h-6.21a3.59,3.59,0,0,0,.8,2.41,2.8,2.8,0,0,0,2.14.82,7.2,7.2,0,0,0,2.88-.61v1.22a6.81,6.81,0,0,1-2.93.58Zm-.37-8.2a2.24,2.24,0,0,0-1.73.71,3.27,3.27,0,0,0-.76,2h4.71a3,3,0,0,0-.57-2A2,2,0,0,0,520.57,318.65Z"/><path class="cls-5" d="M534.23,320.67l3.21-6H539l-4,7.36v4.67h-1.42v-4.6l-4-7.43H531Z"/><path class="cls-5" d="M548.18,322.17a5,5,0,0,1-1.11,3.44,3.91,3.91,0,0,1-3.07,1.24,4.06,4.06,0,0,1-2.15-.57,3.73,3.73,0,0,1-1.44-1.62,5.71,5.71,0,0,1-.51-2.49,4.93,4.93,0,0,1,1.1-3.43,3.88,3.88,0,0,1,3.06-1.23,3.8,3.8,0,0,1,3,1.26A4.89,4.89,0,0,1,548.18,322.17Zm-6.87,0a4.27,4.27,0,0,0,.69,2.63,2.38,2.38,0,0,0,2,.91,2.42,2.42,0,0,0,2-.9,4.29,4.29,0,0,0,.69-2.64,4.19,4.19,0,0,0-.69-2.61,2.44,2.44,0,0,0-2.05-.89,2.41,2.41,0,0,0-2,.88A4.25,4.25,0,0,0,541.31,322.17Z"/><path class="cls-5" d="M551.85,317.67v5.85a2.36,2.36,0,0,0,.51,1.65,2,2,0,0,0,1.57.54,2.56,2.56,0,0,0,2.07-.78,3.91,3.91,0,0,0,.65-2.52v-4.74H558v9h-1.13l-.2-1.21h-.07a2.77,2.77,0,0,1-1.17,1,4,4,0,0,1-1.7.35,3.46,3.46,0,0,1-2.46-.78,3.36,3.36,0,0,1-.82-2.5v-5.9Z"/><path class="cls-5" d="M563.82,325.72a4,4,0,0,0,.7-.05c.23,0,.4-.07.54-.11v1a2.34,2.34,0,0,1-.66.18,4.51,4.51,0,0,1-.78.07c-1.74,0-2.61-.92-2.61-2.75v-5.37h-1.29v-.66l1.29-.56.57-1.93h.8v2.09H565v1.06h-2.61V324a1.82,1.82,0,0,0,.38,1.25A1.34,1.34,0,0,0,563.82,325.72Z"/><path class="cls-5" d="M568.14,317.67v5.85a2.41,2.41,0,0,0,.5,1.65,2.06,2.06,0,0,0,1.57.54,2.54,2.54,0,0,0,2.07-.78,3.84,3.84,0,0,0,.66-2.52v-4.74h1.36v9h-1.13l-.19-1.21h-.08a2.75,2.75,0,0,1-1.16,1,4,4,0,0,1-1.7.35,3.43,3.43,0,0,1-2.46-.78,3.32,3.32,0,0,1-.82-2.5v-5.9Z"/><path class="cls-5" d="M581.39,317.52a3.34,3.34,0,0,1,2.76,1.22,5.29,5.29,0,0,1,1,3.43,5.37,5.37,0,0,1-1,3.45,3.33,3.33,0,0,1-2.75,1.23,4,4,0,0,1-1.61-.32,3.09,3.09,0,0,1-1.22-1h-.1l-.28,1.16h-1v-12.8h1.36V317c0,.69,0,1.32-.06,1.87h.06A3.25,3.25,0,0,1,581.39,317.52Zm-.2,1.15a2.36,2.36,0,0,0-2,.8,4.51,4.51,0,0,0-.62,2.7,4.46,4.46,0,0,0,.64,2.72,2.41,2.41,0,0,0,2,.82,2.1,2.1,0,0,0,1.87-.92,4.72,4.72,0,0,0,.62-2.64,4.54,4.54,0,0,0-.62-2.62A2.2,2.2,0,0,0,581.19,318.67Z"/><path class="cls-5" d="M591.33,326.85a4.13,4.13,0,0,1-3.16-1.22,4.7,4.7,0,0,1-1.15-3.38,5.26,5.26,0,0,1,1.07-3.46,3.56,3.56,0,0,1,2.88-1.28,3.43,3.43,0,0,1,2.69,1.11,4.3,4.3,0,0,1,1,2.94v.87h-6.21a3.59,3.59,0,0,0,.81,2.41,2.79,2.79,0,0,0,2.14.82,7.2,7.2,0,0,0,2.88-.61v1.22a7.2,7.2,0,0,1-1.37.44A7,7,0,0,1,591.33,326.85Zm-.37-8.2a2.22,2.22,0,0,0-1.73.71,3.21,3.21,0,0,0-.76,2h4.71a2.94,2.94,0,0,0-.58-2A2,2,0,0,0,591,318.65Z"/><path class="cls-5" d="M609.13,322.17a5,5,0,0,1-1.11,3.44,3.91,3.91,0,0,1-3.07,1.24,4.06,4.06,0,0,1-2.15-.57,3.75,3.75,0,0,1-1.45-1.62,5.71,5.71,0,0,1-.51-2.49,4.93,4.93,0,0,1,1.11-3.43,3.88,3.88,0,0,1,3.06-1.23,3.8,3.8,0,0,1,3,1.26A4.89,4.89,0,0,1,609.13,322.17Zm-6.87,0a4.27,4.27,0,0,0,.69,2.63,2.38,2.38,0,0,0,2,.91,2.42,2.42,0,0,0,2-.9,4.29,4.29,0,0,0,.69-2.64,4.19,4.19,0,0,0-.69-2.61,2.44,2.44,0,0,0-2.06-.89,2.4,2.4,0,0,0-2,.88A4.25,4.25,0,0,0,602.26,322.17Z"/><path class="cls-5" d="M615.63,317.51a5.09,5.09,0,0,1,1.08.1l-.19,1.26a4.73,4.73,0,0,0-1-.12,2.4,2.4,0,0,0-1.88.89,3.27,3.27,0,0,0-.77,2.21v4.84h-1.37v-9h1.13l.15,1.67h.07a3.93,3.93,0,0,1,1.21-1.36A2.77,2.77,0,0,1,615.63,317.51Z"/><path class="cls-5" d="M630.55,322.17a5,5,0,0,1-1.11,3.44,3.89,3.89,0,0,1-3.06,1.24,4,4,0,0,1-2.15-.57,3.69,3.69,0,0,1-1.45-1.62,5.71,5.71,0,0,1-.51-2.49,5,5,0,0,1,1.1-3.43,3.91,3.91,0,0,1,3.06-1.23,3.82,3.82,0,0,1,3,1.26A4.94,4.94,0,0,1,630.55,322.17Zm-6.86,0a4.27,4.27,0,0,0,.69,2.63,2.37,2.37,0,0,0,2,.91,2.4,2.4,0,0,0,2-.9,4.22,4.22,0,0,0,.7-2.64,4.12,4.12,0,0,0-.7-2.61,2.41,2.41,0,0,0-2.05-.89,2.39,2.39,0,0,0-2,.88A4.18,4.18,0,0,0,623.69,322.17Z"/><path class="cls-5" d="M635.86,325.72a4,4,0,0,0,.7-.05,5.26,5.26,0,0,0,.53-.11v1a2.16,2.16,0,0,1-.65.18,4.59,4.59,0,0,1-.78.07c-1.74,0-2.61-.92-2.61-2.75v-5.37h-1.3v-.66l1.3-.56.57-1.93h.79v2.09H637v1.06h-2.62V324a1.82,1.82,0,0,0,.39,1.25A1.34,1.34,0,0,0,635.86,325.72Z"/><path class="cls-5" d="M645.06,326.69v-5.84a2.32,2.32,0,0,0-.5-1.64,2,2,0,0,0-1.57-.54,2.57,2.57,0,0,0-2.08.77,4,4,0,0,0-.65,2.53v4.72h-1.37v-12.8h1.37v3.87a7.41,7.41,0,0,1-.07,1.16h.09a2.77,2.77,0,0,1,1.14-1,3.76,3.76,0,0,1,1.7-.38,3.5,3.5,0,0,1,2.48.79,3.32,3.32,0,0,1,.83,2.5v5.88Z"/><path class="cls-5" d="M653,326.85a4.11,4.11,0,0,1-3.15-1.22,4.7,4.7,0,0,1-1.16-3.38,5.21,5.21,0,0,1,1.08-3.46,3.53,3.53,0,0,1,2.88-1.28,3.41,3.41,0,0,1,2.68,1.11,4.25,4.25,0,0,1,1,2.94v.87h-6.21a3.54,3.54,0,0,0,.8,2.41,2.8,2.8,0,0,0,2.14.82,7.2,7.2,0,0,0,2.88-.61v1.22a6.81,6.81,0,0,1-2.93.58Zm-.37-8.2a2.24,2.24,0,0,0-1.73.71,3.27,3.27,0,0,0-.76,2h4.71a3,3,0,0,0-.57-2A2,2,0,0,0,652.67,318.65Z"/><path class="cls-5" d="M662.8,317.51a5.09,5.09,0,0,1,1.08.1l-.19,1.26a4.9,4.9,0,0,0-1-.12,2.38,2.38,0,0,0-1.87.89,3.23,3.23,0,0,0-.78,2.21v4.84h-1.37v-9h1.13l.16,1.67H660a4,4,0,0,1,1.21-1.36A2.78,2.78,0,0,1,662.8,317.51Z"/><path class="cls-5" d="M671.91,326.69l-3.42-9H670l1.94,5.35q.66,1.88.78,2.43h.06a18.21,18.21,0,0,1,.57-1.8l2.16-6h1.47l-3.42,9Z"/><path class="cls-5" d="M678.26,315.23a.94.94,0,0,1,.23-.69.83.83,0,0,1,.58-.22.77.77,0,0,1,.56.23.86.86,0,0,1,.24.68.92.92,0,0,1-.24.69.76.76,0,0,1-.56.22.79.79,0,0,1-.58-.22A1,1,0,0,1,678.26,315.23Zm1.48,11.46h-1.36v-9h1.36Z"/><path class="cls-5" d="M688.77,325.48h-.07a3.23,3.23,0,0,1-2.83,1.37,3.33,3.33,0,0,1-2.75-1.21,5.28,5.28,0,0,1-1-3.44,5.4,5.4,0,0,1,1-3.46,3.34,3.34,0,0,1,2.75-1.23,3.27,3.27,0,0,1,2.81,1.33h.11l-.06-.65,0-.63v-3.67h1.36v12.8H689Zm-2.73.23a2.52,2.52,0,0,0,2-.76,3.86,3.86,0,0,0,.63-2.46v-.29a4.47,4.47,0,0,0-.64-2.73,2.39,2.39,0,0,0-2-.82,2.09,2.09,0,0,0-1.84.93,4.62,4.62,0,0,0-.64,2.64,4.49,4.49,0,0,0,.63,2.61A2.18,2.18,0,0,0,686,325.71Z"/><path class="cls-5" d="M696.77,326.85a4.13,4.13,0,0,1-3.16-1.22,4.7,4.7,0,0,1-1.15-3.38,5.26,5.26,0,0,1,1.07-3.46,3.56,3.56,0,0,1,2.88-1.28,3.43,3.43,0,0,1,2.69,1.11,4.3,4.3,0,0,1,1,2.94v.87h-6.21a3.64,3.64,0,0,0,.8,2.41,2.83,2.83,0,0,0,2.15.82,7.2,7.2,0,0,0,2.88-.61v1.22a7.2,7.2,0,0,1-1.37.44A7,7,0,0,1,696.77,326.85Zm-.37-8.2a2.22,2.22,0,0,0-1.73.71,3.21,3.21,0,0,0-.76,2h4.71a2.94,2.94,0,0,0-.58-2A2,2,0,0,0,696.4,318.65Z"/><path class="cls-5" d="M710.19,322.17a5,5,0,0,1-1.11,3.44,3.89,3.89,0,0,1-3.07,1.24,4,4,0,0,1-2.14-.57,3.69,3.69,0,0,1-1.45-1.62,5.71,5.71,0,0,1-.51-2.49,5,5,0,0,1,1.1-3.43,3.91,3.91,0,0,1,3.06-1.23,3.83,3.83,0,0,1,3,1.26A4.94,4.94,0,0,1,710.19,322.17Zm-6.87,0a4.27,4.27,0,0,0,.69,2.63,2.74,2.74,0,0,0,4.07,0,4.28,4.28,0,0,0,.7-2.64,4.19,4.19,0,0,0-.7-2.61,2.42,2.42,0,0,0-2.05-.89,2.39,2.39,0,0,0-2,.88A4.18,4.18,0,0,0,703.32,322.17Z"/><path class="cls-5" d="M442.75,347.06a3.83,3.83,0,0,1-1.61-.32,3,3,0,0,1-1.22-1h-.1a13.48,13.48,0,0,1,.1,1.5V351h-1.37V337.89h1.11l.19,1.23h.07a3.23,3.23,0,0,1,1.22-1.07,3.73,3.73,0,0,1,1.61-.33,3.32,3.32,0,0,1,2.76,1.23,6.5,6.5,0,0,1,0,6.88A3.31,3.31,0,0,1,442.75,347.06Zm-.2-8.18a2.42,2.42,0,0,0-2,.77,3.93,3.93,0,0,0-.63,2.43v.3a4.52,4.52,0,0,0,.63,2.72,2.39,2.39,0,0,0,2,.82,2.11,2.11,0,0,0,1.83-.94,4.52,4.52,0,0,0,.66-2.61,4.33,4.33,0,0,0-.66-2.59A2.17,2.17,0,0,0,442.55,338.88Z"/><path class="cls-5" d="M450.24,346.9h-1.37V334.1h1.37Z"/><path class="cls-5" d="M458.68,346.9l-.27-1.28h-.07a3.86,3.86,0,0,1-1.34,1.14,4.14,4.14,0,0,1-1.68.3,3,3,0,0,1-2.1-.69,2.5,2.5,0,0,1-.76-2c0-1.82,1.46-2.78,4.37-2.86l1.53-.05v-.56a2.27,2.27,0,0,0-.46-1.57,1.86,1.86,0,0,0-1.46-.51,5.85,5.85,0,0,0-2.55.7l-.42-1.05a6.43,6.43,0,0,1,3-.77,3.46,3.46,0,0,1,2.39.71,3,3,0,0,1,.78,2.3v6.15Zm-3.09-1a2.78,2.78,0,0,0,2-.7,2.61,2.61,0,0,0,.72-2v-.81l-1.36,0a5,5,0,0,0-2.35.51,1.52,1.52,0,0,0-.72,1.39,1.4,1.4,0,0,0,.45,1.13A1.85,1.85,0,0,0,455.59,345.94Z"/><path class="cls-5" d="M465.42,345.94a3.85,3.85,0,0,0,.69-.06,3.35,3.35,0,0,0,.54-.11v1.05a2.77,2.77,0,0,1-.65.18,5.77,5.77,0,0,1-.78.06c-1.75,0-2.62-.91-2.62-2.75V339h-1.29v-.66l1.29-.57.58-1.92H464v2.09h2.61V339H464v5.3a1.87,1.87,0,0,0,.38,1.25A1.37,1.37,0,0,0,465.42,345.94Z"/><path class="cls-5" d="M472.51,339h-2.29v7.95h-1.37V339h-1.61v-.62l1.61-.49v-.51q0-3.31,2.91-3.32a6.16,6.16,0,0,1,1.68.29l-.36,1.09a4.48,4.48,0,0,0-1.35-.25,1.32,1.32,0,0,0-1.14.51,2.86,2.86,0,0,0-.37,1.65v.59h2.29Z"/><path class="cls-5" d="M481.94,342.38a5,5,0,0,1-1.11,3.45,3.92,3.92,0,0,1-3.07,1.23,4.08,4.08,0,0,1-2.15-.56,3.76,3.76,0,0,1-1.44-1.63,5.71,5.71,0,0,1-.51-2.49,5,5,0,0,1,1.1-3.43,3.88,3.88,0,0,1,3.06-1.23,3.83,3.83,0,0,1,3,1.26A5,5,0,0,1,481.94,342.38Zm-6.87,0a4.31,4.31,0,0,0,.69,2.64,2.75,2.75,0,0,0,4.07,0,4.28,4.28,0,0,0,.7-2.64,4.23,4.23,0,0,0-.7-2.61,2.45,2.45,0,0,0-2.05-.89,2.41,2.41,0,0,0-2,.88A4.27,4.27,0,0,0,475.07,342.38Z"/><path class="cls-5" d="M488.45,337.72a4.93,4.93,0,0,1,1.07.1l-.19,1.27a4.2,4.2,0,0,0-1-.13,2.4,2.4,0,0,0-1.87.89,3.23,3.23,0,0,0-.78,2.21v4.84h-1.37v-9h1.13l.16,1.67h.06a4,4,0,0,1,1.21-1.36A2.71,2.71,0,0,1,488.45,337.72Z"/><path class="cls-5" d="M502.7,346.9V341a2.43,2.43,0,0,0-.46-1.62,1.78,1.78,0,0,0-1.43-.54,2.32,2.32,0,0,0-1.89.73,3.53,3.53,0,0,0-.6,2.26v5H497V341a2.43,2.43,0,0,0-.46-1.62,1.8,1.8,0,0,0-1.44-.54,2.25,2.25,0,0,0-1.88.77,4.14,4.14,0,0,0-.59,2.52v4.73h-1.37v-9h1.11l.22,1.23h.07a2.71,2.71,0,0,1,1.09-1,3.28,3.28,0,0,1,1.57-.37,2.69,2.69,0,0,1,2.77,1.53h.06a2.94,2.94,0,0,1,1.17-1.12,3.66,3.66,0,0,1,1.74-.41,3,3,0,0,1,2.29.79,3.49,3.49,0,0,1,.77,2.51v5.88Z"/><path class="cls-5" d="M512.69,344.44a2.26,2.26,0,0,1-.93,1.94,4.41,4.41,0,0,1-2.64.68,5.7,5.7,0,0,1-2.79-.56v-1.27a6.76,6.76,0,0,0,1.39.52,5.71,5.71,0,0,0,1.44.19,3.31,3.31,0,0,0,1.64-.34,1.17,1.17,0,0,0,.12-1.94,7.09,7.09,0,0,0-1.78-.89,9.21,9.21,0,0,1-1.79-.82,2.38,2.38,0,0,1-.79-.79,2.11,2.11,0,0,1-.26-1.06,2,2,0,0,1,.9-1.74,4.15,4.15,0,0,1,2.46-.64,7.23,7.23,0,0,1,2.84.59l-.48,1.11a6.64,6.64,0,0,0-2.46-.56,2.81,2.81,0,0,0-1.46.31.94.94,0,0,0-.5.84,1,1,0,0,0,.19.61,1.77,1.77,0,0,0,.59.49,14.07,14.07,0,0,0,1.58.67,6,6,0,0,1,2.17,1.17A2.06,2.06,0,0,1,512.69,344.44Z"/><path class="cls-5" d="M522.2,345.94a4,4,0,0,0,.7-.06,3.6,3.6,0,0,0,.54-.11v1.05a2.73,2.73,0,0,1-.66.18,5.65,5.65,0,0,1-.78.06c-1.74,0-2.61-.91-2.61-2.75V339H518.1v-.66l1.29-.57.57-1.92h.79v2.09h2.62V339h-2.62v5.3a1.82,1.82,0,0,0,.39,1.25A1.35,1.35,0,0,0,522.2,345.94Z"/><path class="cls-5" d="M533,342.38a5,5,0,0,1-1.11,3.45,3.92,3.92,0,0,1-3.07,1.23,4.06,4.06,0,0,1-2.15-.56,3.76,3.76,0,0,1-1.44-1.63,5.71,5.71,0,0,1-.51-2.49,5,5,0,0,1,1.1-3.43,3.88,3.88,0,0,1,3.06-1.23,3.8,3.8,0,0,1,3,1.26A4.91,4.91,0,0,1,533,342.38Zm-6.87,0a4.31,4.31,0,0,0,.69,2.64,2.75,2.75,0,0,0,4.07,0,4.29,4.29,0,0,0,.69-2.64,4.23,4.23,0,0,0-.69-2.61,2.45,2.45,0,0,0-2-.89,2.41,2.41,0,0,0-2,.88A4.27,4.27,0,0,0,526.15,342.38Z"/><path class="cls-5" d="M545.6,344.44a2.26,2.26,0,0,1-.93,1.94,4.41,4.41,0,0,1-2.64.68,5.7,5.7,0,0,1-2.79-.56v-1.27a6.76,6.76,0,0,0,1.39.52,5.71,5.71,0,0,0,1.44.19,3.31,3.31,0,0,0,1.64-.34,1.17,1.17,0,0,0,.12-1.94,7.09,7.09,0,0,0-1.78-.89,9.21,9.21,0,0,1-1.79-.82,2.38,2.38,0,0,1-.79-.79,2.11,2.11,0,0,1-.26-1.06,2,2,0,0,1,.9-1.74,4.15,4.15,0,0,1,2.46-.64,7.31,7.31,0,0,1,2.85.59l-.49,1.11a6.59,6.59,0,0,0-2.46-.56,2.81,2.81,0,0,0-1.46.31.94.94,0,0,0-.5.84,1,1,0,0,0,.19.61,1.77,1.77,0,0,0,.59.49,14.07,14.07,0,0,0,1.58.67A6,6,0,0,1,545,343,2.06,2.06,0,0,1,545.6,344.44Z"/><path class="cls-5" d="M549.11,337.89v5.84a2.38,2.38,0,0,0,.5,1.65,2,2,0,0,0,1.57.54,2.59,2.59,0,0,0,2.07-.77,3.9,3.9,0,0,0,.65-2.53v-4.73h1.37v9h-1.13l-.2-1.21h-.07a2.67,2.67,0,0,1-1.16,1,3.89,3.89,0,0,1-1.7.35,3.47,3.47,0,0,1-2.47-.78,3.34,3.34,0,0,1-.81-2.5v-5.89Z"/><path class="cls-5" d="M562.36,347.06a3.86,3.86,0,0,1-1.61-.32,3,3,0,0,1-1.22-1h-.1a11.44,11.44,0,0,1,.1,1.5V351h-1.37V337.89h1.11l.19,1.23h.07a3.23,3.23,0,0,1,1.22-1.07,3.73,3.73,0,0,1,1.61-.33,3.34,3.34,0,0,1,2.77,1.23,6.53,6.53,0,0,1,0,6.88A3.31,3.31,0,0,1,562.36,347.06Zm-.2-8.18a2.42,2.42,0,0,0-2,.77,3.93,3.93,0,0,0-.63,2.43v.3a4.52,4.52,0,0,0,.63,2.72,2.39,2.39,0,0,0,2,.82A2.11,2.11,0,0,0,564,345a4.44,4.44,0,0,0,.67-2.61,4.25,4.25,0,0,0-.67-2.59A2.17,2.17,0,0,0,562.16,338.88Z"/><path class="cls-5" d="M572.68,347.06a3.86,3.86,0,0,1-1.61-.32,3.09,3.09,0,0,1-1.22-1h-.1a11.44,11.44,0,0,1,.1,1.5V351h-1.36V337.89h1.11l.19,1.23h.06a3.18,3.18,0,0,1,1.23-1.07,3.69,3.69,0,0,1,1.6-.33,3.33,3.33,0,0,1,2.77,1.23,6.53,6.53,0,0,1,0,6.88A3.31,3.31,0,0,1,572.68,347.06Zm-.2-8.18a2.44,2.44,0,0,0-2,.77,3.93,3.93,0,0,0-.63,2.43v.3a4.52,4.52,0,0,0,.63,2.72,2.41,2.41,0,0,0,2,.82,2.12,2.12,0,0,0,1.83-.94,4.52,4.52,0,0,0,.66-2.61,4.33,4.33,0,0,0-.66-2.59A2.19,2.19,0,0,0,572.48,338.88Z"/><path class="cls-5" d="M580.17,346.9h-1.36V334.1h1.36Z"/><path class="cls-5" d="M586.88,347.06a4.16,4.16,0,0,1-3.16-1.21,4.71,4.71,0,0,1-1.15-3.38,5.27,5.27,0,0,1,1.07-3.47,3.59,3.59,0,0,1,2.88-1.28,3.4,3.4,0,0,1,2.69,1.12,4.3,4.3,0,0,1,1,2.94v.86H584a3.57,3.57,0,0,0,.81,2.41,2.75,2.75,0,0,0,2.14.82,7.2,7.2,0,0,0,2.88-.61v1.22a7.27,7.27,0,0,1-1.37.45A7.77,7.77,0,0,1,586.88,347.06Zm-.37-8.2a2.22,2.22,0,0,0-1.73.71,3.23,3.23,0,0,0-.76,2h4.71a3,3,0,0,0-.58-2A2,2,0,0,0,586.51,338.86Z"/><path class="cls-5" d="M604,346.9V341a2.43,2.43,0,0,0-.46-1.62,1.78,1.78,0,0,0-1.43-.54,2.29,2.29,0,0,0-1.88.73,3.47,3.47,0,0,0-.61,2.26v5h-1.37V341a2.43,2.43,0,0,0-.46-1.62,1.8,1.8,0,0,0-1.44-.54,2.25,2.25,0,0,0-1.88.77,4.14,4.14,0,0,0-.59,2.52v4.73h-1.37v-9h1.11l.22,1.23h.07a2.71,2.71,0,0,1,1.09-1,3.28,3.28,0,0,1,1.57-.37,2.68,2.68,0,0,1,2.77,1.53h.06a2.94,2.94,0,0,1,1.17-1.12,3.68,3.68,0,0,1,1.75-.41,3,3,0,0,1,2.29.79,3.54,3.54,0,0,1,.76,2.51v5.88Z"/><path class="cls-5" d="M612,347.06a4.16,4.16,0,0,1-3.16-1.21,4.71,4.71,0,0,1-1.15-3.38,5.27,5.27,0,0,1,1.07-3.47,3.59,3.59,0,0,1,2.88-1.28,3.4,3.4,0,0,1,2.69,1.12,4.3,4.3,0,0,1,1,2.94v.86H609.1a3.57,3.57,0,0,0,.81,2.41,2.75,2.75,0,0,0,2.14.82,7.2,7.2,0,0,0,2.88-.61v1.22a7.27,7.27,0,0,1-1.37.45A7.77,7.77,0,0,1,612,347.06Zm-.37-8.2a2.22,2.22,0,0,0-1.73.71,3.23,3.23,0,0,0-.76,2h4.71a3,3,0,0,0-.58-2A2,2,0,0,0,611.63,338.86Z"/><path class="cls-5" d="M623.81,346.9v-5.83a2.39,2.39,0,0,0-.5-1.65,2.06,2.06,0,0,0-1.57-.54,2.6,2.6,0,0,0-2.08.77,3.91,3.91,0,0,0-.65,2.52v4.73h-1.37v-9h1.11l.22,1.23H619a2.7,2.7,0,0,1,1.18-1,3.7,3.7,0,0,1,1.68-.37,3.39,3.39,0,0,1,2.45.79,3.33,3.33,0,0,1,.83,2.51v5.88Z"/><path class="cls-5" d="M630.89,345.94a4,4,0,0,0,.7-.06,3.19,3.19,0,0,0,.53-.11v1.05a2.51,2.51,0,0,1-.65.18,5.77,5.77,0,0,1-.78.06c-1.74,0-2.61-.91-2.61-2.75V339h-1.29v-.66l1.29-.57.57-1.92h.79v2.09h2.62V339h-2.62v5.3a1.82,1.82,0,0,0,.39,1.25A1.35,1.35,0,0,0,630.89,345.94Z"/><path class="cls-5" d="M636.87,337.89h1.46l2,5.14a21.19,21.19,0,0,1,.81,2.54h.06q.11-.42.45-1.44c.23-.67,1-2.76,2.23-6.24h1.47l-3.88,10.26a5.11,5.11,0,0,1-1.34,2.16,2.9,2.9,0,0,1-1.89.64,5.59,5.59,0,0,1-1.23-.14v-1.1a4.43,4.43,0,0,0,1,.1,2.07,2.07,0,0,0,2-1.58l.51-1.28Z"/><path class="cls-5" d="M654.57,342.38a5,5,0,0,1-1.11,3.45,3.92,3.92,0,0,1-3.07,1.23,4,4,0,0,1-2.14-.56,3.72,3.72,0,0,1-1.45-1.63,5.71,5.71,0,0,1-.51-2.49,5,5,0,0,1,1.1-3.43,3.91,3.91,0,0,1,3.06-1.23,3.83,3.83,0,0,1,3,1.26A5,5,0,0,1,654.57,342.38Zm-6.87,0a4.24,4.24,0,0,0,.7,2.64,2.74,2.74,0,0,0,4.06,0,4.22,4.22,0,0,0,.7-2.64,4.16,4.16,0,0,0-.7-2.61,2.44,2.44,0,0,0-2.05-.89,2.39,2.39,0,0,0-2,.88A4.2,4.2,0,0,0,647.7,342.38Z"/><path class="cls-5" d="M658.25,337.89v5.84a2.38,2.38,0,0,0,.5,1.65,2.06,2.06,0,0,0,1.57.54,2.57,2.57,0,0,0,2.07-.77,3.9,3.9,0,0,0,.65-2.53v-4.73h1.37v9h-1.13l-.19-1.21H663a2.67,2.67,0,0,1-1.16,1,3.86,3.86,0,0,1-1.7.35,3.43,3.43,0,0,1-2.46-.78,3.3,3.3,0,0,1-.82-2.5v-5.89Z"/><path class="cls-5" d="M671.42,337.72a5.09,5.09,0,0,1,1.08.1l-.19,1.27a4.34,4.34,0,0,0-1-.13,2.41,2.41,0,0,0-1.87.89,3.23,3.23,0,0,0-.78,2.21v4.84H667.3v-9h1.13l.16,1.67h.06a4,4,0,0,1,1.21-1.36A2.71,2.71,0,0,1,671.42,337.72Z"/><path class="cls-5" d="M442.15,367.28a3.87,3.87,0,0,1-3-1.2,5,5,0,0,1-1.07-3.41,5.1,5.1,0,0,1,1.09-3.5,3.93,3.93,0,0,1,3.1-1.23,5.69,5.69,0,0,1,1.3.14,4.25,4.25,0,0,1,1,.32l-.42,1.16a6.63,6.63,0,0,0-1-.3,4.4,4.4,0,0,0-1-.12q-2.74,0-2.75,3.51a4.21,4.21,0,0,0,.67,2.55,2.35,2.35,0,0,0,2,.89,6,6,0,0,0,2.31-.49v1.21A4.94,4.94,0,0,1,442.15,367.28Z"/><path class="cls-5" d="M454.35,362.6a5,5,0,0,1-1.11,3.44,3.89,3.89,0,0,1-3.07,1.24,4,4,0,0,1-2.14-.57,3.72,3.72,0,0,1-1.45-1.63,5.63,5.63,0,0,1-.51-2.48,5,5,0,0,1,1.1-3.43,3.91,3.91,0,0,1,3.06-1.23,3.86,3.86,0,0,1,3,1.25A5,5,0,0,1,454.35,362.6Zm-6.87,0a4.27,4.27,0,0,0,.69,2.63,2.74,2.74,0,0,0,4.07,0,4.22,4.22,0,0,0,.7-2.64,4.12,4.12,0,0,0-.7-2.61,2.42,2.42,0,0,0-2.05-.89,2.39,2.39,0,0,0-2,.88A4.18,4.18,0,0,0,447.48,362.6Z"/><path class="cls-5" d="M458,358.1V364a2.37,2.37,0,0,0,.5,1.64,2,2,0,0,0,1.57.55,2.56,2.56,0,0,0,2.07-.78,3.85,3.85,0,0,0,.65-2.52V358.1h1.37v9h-1.13l-.19-1.21h-.08a2.81,2.81,0,0,1-1.16,1,4,4,0,0,1-1.7.35,3.47,3.47,0,0,1-2.47-.78,3.35,3.35,0,0,1-.81-2.5v-5.9Z"/><path class="cls-5" d="M471.2,357.94a5.7,5.7,0,0,1,1.07.09l-.19,1.27a4.73,4.73,0,0,0-1-.12,2.38,2.38,0,0,0-1.87.89,3.23,3.23,0,0,0-.78,2.21v4.84h-1.37v-9h1.13l.16,1.67h.06a4,4,0,0,1,1.21-1.36A2.7,2.7,0,0,1,471.2,357.94Z"/><path class="cls-5" d="M479.78,364.66a2.28,2.28,0,0,1-.94,1.94,4.45,4.45,0,0,1-2.63.68,5.71,5.71,0,0,1-2.8-.57v-1.26a6.4,6.4,0,0,0,1.39.51,5.71,5.71,0,0,0,1.44.19,3.21,3.21,0,0,0,1.64-.34,1.17,1.17,0,0,0,.12-1.94,7,7,0,0,0-1.78-.88,10.61,10.61,0,0,1-1.79-.82,2.61,2.61,0,0,1-.79-.8,2.08,2.08,0,0,1-.25-1.06,2,2,0,0,1,.89-1.74,4.23,4.23,0,0,1,2.46-.63,7.14,7.14,0,0,1,2.85.59l-.49,1.11a6.55,6.55,0,0,0-2.46-.56,2.87,2.87,0,0,0-1.46.3,1,1,0,0,0-.49.84,1.05,1.05,0,0,0,.18.62,1.7,1.7,0,0,0,.6.48,11.74,11.74,0,0,0,1.58.67,5.73,5.73,0,0,1,2.16,1.18A2.05,2.05,0,0,1,479.78,364.66Z"/><path class="cls-5" d="M485.81,367.28a4.15,4.15,0,0,1-3.16-1.22,4.71,4.71,0,0,1-1.15-3.38,5.19,5.19,0,0,1,1.07-3.46,3.56,3.56,0,0,1,2.88-1.28,3.39,3.39,0,0,1,2.68,1.11,4.25,4.25,0,0,1,1,2.94v.86h-6.21a3.6,3.6,0,0,0,.8,2.41,2.78,2.78,0,0,0,2.15.83,7.29,7.29,0,0,0,2.87-.61v1.22a6.8,6.8,0,0,1-2.92.58Zm-.37-8.2a2.25,2.25,0,0,0-1.74.71,3.26,3.26,0,0,0-.76,1.95h4.72a3,3,0,0,0-.58-2A2,2,0,0,0,485.44,359.08Z"/><path class="cls-5" d="M495.71,355.66a.92.92,0,0,1,.23-.69.81.81,0,0,1,.57-.22.85.85,0,0,1,.57.22.9.9,0,0,1,.24.69.89.89,0,0,1-.24.68.77.77,0,0,1-.57.23.74.74,0,0,1-.57-.23A.93.93,0,0,1,495.71,355.66Zm1.48,11.46h-1.37v-9h1.37Z"/><path class="cls-5" d="M506.25,367.12v-5.84a2.32,2.32,0,0,0-.5-1.64,2,2,0,0,0-1.57-.54,2.59,2.59,0,0,0-2.07.76,3.86,3.86,0,0,0-.66,2.53v4.73h-1.37v-9h1.11l.23,1.23h.06a2.83,2.83,0,0,1,1.18-1,3.86,3.86,0,0,1,1.68-.36,3.46,3.46,0,0,1,2.46.78,3.38,3.38,0,0,1,.82,2.51v5.89Z"/><path class="cls-5" d="M516.24,364.66a2.25,2.25,0,0,1-.94,1.94,4.43,4.43,0,0,1-2.63.68,5.71,5.71,0,0,1-2.8-.57v-1.26a6.48,6.48,0,0,0,1.4.51,5.57,5.57,0,0,0,1.43.19,3.25,3.25,0,0,0,1.65-.34,1.18,1.18,0,0,0,.12-1.94,7.35,7.35,0,0,0-1.78-.88,10.24,10.24,0,0,1-1.79-.82,2.4,2.4,0,0,1-.79-.8,2,2,0,0,1-.26-1.06,2,2,0,0,1,.9-1.74,4.17,4.17,0,0,1,2.45-.63,7.14,7.14,0,0,1,2.85.59l-.48,1.11a6.64,6.64,0,0,0-2.46-.56,2.88,2.88,0,0,0-1.47.3,1,1,0,0,0-.49.84,1.05,1.05,0,0,0,.18.62,1.91,1.91,0,0,0,.6.48,11.74,11.74,0,0,0,1.58.67,5.88,5.88,0,0,1,2.17,1.18A2.09,2.09,0,0,1,516.24,364.66Z"/><path class="cls-5" d="M521.37,366.15a5.24,5.24,0,0,0,.7,0c.23,0,.4-.07.54-.11v1a2.73,2.73,0,0,1-.66.18,4.51,4.51,0,0,1-.78.07q-2.61,0-2.61-2.76v-5.36h-1.29v-.66l1.29-.56.57-1.93h.79v2.09h2.62v1.06h-2.62v5.31a1.82,1.82,0,0,0,.39,1.25A1.34,1.34,0,0,0,521.37,366.15Z"/><path class="cls-5" d="M528.52,357.94a5.89,5.89,0,0,1,1.08.09l-.19,1.27a4.82,4.82,0,0,0-1-.12,2.38,2.38,0,0,0-1.87.89,3.23,3.23,0,0,0-.78,2.21v4.84h-1.36v-9h1.12l.16,1.67h.07a3.91,3.91,0,0,1,1.2-1.36A2.72,2.72,0,0,1,528.52,357.94Z"/><path class="cls-5" d="M532.57,358.1V364a2.32,2.32,0,0,0,.5,1.64,2,2,0,0,0,1.57.55,2.56,2.56,0,0,0,2.07-.78,3.91,3.91,0,0,0,.65-2.52V358.1h1.37v9H537.6l-.2-1.21h-.07a2.81,2.81,0,0,1-1.16,1,4,4,0,0,1-1.7.35,3.47,3.47,0,0,1-2.47-.78,3.36,3.36,0,0,1-.82-2.5v-5.9Z"/><path class="cls-5" d="M545.23,367.28a3.87,3.87,0,0,1-3-1.2,5,5,0,0,1-1.07-3.41,5.1,5.1,0,0,1,1.09-3.5,3.94,3.94,0,0,1,3.11-1.23,5.81,5.81,0,0,1,1.3.14,4.3,4.3,0,0,1,1,.32l-.41,1.16a7.16,7.16,0,0,0-1-.3,4.4,4.4,0,0,0-1-.12q-2.74,0-2.74,3.51a4.14,4.14,0,0,0,.67,2.55,2.32,2.32,0,0,0,2,.89,6,6,0,0,0,2.31-.49v1.21A4.93,4.93,0,0,1,545.23,367.28Z"/><path class="cls-5" d="M552.55,366.15a5.24,5.24,0,0,0,.7,0,5,5,0,0,0,.54-.11v1a2.73,2.73,0,0,1-.66.18,4.4,4.4,0,0,1-.77.07c-1.75,0-2.62-.92-2.62-2.76v-5.36h-1.29v-.66l1.29-.56.58-1.93h.79v2.09h2.61v1.06h-2.61v5.31a1.87,1.87,0,0,0,.38,1.25A1.34,1.34,0,0,0,552.55,366.15Z"/><path class="cls-5" d="M555.47,355.66a.92.92,0,0,1,.23-.69.86.86,0,0,1,1.15,0,.9.9,0,0,1,.24.69.89.89,0,0,1-.24.68.83.83,0,0,1-1.15,0A.93.93,0,0,1,555.47,355.66ZM557,367.12h-1.37v-9H557Z"/><path class="cls-5" d="M567.63,362.6a5,5,0,0,1-1.11,3.44,3.89,3.89,0,0,1-3.07,1.24,4,4,0,0,1-2.14-.57,3.72,3.72,0,0,1-1.45-1.63,5.63,5.63,0,0,1-.51-2.48,5,5,0,0,1,1.1-3.43,3.91,3.91,0,0,1,3.06-1.23,3.86,3.86,0,0,1,3,1.25A5,5,0,0,1,567.63,362.6Zm-6.87,0a4.27,4.27,0,0,0,.69,2.63,2.74,2.74,0,0,0,4.07,0,4.28,4.28,0,0,0,.7-2.64,4.19,4.19,0,0,0-.7-2.61,2.42,2.42,0,0,0-2-.89,2.39,2.39,0,0,0-2,.88A4.18,4.18,0,0,0,560.76,362.6Z"/><path class="cls-5" d="M576.19,367.12v-5.84a2.32,2.32,0,0,0-.5-1.64,2,2,0,0,0-1.57-.54,2.59,2.59,0,0,0-2.07.76,3.86,3.86,0,0,0-.66,2.53v4.73H570v-9h1.11l.23,1.23h.06a2.83,2.83,0,0,1,1.18-1,3.86,3.86,0,0,1,1.68-.36,3.46,3.46,0,0,1,2.46.78,3.38,3.38,0,0,1,.82,2.51v5.89Z"/><path class="cls-5" d="M581.29,363.8v-.44a3.67,3.67,0,0,1,.3-1.59,4.26,4.26,0,0,1,1.1-1.31A7.1,7.1,0,0,0,584.1,359a2.11,2.11,0,0,0,.29-1.15,1.64,1.64,0,0,0-.53-1.3,2.38,2.38,0,0,0-1.56-.46,5.31,5.31,0,0,0-1.26.16,6.89,6.89,0,0,0-1.42.55l-.48-1.11a6.92,6.92,0,0,1,3.25-.81,3.54,3.54,0,0,1,2.44.77,2.77,2.77,0,0,1,.87,2.18,2.94,2.94,0,0,1-.63,1.92,11.49,11.49,0,0,1-1.35,1.31,5.24,5.24,0,0,0-1.1,1.18,2.49,2.49,0,0,0-.27,1.25v.27Zm-.4,2.44c0-.74.33-1.12,1-1.12a.93.93,0,0,1,.73.29,1.17,1.17,0,0,1,.26.83,1.2,1.2,0,0,1-.26.82.92.92,0,0,1-.73.29,1,1,0,0,1-.71-.26A1.09,1.09,0,0,1,580.89,366.24Z"/></svg>