<svg id="Layer_1" data-name="Layer 1" xmlns="http://www.w3.org/2000/svg" viewBox="0 0 632.13 165.75"><defs><style>.cls-1{fill:#231f20;}</style></defs><path d="M347.2,165.75,376.78,110a42.6,42.6,0,0,1-1.08-10V62.67h7.1v36L435.16,0,346.53,70.25c6.64,5.62,10.14,14.09,10.14,24.47,0,19.32-12.12,32.05-34.12,32.05H303.83V104.08L226,165.75Z"/><path class="cls-1" d="M21.49,126.73H0V62.64H20.41c12.82,0,21.4,5.71,21.4,16.66a14.87,14.87,0,0,1-9.37,14c7.49,2.27,12.32,7.89,12.32,15.38C44.76,119.33,35.79,126.73,21.49,126.73ZM20.41,68.65H7.1V90.84H21.2c9.37,0,13.31-6.51,13.31-11.44C34.51,72.1,28.79,68.65,20.41,68.65Zm1.08,28.2H7.1v23.86H21.49c9.57,0,15.88-4.63,15.88-12C37.37,101.58,31.16,96.85,21.49,96.85Z"/><path class="cls-1" d="M112.5,100c0,20.7-11.43,27.7-24.75,27.7S63,120.71,63,100V62.64H70.1V100c0,17.25,9.37,21.59,17.65,21.59S105.4,117.26,105.4,100V62.64h7.1Z"/><path class="cls-1" d="M170,99.12l10.15,27.61h-7.69l-9.56-26.53H142.68v26.53h-7.1V62.64H162c13.8,0,22.28,6.7,22.28,18.83C184.28,91.13,178.76,97.05,170,99.12Zm-8-30.47H142.68V94.19H162c9,0,14.89-4.14,14.89-12.72S171,68.65,162,68.65Z"/><path class="cls-1" d="M228.46,127.71c-14.2,0-28.79-9.56-28.79-33s14.59-33,28.79-33,28.89,9.56,28.89,33S242.66,127.71,228.46,127.71Zm0-59.95c-10.16,0-21.4,7.5-21.4,26.92s11.24,26.92,21.4,26.92,21.39-7.49,21.39-26.92S238.71,67.76,228.46,67.76Z"/><path class="cls-1" d="M311,98.5V68.55h11.74c8.06,0,14.19,2.21,18.53,6l5.44-4.31c-5.73-4.84-13.79-7.56-24-7.56H304V104Z"/><path class="cls-1" d="M425.36,100V62.64h-7.1V100c0,17.26-9.36,21.6-17.65,21.6S383,117.26,383,100V98.63l-6,11.34h0c3.14,13,12.78,17.73,23.67,17.73C413.93,127.71,425.36,120.71,425.36,100Z"/><path class="cls-1" d="M493.1,126.73,455.44,74v52.75h-7V62.64h7.2l37.57,52.65V62.64h7.1v64.09Z"/><path class="cls-1" d="M545.46,127.71c-12,0-21.2-5.13-24.26-13.9h7.89c2.37,4.63,7.2,7.89,16.47,7.89s16.36-5.52,16.36-15.09c0-6.31-4-9.86-12.52-10.06l-9-.19c-13.21-.2-19.13-4.34-19.13-14.89,0-12,10.16-19.82,23.17-19.82,11.44,0,20.41,5.13,23.47,13.9h-7.79c-2.37-4.53-7.2-7.89-15.68-7.89-9.07,0-15.77,5.23-15.77,13.32,0,7.29,4.83,8.67,12.81,8.77l9,.2c12.91.29,18.83,6.41,18.83,16.07C569.32,119.73,559.06,127.71,545.46,127.71Z"/><path class="cls-1" d="M611.22,68.55v58.18h-7V68.55h-21V62.64h48.91v5.91Z"/><path d="M311,120.81V98.5l30.27-24c5.48,4.74,8.09,11.92,8.09,20.17,0,14.79-8.38,26.13-26.62,26.13Z"/></svg>