<svg id="Layer_1" data-name="Layer 1" xmlns="http://www.w3.org/2000/svg" viewBox="0 0 97.32 12.73"><defs><style>.cls-1{fill:#709cdb;}</style></defs><path class="cls-1" d="M1.28,2.54h7V4.12h-5V7.61H7.12V9.19H3.21v5.17H1.28Z" transform="translate(-1.28 -1.78)"/><path class="cls-1" d="M12,14.36H10V5H12V6.35a3.05,3.05,0,0,1,2.8-1.51v2h-.49c-1.43,0-2.31.6-2.31,2.59Z" transform="translate(-1.28 -1.78)"/><path class="cls-1" d="M20.62,14.51a4.57,4.57,0,0,1-4.69-4.85,4.62,4.62,0,0,1,4.78-4.82,4.61,4.61,0,0,1,4.77,4.82A4.69,4.69,0,0,1,20.62,14.51Zm0-1.68a2.88,2.88,0,0,0,2.87-3.17,2.83,2.83,0,0,0-2.82-3.14c-1.46,0-2.77,1-2.77,3.14S19.16,12.83,20.62,12.83Z" transform="translate(-1.28 -1.78)"/><path class="cls-1" d="M40.68,9.12c0-1.72-.94-2.6-2.35-2.6S36,7.4,36,9.12v5.24H34.05V9.12c0-1.72-.93-2.6-2.35-2.6s-2.36.88-2.36,2.6v5.24H27.4V5h1.94V6.06a3.58,3.58,0,0,1,2.77-1.22,3.63,3.63,0,0,1,3.37,1.85A3.84,3.84,0,0,1,42.6,8.83v5.53H40.68Z" transform="translate(-1.28 -1.78)"/><path class="cls-1" d="M54.21,14.36H49.49V2.54H54c2.5,0,3.83,1.38,3.83,3a2.77,2.77,0,0,1-2,2.71,2.94,2.94,0,0,1,2.28,2.89C58.09,13,56.63,14.36,54.21,14.36ZM53.82,4.12h-2.4V7.51h2.4c1.26,0,2-.6,2-1.69S55.08,4.12,53.82,4.12Zm.15,5H51.42v3.68H54c1.31,0,2.11-.66,2.11-1.8S55.27,9.09,54,9.09Z" transform="translate(-1.28 -1.78)"/><path class="cls-1" d="M64.22,14.51a4.55,4.55,0,0,1-4.67-4.85,4.48,4.48,0,0,1,4.67-4.82,4.37,4.37,0,0,1,4.56,4.6,6.2,6.2,0,0,1-.07,1H61.56a2.57,2.57,0,0,0,2.66,2.48,2.26,2.26,0,0,0,2.21-1.31h2.1A4.29,4.29,0,0,1,64.22,14.51ZM61.57,8.83h5.19a2.44,2.44,0,0,0-2.62-2.36A2.55,2.55,0,0,0,61.57,8.83Z" transform="translate(-1.28 -1.78)"/><path class="cls-1" d="M70.68,1.78h1.94V14.36H70.68Z" transform="translate(-1.28 -1.78)"/><path class="cls-1" d="M79.24,14.51a4.58,4.58,0,0,1-4.7-4.85,4.78,4.78,0,1,1,9.56,0A4.7,4.7,0,0,1,79.24,14.51Zm0-1.68a2.89,2.89,0,0,0,2.87-3.17,2.83,2.83,0,0,0-2.82-3.14c-1.47,0-2.77,1-2.77,3.14S77.77,12.83,79.24,12.83Z" transform="translate(-1.28 -1.78)"/><path class="cls-1" d="M84.91,5h2l2,7.53,2-7.53h2l1.91,7.5L96.69,5H98.6l-2.91,9.37h-2L91.76,7.44l-1.88,6.92h-2Z" transform="translate(-1.28 -1.78)"/></svg>