<svg id="Layer_1" data-name="Layer 1" xmlns="http://www.w3.org/2000/svg" viewBox="0 0 86.49 16.44"><defs><style>.cls-1{fill:#709cdb;}</style></defs><path class="cls-1" d="M1.27,2.54h2.1l4.14,9.27,4.13-9.27h2.08V14.35H11.78V6.26l-3.6,8.09H6.83L3.21,6.26v8.09H1.27Z" transform="translate(-1.27 -2.54)"/><path class="cls-1" d="M20.3,14.51a4.55,4.55,0,0,1-4.68-4.85A4.48,4.48,0,0,1,20.3,4.84a4.36,4.36,0,0,1,4.55,4.6,5,5,0,0,1-.07,1H17.63a2.58,2.58,0,0,0,2.67,2.49,2.27,2.27,0,0,0,2.21-1.31H24.6A4.29,4.29,0,0,1,20.3,14.51ZM17.65,8.83h5.18a2.43,2.43,0,0,0-2.62-2.36A2.54,2.54,0,0,0,17.65,8.83Z" transform="translate(-1.27 -2.54)"/><path class="cls-1" d="M30.53,4.84a4,4,0,0,1,3.25,1.51V5h1.95v9.52A4.25,4.25,0,0,1,31.16,19c-2.5,0-4.35-1.24-4.59-3.32h1.92a2.62,2.62,0,0,0,2.67,1.64,2.5,2.5,0,0,0,2.62-2.79V12.94a4,4,0,0,1-3.25,1.57c-2.46,0-4.42-2-4.42-4.88A4.46,4.46,0,0,1,30.53,4.84Zm.41,1.68A2.87,2.87,0,0,0,28.1,9.63a3,3,0,0,0,2.84,3.2,2.92,2.92,0,0,0,2.84-3.17A2.91,2.91,0,0,0,30.94,6.52Z" transform="translate(-1.27 -2.54)"/><path class="cls-1" d="M37.55,6.59l1-4H40.7L38.91,6.59Z" transform="translate(-1.27 -2.54)"/><path class="cls-1" d="M45.8,14.51c-2.25,0-3.83-1.33-3.91-3h2a1.71,1.71,0,0,0,1.87,1.4c1.12,0,1.72-.48,1.72-1.13C47.48,9.92,42,11,42,7.54c0-1.5,1.39-2.7,3.6-2.7s3.52,1.13,3.62,3H47.33a1.55,1.55,0,0,0-1.75-1.37c-1,0-1.59.42-1.59,1,0,1.89,5.29.83,5.39,4.22C49.38,13.32,48,14.51,45.8,14.51Z" transform="translate(-1.27 -2.54)"/><path class="cls-1" d="M66,8.49c0,3.64-2.49,5.86-6.28,5.86H55.89V2.54h3.86C63.54,2.54,66,4.84,66,8.49Zm-6.28,4.28c2.79,0,4.29-1.59,4.29-4.28s-1.5-4.37-4.29-4.37H57.83v8.65Z" transform="translate(-1.27 -2.54)"/><path class="cls-1" d="M72,14.51a4.57,4.57,0,0,1-4.69-4.85,4.78,4.78,0,1,1,9.55,0A4.69,4.69,0,0,1,72,14.51Zm0-1.68a2.88,2.88,0,0,0,2.87-3.17,2.83,2.83,0,0,0-2.82-3.14c-1.46,0-2.77,1-2.77,3.14S70.55,12.83,72,12.83Z" transform="translate(-1.27 -2.54)"/><path class="cls-1" d="M82.57,4.84a3.94,3.94,0,0,1,3.24,1.51V5h2v9.52A4.25,4.25,0,0,1,83.2,19c-2.5,0-4.36-1.24-4.59-3.32h1.92A2.61,2.61,0,0,0,83.2,17.3a2.49,2.49,0,0,0,2.61-2.79V12.94a4,4,0,0,1-3.24,1.57c-2.47,0-4.42-2-4.42-4.88A4.45,4.45,0,0,1,82.57,4.84ZM83,6.52a2.87,2.87,0,0,0-2.84,3.11A3,3,0,0,0,83,12.83a2.91,2.91,0,0,0,2.83-3.17A2.9,2.9,0,0,0,83,6.52Z" transform="translate(-1.27 -2.54)"/></svg>