<svg id="Layer_1" data-name="Layer 1" xmlns="http://www.w3.org/2000/svg" viewBox="0 0 115.55 13.24"><defs><style>.cls-1{fill:#709cdb;}</style></defs><path class="cls-1" d="M1.27,2.54h2.1l4.14,9.27,4.13-9.27h2.08V14.35H11.78V6.26l-3.6,8.09H6.83L3.21,6.26v8.09H1.27Z" transform="translate(-1.27 -1.27)"/><path class="cls-1" d="M20.33,14.51a4.57,4.57,0,0,1-4.69-4.85,4.62,4.62,0,0,1,4.78-4.82,4.61,4.61,0,0,1,4.77,4.82A4.69,4.69,0,0,1,20.33,14.51Zm0-1.68A2.88,2.88,0,0,0,23.2,9.66a2.83,2.83,0,0,0-2.82-3.14c-1.46,0-2.77,1-2.77,3.14S18.87,12.83,20.33,12.83Z" transform="translate(-1.27 -1.27)"/><path class="cls-1" d="M30.9,4.84A4.28,4.28,0,0,1,34.13,6.3V1.78h2V14.35h-2V12.94a3.87,3.87,0,0,1-3.24,1.57c-2.47,0-4.42-2-4.42-4.88A4.45,4.45,0,0,1,30.9,4.84Zm.4,1.68a2.87,2.87,0,0,0-2.84,3.11,3,3,0,0,0,2.84,3.2,2.91,2.91,0,0,0,2.83-3.17A2.9,2.9,0,0,0,31.3,6.52Z" transform="translate(-1.27 -1.27)"/><path class="cls-1" d="M42.67,14.51A4.55,4.55,0,0,1,38,9.66a4.48,4.48,0,0,1,4.68-4.82,4.36,4.36,0,0,1,4.55,4.6,6,6,0,0,1-.06,1H40a2.58,2.58,0,0,0,2.67,2.49,2.27,2.27,0,0,0,2.21-1.31H47A4.29,4.29,0,0,1,42.67,14.51ZM40,8.83H45.2a2.43,2.43,0,0,0-2.62-2.36A2.54,2.54,0,0,0,40,8.83Z" transform="translate(-1.27 -1.27)"/><path class="cls-1" d="M49.13,1.78h1.94V14.35H49.13Z" transform="translate(-1.27 -1.27)"/><path class="cls-1" d="M61.93,14.47c-2.36,0-4.18-1.29-4.18-3.38h2.07a1.9,1.9,0,0,0,2.11,1.75c1.36,0,2.12-.73,2.12-1.73,0-2.86-6.27-1-6.27-5.36,0-2.07,1.65-3.36,4.06-3.36,2.26,0,3.86,1.19,4,3.21H63.73a1.84,1.84,0,0,0-2-1.56c-1.12,0-2,.51-2,1.65,0,2.66,6.26,1,6.26,5.32C66,12.77,64.56,14.47,61.93,14.47Z" transform="translate(-1.27 -1.27)"/><path class="cls-1" d="M72.33,14.51a4.55,4.55,0,0,1-4.67-4.85,4.48,4.48,0,0,1,4.67-4.82,4.37,4.37,0,0,1,4.56,4.6,6,6,0,0,1-.07,1H69.66a2.58,2.58,0,0,0,2.67,2.49,2.26,2.26,0,0,0,2.21-1.31h2.09A4.27,4.27,0,0,1,72.33,14.51ZM69.68,8.83h5.19a2.44,2.44,0,0,0-2.62-2.36A2.55,2.55,0,0,0,69.68,8.83Z" transform="translate(-1.27 -1.27)"/><path class="cls-1" d="M80.73,14.35H78.79V5h1.94V6.35a3,3,0,0,1,2.81-1.51v2H83c-1.43,0-2.31.6-2.31,2.59Z" transform="translate(-1.27 -1.27)"/><path class="cls-1" d="M85.07,2.51a1.23,1.23,0,1,1,2.46,0,1.23,1.23,0,1,1-2.46,0ZM85.32,5h1.94v9.36H85.32Z" transform="translate(-1.27 -1.27)"/><path class="cls-1" d="M93.84,14.51a4.55,4.55,0,0,1-4.68-4.85,4.48,4.48,0,0,1,4.68-4.82,4.36,4.36,0,0,1,4.55,4.6,5,5,0,0,1-.07,1H91.17a2.58,2.58,0,0,0,2.67,2.49,2.27,2.27,0,0,0,2.21-1.31h2.09A4.29,4.29,0,0,1,93.84,14.51ZM91.19,8.83h5.18a2.43,2.43,0,0,0-2.62-2.36A2.54,2.54,0,0,0,91.19,8.83Z" transform="translate(-1.27 -1.27)"/><path class="cls-1" d="M103.7,14.51c-2.25,0-3.83-1.33-3.91-3h2a1.71,1.71,0,0,0,1.87,1.4c1.12,0,1.72-.48,1.72-1.13,0-1.83-5.44-.78-5.44-4.21,0-1.5,1.39-2.7,3.6-2.7s3.52,1.13,3.62,3h-1.93a1.55,1.55,0,0,0-1.75-1.37c-1,0-1.59.42-1.59,1,0,1.89,5.29.83,5.39,4.22C107.28,13.32,105.91,14.51,103.7,14.51Z" transform="translate(-1.27 -1.27)"/><path class="cls-1" d="M114.87,3.73h-1.58V2h3.53V14.35h-1.95Z" transform="translate(-1.27 -1.27)"/></svg>