<svg id="Layer_1" data-name="Layer 1" xmlns="http://www.w3.org/2000/svg" viewBox="0 0 185.7 17.52"><defs><style>.cls-1{fill:#709cdb;}</style></defs><path class="cls-1" d="M11,2.52V14.35H9L3.21,5.53v8.82H1.27V2.52H3.21L9,11.33V2.52Z" transform="translate(-1.27 -1.23)"/><path class="cls-1" d="M17.31,4.84a4,4,0,0,1,3.24,1.51V5h2v9.36h-2V13a4,4,0,0,1-3.28,1.55c-2.43,0-4.38-2-4.38-4.88A4.45,4.45,0,0,1,17.31,4.84Zm.4,1.68a2.88,2.88,0,0,0-2.84,3.11,3,3,0,0,0,2.84,3.2,2.91,2.91,0,0,0,2.84-3.17A2.9,2.9,0,0,0,17.71,6.52Z" transform="translate(-1.27 -1.23)"/><path class="cls-1" d="M25.36,6.57h-1.1V5h1.1V2.66h2V5H29.6V6.57H27.32v5.18c0,.7.27,1,1.09,1H29.6v1.61H28.07c-1.67,0-2.71-.69-2.71-2.6Z" transform="translate(-1.27 -1.23)"/><path class="cls-1" d="M31.13,2.51a1.23,1.23,0,1,1,2.46,0,1.23,1.23,0,1,1-2.46,0ZM31.38,5h1.94v9.36H31.38Z" transform="translate(-1.27 -1.23)"/><path class="cls-1" d="M39.93,14.51a4.57,4.57,0,0,1-4.69-4.85,4.78,4.78,0,1,1,9.55,0A4.69,4.69,0,0,1,39.93,14.51Zm0-1.68A2.88,2.88,0,0,0,42.8,9.66,2.83,2.83,0,0,0,40,6.52c-1.46,0-2.77,1-2.77,3.14S38.47,12.83,39.93,12.83Z" transform="translate(-1.27 -1.23)"/><path class="cls-1" d="M53.36,9.12c0-1.72-.93-2.6-2.35-2.6s-2.36.88-2.36,2.6v5.23H46.71V5h1.94V6.06a3.59,3.59,0,0,1,2.79-1.22,3.64,3.64,0,0,1,3.84,4v5.52H53.36Z" transform="translate(-1.27 -1.23)"/><path class="cls-1" d="M61.52,4.84a4,4,0,0,1,3.25,1.51V5h2v9.36h-2V13a4,4,0,0,1-3.28,1.55c-2.43,0-4.39-2-4.39-4.88A4.46,4.46,0,0,1,61.52,4.84Zm.41,1.68a2.87,2.87,0,0,0-2.84,3.11,3,3,0,0,0,2.84,3.2,2.92,2.92,0,0,0,2.84-3.17A2.91,2.91,0,0,0,61.93,6.52Z" transform="translate(-1.27 -1.23)"/><path class="cls-1" d="M69.27,1.78h1.94V14.35H69.27Z" transform="translate(-1.27 -1.23)"/><path class="cls-1" d="M89.06,5.94H86.73a3.35,3.35,0,0,0-3.16-1.78,4,4,0,0,0-4,4.26,4,4,0,0,0,4,4.29,3.58,3.58,0,0,0,3.77-3.28H82.91V7.88h6.51V9.39a5.83,5.83,0,0,1-5.85,5.07,5.9,5.9,0,0,1-6-6,5.91,5.91,0,0,1,6-6A5.63,5.63,0,0,1,89.06,5.94Z" transform="translate(-1.27 -1.23)"/><path class="cls-1" d="M95.1,4.84a4,4,0,0,1,3.24,1.51V5h2v9.36h-2V13a4,4,0,0,1-3.28,1.55c-2.43,0-4.38-2-4.38-4.88A4.45,4.45,0,0,1,95.1,4.84Zm.4,1.68a2.88,2.88,0,0,0-2.84,3.11,3,3,0,0,0,2.84,3.2,2.91,2.91,0,0,0,2.84-3.17A2.9,2.9,0,0,0,95.5,6.52Z" transform="translate(-1.27 -1.23)"/><path class="cls-1" d="M102.85,1.78h1.94V14.35h-1.94Z" transform="translate(-1.27 -1.23)"/><path class="cls-1" d="M107.34,1.78h1.93V14.35h-1.93Z" transform="translate(-1.27 -1.23)"/><path class="cls-1" d="M115.85,14.51a4.55,4.55,0,0,1-4.67-4.85,4.48,4.48,0,0,1,4.67-4.82,4.37,4.37,0,0,1,4.56,4.6,6,6,0,0,1-.07,1h-7.16a2.58,2.58,0,0,0,2.67,2.49,2.27,2.27,0,0,0,2.21-1.31h2.09A4.27,4.27,0,0,1,115.85,14.51ZM113.2,8.83h5.19a2.44,2.44,0,0,0-2.62-2.36A2.55,2.55,0,0,0,113.2,8.83Z" transform="translate(-1.27 -1.23)"/><path class="cls-1" d="M124.25,14.35h-1.94V5h1.94V6.35a3,3,0,0,1,2.81-1.51v2h-.5c-1.43,0-2.31.6-2.31,2.59Z" transform="translate(-1.27 -1.23)"/><path class="cls-1" d="M135.27,5h2l-5.74,13.77h-2l1.9-4.56L127.74,5h2.15l2.64,7.14Z" transform="translate(-1.27 -1.23)"/><path class="cls-1" d="M147.22,14.51a4.58,4.58,0,0,1-4.7-4.85,4.78,4.78,0,1,1,9.56,0A4.7,4.7,0,0,1,147.22,14.51Zm0-1.68a2.89,2.89,0,0,0,2.87-3.17,2.83,2.83,0,0,0-2.82-3.14c-1.46,0-2.77,1-2.77,3.14S145.75,12.83,147.22,12.83Z" transform="translate(-1.27 -1.23)"/><path class="cls-1" d="M154.24,6.57h-1.11V5h1.11V4.33c0-2.16,1.1-3.1,3.55-3.1V2.85c-1.19,0-1.6.4-1.6,1.48V5h1.74V6.57h-1.74v7.78h-1.95Z" transform="translate(-1.27 -1.23)"/><path class="cls-1" d="M171.18,11.94h-4.94l-.85,2.41h-2L167.6,2.52h2.24l4.23,11.83h-2Zm-2.46-7.07-1.94,5.49h3.86Z" transform="translate(-1.27 -1.23)"/><path class="cls-1" d="M177.85,14.35h-1.94V5h1.94V6.35a3,3,0,0,1,2.8-1.51v2h-.49c-1.43,0-2.31.6-2.31,2.59Z" transform="translate(-1.27 -1.23)"/><path class="cls-1" d="M182.75,6.57h-1.11V5h1.11V2.66h1.95V5H187V6.57H184.7v5.18c0,.7.27,1,1.09,1H187v1.61h-1.53c-1.67,0-2.7-.69-2.7-2.6Z" transform="translate(-1.27 -1.23)"/></svg>