<svg id="Layer_1" data-name="Layer 1" xmlns="http://www.w3.org/2000/svg" viewBox="0 0 105.94 16.44"><defs><style>.cls-1{fill:#709cdb;}</style></defs><path class="cls-1" d="M5.35,2.54c2.81,0,4.19,1.62,4.19,3.54A3.36,3.36,0,0,1,6.8,9.46l2.92,4.89H7.41L4.69,9.63H3.21v4.72H1.27V2.54Zm0,1.58H3.21v4H5.35c1.52,0,2.2-.83,2.2-2S6.87,4.12,5.35,4.12Z" transform="translate(-1.27 -2.54)"/><path class="cls-1" d="M16.08,14.51a4.57,4.57,0,0,1-4.69-4.85,4.62,4.62,0,0,1,4.78-4.82,4.61,4.61,0,0,1,4.77,4.82A4.69,4.69,0,0,1,16.08,14.51Zm0-1.68A2.88,2.88,0,0,0,19,9.66a2.83,2.83,0,0,0-2.82-3.14c-1.46,0-2.77,1-2.77,3.14S14.62,12.83,16.08,12.83Z" transform="translate(-1.27 -2.54)"/><path class="cls-1" d="M26.64,4.84a3.94,3.94,0,0,1,3.24,1.51V5h2v9.52A4.25,4.25,0,0,1,27.27,19c-2.5,0-4.36-1.24-4.59-3.32H24.6a2.61,2.61,0,0,0,2.67,1.64,2.49,2.49,0,0,0,2.61-2.79V12.94a4,4,0,0,1-3.24,1.57c-2.47,0-4.42-2-4.42-4.88A4.45,4.45,0,0,1,26.64,4.84Zm.41,1.68a2.87,2.87,0,0,0-2.84,3.11,3,3,0,0,0,2.84,3.2,2.91,2.91,0,0,0,2.83-3.17A2.9,2.9,0,0,0,27.05,6.52Z" transform="translate(-1.27 -2.54)"/><path class="cls-1" d="M42.87,14.35H40.93V13.23a3.47,3.47,0,0,1-2.77,1.26,3.66,3.66,0,0,1-3.85-4V5h1.92v5.22c0,1.71.93,2.6,2.34,2.6s2.36-.89,2.36-2.6V5h1.94Z" transform="translate(-1.27 -2.54)"/><path class="cls-1" d="M49.45,14.51a4.55,4.55,0,0,1-4.67-4.85,4.48,4.48,0,0,1,4.67-4.82A4.37,4.37,0,0,1,54,9.44a6,6,0,0,1-.07,1H46.78a2.58,2.58,0,0,0,2.67,2.49,2.27,2.27,0,0,0,2.21-1.31h2.09A4.28,4.28,0,0,1,49.45,14.51ZM46.8,8.83H52a2.43,2.43,0,0,0-2.61-2.36A2.55,2.55,0,0,0,46.8,8.83Z" transform="translate(-1.27 -2.54)"/><path class="cls-1" d="M59.38,2.54h2.06l2.44,9.62,2.66-9.62h2.17l2.47,9.57,2.46-9.57h2.07l-3.5,11.81H70L67.54,5.41,64.9,14.35l-2.17,0Z" transform="translate(-1.27 -2.54)"/><path class="cls-1" d="M81.09,4.84a4,4,0,0,1,3.24,1.51V5h2v9.36h-2V13a4,4,0,0,1-3.28,1.55c-2.43,0-4.38-2-4.38-4.88A4.45,4.45,0,0,1,81.09,4.84Zm.41,1.68a2.87,2.87,0,0,0-2.84,3.11,3,3,0,0,0,2.84,3.2,2.91,2.91,0,0,0,2.83-3.17A2.9,2.9,0,0,0,81.5,6.52Z" transform="translate(-1.27 -2.54)"/><path class="cls-1" d="M89.81,5l2.65,7.63L95.11,5h2.06L93.6,14.35H91.29L87.74,5Z" transform="translate(-1.27 -2.54)"/><path class="cls-1" d="M102.66,14.51A4.54,4.54,0,0,1,98,9.66a4.48,4.48,0,0,1,4.67-4.82,4.37,4.37,0,0,1,4.56,4.6,6,6,0,0,1-.07,1H100a2.58,2.58,0,0,0,2.67,2.49,2.27,2.27,0,0,0,2.21-1.31H107A4.28,4.28,0,0,1,102.66,14.51ZM100,8.83h5.18a2.43,2.43,0,0,0-2.61-2.36A2.55,2.55,0,0,0,100,8.83Z" transform="translate(-1.27 -2.54)"/></svg>