<svg id="Layer_1" data-name="Layer 1" xmlns="http://www.w3.org/2000/svg" viewBox="0 0 137.88 17.71"><defs><style>.cls-1{fill:#709cdb;}</style></defs><path class="cls-1" d="M5.17,14.47C2.8,14.47,1,13.18,1,11.09H3.06a1.89,1.89,0,0,0,2.11,1.75c1.36,0,2.12-.73,2.12-1.73,0-2.86-6.27-1-6.27-5.36C1,3.68,2.67,2.39,5.08,2.39c2.26,0,3.86,1.19,4,3.21H7A1.85,1.85,0,0,0,5,4C3.86,4,3,4.55,3,5.69c0,2.66,6.26,1,6.26,5.32C9.25,12.77,7.8,14.47,5.17,14.47Z" transform="translate(-0.99 -1.27)"/><path class="cls-1" d="M20,14.35H18.09V13.23a3.5,3.5,0,0,1-2.77,1.26,3.66,3.66,0,0,1-3.86-4V5h1.92v5.22c0,1.71.93,2.6,2.34,2.6a2.28,2.28,0,0,0,2.37-2.6V5H20Z" transform="translate(-0.99 -1.27)"/><path class="cls-1" d="M29.22,9.12c0-1.72-.93-2.6-2.34-2.6s-2.37.88-2.37,2.6v5.23H22.58V5h1.93V6.06A3.59,3.59,0,0,1,27.3,4.84a3.64,3.64,0,0,1,3.84,4v5.52H29.22Z" transform="translate(-0.99 -1.27)"/><path class="cls-1" d="M37.4,4.84A4.31,4.31,0,0,1,40.63,6.3V1.78h1.95V14.35H40.63V12.94a3.9,3.9,0,0,1-3.25,1.57c-2.46,0-4.42-2-4.42-4.88A4.46,4.46,0,0,1,37.4,4.84Zm.39,1.68A2.87,2.87,0,0,0,35,9.63a3,3,0,0,0,2.84,3.2,2.92,2.92,0,0,0,2.84-3.17A2.91,2.91,0,0,0,37.79,6.52Z" transform="translate(-0.99 -1.27)"/><path class="cls-1" d="M48.91,4.84a4,4,0,0,1,3.24,1.51V5h2v9.36h-2V13a4,4,0,0,1-3.28,1.55c-2.43,0-4.38-2-4.38-4.88A4.45,4.45,0,0,1,48.91,4.84Zm.41,1.68a2.87,2.87,0,0,0-2.84,3.11,3,3,0,0,0,2.84,3.2,2.91,2.91,0,0,0,2.83-3.17A2.9,2.9,0,0,0,49.32,6.52Z" transform="translate(-0.99 -1.27)"/><path class="cls-1" d="M63.08,5h2L59.35,18.76h-2l1.9-4.56L55.55,5h2.16l2.64,7.14Z" transform="translate(-0.99 -1.27)"/><path class="cls-1" d="M71,2.54h2.09l4.15,9.27,4.13-9.27h2.08V14.35H81.48V6.26l-3.61,8.09H76.53L72.91,6.26v8.09H71Z" transform="translate(-0.99 -1.27)"/><path class="cls-1" d="M90,14.51a4.57,4.57,0,0,1-4.69-4.85,4.78,4.78,0,1,1,9.55,0A4.69,4.69,0,0,1,90,14.51Zm0-1.68A2.89,2.89,0,0,0,92.9,9.66a2.83,2.83,0,0,0-2.82-3.14c-1.46,0-2.77,1-2.77,3.14S88.57,12.83,90,12.83Z" transform="translate(-0.99 -1.27)"/><path class="cls-1" d="M98.75,14.35H96.81V5h1.94V6.35a3,3,0,0,1,2.81-1.51v2h-.5c-1.43,0-2.31.6-2.31,2.59Z" transform="translate(-0.99 -1.27)"/><path class="cls-1" d="M110,9.12c0-1.72-.94-2.6-2.35-2.6s-2.36.88-2.36,2.6v5.23h-1.94V5h1.94V6.06a3.58,3.58,0,0,1,2.79-1.22,3.64,3.64,0,0,1,3.84,4v5.52H110Z" transform="translate(-0.99 -1.27)"/><path class="cls-1" d="M114.12,2.51a1.23,1.23,0,1,1,2.46,0,1.23,1.23,0,1,1-2.46,0ZM114.37,5h1.94v9.36h-1.94Z" transform="translate(-0.99 -1.27)"/><path class="cls-1" d="M125.51,9.12c0-1.72-.94-2.6-2.35-2.6s-2.36.88-2.36,2.6v5.23h-1.94V5h1.94V6.06a3.58,3.58,0,0,1,2.79-1.22,3.64,3.64,0,0,1,3.84,4v5.52h-1.92Z" transform="translate(-0.99 -1.27)"/><path class="cls-1" d="M133.67,4.84a3.94,3.94,0,0,1,3.24,1.51V5h2v9.52A4.25,4.25,0,0,1,134.3,19c-2.5,0-4.36-1.24-4.59-3.32h1.92a2.61,2.61,0,0,0,2.67,1.64,2.49,2.49,0,0,0,2.61-2.79V12.94a4,4,0,0,1-3.24,1.57c-2.47,0-4.42-2-4.42-4.88A4.45,4.45,0,0,1,133.67,4.84Zm.41,1.68a2.87,2.87,0,0,0-2.84,3.11,3,3,0,0,0,2.84,3.2,2.91,2.91,0,0,0,2.83-3.17A2.9,2.9,0,0,0,134.08,6.52Z" transform="translate(-0.99 -1.27)"/></svg>