<svg id="Layer_1" data-name="Layer 1" xmlns="http://www.w3.org/2000/svg" viewBox="0 0 124.96 13.24"><defs><style>.cls-1{fill:#709cdb;}</style></defs><path class="cls-1" d="M.66,2.54H8.91V4.12H5.76V14.35H3.82V4.12H.66Z" transform="translate(-0.66 -1.27)"/><path class="cls-1" d="M10.86,1.78H12.8v4.3a3.69,3.69,0,0,1,2.91-1.24c2.09,0,3.72,1.37,3.72,4v5.52H17.51V9.12c0-1.72-.94-2.6-2.35-2.6s-2.36.88-2.36,2.6v5.23H10.86Z" transform="translate(-0.66 -1.27)"/><path class="cls-1" d="M25.92,14.51a4.55,4.55,0,0,1-4.67-4.85,4.48,4.48,0,0,1,4.67-4.82,4.37,4.37,0,0,1,4.56,4.6,6,6,0,0,1-.07,1H23.26a2.57,2.57,0,0,0,2.66,2.49,2.26,2.26,0,0,0,2.21-1.31h2.09A4.27,4.27,0,0,1,25.92,14.51ZM23.27,8.83h5.19a2.44,2.44,0,0,0-2.62-2.36A2.55,2.55,0,0,0,23.27,8.83Z" transform="translate(-0.66 -1.27)"/><path class="cls-1" d="M40.7,14.47c-2.37,0-4.19-1.29-4.19-3.38h2.08a1.89,1.89,0,0,0,2.11,1.75c1.36,0,2.12-.73,2.12-1.73,0-2.86-6.27-1-6.27-5.36,0-2.07,1.65-3.36,4.06-3.36s3.86,1.19,4,3.21H42.5a1.85,1.85,0,0,0-2-1.56c-1.12,0-2,.51-2,1.65,0,2.66,6.26,1,6.26,5.32C44.78,12.77,43.33,14.47,40.7,14.47Z" transform="translate(-0.66 -1.27)"/><path class="cls-1" d="M46.82,2.51a1.23,1.23,0,1,1,2.46,0,1.23,1.23,0,1,1-2.46,0ZM47.07,5H49v9.36H47.07Z" transform="translate(-0.66 -1.27)"/><path class="cls-1" d="M55.35,4.84A4.29,4.29,0,0,1,58.58,6.3V1.78h2V14.35h-2V12.94a3.9,3.9,0,0,1-3.25,1.57c-2.46,0-4.42-2-4.42-4.88A4.46,4.46,0,0,1,55.35,4.84Zm.39,1.68A2.88,2.88,0,0,0,52.9,9.63a3,3,0,0,0,2.84,3.2,2.92,2.92,0,0,0,2.84-3.17A2.91,2.91,0,0,0,55.74,6.52Z" transform="translate(-0.66 -1.27)"/><path class="cls-1" d="M67.11,14.51a4.55,4.55,0,0,1-4.67-4.85,4.48,4.48,0,0,1,4.67-4.82,4.37,4.37,0,0,1,4.56,4.6,6,6,0,0,1-.07,1H64.45a2.57,2.57,0,0,0,2.66,2.49,2.26,2.26,0,0,0,2.21-1.31h2.09A4.27,4.27,0,0,1,67.11,14.51ZM64.46,8.83h5.19A2.44,2.44,0,0,0,67,6.47,2.55,2.55,0,0,0,64.46,8.83Z" transform="translate(-0.66 -1.27)"/><path class="cls-1" d="M82.07,2.54c2.81,0,4.19,1.62,4.19,3.54a3.36,3.36,0,0,1-2.74,3.38l2.92,4.89H84.13L81.41,9.63H79.93v4.72H78V2.54Zm0,1.58H79.93v4h2.14c1.52,0,2.2-.83,2.2-2S83.59,4.12,82.07,4.12Z" transform="translate(-0.66 -1.27)"/><path class="cls-1" d="M92.8,14.51a4.57,4.57,0,0,1-4.69-4.85,4.78,4.78,0,1,1,9.55,0A4.69,4.69,0,0,1,92.8,14.51Zm0-1.68a2.89,2.89,0,0,0,2.87-3.17,2.83,2.83,0,0,0-2.82-3.14c-1.46,0-2.77,1-2.77,3.14S91.34,12.83,92.8,12.83Z" transform="translate(-0.66 -1.27)"/><path class="cls-1" d="M103.65,14.51A4.58,4.58,0,0,1,99,9.66a4.78,4.78,0,1,1,9.56,0A4.7,4.7,0,0,1,103.65,14.51Zm0-1.68a2.89,2.89,0,0,0,2.87-3.17,2.83,2.83,0,0,0-2.82-3.14c-1.46,0-2.77,1-2.77,3.14S102.18,12.83,103.65,12.83Z" transform="translate(-0.66 -1.27)"/><path class="cls-1" d="M123.7,9.12c0-1.72-.93-2.6-2.34-2.6S119,7.4,119,9.12v5.23h-1.92V9.12c0-1.72-.94-2.6-2.35-2.6s-2.36.88-2.36,2.6v5.23h-1.94V5h1.94V6.06a3.88,3.88,0,0,1,6.13.63,3.85,3.85,0,0,1,7.13,2.14v5.52H123.7Z" transform="translate(-0.66 -1.27)"/></svg>