<svg id="Layer_1" data-name="Layer 1" xmlns="http://www.w3.org/2000/svg" viewBox="0 0 63.58 13.24"><defs><style>.cls-1{fill:#709cdb;}</style></defs><path class="cls-1" d="M.66,2.54H8.91V4.12H5.76V14.35H3.82V4.12H.66Z" transform="translate(-0.66 -1.27)"/><path class="cls-1" d="M9.76,5h2l1.95,7.53,2-7.53h2l1.9,7.5L21.54,5h1.9l-2.91,9.36h-2L16.61,7.44l-1.89,6.91h-2Z" transform="translate(-0.66 -1.27)"/><path class="cls-1" d="M24.63,2.51a1.24,1.24,0,1,1,1.24,1.24A1.23,1.23,0,0,1,24.63,2.51ZM24.89,5h1.94v9.36H24.89Z" transform="translate(-0.66 -1.27)"/><path class="cls-1" d="M32.77,14.51c-2.24,0-3.82-1.33-3.9-3h2a1.71,1.71,0,0,0,1.87,1.4c1.12,0,1.72-.48,1.72-1.13C34.46,9.92,29,11,29,7.54c0-1.5,1.39-2.7,3.6-2.7s3.52,1.13,3.62,3H34.31a1.55,1.55,0,0,0-1.76-1.37c-1,0-1.58.42-1.58,1,0,1.89,5.29.83,5.39,4.22C36.36,13.32,35,14.51,32.77,14.51Z" transform="translate(-0.66 -1.27)"/><path class="cls-1" d="M38.76,6.57H37.65V5h1.11V2.66h2V5H43V6.57H40.71v5.18c0,.7.28,1,1.09,1H43v1.61H41.46c-1.66,0-2.7-.69-2.7-2.6Z" transform="translate(-0.66 -1.27)"/><path class="cls-1" d="M48.81,14.51a4.55,4.55,0,0,1-4.68-4.85,4.48,4.48,0,0,1,4.68-4.82,4.37,4.37,0,0,1,4.55,4.6,6,6,0,0,1-.07,1H46.14a2.58,2.58,0,0,0,2.67,2.49A2.27,2.27,0,0,0,51,11.57h2.09A4.29,4.29,0,0,1,48.81,14.51ZM46.15,8.83h5.19a2.44,2.44,0,0,0-2.62-2.36A2.55,2.55,0,0,0,46.15,8.83Z" transform="translate(-0.66 -1.27)"/><path class="cls-1" d="M59.06,4.84A4.31,4.31,0,0,1,62.29,6.3V1.78h1.95V14.35H62.29V12.94A3.9,3.9,0,0,1,59,14.51c-2.47,0-4.42-2-4.42-4.88A4.46,4.46,0,0,1,59.06,4.84Zm.39,1.68a2.87,2.87,0,0,0-2.84,3.11,3,3,0,0,0,2.84,3.2,2.92,2.92,0,0,0,2.84-3.17A2.91,2.91,0,0,0,59.45,6.52Z" transform="translate(-0.66 -1.27)"/></svg>